<?xml version="1.0" encoding="UTF-8"?>
<svg id="A" xmlns="http://www.w3.org/2000/svg" viewBox="0 0 6458.24 9717.95">
  <defs>
    <style>
      .cls-1, .cls-2 {
        fill: #1d1d1b;
      }

      .cls-2 {
        stroke: #000;
        stroke-miterlimit: 10;
        stroke-width: 1.02px;
      }
    </style>
  </defs>
  <path class="cls-1" d="M722.06,290.69c24.11-11.8,41.83-31.42,51.62-54.3,4.47-10.44,15.95-16.09,26.93-13.21,25.58,6.71,53.74,4.09,79.05-9.75,48.46-26.51,69.03-86.32,47.12-137.02-24.56-56.85-91.29-81.06-146.28-54.15-24.11,11.8-41.83,31.42-51.62,54.3-4.47,10.46-15.96,16.08-26.97,13.2-24.08-6.31-50.44-4.35-74.55,7.45-24.11,11.8-41.83,31.42-51.62,54.3-4.47,10.46-15.96,16.08-26.97,13.2-24.08-6.31-50.44-4.35-74.55,7.45-24.11,11.8-41.83,31.42-51.62,54.3-4.47,10.46-15.96,16.08-26.97,13.2-24.08-6.31-50.44-4.35-74.55,7.45-24.11,11.8-41.83,31.42-51.62,54.3-4.47,10.44-15.95,16.09-26.93,13.21-25.58-6.71-53.75-4.09-79.05,9.75-48.45,26.51-69.03,86.32-47.12,137.02,24.57,56.85,91.29,81.06,146.28,54.15,24.11-11.8,41.83-31.42,51.62-54.3,4.47-10.46,15.96-16.08,26.97-13.2,24.08,6.31,50.44,4.35,74.55-7.45,24.11-11.8,41.83-31.42,51.62-54.3,4.47-10.46,15.96-16.08,26.97-13.2,24.08,6.31,50.44,4.35,74.55-7.45,24.11-11.8,41.83-31.42,51.62-54.3,4.47-10.46,15.96-16.08,26.97-13.2,24.08,6.31,50.44,4.35,74.55-7.45Z"/>
  <path class="cls-1" d="M421.83,432.76c-22.15-15.17-47.95-20.92-72.69-18.17-11.29,1.26-21.86-5.95-24.76-16.93-6.76-25.57-22.92-48.79-47.43-63.99-46.94-29.11-109.12-17.55-142.45,26.5-37.37,49.38-25.57,119.38,24.94,153.97,22.15,15.17,47.95,20.92,72.69,18.17,11.3-1.26,21.86,5.97,24.77,16.97,6.37,24.06,21.06,46.04,43.21,61.21,22.15,15.17,47.95,20.92,72.69,18.17,11.3-1.26,21.86,5.97,24.77,16.97,6.37,24.06,21.06,46.04,43.21,61.21,22.15,15.17,47.95,20.92,72.69,18.17,11.3-1.26,21.86,5.97,24.77,16.97,6.37,24.06,21.06,46.04,43.21,61.21,22.15,15.17,47.95,20.92,72.69,18.17,11.29-1.26,21.86,5.95,24.76,16.93,6.76,25.57,22.92,48.79,47.43,63.99,46.94,29.11,109.12,17.54,142.45-26.5,37.37-49.38,25.57-119.38-24.94-153.97-22.15-15.17-47.95-20.92-72.69-18.17-11.3,1.26-21.86-5.97-24.77-16.97-6.37-24.06-21.06-46.04-43.21-61.21-22.15-15.17-47.95-20.92-72.69-18.17-11.3,1.26-21.86-5.97-24.77-16.97-6.37-24.06-21.06-46.04-43.21-61.21-22.15-15.17-47.95-20.92-72.69-18.17-11.3,1.26-21.86-5.97-24.77-16.97-6.37-24.06-21.06-46.04-43.21-61.21Z"/>
  <path class="cls-1" d="M260.52,782.08c-26.55,3.95-49.38,17.28-65.64,36.13-7.42,8.6-20.07,10.51-29.67,4.43-22.35-14.14-49.98-20.17-78.29-14.63-54.21,10.6-91.92,61.38-86.38,116.33,6.2,61.62,62.47,104.89,123.02,95.88,26.55-3.95,49.38-17.28,65.64-36.13,7.43-8.61,20.08-10.49,29.7-4.42,21.04,13.3,46.76,19.41,73.31,15.47s49.38-17.28,65.64-36.13c7.43-8.61,20.08-10.49,29.7-4.42,21.04,13.3,46.76,19.41,73.31,15.47,26.55-3.95,49.38-17.28,65.64-36.13,7.43-8.61,20.08-10.49,29.7-4.42,21.04,13.3,46.76,19.41,73.31,15.47,26.55-3.95,49.38-17.28,65.64-36.13,7.42-8.6,20.07-10.51,29.67-4.43,22.35,14.14,49.99,20.17,78.29,14.63,54.21-10.6,91.92-61.38,86.38-116.33-6.21-61.62-62.47-104.89-123.02-95.88-26.55,3.95-49.38,17.28-65.64,36.13-7.43,8.61-20.08,10.49-29.7,4.42-21.04-13.3-46.76-19.41-73.31-15.47-26.55,3.95-49.38,17.28-65.64,36.13-7.43,8.61-20.08,10.49-29.7,4.42-21.04-13.3-46.76-19.41-73.31-15.47-26.55,3.95-49.38,17.28-65.64,36.13-7.43,8.61-20.08,10.49-29.7,4.42-21.04-13.3-46.76-19.41-73.31-15.47Z"/>
  <ellipse class="cls-1" cx="498.73" cy="76.6" rx="125.87" ry="50.42" transform="translate(28.49 259.55) rotate(-29.99)"/>
  <g>
    <circle class="cls-1" cx="1582.2" cy="406.73" r="105.24"/>
    <path class="cls-1" d="M1377.34,381.65c20.1-15.21,33.17-36.25,38.64-58.96,2.19-9.11,10.53-15.4,19.9-15.1,23.22.74,46.83-6.19,66.75-21.37,19.92-15.18,32.88-36.1,38.33-58.68,2.2-9.11,10.48-15.47,19.85-15.17,23.35.76,47.1-6.24,67.1-21.58,45.12-34.61,54.29-99.69,20.47-145.4-34.82-47.06-101.29-56.41-147.71-21.05-19.92,15.18-32.88,36.1-38.33,58.68-2.2,9.13-10.52,15.47-19.91,15.17-23.22-.74-46.83,6.19-66.76,21.37-19.92,15.18-32.88,36.1-38.33,58.68-2.2,9.13-10.52,15.47-19.91,15.17-23.22-.74-46.83,6.19-66.76,21.37-46.42,35.36-55.06,101.91-18.95,147.99,35.08,44.75,100.26,53.2,145.61,18.9Z"/>
    <g>
      <path class="cls-1" d="M1249.84,583.65c21.34,13.42,45.64,18.18,68.82,15.25,9.29-1.17,18.13,4.4,21.17,13.26,7.53,21.98,22.38,41.61,43.62,54.86,21.25,13.26,45.4,17.97,68.45,15.07,9.29-1.17,18.18,4.32,21.21,13.19,7.56,22.11,22.52,41.84,43.95,55.11,48.34,29.94,112.46,15.47,143.23-32.35,31.68-49.23,16.88-114.7-32.62-145.59-21.25-13.26-45.4-17.97-68.45-15.07-9.32,1.17-18.19-4.37-21.23-13.25-7.53-21.98-22.38-41.61-43.62-54.86-21.25-13.26-45.4-17.97-68.45-15.07-9.32,1.17-18.19-4.37-21.23-13.25-7.53-21.98-22.38-41.61-43.62-54.86-49.5-30.89-114.81-15.41-145.11,34.68-29.43,48.66-14.25,112.61,33.89,142.87Z"/>
      <circle class="cls-1" cx="1188.69" cy="410.55" r="105.24"/>
    </g>
    <path class="cls-1" d="M1237.94,852.9c21.34,13.42,45.64,18.18,68.82,15.25,9.29-1.17,18.13,4.4,21.17,13.26,7.53,21.98,22.38,41.61,43.62,54.86,21.25,13.26,45.4,17.97,68.45,15.07,9.29-1.17,18.18,4.32,21.21,13.19,7.56,22.11,22.52,41.84,43.95,55.11,48.34,29.94,112.46,15.47,143.23-32.35,31.68-49.23,16.88-114.7-32.62-145.59-21.25-13.26-45.4-17.97-68.45-15.07-9.32,1.17-18.19-4.37-21.23-13.25-7.53-21.98-22.38-41.61-43.62-54.86-21.25-13.26-45.4-17.97-68.45-15.07-9.32,1.17-18.19-4.37-21.23-13.25-7.53-21.98-22.38-41.61-43.62-54.86-49.5-30.89-114.81-15.41-145.11,34.68-29.43,48.66-14.25,112.61,33.89,142.87Z"/>
    <g>
      <path class="cls-1" d="M1626.42,281.25c21.34,13.42,45.64,18.18,68.82,15.25,9.29-1.17,18.13,4.4,21.17,13.26,7.53,21.98,22.38,41.61,43.62,54.86,21.25,13.26,45.4,17.97,68.45,15.07,9.29-1.17,18.18,4.32,21.21,13.19,7.56,22.11,22.52,41.84,43.95,55.11,48.34,29.94,112.46,15.47,143.23-32.35,31.68-49.23,16.88-114.7-32.62-145.59-21.25-13.26-45.4-17.97-68.45-15.07-9.32,1.17-18.19-4.37-21.23-13.25-7.53-21.98-22.38-41.61-43.62-54.86-21.25-13.26-45.4-17.97-68.45-15.07-9.32,1.17-18.19-4.37-21.23-13.25-7.53-21.98-22.38-41.61-43.62-54.86-49.5-30.89-114.81-15.41-145.11,34.68-29.43,48.66-14.25,112.61,33.89,142.87Z"/>
      <circle class="cls-1" cx="1565.27" cy="108.15" r="105.24"/>
    </g>
  </g>
  <g>
    <path class="cls-1" d="M2867.05,821.77c-.11,11.11,10.97,21.31,29.51,29.29,7.43,3.2,7.37,7.81-.05,11.01-18.42,7.94-29.46,18.07-29.46,29.11s11.04,21.17,29.46,29.11c7.42,3.2,7.48,7.81.05,11.01-18.53,7.98-29.61,18.18-29.51,29.29.24,25.06,58.29,45.66,129.71,46.01,73.53.36,133.45-20.45,133.45-46.17,0-11.04-11.04-21.17-29.46-29.11-7.44-3.21-7.44-7.82,0-11.03,18.42-7.94,29.46-18.07,29.46-29.11s-11.04-21.17-29.46-29.11c-7.44-3.21-7.44-7.82,0-11.03,18.42-7.94,29.46-18.07,29.46-29.11,0-25.72-59.92-46.52-133.45-46.17-71.42.35-129.47,20.95-129.71,46.01Z"/>
    <path class="cls-1" d="M2450.72,427.71c19.69-15.94,32.11-37.5,36.85-60.49,1.9-9.22,10.07-15.82,19.48-15.83,23.34-.02,46.83-7.77,66.33-23.67,19.51-15.9,31.83-37.34,36.56-60.2,1.91-9.22,10.02-15.89,19.43-15.89,23.48,0,47.1-7.83,66.68-23.9,44.17-36.25,51.23-101.92,15.74-146.71-36.53-46.11-103.59-53.3-149.04-16.25-19.51,15.9-31.83,37.34-36.56,60.2-1.91,9.24-10.06,15.88-19.49,15.89-23.34.02-46.83,7.77-66.34,23.67-19.51,15.9-31.83,37.34-36.56,60.2-1.91,9.24-10.06,15.88-19.49,15.89-23.34.02-46.83,7.77-66.34,23.67-45.45,37.05-51.93,104.17-14.13,149.25,36.71,43.78,102.46,50.11,146.87,14.16Z"/>
    <path class="cls-1" d="M2815.84,621.63c14.48,21.9,35.74,36.62,59.16,43.24,10.69,3.02,17.61,13.44,16.2,24.46-3.29,25.66,2.79,52.65,19.4,75.45,31.81,43.67,92.41,56.1,138.83,28.47,52.06-30.98,67.15-98.74,34.13-148.7-14.48-21.9-35.74-36.62-59.17-43.24-10.71-3.02-17.6-13.46-16.19-24.5,3.09-24.15-2.12-49.47-16.6-71.38-14.48-21.9-35.74-36.62-59.17-43.24-10.71-3.02-17.6-13.46-16.19-24.5,3.09-24.15-2.12-49.47-16.6-71.38-14.48-21.9-35.74-36.62-59.17-43.24-10.71-3.02-17.6-13.46-16.19-24.5,3.09-24.15-2.12-49.47-16.6-71.38-14.48-21.9-35.74-36.62-59.16-43.24-10.69-3.02-17.61-13.44-16.2-24.46,3.29-25.66-2.79-52.65-19.4-75.45-31.81-43.67-92.41-56.1-138.84-28.47-52.05,30.98-67.14,98.74-34.12,148.69,14.48,21.9,35.74,36.62,59.17,43.24,10.71,3.02,17.6,13.46,16.19,24.5-3.09,24.15,2.12,49.47,16.6,71.38,14.48,21.9,35.74,36.62,59.17,43.24,10.71,3.02,17.6,13.46,16.19,24.5-3.09,24.15,2.12,49.47,16.6,71.38,14.48,21.9,35.74,36.62,59.17,43.24,10.71,3.02,17.6,13.46,16.19,24.5-3.09,24.15,2.12,49.47,16.6,71.38Z"/>
  </g>
  <path class="cls-1" d="M3975.17,490.21c26.26,0,50.26-9.62,68.7-25.51,8.42-7.25,20.93-7.28,29.34-.02,19.59,16.89,45.46,26.7,73.64,25.42,53.97-2.46,97.76-46.15,100.31-100.12,2.86-60.51-45.35-110.47-105.23-110.47-26.26,0-50.26,9.62-68.7,25.51-8.43,7.26-20.94,7.26-29.37,0-18.44-15.89-42.44-25.51-68.7-25.51-26.26,0-50.26,9.62-68.7,25.51-8.43,7.26-20.94,7.26-29.37,0-18.44-15.89-42.44-25.51-68.7-25.51-26.26,0-50.26,9.62-68.7,25.51-8.43,7.26-20.94,7.26-29.37,0-18.44-15.89-42.44-25.51-68.7-25.51-26.26,0-50.26,9.62-68.7,25.51-8.42,7.25-20.93,7.28-29.34.02-19.59-16.89-45.46-26.7-73.64-25.42-53.97,2.46-97.76,46.16-100.31,100.12-2.86,60.51,45.35,110.46,105.23,110.46,26.26,0,50.26-9.62,68.7-25.51,8.43-7.26,20.94-7.26,29.37,0,18.44,15.89,42.44,25.51,68.7,25.51,26.26,0,50.26-9.62,68.7-25.51,8.43-7.26,20.94-7.26,29.37,0,18.44,15.89,42.44,25.51,68.7,25.51,26.26,0,50.26-9.62,68.7-25.51,8.43-7.26,20.94-7.26,29.37,0,18.44,15.89,42.44,25.51,68.7,25.51Z"/>
  <path class="cls-1" d="M3670.33,623.95c-21.1,16.81-34.26,39.86-38.96,64.37-2.14,11.19-12.18,19.21-23.56,18.8-26.5-.96-53.53,7.76-75.35,26.83-41.8,36.51-49.16,99.47-16.85,144.22,36.23,50.19,106.77,59.25,154.88,20.92,21.1-16.81,34.26-39.86,38.96-64.37,2.15-11.2,12.2-19.21,23.59-18.8,24.94.9,50.35-6.78,71.44-23.59,21.1-16.81,34.26-39.86,38.96-64.37,2.15-11.2,12.2-19.21,23.59-18.8,24.94.9,50.34-6.78,71.44-23.59,21.1-16.81,34.26-39.86,38.96-64.37,2.15-11.2,12.2-19.21,23.59-18.8,24.94.9,50.35-6.78,71.44-23.59,21.1-16.81,34.26-39.86,38.96-64.37,2.14-11.19,12.18-19.21,23.56-18.8,26.5.96,53.53-7.76,75.36-26.83,41.8-36.51,49.16-99.47,16.85-144.23-36.23-50.19-106.77-59.25-154.88-20.92-21.1,16.81-34.26,39.86-38.96,64.37-2.15,11.2-12.2,19.21-23.59,18.8-24.94-.9-50.34,6.78-71.44,23.59-21.1,16.81-34.26,39.86-38.96,64.37-2.15,11.2-12.2,19.21-23.59,18.8-24.94-.9-50.34,6.78-71.44,23.59-21.1,16.81-34.26,39.86-38.96,64.37-2.15,11.2-12.2,19.21-23.59,18.8-24.94-.9-50.34,6.78-71.44,23.59Z"/>
  <g>
    <path class="cls-1" d="M5270.47,440.76c.09-25.33-8.78-48.58-23.61-66.78-5.94-7.3-5.9-17.8.04-25.1,14.73-18.11,23.57-41.21,23.57-66.37s-8.83-48.26-23.57-66.37c-5.94-7.3-5.99-17.8-.04-25.1,14.83-18.2,23.69-41.45,23.61-66.78-.19-57.14-46.63-104.1-103.76-104.9-58.82-.82-106.76,46.62-106.76,105.25,0,25.17,8.83,48.26,23.57,66.37,5.96,7.32,5.96,17.83,0,25.15-14.73,18.11-23.57,41.21-23.57,66.37s8.83,48.26,23.57,66.37c5.96,7.32,5.96,17.83,0,25.15-14.73,18.11-23.57,41.21-23.57,66.37,0,58.63,47.94,106.07,106.76,105.25,57.13-.79,103.58-47.75,103.77-104.89Z"/>
    <g>
      <circle class="cls-1" cx="4691.2" cy="124.34" r="105"/>
      <circle class="cls-1" cx="5165.2" cy="124.34" r="105"/>
      <circle class="cls-1" cx="5007.2" cy="124.34" r="105"/>
      <circle class="cls-1" cx="4849.2" cy="124.34" r="105"/>
    </g>
    <path class="cls-1" d="M4647.72,700.6c-24.06,12.2-41.6,32.12-51.15,55.17-4.36,10.52-15.81,16.36-26.87,13.65-25.76-6.29-53.99-3.21-79.22,11.05-48.31,27.31-68.24,87.49-45.64,137.85,25.34,56.47,92.6,79.6,147.46,51.77,24.06-12.2,41.6-32.12,51.15-55.17,4.36-10.53,15.83-16.35,26.91-13.64,24.24,5.92,50.68,3.53,74.74-8.67,24.06-12.2,41.6-32.12,51.15-55.17,4.36-10.53,15.83-16.35,26.91-13.64,24.24,5.92,50.68,3.53,74.73-8.67,24.06-12.2,41.6-32.12,51.15-55.17,4.36-10.53,15.83-16.35,26.91-13.64,24.24,5.92,50.68,3.53,74.74-8.67,24.06-12.2,41.6-32.12,51.15-55.17,4.36-10.52,15.81-16.36,26.87-13.65,25.76,6.29,53.99,3.21,79.22-11.05,48.31-27.32,68.23-87.49,45.63-137.85-25.34-56.47-92.6-79.59-147.46-51.77-24.06,12.2-41.6,32.12-51.15,55.17-4.36,10.53-15.83,16.35-26.91,13.64-24.24-5.92-50.68-3.53-74.73,8.67-24.06,12.2-41.6,32.12-51.15,55.17-4.36,10.53-15.83,16.35-26.91,13.64-24.24-5.92-50.68-3.53-74.73,8.67-24.06,12.2-41.6,32.12-51.15,55.17-4.36,10.53-15.83,16.35-26.91,13.64-24.24-5.92-50.68-3.53-74.73,8.67Z"/>
    <circle class="cls-1" cx="4875.57" cy="387.5" r="105.24"/>
  </g>
  <path class="cls-1" d="M6199,349.49c26.09-2.95,48.86-15.2,65.4-33.06,7.55-8.15,19.98-9.58,29.15-3.32,21.36,14.59,48.17,21.43,76.03,16.99,53.35-8.5,91.96-56.84,88.43-110.75-3.95-60.45-57.46-104.67-116.96-97.95-26.09,2.95-48.86,15.2-65.4,33.06-7.56,8.16-19.99,9.57-29.18,3.3-20.11-13.72-45.04-20.58-71.13-17.63-26.09,2.95-48.86,15.2-65.4,33.06-7.56,8.16-19.99,9.57-29.18,3.3-20.11-13.72-45.04-20.58-71.13-17.63-26.09,2.95-48.86,15.2-65.4,33.06-7.56,8.16-19.99,9.57-29.18,3.3-20.11-13.72-45.04-20.58-71.13-17.63-26.09,2.95-48.86,15.2-65.4,33.06-7.55,8.15-19.98,9.58-29.15,3.32-21.36-14.59-48.17-21.43-76.03-16.99-53.35,8.5-91.95,56.84-88.43,110.75,3.95,60.45,57.47,104.67,116.96,97.95,26.09-2.95,48.86-15.2,65.4-33.06,7.56-8.16,19.99-9.57,29.18-3.3,20.11,13.72,45.04,20.58,71.13,17.63,26.09-2.95,48.86-15.2,65.4-33.06,7.56-8.16,19.99-9.57,29.18-3.3,20.11,13.72,45.04,20.58,71.13,17.63,26.09-2.95,48.86-15.2,65.4-33.06,7.56-8.16,19.99-9.57,29.18-3.3,20.11,13.72,45.04,20.58,71.13,17.63Z"/>
  <path class="cls-1" d="M5866.75,399.21c-22.34,13.79-37.72,34.58-45.06,57.79-3.35,10.59-13.98,17.18-24.96,15.43-25.54-4.09-52.71,1.15-76.02,17.05-44.63,30.43-58.95,90.62-32.78,137.88,29.34,52.99,96.61,70.18,147.56,38.74,22.34-13.79,37.72-34.58,45.06-57.79,3.36-10.61,14-17.18,24.99-15.42,24.04,3.84,49.52-.58,71.86-14.37,22.34-13.79,37.72-34.58,45.06-57.79,3.36-10.61,14-17.18,24.99-15.42,24.04,3.84,49.52-.58,71.86-14.37,22.34-13.79,37.72-34.58,45.06-57.79,3.36-10.61,14-17.18,24.99-15.42,24.04,3.84,49.52-.58,71.86-14.37,22.34-13.79,37.72-34.58,45.06-57.79,3.35-10.59,13.98-17.18,24.96-15.43,25.54,4.09,52.71-1.15,76.02-17.05,44.63-30.44,58.94-90.62,32.77-137.88-29.34-52.99-96.61-70.18-147.56-38.73-22.34,13.79-37.72,34.58-45.06,57.79-3.36,10.61-14,17.18-24.99,15.42-24.04-3.84-49.52.58-71.86,14.37-22.34,13.79-37.72,34.58-45.06,57.79-3.36,10.61-14,17.18-24.99,15.42-24.04-3.84-49.52.58-71.86,14.37-22.34,13.79-37.72,34.58-45.06,57.79-3.36,10.61-14,17.18-24.99,15.42-24.04-3.84-49.52.58-71.86,14.37Z"/>
  <path class="cls-1" d="M5831.13,597.63c-25.62-5.76-51.14-1.64-72.62,9.83-9.8,5.23-22.01,2.51-28.63-6.41-15.41-20.78-38.5-36.02-66.27-40.95-53.19-9.44-105.5,23.6-119.82,75.69-16.06,58.41,20.02,117.72,78.44,130.85,25.62,5.76,51.14,1.64,72.62-9.83,9.81-5.24,22.02-2.49,28.65,6.44,14.51,19.55,35.82,34.2,61.43,39.95,25.62,5.76,51.14,1.64,72.62-9.83,9.81-5.24,22.02-2.49,28.65,6.44,14.51,19.55,35.82,34.2,61.43,39.95,25.62,5.76,51.14,1.64,72.62-9.83,9.81-5.24,22.02-2.49,28.65,6.44,14.51,19.55,35.82,34.2,61.43,39.95,25.62,5.76,51.14,1.64,72.62-9.83,9.8-5.23,22.01-2.51,28.63,6.41,15.41,20.78,38.5,36.02,66.28,40.95,53.19,9.44,105.5-23.6,119.82-75.69,16.06-58.41-20.02-117.72-78.45-130.85-25.62-5.76-51.14-1.64-72.62,9.83-9.81,5.24-22.02,2.49-28.65-6.44-14.51-19.55-35.82-34.2-61.43-39.95-25.62-5.76-51.14-1.64-72.62,9.83-9.81,5.24-22.02,2.49-28.65-6.44-14.51-19.55-35.82-34.2-61.43-39.95-25.62-5.76-51.14-1.64-72.62,9.83-9.81,5.24-22.02,2.49-28.65-6.44-14.51-19.55-35.82-34.2-61.43-39.95Z"/>
  <circle class="cls-1" cx="5584.68" cy="406.35" r="105.26"/>
  <g>
    <path class="cls-1" d="M307.14,1909.21c.11,11.11-10.97,21.31-29.51,29.29-7.43,3.2-7.37,7.81.05,11.01,18.42,7.94,29.46,18.07,29.46,29.11,0,11.04-11.04,21.17-29.46,29.11-7.42,3.2-7.48,7.81-.05,11.01,18.53,7.98,29.61,18.18,29.51,29.29-.24,25.06-58.29,45.66-129.71,46.01-73.53.36-133.45-20.45-133.45-46.17,0-11.04,11.04-21.17,29.46-29.11,7.44-3.21,7.44-7.82,0-11.03-18.42-7.94-29.46-18.07-29.46-29.11s11.04-21.17,29.46-29.11c7.44-3.21,7.44-7.82,0-11.03-18.42-7.94-29.46-18.07-29.46-29.11,0-25.72,59.92-46.52,133.45-46.17,71.42.35,129.47,20.95,129.71,46.01Z"/>
    <path class="cls-1" d="M723.46,1515.15c-19.69-15.94-32.11-37.5-36.85-60.49-1.9-9.22-10.07-15.82-19.48-15.83-23.34-.02-46.83-7.77-66.33-23.67-19.51-15.9-31.83-37.34-36.56-60.2-1.91-9.22-10.02-15.89-19.43-15.89-23.48,0-47.1-7.83-66.68-23.9-44.17-36.25-51.23-101.92-15.74-146.71,36.53-46.11,103.59-53.3,149.04-16.25,19.51,15.9,31.83,37.34,36.56,60.2,1.91,9.24,10.06,15.88,19.49,15.89,23.34.02,46.83,7.77,66.34,23.67,19.51,15.9,31.83,37.34,36.56,60.2,1.91,9.24,10.06,15.88,19.49,15.89,23.34.02,46.83,7.77,66.34,23.67,45.45,37.05,51.93,104.17,14.13,149.25-36.71,43.78-102.46,50.11-146.87,14.16Z"/>
    <path class="cls-1" d="M358.35,1709.07c-14.48,21.9-35.74,36.62-59.16,43.24-10.69,3.02-17.61,13.44-16.2,24.46,3.29,25.66-2.79,52.65-19.4,75.45-31.81,43.67-92.41,56.1-138.83,28.47-52.06-30.98-67.15-98.74-34.13-148.7,14.48-21.9,35.74-36.62,59.17-43.24,10.71-3.02,17.6-13.46,16.19-24.5-3.09-24.15,2.12-49.47,16.6-71.38,14.48-21.9,35.74-36.62,59.17-43.24,10.71-3.02,17.6-13.46,16.19-24.5-3.09-24.15,2.12-49.47,16.6-71.38,14.48-21.9,35.74-36.62,59.17-43.24,10.71-3.02,17.6-13.46,16.19-24.5-3.09-24.15,2.12-49.47,16.6-71.38,14.48-21.9,35.74-36.62,59.16-43.24,10.69-3.02,17.61-13.44,16.2-24.46-3.29-25.66,2.79-52.65,19.4-75.45,31.81-43.67,92.41-56.1,138.84-28.47,52.05,30.98,67.14,98.74,34.12,148.69-14.48,21.9-35.74,36.62-59.17,43.24-10.71,3.02-17.6,13.46-16.19,24.5,3.09,24.15-2.12,49.47-16.6,71.38-14.48,21.9-35.74,36.62-59.17,43.24-10.71,3.02-17.6,13.46-16.19,24.5,3.09,24.15-2.12,49.47-16.6,71.38-14.48,21.9-35.74,36.62-59.17,43.24-10.71,3.02-17.6,13.46-16.19,24.5,3.09,24.15-2.12,49.47-16.6,71.38Z"/>
  </g>
  <g>
    <path class="cls-1" d="M1269.73,1573.46c17.61-18.21,27.32-41.12,29.24-64.52.77-9.38,8.08-16.92,17.42-18.07,23.17-2.86,45.54-13.4,62.97-31.55,17.43-18.15,27.06-40.93,28.98-64.19.77-9.38,8.01-16.99,17.36-18.13,23.3-2.86,45.8-13.49,63.28-31.81,39.44-41.34,38.48-107.38-2.18-147.53-41.86-41.34-109.29-40.33-149.91,1.96-17.43,18.15-27.06,40.93-28.98,64.19-.78,9.4-8.06,16.98-17.42,18.14-23.17,2.86-45.54,13.4-62.97,31.55-17.43,18.15-27.06,40.93-28.98,64.19-.78,9.4-8.06,16.98-17.42,18.14-23.17,2.86-45.54,13.4-62.97,31.55-40.61,42.29-38.9,109.71,4.09,149.86,41.76,39,107.78,37.31,147.5-3.77Z"/>
    <g>
      <g>
        <circle class="cls-1" cx="1633.63" cy="1524.38" r="105"/>
        <circle class="cls-1" cx="1648.51" cy="1998.15" r="105"/>
        <circle class="cls-1" cx="1643.55" cy="1840.23" r="105"/>
        <circle class="cls-1" cx="1638.59" cy="1682.3" r="105"/>
      </g>
      <path class="cls-1" d="M1387.57,1557.61c-17.61-19.47-40.85-30.82-65-33.84-11.03-1.38-19.44-10.64-19.7-21.75-.61-25.86-10.69-51.62-30.55-71.66-38.02-38.38-99.81-41.54-141.54-7.23-46.79,38.47-51.5,107.73-11.33,152.14,17.61,19.47,40.85,30.82,65,33.84,11.04,1.38,19.43,10.66,19.7,21.78.58,24.34,9.55,48.59,27.17,68.06,17.61,19.47,40.85,30.82,65,33.84,11.04,1.38,19.43,10.66,19.7,21.78.58,24.34,9.55,48.59,27.17,68.06,17.61,19.47,40.85,30.82,65,33.84,11.04,1.38,19.43,10.66,19.7,21.78.58,24.34,9.55,48.59,27.17,68.06,17.61,19.47,40.85,30.82,65,33.84,11.03,1.38,19.44,10.64,19.7,21.75.61,25.86,10.69,51.63,30.55,71.67,38.02,38.37,99.81,41.53,141.54,7.23,46.79-38.47,51.5-107.73,11.33-152.14-17.61-19.47-40.85-30.82-65-33.84-11.04-1.38-19.43-10.66-19.7-21.78-.58-24.34-9.55-48.59-27.17-68.06-17.61-19.47-40.85-30.82-65-33.84-11.04-1.38-19.43-10.66-19.7-21.78-.58-24.34-9.55-48.59-27.17-68.06-17.61-19.47-40.85-30.82-65-33.84-11.04-1.38-19.43-10.66-19.7-21.78-.58-24.34-9.55-48.59-27.17-68.06Z"/>
      <path class="cls-1" d="M1706.68,1592.17c17.61-18.21,27.32-41.12,29.24-64.52.77-9.38,8.08-16.92,17.42-18.07,23.17-2.86,45.54-13.4,62.97-31.55,17.43-18.15,27.06-40.93,28.98-64.19.77-9.38,8.01-16.99,17.36-18.13,23.3-2.86,45.8-13.49,63.28-31.81,39.44-41.34,38.48-107.38-2.18-147.53-41.86-41.34-109.29-40.33-149.91,1.96-17.43,18.15-27.06,40.93-28.98,64.19-.78,9.4-8.06,16.98-17.42,18.14-23.17,2.86-45.54,13.4-62.97,31.55-17.43,18.15-27.06,40.93-28.98,64.19-.78,9.4-8.06,16.98-17.42,18.14-23.17,2.86-45.54,13.4-62.97,31.55-40.61,42.29-38.9,109.71,4.09,149.86,41.76,39,107.78,37.31,147.5-3.77Z"/>
      <circle class="cls-1" cx="1635.21" cy="1518.89" r="106.38"/>
    </g>
  </g>
  <g>
    <circle class="cls-1" cx="2670.65" cy="1382.72" r="105"/>
    <circle class="cls-1" cx="2669.45" cy="1856.71" r="105"/>
    <circle class="cls-1" cx="2669.85" cy="1698.72" r="105"/>
    <circle class="cls-1" cx="2670.25" cy="1540.72" r="105"/>
  </g>
  <path class="cls-1" d="M2628.51,1755.59c-23.56,9.31-41.87,26.16-53.28,46.68-4.57,8.23-14.34,12.08-23.33,9.27-22.28-6.97-47.01-6.61-70.38,2.72-23.37,9.33-41.55,26.09-52.91,46.49-4.58,8.22-14.32,12.16-23.3,9.34-22.4-7.02-47.28-6.64-70.77,2.83-53,21.36-79.4,81.9-58.96,135.25,21.04,54.93,82.87,81.88,137.33,60.14,23.37-9.33,41.55-26.09,52.91-46.49,4.59-8.24,14.35-12.14,23.36-9.32,22.28,6.97,47.01,6.61,70.38-2.72,23.37-9.33,41.55-26.09,52.91-46.49,4.59-8.24,14.35-12.14,23.36-9.32,22.28,6.97,47.01,6.61,70.38-2.72,54.46-21.73,80.74-83.84,58.18-138.17-21.91-52.77-82.74-78.5-135.88-57.5Z"/>
  <path class="cls-1" d="M2924.41,1168.45c-23.56,9.31-41.87,26.16-53.28,46.68-4.57,8.23-14.34,12.08-23.33,9.27-22.28-6.97-47.01-6.61-70.38,2.72-23.37,9.33-41.55,26.09-52.91,46.49-4.58,8.22-14.32,12.16-23.3,9.34-22.4-7.02-47.28-6.64-70.77,2.83-53,21.36-79.4,81.9-58.96,135.25,21.04,54.93,82.87,81.88,137.33,60.14,23.37-9.33,41.55-26.09,52.91-46.49,4.59-8.24,14.35-12.14,23.36-9.32,22.28,6.97,47.01,6.61,70.38-2.72,23.37-9.33,41.55-26.09,52.91-46.49,4.59-8.24,14.35-12.14,23.36-9.32,22.28,6.97,47.01,6.61,70.38-2.72,54.46-21.73,80.74-83.84,58.18-138.17-21.91-52.77-82.74-78.5-135.88-57.5Z"/>
  <path class="cls-1" d="M3928.36,1514.42c10.65-24,29.18-42.03,51.19-52.44,10.05-4.75,15.14-16.17,11.93-26.81-7.49-24.76-5.96-52.38,6.65-77.62,24.14-48.33,81.85-70.62,132.21-51.06,56.46,21.94,82.56,86.27,58.27,141-10.65,24-29.18,42.03-51.19,52.44-10.06,4.75-15.13,16.19-11.92,26.84,7.04,23.3,6.09,49.14-4.56,73.14-10.65,24-29.18,42.03-51.19,52.44-10.06,4.75-15.13,16.19-11.92,26.84,7.04,23.3,6.09,49.14-4.56,73.14-10.65,24-29.18,42.03-51.19,52.44-10.06,4.75-15.13,16.19-11.92,26.84,7.04,23.3,6.09,49.14-4.56,73.14-10.65,24-29.18,42.03-51.19,52.44-10.05,4.75-15.14,16.17-11.93,26.81,7.49,24.76,5.96,52.38-6.65,77.62-24.14,48.33-81.85,70.62-132.21,51.05-56.46-21.94-82.56-86.27-58.26-141,10.65-24,29.18-42.03,51.19-52.44,10.06-4.75,15.13-16.19,11.92-26.84-7.04-23.3-6.09-49.14,4.56-73.14,10.65-24,29.18-42.03,51.19-52.44,10.06-4.75,15.13-16.19,11.92-26.84-7.04-23.3-6.09-49.14,4.56-73.14,10.65-24,29.18-42.03,51.19-52.44,10.06-4.75,15.13-16.19,11.92-26.84-7.04-23.3-6.09-49.14,4.56-73.14Z"/>
  <path class="cls-1" d="M3366.34,1357.15c12.95,21.77,32.51,37.15,54.59,45.14,8.85,3.2,14.21,12.23,12.87,21.55-3.32,23.11.98,47.46,13.92,69.04,12.94,21.58,32.39,36.85,54.34,44.81,8.85,3.21,14.29,12.19,12.94,21.51-3.36,23.24,1,47.74,14.09,69.41,29.54,48.91,93.52,65.31,142.93,36.61,50.87-29.55,67.59-94.88,37.44-145.17-12.94-21.58-32.39-36.85-54.34-44.81-8.87-3.22-14.28-12.23-12.93-21.57,3.32-23.11-.98-47.46-13.92-69.04-12.94-21.58-32.39-36.85-54.34-44.81-8.87-3.22-14.28-12.23-12.93-21.57,3.32-23.11-.98-47.46-13.92-69.04-30.15-50.29-95.66-66.32-145.68-35.37-48.59,30.06-64.28,94.22-35.06,143.32Z"/>
  <g>
    <circle class="cls-1" cx="4092.55" cy="1406.19" r="105"/>
    <circle class="cls-1" cx="3692.38" cy="1660.22" r="105"/>
    <circle class="cls-1" cx="3825.77" cy="1575.55" r="105"/>
    <circle class="cls-1" cx="3959.16" cy="1490.87" r="105"/>
  </g>
  <circle class="cls-1" cx="3760.84" cy="1302.22" r="105.24"/>
  <circle class="cls-1" cx="4778.75" cy="1239.25" r="105"/>
  <circle class="cls-1" cx="4633.83" cy="1217.55" r="105"/>
  <rect class="cls-1" x="4607.49" y="1840.91" width="139.04" height="306.98" rx="64.68" ry="64.68" transform="translate(6671.41 -2682.61) rotate(90)"/>
  <path class="cls-1" d="M5008.32,1471.25c-11.5-23.6-30.66-40.97-53.03-50.58-10.21-4.39-15.71-15.62-12.87-26.37,6.61-25.01,4.09-52.56-9.41-77.33-25.85-47.44-84.31-67.66-133.94-46.32-55.65,23.93-79.44,89.15-53.21,142.98,11.5,23.6,30.66,40.97,53.03,50.58,10.22,4.39,15.7,15.64,12.86,26.4-6.21,23.54-4.34,49.33,7.16,72.93,11.5,23.6,30.66,40.97,53.03,50.58,10.22,4.39,15.7,15.64,12.86,26.4-6.21,23.54-4.34,49.33,7.16,72.93,11.5,23.6,30.66,40.97,53.03,50.58,10.22,4.39,15.7,15.64,12.86,26.4-6.21,23.54-4.34,49.33,7.16,72.93,11.5,23.6,30.66,40.97,53.03,50.58,10.21,4.39,15.71,15.62,12.87,26.37-6.61,25.01-4.09,52.56,9.41,77.34,25.85,47.44,84.31,67.66,133.94,46.32,55.65-23.93,79.44-89.15,53.21-142.98-11.5-23.6-30.66-40.97-53.03-50.58-10.22-4.39-15.7-15.64-12.86-26.4,6.21-23.54,4.34-49.33-7.16-72.93-11.5-23.6-30.66-40.97-53.03-50.58-10.22-4.39-15.7-15.64-12.86-26.4,6.21-23.54,4.34-49.33-7.16-72.93-11.5-23.6-30.66-40.97-53.03-50.58-10.22-4.39-15.7-15.64-12.86-26.4,6.21-23.54,4.34-49.33-7.16-72.93Z"/>
  <path class="cls-1" d="M4839.92,2015.21c14.02-21.09,19.44-45.38,17.09-68.74-.94-9.37,4.88-18.1,13.86-20.92,22.27-7,42.37-21.41,56.23-42.41,13.86-21,19.22-45.14,16.9-68.37-.93-9.37,4.81-18.16,13.79-20.97,22.4-7.02,42.61-21.54,56.49-42.73,31.32-47.79,18.44-112.57-28.81-144.71-48.64-33.09-114.78-19.91-147.08,29.02-13.86,21-19.22,45.15-16.9,68.38.94,9.39-4.85,18.16-13.86,20.99-22.27,7-42.37,21.41-56.23,42.41-13.86,21-19.22,45.15-16.9,68.37.94,9.39-4.85,18.16-13.86,20.99-22.27,7-42.37,21.41-56.23,42.41-32.3,48.93-18.43,114.93,31.11,146.65,48.12,30.82,112.75,17.21,144.39-30.37Z"/>
  <g>
    <g>
      <circle class="cls-1" cx="6196.66" cy="1242.07" r="105"/>
      <circle class="cls-1" cx="6123.39" cy="1382.05" r="105"/>
    </g>
    <path class="cls-1" d="M5978.12,2036.66c9.67-23.41,10.28-48.29,3.45-70.75-2.74-9.01,1.28-18.71,9.55-23.21,20.49-11.18,37.42-29.21,46.95-52.5,9.53-23.29,10.11-48.01,3.33-70.35-2.73-9.01,1.2-18.74,9.47-23.25,20.62-11.23,37.63-29.39,47.14-52.86,21.47-52.95-3.72-114.01-56.3-136.38-54.13-23.04-116.46,2.71-138.67,56.97-9.53,23.29-10.11,48.01-3.33,70.35,2.74,9.03-1.24,18.76-9.53,23.28-20.49,11.18-37.42,29.21-46.95,52.5-9.53,23.29-10.11,48.01-3.33,70.35,2.74,9.03-1.24,18.76-9.53,23.28-20.49,11.18-37.42,29.21-46.95,52.5-22.21,54.26,4.19,116.32,58.93,137.85,53.18,20.91,113.95-4.96,135.77-57.77Z"/>
    <circle class="cls-1" cx="5917" cy="1584.91" r="105.26"/>
    <circle class="cls-1" cx="5995.38" cy="1408.39" r="105.26"/>
    <circle class="cls-1" cx="5843.49" cy="1431.4" r="105.26"/>
    <rect class="cls-1" x="5705.38" y="1880.18" width="139.04" height="306.98" rx="64.68" ry="64.68" transform="translate(7808.57 -3741.24) rotate(90)"/>
  </g>
  <g>
    <g>
      <circle class="cls-1" cx="5726.44" cy="2342.07" r="105"/>
      <circle class="cls-1" cx="5799.71" cy="2482.05" r="105"/>
    </g>
    <path class="cls-1" d="M5944.99,3136.66c-9.67-23.41-10.28-48.29-3.45-70.75,2.74-9.01-1.28-18.71-9.55-23.21-20.49-11.18-37.42-29.21-46.95-52.5-9.53-23.29-10.11-48.01-3.33-70.35,2.73-9.01-1.2-18.74-9.47-23.25-20.62-11.23-37.63-29.39-47.14-52.86-21.47-52.95,3.72-114.01,56.3-136.38,54.13-23.04,116.46,2.71,138.67,56.97,9.53,23.29,10.11,48.01,3.33,70.35-2.74,9.03,1.24,18.76,9.53,23.28,20.49,11.18,37.42,29.21,46.95,52.5,9.53,23.29,10.11,48.01,3.33,70.35-2.74,9.03,1.24,18.76,9.53,23.28,20.49,11.18,37.42,29.21,46.95,52.5,22.21,54.26-4.19,116.32-58.93,137.85-53.18,20.91-113.95-4.96-135.77-57.77Z"/>
    <circle class="cls-1" cx="6006.1" cy="2684.91" r="105.26"/>
    <circle class="cls-1" cx="5927.72" cy="2508.39" r="105.26"/>
    <circle class="cls-1" cx="6079.61" cy="2531.4" r="105.26"/>
    <rect class="cls-1" x="6078.67" y="2980.18" width="139.04" height="306.98" rx="64.68" ry="64.68" transform="translate(9281.86 -3014.53) rotate(90)"/>
  </g>
  <g>
    <circle class="cls-1" cx="1297.53" cy="2566.99" r="105"/>
    <circle class="cls-1" cx="1297.53" cy="3040.99" r="105"/>
    <circle class="cls-1" cx="1297.53" cy="2882.99" r="105"/>
    <circle class="cls-1" cx="1297.53" cy="2724.99" r="105"/>
  </g>
  <path class="cls-1" d="M1498.87,2761.3c-20.24,16.73-32.62,39.43-36.71,63.43-1.87,10.95-11.49,18.94-22.6,18.71-25.86-.54-52.05,8.37-72.96,27.31-40.04,36.27-45.96,97.85-13.55,141.07,36.34,48.47,105.32,56.27,151.48,18.12,20.24-16.73,32.62-39.43,36.71-63.43,1.87-10.97,11.51-18.94,22.64-18.71,24.34.5,48.97-7.37,69.21-24.1,20.24-16.73,32.62-39.43,36.71-63.43,1.87-10.97,11.51-18.94,22.64-18.71,24.34.5,48.97-7.37,69.21-24.1s32.62-39.43,36.71-63.43c1.87-10.97,11.51-18.94,22.64-18.71,24.34.5,48.97-7.37,69.21-24.1,20.24-16.73,32.62-39.43,36.71-63.43,1.87-10.95,11.49-18.94,22.6-18.71,25.86.54,52.05-8.37,72.96-27.32,40.04-36.27,45.95-97.85,13.55-141.08-36.34-48.47-105.32-56.26-151.48-18.12-20.24,16.73-32.62,39.43-36.71,63.43-1.87,10.97-11.51,18.94-22.64,18.71-24.34-.5-48.97,7.37-69.21,24.1-20.24,16.73-32.62,39.43-36.71,63.43-1.87,10.97-11.51,18.94-22.64,18.71-24.34-.5-48.97,7.37-69.21,24.1-20.24,16.73-32.62,39.43-36.71,63.43-1.87,10.97-11.51,18.94-22.64,18.71-24.34-.5-48.97,7.37-69.21,24.1Z"/>
  <path class="cls-1" d="M1524.33,2318.76c-22.26,12.08-38.4,31.02-47.26,52.77-3.55,8.72-12.78,13.72-22.04,12.01-22.96-4.23-47.46-.89-69.54,11.19-22.08,12.08-38.1,30.92-46.91,52.53-3.55,8.72-12.74,13.8-22,12.09-23.09-4.27-47.74-.88-69.91,11.35-50.03,27.6-68.94,90.88-42.21,141.38,27.52,51.99,92.15,71.28,143.58,43.13,22.08-12.08,38.1-30.92,46.91-52.53,3.56-8.74,12.78-13.78,22.06-12.07,22.96,4.23,47.46.89,69.54-11.19,22.08-12.08,38.1-30.92,46.91-52.53,3.56-8.74,12.78-13.78,22.06-12.07,22.96,4.23,47.46.89,69.54-11.19,51.44-28.15,70.04-92.97,41.09-144.18-28.12-49.74-91.61-67.94-141.83-40.68Z"/>
  <circle class="cls-1" cx="1961.27" cy="2841.97" r="105.24"/>
  <path class="cls-1" d="M606.76,2265.28c-22.25,0-42.63,19.06-58.44,50.72-4.16,8.32-15.92,8.32-20.08,0-15.81-31.65-36.19-50.72-58.44-50.72s-42.63,19.06-58.44,50.72c-4.16,8.32-15.92,8.32-20.08,0-15.81-31.65-36.19-50.72-58.44-50.72-50.26,0-91,97.25-91,217.22s40.74,217.22,91,217.22c22.25,0,42.63-19.06,58.44-50.72,4.16-8.32,15.92-8.32,20.08,0,15.81,31.65,36.19,50.72,58.44,50.72s42.63-19.06,58.44-50.72c4.16-8.32,15.92-8.32,20.08,0,15.81,31.65,36.19,50.72,58.44,50.72,50.26,0,91-97.25,91-217.22s-40.74-217.22-91-217.22Z"/>
  <path class="cls-1" d="M605.15,2737.77c-22.25,0-42.63,19.06-58.44,50.72-4.16,8.32-15.92,8.32-20.08,0-15.81-31.65-36.19-50.72-58.44-50.72s-42.63,19.06-58.44,50.72c-4.16,8.32-15.92,8.32-20.08,0-15.81-31.65-36.19-50.72-58.44-50.72-50.26,0-91,97.25-91,217.22s40.74,217.22,91,217.22c22.25,0,42.63-19.06,58.44-50.72,4.16-8.32,15.92-8.32,20.08,0,15.81,31.65,36.19,50.72,58.44,50.72s42.63-19.06,58.44-50.72c4.16-8.32,15.92-8.32,20.08,0,15.81,31.65,36.19,50.72,58.44,50.72,50.26,0,91-97.25,91-217.22s-40.74-217.22-91-217.22Z"/>
  <g>
    <circle class="cls-1" cx="2293.33" cy="2762.77" r="105"/>
    <circle class="cls-1" cx="2635.9" cy="3090.37" r="105"/>
    <circle class="cls-1" cx="2521.71" cy="2981.17" r="105"/>
    <circle class="cls-1" cx="2407.52" cy="2871.97" r="105"/>
  </g>
  <circle class="cls-1" cx="2721.22" cy="2772.37" r="105.26"/>
  <g>
    <circle class="cls-1" cx="2625.17" cy="2420.83" r="105"/>
    <circle class="cls-1" cx="2295.07" cy="2761" r="105"/>
    <circle class="cls-1" cx="2405.11" cy="2647.61" r="105"/>
    <circle class="cls-1" cx="2515.14" cy="2534.22" r="105"/>
  </g>
  <g>
    <circle class="cls-1" cx="2717.34" cy="2335.84" r="105"/>
    <circle class="cls-1" cx="3047.43" cy="2676.01" r="105"/>
    <circle class="cls-1" cx="2937.4" cy="2562.62" r="105"/>
    <circle class="cls-1" cx="2827.37" cy="2449.23" r="105"/>
  </g>
  <g>
    <path class="cls-1" d="M3524.81,2291.39c-9.9,23.31-10.74,48.19-4.13,70.71,2.65,9.03-1.46,18.69-9.77,23.12-20.6,10.98-37.7,28.85-47.45,52.04-9.76,23.2-10.57,47.91-4.01,70.32,2.64,9.03-1.38,18.73-9.69,23.15-20.72,11.03-37.91,29.03-47.65,52.41-21.98,52.74,2.62,114.04,54.98,136.92s116.49-1.58,139.22-55.63c9.76-23.2,10.57-47.91,4.01-70.32-2.65-9.06,1.42-18.74,9.75-23.18,20.6-10.98,37.7-28.85,47.46-52.05,9.76-23.2,10.57-47.91,4.01-70.32-2.65-9.06,1.42-18.74,9.75-23.18,20.6-10.98,37.7-28.85,47.46-52.04,22.73-54.05-3.07-116.36-57.6-138.41-52.97-21.42-113.99,3.86-136.32,56.46Z"/>
    <g>
      <circle class="cls-1" cx="3622.84" cy="2330.43" r="105"/>
      <circle class="cls-1" cx="4037.93" cy="2559.3" r="105"/>
      <circle class="cls-1" cx="3899.57" cy="2483.01" r="105"/>
      <circle class="cls-1" cx="3761.2" cy="2406.72" r="105"/>
    </g>
    <g>
      <circle class="cls-1" cx="3711.28" cy="2898.12" r="105"/>
      <circle class="cls-1" cx="4038.46" cy="2555.15" r="105"/>
      <circle class="cls-1" cx="3929.4" cy="2669.48" r="105"/>
      <circle class="cls-1" cx="3820.34" cy="2783.8" r="105"/>
    </g>
    <circle class="cls-1" cx="3800.74" cy="2986.31" r="105.26"/>
    <rect class="cls-1" x="3708.82" y="2990.54" width="139.04" height="306.98" rx="64.68" ry="64.68" transform="translate(6922.37 -634.32) rotate(90)"/>
    <circle class="cls-1" cx="3880.27" cy="3107.12" r="105.26"/>
  </g>
  <path class="cls-1" d="M4470.42,2848.08c-12.04,23.33-14.51,49.07-8.85,72.75,2.58,10.81-3.13,21.93-13.44,26.08-24,9.66-44.58,28.14-56.37,53.77-22.57,49.08-3.83,108.04,42.95,135.06,52.45,30.3,118.96,10.38,146.43-42.83,12.04-23.33,14.51-49.07,8.85-72.75-2.59-10.82,3.15-21.94,13.47-26.09,22.58-9.1,42.14-26.01,54.18-49.34,12.04-23.33,14.51-49.07,8.85-72.75-2.59-10.82,3.15-21.94,13.47-26.09,22.58-9.1,42.14-26.01,54.18-49.34,12.04-23.33,14.51-49.07,8.85-72.75-2.59-10.82,3.15-21.94,13.47-26.09,22.58-9.1,42.14-26.01,54.18-49.34,12.04-23.33,14.51-49.07,8.85-72.75-2.58-10.81,3.13-21.93,13.44-26.08,24-9.66,44.58-28.14,56.37-53.78,22.57-49.08,3.83-108.04-42.95-135.06-52.45-30.3-118.96-10.38-146.42,42.83-12.04,23.33-14.51,49.07-8.85,72.75,2.59,10.82-3.15,21.94-13.47,26.09-22.58,9.1-42.14,26.01-54.18,49.34-12.04,23.33-14.51,49.07-8.85,72.75,2.59,10.82-3.15,21.94-13.47,26.09-22.58,9.1-42.14,26.01-54.18,49.34-12.04,23.33-14.51,49.07-8.85,72.75,2.59,10.82-3.15,21.94-13.47,26.09-22.58,9.1-42.14,26.01-54.18,49.34Z"/>
  <circle class="cls-1" cx="4868.16" cy="2328.99" r="105.26"/>
  <circle class="cls-1" cx="4724.62" cy="2820.27" r="105.26"/>
  <circle class="cls-1" cx="4865.87" cy="2919.98" r="105.26"/>
  <circle class="cls-1" cx="5003.5" cy="2817.86" r="105.26"/>
  <circle class="cls-1" cx="4865.7" cy="2692.29" r="105.26"/>
  <path class="cls-1" d="M5267.55,2847.92c12.04,23.33,14.51,49.07,8.85,72.75-2.58,10.81,3.13,21.93,13.44,26.08,24,9.66,44.58,28.14,56.37,53.77,22.57,49.08,3.83,108.04-42.95,135.06-52.45,30.3-118.96,10.38-146.43-42.83-12.04-23.33-14.51-49.07-8.85-72.75,2.59-10.82-3.15-21.94-13.47-26.09-22.58-9.1-42.14-26.01-54.18-49.34-12.04-23.33-14.51-49.07-8.85-72.75,2.59-10.82-3.15-21.94-13.47-26.09-22.58-9.1-42.14-26.01-54.18-49.34-12.04-23.33-14.51-49.07-8.85-72.75,2.59-10.82-3.15-21.94-13.47-26.09-22.58-9.1-42.14-26.01-54.18-49.34-12.04-23.33-14.51-49.07-8.85-72.75,2.58-10.81-3.13-21.93-13.44-26.08-24-9.66-44.58-28.14-56.37-53.78-22.57-49.08-3.83-108.04,42.95-135.06,52.45-30.3,118.96-10.38,146.42,42.83,12.04,23.33,14.51,49.07,8.85,72.75-2.59,10.82,3.15,21.94,13.47,26.09,22.58,9.1,42.14,26.01,54.18,49.34,12.04,23.33,14.51,49.07,8.85,72.75-2.59,10.82,3.15,21.94,13.47,26.09,22.58,9.1,42.14,26.01,54.18,49.34,12.04,23.33,14.51,49.07,8.85,72.75-2.59,10.82,3.15,21.94,13.47,26.09,22.58,9.1,42.14,26.01,54.18,49.34Z"/>
  <path class="cls-1" d="M2270.44,3972.15c-12.04,23.33-14.51,49.07-8.85,72.75,2.58,10.81-3.13,21.93-13.44,26.08-24,9.66-44.58,28.14-56.37,53.77-22.57,49.08-3.83,108.04,42.95,135.06,52.45,30.3,118.96,10.38,146.43-42.83,12.04-23.33,14.51-49.07,8.85-72.75-2.59-10.82,3.15-21.94,13.47-26.09,22.58-9.1,42.14-26.01,54.18-49.34,12.04-23.33,14.51-49.07,8.85-72.75-2.59-10.82,3.15-21.94,13.47-26.09,22.58-9.1,42.14-26.01,54.18-49.34,12.04-23.33,14.51-49.07,8.85-72.75-2.59-10.82,3.15-21.94,13.47-26.09,22.58-9.1,42.14-26.01,54.18-49.34,12.04-23.33,14.51-49.07,8.85-72.75-2.58-10.81,3.13-21.93,13.44-26.08,24-9.66,44.58-28.14,56.37-53.78,22.57-49.08,3.83-108.04-42.95-135.06-52.45-30.3-118.96-10.38-146.42,42.83-12.04,23.33-14.51,49.07-8.85,72.75,2.59,10.82-3.15,21.94-13.47,26.09-22.58,9.1-42.14,26.01-54.18,49.34-12.04,23.33-14.51,49.07-8.85,72.75,2.59,10.82-3.15,21.94-13.47,26.09-22.58,9.1-42.14,26.01-54.18,49.34-12.04,23.33-14.51,49.07-8.85,72.75,2.59,10.82-3.15,21.94-13.47,26.09-22.58,9.1-42.14,26.01-54.18,49.34Z"/>
  <circle class="cls-1" cx="2668.18" cy="3453.06" r="105.26"/>
  <circle class="cls-1" cx="2665.72" cy="3816.36" r="105.26"/>
  <path class="cls-1" d="M3067.56,3971.98c12.04,23.33,14.51,49.07,8.85,72.75-2.58,10.81,3.13,21.93,13.44,26.08,24,9.66,44.58,28.14,56.37,53.77,22.57,49.08,3.83,108.04-42.95,135.06-52.45,30.3-118.96,10.38-146.43-42.83-12.04-23.33-14.51-49.07-8.85-72.75,2.59-10.82-3.15-21.94-13.47-26.09-22.58-9.1-42.14-26.01-54.18-49.34-12.04-23.33-14.51-49.07-8.85-72.75,2.59-10.82-3.15-21.94-13.47-26.09-22.58-9.1-42.14-26.01-54.18-49.34-12.04-23.33-14.51-49.07-8.85-72.75,2.59-10.82-3.15-21.94-13.47-26.09-22.58-9.1-42.14-26.01-54.18-49.34-12.04-23.33-14.51-49.07-8.85-72.75,2.58-10.81-3.13-21.93-13.44-26.08-24-9.66-44.58-28.14-56.37-53.78-22.57-49.08-3.83-108.04,42.95-135.06,52.45-30.3,118.96-10.38,146.42,42.83,12.04,23.33,14.51,49.07,8.85,72.75-2.59,10.82,3.15,21.94,13.47,26.09,22.58,9.1,42.14,26.01,54.18,49.34,12.04,23.33,14.51,49.07,8.85,72.75-2.59,10.82,3.15,21.94,13.47,26.09,22.58,9.1,42.14,26.01,54.18,49.34,12.04,23.33,14.51,49.07,8.85,72.75-2.59,10.82,3.15,21.94,13.47,26.09,22.58,9.1,42.14,26.01,54.18,49.34Z"/>
  <g>
    <circle class="cls-1" cx="375.95" cy="3422.96" r="105"/>
    <circle class="cls-1" cx="311.18" cy="3567.07" r="105"/>
  </g>
  <path class="cls-1" d="M242.81,4045.6c8.26-23.95,7.37-48.81-.79-70.83-3.27-8.83.16-18.75,8.14-23.74,19.79-12.38,35.6-31.4,43.73-55.21,8.12-23.82,7.22-48.53-.88-70.43-3.27-8.83.08-18.78,8.06-23.77,19.91-12.44,35.8-31.59,43.9-55.59,18.26-54.14-10.54-113.58-64.36-132.77-55.41-19.76-116.09,9.67-135.02,65.16-8.12,23.82-7.22,48.53.88,70.43,3.27,8.85-.12,18.8-8.12,23.8-19.79,12.38-35.6,31.4-43.73,55.21-8.12,23.82-7.22,48.53.88,70.43,3.27,8.85-.12,18.8-8.12,23.8-19.79,12.38-35.61,31.4-43.73,55.21-18.92,55.49,11.14,115.86,67.07,134.08,54.33,17.69,113.45-11.77,132.07-65.79Z"/>
  <rect class="cls-1" x="181.2" y="3893.95" width="139.04" height="306.98" rx="64.68" ry="64.68" transform="translate(4298.17 3796.72) rotate(90)"/>
  <path class="cls-1" d="M482.17,3871.52c.08-25.33-8.79-48.58-23.63-66.78-5.95-7.3-5.9-17.8.03-25.1,14.73-18.11,23.55-41.21,23.55-66.38,0-25.16-8.85-48.26-23.58-66.37-5.94-7.3-5.99-17.8-.05-25.1,14.82-18.21,23.68-41.46,23.59-66.79-.21-57.14-46.66-104.09-103.79-104.87-58.82-.8-106.75,46.65-106.73,105.28,0,25.17,8.85,48.26,23.58,66.37,5.96,7.32,5.96,17.83,0,25.15-14.73,18.11-23.55,41.21-23.55,66.38,0,25.16,8.85,48.26,23.58,66.37,5.96,7.32,5.96,17.83,0,25.15-14.73,18.11-23.55,41.21-23.55,66.38.02,58.63,47.97,106.06,106.79,105.22,57.13-.81,103.56-47.78,103.74-104.92Z"/>
  <g>
    <circle class="cls-1" cx="725.71" cy="3593.96" r="105"/>
    <circle class="cls-1" cx="660.94" cy="3738.08" r="105"/>
  </g>
  <path class="cls-1" d="M592.57,4216.6c8.26-23.95,7.37-48.81-.79-70.83-3.27-8.83.16-18.75,8.14-23.74,19.79-12.38,35.6-31.4,43.73-55.21,8.12-23.82,7.22-48.53-.88-70.43-3.27-8.83.08-18.78,8.06-23.77,19.91-12.44,35.8-31.59,43.9-55.59,18.26-54.14-10.54-113.58-64.36-132.77-55.41-19.76-116.09,9.67-135.02,65.16-8.12,23.82-7.22,48.53.88,70.43,3.27,8.85-.12,18.8-8.12,23.8-19.79,12.38-35.6,31.4-43.73,55.21-8.12,23.82-7.22,48.53.88,70.43,3.27,8.85-.12,18.8-8.12,23.8-19.79,12.38-35.61,31.4-43.73,55.21-18.92,55.49,11.14,115.86,67.07,134.08,54.33,17.69,113.45-11.77,132.07-65.79Z"/>
  <rect class="cls-1" x="530.96" y="4064.96" width="139.04" height="306.98" rx="64.68" ry="64.68" transform="translate(4818.93 3617.96) rotate(90)"/>
  <path class="cls-1" d="M831.93,4042.53c.08-25.33-8.79-48.58-23.63-66.78-5.95-7.3-5.9-17.8.03-25.1,14.73-18.11,23.55-41.21,23.55-66.38,0-25.16-8.85-48.26-23.58-66.37-5.94-7.3-5.99-17.8-.05-25.1,14.82-18.21,23.68-41.46,23.59-66.79-.21-57.14-46.66-104.09-103.79-104.87-58.82-.8-106.75,46.65-106.73,105.28,0,25.17,8.85,48.26,23.58,66.37,5.96,7.32,5.96,17.83,0,25.15-14.73,18.11-23.55,41.21-23.55,66.38,0,25.16,8.85,48.26,23.58,66.37,5.96,7.32,5.96,17.83,0,25.15-14.73,18.11-23.55,41.21-23.55,66.38.02,58.63,47.97,106.06,106.79,105.22,57.13-.81,103.56-47.78,103.74-104.92Z"/>
  <g>
    <circle class="cls-1" cx="1592.43" cy="3597.47" r="105"/>
    <circle class="cls-1" cx="1527.65" cy="3741.58" r="105"/>
  </g>
  <path class="cls-1" d="M1459.29,4220.11c8.26-23.95,7.37-48.81-.79-70.83-3.27-8.83.16-18.75,8.14-23.74,19.79-12.38,35.6-31.4,43.73-55.21,8.12-23.82,7.22-48.53-.88-70.43-3.27-8.83.08-18.78,8.06-23.77,19.91-12.44,35.8-31.59,43.9-55.59,18.26-54.14-10.54-113.58-64.36-132.77-55.41-19.76-116.09,9.67-135.02,65.16-8.12,23.82-7.22,48.53.88,70.43,3.27,8.85-.12,18.8-8.12,23.8-19.79,12.38-35.6,31.4-43.73,55.21-8.12,23.82-7.22,48.53.88,70.43,3.27,8.85-.12,18.8-8.12,23.8-19.79,12.38-35.61,31.4-43.73,55.21-18.92,55.49,11.14,115.86,67.07,134.08,54.33,17.69,113.45-11.77,132.07-65.79Z"/>
  <circle class="cls-1" cx="1654.64" cy="3454.85" r="105.26"/>
  <path class="cls-1" d="M1895.31,3686.46c-11.53-22.55-30.06-39.16-51.58-48.55-8.63-3.76-13.4-13.12-11.46-22.33,4.8-22.85,2.07-47.42-9.46-69.79-11.53-22.37-29.96-38.86-51.35-48.2-8.62-3.77-13.48-13.08-11.53-22.29,4.84-22.97,2.07-47.7-9.61-70.18-26.34-50.71-89.14-71.18-140.29-45.71-52.66,26.22-73.55,90.34-46.69,142.47,11.53,22.37,29.96,38.86,51.35,48.2,8.65,3.78,13.46,13.12,11.52,22.36-4.8,22.85-2.07,47.43,9.46,69.79,11.53,22.37,29.96,38.86,51.35,48.2,8.65,3.78,13.46,13.12,11.52,22.36-4.8,22.85-2.07,47.43,9.46,69.79,26.86,52.12,91.2,72.33,143.11,44.66,50.42-26.88,70.2-89.89,44.19-140.77Z"/>
  <g>
    <circle class="cls-1" cx="3716.15" cy="3644.97" r="105"/>
    <circle class="cls-1" cx="4135.36" cy="3423.76" r="105"/>
    <circle class="cls-1" cx="3995.63" cy="3497.5" r="105"/>
    <circle class="cls-1" cx="3855.89" cy="3571.23" r="105"/>
  </g>
  <g>
    <circle class="cls-1" cx="3717.55" cy="3643.94" r="105"/>
    <circle class="cls-1" cx="4136.76" cy="3865.15" r="105"/>
    <circle class="cls-1" cx="3997.02" cy="3791.41" r="105"/>
    <circle class="cls-1" cx="3857.29" cy="3717.68" r="105"/>
  </g>
  <g>
    <circle class="cls-1" cx="3836.38" cy="3974.13" r="105"/>
    <circle class="cls-1" cx="3417.17" cy="3752.92" r="105"/>
    <circle class="cls-1" cx="3556.9" cy="3826.66" r="105"/>
    <circle class="cls-1" cx="3696.64" cy="3900.39" r="105"/>
  </g>
  <g>
    <circle class="cls-1" cx="3834.98" cy="3973.1" r="105"/>
    <circle class="cls-1" cx="3415.77" cy="4194.31" r="105"/>
    <circle class="cls-1" cx="3555.51" cy="4120.57" r="105"/>
    <circle class="cls-1" cx="3695.24" cy="4046.84" r="105"/>
  </g>
  <path class="cls-1" d="M4711.45,3677.69c5.24-25.73.61-51.17-11.28-72.41-5.43-9.7-2.95-21.96,5.84-28.75,20.47-15.82,35.24-39.21,39.61-67.08,8.37-53.37-25.71-105-78.07-118.28-58.72-14.89-117.3,22.38-129.25,81.05-5.24,25.73-.61,51.17,11.28,72.41,5.43,9.71,2.94,21.97-5.86,28.77-19.26,14.9-33.47,36.49-38.71,62.22-5.24,25.73-.61,51.17,11.28,72.41,5.43,9.71,2.94,21.97-5.86,28.77-19.26,14.9-33.47,36.49-38.71,62.22-5.24,25.73-.61,51.17,11.28,72.41,5.43,9.71,2.94,21.97-5.86,28.77-19.26,14.9-33.47,36.49-38.71,62.22-5.24,25.73-.61,51.17,11.28,72.41,5.43,9.7,2.95,21.96-5.84,28.75-20.47,15.82-35.24,39.21-39.61,67.08-8.37,53.37,25.71,105,78.08,118.28,58.72,14.89,117.29-22.38,129.25-81.05,5.24-25.73.61-51.17-11.28-72.41-5.43-9.71-2.94-21.97,5.86-28.77,19.26-14.9,33.47-36.49,38.71-62.22,5.24-25.73.61-51.17-11.28-72.41-5.43-9.71-2.94-21.97,5.86-28.77,19.26-14.9,33.47-36.49,38.71-62.22,5.24-25.73.61-51.17-11.28-72.41-5.43-9.71-2.94-21.97,5.86-28.77,19.26-14.9,33.47-36.49,38.71-62.22Z"/>
  <g>
    <circle class="cls-1" cx="4902.04" cy="3890.39" r="105"/>
    <circle class="cls-1" cx="4643.25" cy="3493.27" r="105"/>
    <circle class="cls-1" cx="4729.51" cy="3625.65" r="105"/>
    <circle class="cls-1" cx="4815.78" cy="3758.02" r="105"/>
  </g>
  <g>
    <circle class="cls-1" cx="4903.65" cy="3890.49" r="105"/>
    <circle class="cls-1" cx="5162.45" cy="3493.37" r="105"/>
    <circle class="cls-1" cx="5076.18" cy="3625.74" r="105"/>
    <circle class="cls-1" cx="4989.92" cy="3758.11" r="105"/>
  </g>
  <circle class="cls-1" cx="5236.89" cy="3784.6" r="105.24"/>
  <g>
    <path class="cls-1" d="M5907.73,3920.28c10.72,22.95,28.66,40.2,49.83,50.34,8.49,4.07,12.93,13.58,10.67,22.72-5.6,22.66-3.74,47.32,6.99,70.08,10.73,22.76,28.57,39.89,49.62,49.98,8.49,4.07,13.01,13.55,10.74,22.69-5.65,22.79-3.75,47.6,7.13,70.47,24.54,51.6,86.57,74.27,138.59,50.62,53.55-24.35,76.68-87.7,51.68-140.73-10.73-22.76-28.57-39.89-49.62-49.98-8.51-4.08-12.99-13.59-10.73-22.75,5.6-22.66,3.74-47.32-6.99-70.08-10.73-22.76-28.57-39.89-49.62-49.98-8.51-4.08-12.99-13.59-10.73-22.75,5.6-22.66,3.74-47.32-6.99-70.08-25.01-53.03-88.59-75.49-141.45-49.67-51.34,25.08-73.32,87.36-49.13,139.13Z"/>
    <g>
      <circle class="cls-1" cx="6166.3" cy="3431.82" r="105"/>
      <circle class="cls-1" cx="6003.41" cy="3876.95" r="105"/>
      <circle class="cls-1" cx="6057.71" cy="3728.57" r="105"/>
      <circle class="cls-1" cx="6112.01" cy="3580.2" r="105"/>
    </g>
    <circle class="cls-1" cx="5884.56" cy="3978.94" r="105.24"/>
    <circle class="cls-1" cx="5761.99" cy="4040.89" r="105.24"/>
    <circle class="cls-1" cx="5823.32" cy="4180.28" r="105.24"/>
  </g>
  <path class="cls-1" d="M709.16,4946.64c-17.35,18.45-26.74,41.5-28.33,64.92-.64,9.39-7.84,17.03-17.16,18.32-23.13,3.18-45.35,14.03-62.52,32.43-17.17,18.39-26.48,41.3-28.08,64.59-.64,9.39-7.78,17.1-17.1,18.37-23.26,3.18-45.61,14.13-62.83,32.7-38.86,41.89-36.97,107.91,4.25,147.49,42.43,40.74,109.85,38.79,149.87-4.06,17.18-18.39,26.48-41.3,28.08-64.59.64-9.41,7.82-17.1,17.16-18.38,23.13-3.18,45.35-14.03,62.52-32.43,17.17-18.39,26.48-41.3,28.08-64.59.64-9.41,7.82-17.1,17.16-18.38,23.13-3.18,45.35-14.03,62.52-32.43,40.02-42.85,37.36-110.24-6.19-149.79-42.3-38.42-108.29-35.79-147.43,5.84Z"/>
  <path class="cls-1" d="M679.08,4847.27c-17.71,18.1-40.35,28.45-63.69,31.01-9.36,1.03-16.69,8.54-17.59,17.91-2.21,23.24-12.13,45.89-29.79,63.82-17.66,17.93-40.16,28.18-63.37,30.74-9.36,1.03-16.76,8.48-17.65,17.85-2.21,23.37-12.22,46.16-30.05,64.14-40.24,40.57-106.28,41.43-147.53,1.9-42.48-40.7-43.34-108.14-2.19-149.9,17.66-17.93,40.16-28.18,63.37-30.74,9.38-1.04,16.75-8.52,17.65-17.92,2.21-23.24,12.13-45.89,29.79-63.82,17.66-17.93,40.16-28.18,63.37-30.74,9.38-1.04,16.76-8.52,17.65-17.92,2.21-23.24,12.13-45.89,29.79-63.82,41.15-41.77,108.59-41.92,149.92-.06,40.15,40.66,40.27,106.71.31,147.55Z"/>
  <g>
    <circle class="cls-1" cx="402.59" cy="4534.4" r="105"/>
    <circle class="cls-1" cx="704.63" cy="4899.71" r="105"/>
    <circle class="cls-1" cx="603.95" cy="4777.94" r="105"/>
    <circle class="cls-1" cx="503.27" cy="4656.17" r="105"/>
  </g>
  <rect class="cls-1" x="208.36" y="4880.67" width="139.04" height="306.98" rx="64.68" ry="64.68" transform="translate(5312.04 4756.28) rotate(90)"/>
  <rect class="cls-1" x="405.35" y="5132.76" width="139.04" height="306.98" rx="64.68" ry="64.68" transform="translate(5761.12 4811.38) rotate(90)"/>
  <g>
    <g>
      <circle class="cls-1" cx="1339.39" cy="4747.37" r="105"/>
      <circle class="cls-1" cx="1758.61" cy="4526.16" r="105"/>
      <circle class="cls-1" cx="1618.87" cy="4599.89" r="105"/>
      <circle class="cls-1" cx="1479.13" cy="4673.63" r="105"/>
    </g>
    <g>
      <circle class="cls-1" cx="1756.65" cy="4524.97" r="105"/>
      <circle class="cls-1" cx="1761.24" cy="4998.94" r="105"/>
      <circle class="cls-1" cx="1759.71" cy="4840.95" r="105"/>
      <circle class="cls-1" cx="1758.18" cy="4682.96" r="105"/>
    </g>
    <path class="cls-1" d="M1488.95,5206.06c-.11,11.11,10.97,21.31,29.51,29.29,7.43,3.2,7.37,7.81-.05,11.01-18.42,7.94-29.46,18.07-29.46,29.11,0,11.04,11.04,21.17,29.46,29.11,7.42,3.2,7.48,7.81.05,11.01-18.53,7.98-29.61,18.18-29.51,29.29.24,25.06,58.29,45.66,129.71,46.01,73.53.36,133.45-20.45,133.45-46.17,0-11.04-11.04-21.17-29.46-29.11-7.44-3.21-7.44-7.82,0-11.03,18.42-7.94,29.46-18.07,29.46-29.11,0-11.04-11.04-21.17-29.46-29.11-7.44-3.21-7.44-7.82,0-11.03,18.42-7.94,29.46-18.07,29.46-29.11,0-25.72-59.92-46.52-133.45-46.17-71.42.35-129.47,20.95-129.71,46.01Z"/>
    <circle class="cls-1" cx="1635.05" cy="5091.73" r="105.24"/>
  </g>
  <ellipse class="cls-1" cx="841.89" cy="318.35" rx="125.87" ry="50.42" transform="translate(-50.67 434.41) rotate(-28.12)"/>
  <ellipse class="cls-1" cx="3439.99" cy="194.15" rx="125.87" ry="50.42"/>
  <ellipse class="cls-1" cx="4869" cy="7118.75" rx="52.98" ry="395"/>
  <ellipse class="cls-1" cx="6057.7" cy="7118.7" rx="394.95" ry="52.98" transform="translate(-2247.27 11408.11) rotate(-76.92)"/>
  <ellipse class="cls-1" cx="5880.3" cy="7118.79" rx="52.98" ry="394.95" transform="translate(-1458.56 1515.55) rotate(-13.08)"/>
  <ellipse class="cls-1" cx="468.37" cy="8215.17" rx="52.98" ry="394.95"/>
  <ellipse class="cls-1" cx="557.7" cy="8225.85" rx="394.95" ry="52.98" transform="translate(-7580.93 6907.39) rotate(-76.92)"/>
  <ellipse class="cls-1" cx="380.3" cy="8225.94" rx="52.98" ry="394.95" transform="translate(-1851.84 299.51) rotate(-13.08)"/>
  <ellipse class="cls-1" cx="1523.55" cy="8216.32" rx="52.98" ry="394.95" transform="translate(-1082.58 276.72) rotate(-7.67)"/>
  <ellipse class="cls-1" cx="1613.5" cy="8214.99" rx="394.95" ry="52.98" transform="translate(-6717.07 9046.27) rotate(-84.59)"/>
  <ellipse class="cls-1" cx="1437.7" cy="8238.75" rx="52.98" ry="394.95" transform="translate(-2825.37 1043.59) rotate(-20.75)"/>
  <ellipse class="cls-1" cx="1707.68" cy="8233.16" rx="394.95" ry="52.98" transform="translate(-6621.77 7083.68) rotate(-70.42)"/>
  <ellipse class="cls-1" cx="2578.04" cy="8223.54" rx="52.98" ry="394.95" transform="translate(-1862.68 837.55) rotate(-13.61)"/>
  <ellipse class="cls-1" cx="2494.98" cy="8254.73" rx="52.98" ry="394.95" transform="translate(-3441.93 2000.24) rotate(-26.69)"/>
  <ellipse class="cls-1" cx="2759.96" cy="8223.35" rx="394.95" ry="52.98" transform="translate(-5881.93 8970.77) rotate(-76.39)"/>
  <ellipse class="cls-1" cx="2843.02" cy="8254.54" rx="394.95" ry="52.98" transform="translate(-5808.96 7086.93) rotate(-63.31)"/>
  <ellipse class="cls-1" cx="2669.67" cy="8211.75" rx="52.98" ry="395"/>
  <path class="cls-1" d="M3773.96,8342.56c25.54,127.4,23,229.43-5.67,227.88-28.68-1.54-72.63-106.07-98.17-233.47-25.54-127.4-23-229.43,5.67-227.88,28.68,1.54,72.63,106.07,98.17,233.47Z"/>
  <ellipse class="cls-1" cx="3594.98" cy="8218.84" rx="52.98" ry="394.95" transform="translate(-3308.6 2490.5) rotate(-26.69)"/>
  <path class="cls-1" d="M3767.13,8340.05c-26.45,126.65-24.64,228.25,4.04,226.93,28.69-1.32,73.39-105.06,99.84-231.71,26.45-126.65,24.64-228.25-4.04-226.93-28.69,1.32-73.39,105.06-99.84,231.71Z"/>
  <ellipse class="cls-1" cx="3943.02" cy="8218.65" rx="394.95" ry="52.98" transform="translate(-5170.99 8049.96) rotate(-63.31)"/>
  <ellipse class="cls-1" cx="3769.67" cy="8339.06" rx="52.98" ry="232.15"/>
  <ellipse class="cls-1" cx="5642.4" cy="8210.19" rx="52.98" ry="232.15" transform="translate(-1280.21 1046.3) rotate(-9.52)"/>
  <ellipse class="cls-1" cx="6004.72" cy="8221.83" rx="394.95" ry="52.98" transform="translate(-3487.57 4540.59) rotate(-32.66)"/>
  <path class="cls-1" d="M6217.29,8194.8c47.34-121,104.6-205.49,127.9-188.69,23.3,16.79,3.81,128.5-43.53,249.5-47.34,121-104.6,205.49-127.9,188.69-23.3-16.79-3.81-128.5,43.53-249.5Z"/>
  <path class="cls-1" d="M6221.68,8200.61c90.69-92.28,144.06-178.75,119.21-193.14-24.85-14.39-118.52,48.76-209.21,141.04-90.69,92.28-144.06,178.75-119.21,193.14s118.52-48.76,209.21-141.04Z"/>
  <ellipse class="cls-1" cx="6219.01" cy="8200.07" rx="232.15" ry="52.98" transform="translate(-4041.24 9002.8) rotate(-57.3)"/>
  <ellipse class="cls-1" cx="4625.87" cy="8252.98" rx="52.98" ry="232.15" transform="translate(-3649.42 3667.13) rotate(-31.74)"/>
  <ellipse class="cls-1" cx="5011.23" cy="8245.2" rx="345.21" ry="52.98" transform="translate(-3926.84 4611.12) rotate(-36.58)"/>
  <ellipse class="cls-1" cx="4893.12" cy="8051.96" rx="395" ry="52.98" transform="translate(-233.66 146.72) rotate(-1.68)"/>
  <ellipse class="cls-1" cx="1609.19" cy="9316.95" rx="420.35" ry="56.79" transform="translate(-7718.67 7772.27) rotate(-70.8)"/>
  <ellipse class="cls-1" cx="1593.86" cy="9320.54" rx="56.79" ry="420.35" transform="translate(-2976.84 1042.77) rotate(-19.2)"/>
  <path class="cls-1" d="M1489.39,9471.44c17.83,138.13,7.52,247.04-23.03,243.26-30.55-3.78-69.77-118.83-87.6-256.96-17.83-138.13-7.52-247.04,23.03-243.26,30.55,3.78,69.77,118.83,87.6,256.96Z"/>
  <ellipse class="cls-1" cx="1485.06" cy="9467.38" rx="248.84" ry="56.79" transform="translate(-8062.58 10291.44) rotate(-86.02)"/>
  <ellipse class="cls-1" cx="309.49" cy="9321.58" rx="52.98" ry="394.95"/>
  <ellipse class="cls-1" cx="490.22" cy="8939.47" rx="189.17" ry="52.98"/>
  <ellipse class="cls-1" cx="663.13" cy="9117.05" rx="52.98" ry="189.17"/>
  <ellipse class="cls-1" cx="3776.02" cy="7113.51" rx="395" ry="52.98"/>
  <path class="cls-1" d="M3655.35,4727.23c.15-26.26-9.33-50.31-25.12-68.84-7.21-8.46-7.16-20.97.14-29.34,17-19.49,26.96-45.3,25.84-73.49-2.15-53.98-45.6-98.02-99.55-100.88-60.49-3.21-110.72,44.72-111.06,104.6-.15,26.26,9.33,50.31,25.12,68.84,7.21,8.47,7.14,20.98-.17,29.36-16,18.35-25.75,42.3-25.9,68.55-.15,26.26,9.33,50.31,25.12,68.84,7.21,8.47,7.14,20.98-.17,29.36-16,18.35-25.75,42.3-25.9,68.55-.15,26.26,9.33,50.31,25.12,68.84,7.21,8.47,7.14,20.98-.17,29.36-16,18.35-25.75,42.3-25.9,68.55-.15,26.26,9.33,50.31,25.12,68.84,7.21,8.46,7.16,20.97-.14,29.34-17.01,19.49-26.96,45.31-25.84,73.5,2.15,53.98,45.6,98.02,99.55,100.88,60.49,3.21,110.72-44.72,111.06-104.6.15-26.26-9.33-50.31-25.12-68.84-7.21-8.47-7.14-20.98.17-29.36,16-18.35,25.75-42.3,25.9-68.55.15-26.26-9.33-50.31-25.12-68.84-7.21-8.47-7.14-20.98.17-29.36,16-18.35,25.75-42.3,25.9-68.55.15-26.26-9.33-50.31-25.12-68.84-7.21-8.47-7.14-20.98.17-29.36,16-18.35,25.75-42.3,25.9-68.55Z"/>
  <path class="cls-1" d="M3645.19,5055.74c-23.2,12.29-39.91,32.03-48.76,54.71-4.04,10.35-15.08,16.23-25.92,13.76-25.22-5.76-52.67-2.31-76.97,12.02-46.54,27.44-64.77,86.55-41.76,135.43,25.8,54.81,91.79,76.38,144.7,48.34,23.2-12.29,39.91-32.03,48.76-54.71,4.05-10.36,15.1-16.22,25.95-13.75,23.74,5.41,49.45,2.67,72.65-9.62,23.2-12.29,39.91-32.03,48.76-54.71,4.05-10.36,15.1-16.22,25.95-13.75,23.74,5.41,49.45,2.67,72.65-9.62,23.2-12.29,39.91-32.03,48.76-54.71,4.05-10.36,15.1-16.22,25.95-13.75,23.74,5.41,49.45,2.67,72.65-9.62,23.2-12.29,39.91-32.03,48.76-54.71,4.04-10.35,15.08-16.23,25.92-13.76,25.22,5.76,52.67,2.31,76.97-12.02,46.54-27.44,64.77-86.55,41.76-135.43-25.8-54.81-91.79-76.38-144.7-48.34-23.2,12.29-39.91,32.03-48.76,54.71-4.05,10.36-15.1,16.22-25.95,13.75-23.74-5.41-49.45-2.67-72.65,9.62-23.2,12.29-39.91,32.03-48.76,54.71-4.05,10.36-15.1,16.22-25.95,13.75-23.74-5.41-49.45-2.67-72.65,9.62-23.2,12.29-39.91,32.03-48.76,54.71-4.05,10.36-15.1,16.22-25.95,13.75-23.74-5.41-49.45-2.67-72.65,9.62Z"/>
  <path class="cls-1" d="M3651.92,4753.04c-22.65-13.28-38.49-33.72-46.36-56.75-3.59-10.52-14.37-16.86-25.3-14.86-25.44,4.67-52.72.04-76.38-15.32-45.31-29.41-60.98-89.26-35.89-137.1,28.14-53.65,94.99-72.36,146.65-42.07,22.65,13.28,38.49,33.72,46.36,56.76,3.6,10.53,14.39,16.86,25.33,14.85,23.95-4.38,49.52-.54,72.17,12.74,22.65,13.28,38.49,33.72,46.36,56.76,3.6,10.53,14.39,16.86,25.33,14.85,23.95-4.38,49.52-.54,72.17,12.74,22.65,13.28,38.49,33.72,46.36,56.76,3.6,10.53,14.39,16.86,25.33,14.85,23.95-4.38,49.52-.54,72.17,12.74,22.65,13.28,38.49,33.72,46.36,56.75,3.59,10.52,14.37,16.86,25.3,14.86,25.44-4.67,52.72-.04,76.38,15.32,45.31,29.42,60.98,89.26,35.89,137.1-28.14,53.64-94.99,72.35-146.65,42.07-22.65-13.28-38.49-33.72-46.36-56.76-3.6-10.53-14.39-16.86-25.33-14.85-23.95,4.38-49.52.54-72.17-12.74-22.65-13.28-38.49-33.72-46.36-56.76-3.6-10.53-14.39-16.86-25.33-14.85-23.95,4.38-49.52.54-72.17-12.74-22.65-13.28-38.49-33.72-46.36-56.76-3.6-10.53-14.39-16.86-25.33-14.85-23.95,4.38-49.52.54-72.17-12.74Z"/>
  <g>
    <path class="cls-1" d="M3068.59,5212.07c.11,11.11-10.97,21.31-29.51,29.29-7.43,3.2-7.37,7.81.05,11.01,18.42,7.94,29.46,18.07,29.46,29.11,0,11.04-11.04,21.17-29.46,29.11-7.42,3.2-7.48,7.81-.05,11.01,18.53,7.98,29.61,18.18,29.51,29.29-.24,25.06-58.29,45.66-129.71,46.01-73.53.36-133.45-20.45-133.45-46.17,0-11.04,11.04-21.17,29.46-29.11,7.44-3.21,7.44-7.82,0-11.03-18.42-7.94-29.46-18.07-29.46-29.11s11.04-21.17,29.46-29.11c7.44-3.21,7.44-7.82,0-11.03-18.42-7.94-29.46-18.07-29.46-29.11,0-25.72,59.92-46.52,133.45-46.17,71.42.35,129.47,20.95,129.71,46.01Z"/>
    <path class="cls-1" d="M2578.77,5212.07c.11,11.11-10.97,21.31-29.51,29.29-7.43,3.2-7.37,7.81.05,11.01,18.42,7.94,29.46,18.07,29.46,29.11,0,11.04-11.04,21.17-29.46,29.11-7.42,3.2-7.48,7.81-.05,11.01,18.53,7.98,29.61,18.18,29.51,29.29-.24,25.06-58.29,45.66-129.71,46.01-73.53.36-133.45-20.45-133.45-46.17,0-11.04,11.04-21.17,29.46-29.11,7.44-3.21,7.44-7.82,0-11.03-18.42-7.94-29.46-18.07-29.46-29.11s11.04-21.17,29.46-29.11c7.44-3.21,7.44-7.82,0-11.03-18.42-7.94-29.46-18.07-29.46-29.11,0-25.72,59.92-46.52,133.45-46.17,71.42.35,129.47,20.95,129.71,46.01Z"/>
    <path class="cls-1" d="M2552.45,5094.99c.09-25.33-8.78-48.58-23.61-66.78-5.94-7.3-5.9-17.8.04-25.1,14.73-18.11,23.57-41.21,23.57-66.37,0-25.16-8.83-48.26-23.57-66.37-5.94-7.3-5.99-17.8-.04-25.1,14.83-18.2,23.69-41.45,23.61-66.78-.19-57.14-46.63-104.1-103.76-104.9-58.82-.82-106.76,46.62-106.76,105.25,0,25.17,8.83,48.26,23.57,66.37,5.96,7.32,5.96,17.83,0,25.15-14.73,18.11-23.57,41.21-23.57,66.37,0,25.16,8.83,48.26,23.57,66.37,5.96,7.32,5.96,17.83,0,25.15-14.73,18.11-23.57,41.21-23.57,66.37,0,58.63,47.94,106.07,106.76,105.25,57.13-.79,103.58-47.75,103.77-104.89Z"/>
    <path class="cls-1" d="M3042.28,5097.82c.09-25.33-8.78-48.58-23.61-66.78-5.94-7.3-5.9-17.8.04-25.1,14.73-18.11,23.57-41.21,23.57-66.37,0-25.16-8.83-48.26-23.57-66.37-5.94-7.3-5.99-17.8-.04-25.1,14.83-18.2,23.69-41.45,23.61-66.78-.19-57.14-46.63-104.1-103.76-104.9-58.82-.82-106.76,46.62-106.76,105.25,0,25.17,8.83,48.26,23.57,66.37,5.96,7.32,5.96,17.83,0,25.15-14.73,18.11-23.57,41.21-23.57,66.37,0,25.16,8.83,48.26,23.57,66.37,5.96,7.32,5.96,17.83,0,25.15-14.73,18.11-23.57,41.21-23.57,66.37,0,58.63,47.94,106.07,106.76,105.25,57.13-.79,103.58-47.75,103.77-104.89Z"/>
    <circle class="cls-1" cx="2561.99" cy="4636.24" r="105.26"/>
    <circle class="cls-1" cx="2693.57" cy="4538.95" r="105.26"/>
    <circle class="cls-1" cx="2825.15" cy="4638.65" r="105.26"/>
  </g>
  <g>
    <path class="cls-1" d="M5245.36,5204.12c.11,11.11-10.97,21.31-29.51,29.29-7.43,3.2-7.37,7.81.05,11.01,18.42,7.94,29.46,18.07,29.46,29.11,0,11.04-11.04,21.17-29.46,29.11-7.42,3.2-7.48,7.81-.05,11.01,18.53,7.98,29.61,18.18,29.51,29.29-.24,25.06-58.29,45.66-129.71,46.01-73.53.36-133.45-20.45-133.45-46.17,0-11.04,11.04-21.17,29.46-29.11,7.44-3.21,7.44-7.82,0-11.03-18.42-7.94-29.46-18.07-29.46-29.11,0-11.04,11.04-21.17,29.46-29.11,7.44-3.21,7.44-7.82,0-11.03-18.42-7.94-29.46-18.07-29.46-29.11,0-25.72,59.92-46.52,133.45-46.17,71.42.35,129.47,20.95,129.71,46.01Z"/>
    <path class="cls-1" d="M4755.54,5204.12c.11,11.11-10.97,21.31-29.51,29.29-7.43,3.2-7.37,7.81.05,11.01,18.42,7.94,29.46,18.07,29.46,29.11,0,11.04-11.04,21.17-29.46,29.11-7.42,3.2-7.48,7.81-.05,11.01,18.53,7.98,29.61,18.18,29.51,29.29-.24,25.06-58.29,45.66-129.71,46.01-73.53.36-133.45-20.45-133.45-46.17,0-11.04,11.04-21.17,29.46-29.11,7.44-3.21,7.44-7.82,0-11.03-18.42-7.94-29.46-18.07-29.46-29.11,0-11.04,11.04-21.17,29.46-29.11,7.44-3.21,7.44-7.82,0-11.03-18.42-7.94-29.46-18.07-29.46-29.11,0-25.72,59.92-46.52,133.45-46.17,71.42.35,129.47,20.95,129.71,46.01Z"/>
    <path class="cls-1" d="M4729.22,5087.05c.09-25.33-8.78-48.58-23.61-66.78-5.94-7.3-5.9-17.8.04-25.1,14.73-18.11,23.57-41.21,23.57-66.37,0-25.16-8.83-48.26-23.57-66.37-5.94-7.3-5.99-17.8-.04-25.1,14.83-18.2,23.69-41.45,23.61-66.78-.19-57.14-46.63-104.1-103.76-104.9-58.82-.82-106.76,46.62-106.76,105.25,0,25.17,8.83,48.26,23.57,66.37,5.96,7.32,5.96,17.83,0,25.15-14.73,18.11-23.57,41.21-23.57,66.37,0,25.16,8.83,48.26,23.57,66.37,5.96,7.32,5.96,17.83,0,25.15-14.73,18.11-23.57,41.21-23.57,66.37,0,58.63,47.94,106.07,106.76,105.25,57.13-.79,103.58-47.75,103.77-104.89Z"/>
    <path class="cls-1" d="M5219.05,5089.88c.09-25.33-8.78-48.58-23.61-66.78-5.94-7.3-5.9-17.8.04-25.1,14.73-18.11,23.57-41.21,23.57-66.37,0-25.16-8.83-48.26-23.57-66.37-5.94-7.3-5.99-17.8-.04-25.1,14.83-18.2,23.69-41.45,23.61-66.78-.19-57.14-46.63-104.1-103.76-104.9-58.82-.82-106.76,46.62-106.76,105.25,0,25.17,8.83,48.26,23.57,66.37,5.96,7.32,5.96,17.83,0,25.15-14.73,18.11-23.57,41.21-23.57,66.37,0,25.16,8.83,48.26,23.57,66.37,5.96,7.32,5.96,17.83,0,25.15-14.73,18.11-23.57,41.21-23.57,66.37,0,58.63,47.94,106.07,106.76,105.25,57.13-.79,103.58-47.75,103.77-104.89Z"/>
    <circle class="cls-1" cx="4738.76" cy="4628.3" r="105.26"/>
    <circle class="cls-1" cx="4870.34" cy="4531" r="105.26"/>
    <circle class="cls-1" cx="5001.92" cy="4630.7" r="105.26"/>
    <g>
      <circle class="cls-1" cx="4873.04" cy="4865.63" r="52.63"/>
      <circle class="cls-1" cx="4781.04" cy="4917.27" r="52.63"/>
      <circle class="cls-1" cx="4873.04" cy="4970.9" r="52.63"/>
      <circle class="cls-1" cx="4873.04" cy="5076.16" r="52.63"/>
      <circle class="cls-1" cx="4873.04" cy="5181.42" r="52.63"/>
      <circle class="cls-1" cx="4959.65" cy="4920.34" r="52.63"/>
    </g>
  </g>
  <path class="cls-1" d="M6074.35,4787.21c0-26.26-9.62-50.26-25.51-68.7-7.25-8.42-7.28-20.93-.02-29.34,16.89-19.59,26.7-45.46,25.42-73.64-2.46-53.97-46.15-97.76-100.12-100.31-60.51-2.86-110.47,45.35-110.47,105.23,0,26.26,9.62,50.26,25.51,68.7,7.26,8.43,7.26,20.94,0,29.37-15.89,18.44-25.51,42.44-25.51,68.7,0,26.26,9.62,50.26,25.51,68.7,7.26,8.43,7.26,20.94,0,29.37-15.89,18.44-25.51,42.44-25.51,68.7,0,26.26,9.62,50.26,25.51,68.7,7.26,8.43,7.26,20.94,0,29.37-15.89,18.44-25.51,42.44-25.51,68.7,0,26.26,9.62,50.26,25.51,68.7,7.25,8.42,7.28,20.93.02,29.34-16.89,19.59-26.7,45.46-25.42,73.64,2.46,53.97,46.16,97.76,100.12,100.31,60.51,2.86,110.46-45.35,110.46-105.23,0-26.26-9.62-50.26-25.51-68.7-7.26-8.43-7.26-20.94,0-29.37,15.89-18.44,25.51-42.44,25.51-68.7,0-26.26-9.62-50.26-25.51-68.7-7.26-8.43-7.26-20.94,0-29.37,15.89-18.44,25.51-42.44,25.51-68.7,0-26.26-9.62-50.26-25.51-68.7-7.26-8.43-7.26-20.94,0-29.37,15.89-18.44,25.51-42.44,25.51-68.7Z"/>
  <path class="cls-1" d="M5856.54,4716.75c0-26.26-9.62-50.26-25.51-68.7-7.25-8.42-7.28-20.93-.02-29.34,16.89-19.59,26.7-45.46,25.42-73.64-2.46-53.97-46.15-97.76-100.12-100.31-60.51-2.86-110.47,45.35-110.47,105.23,0,26.26,9.62,50.26,25.51,68.7,7.26,8.43,7.26,20.94,0,29.37-15.89,18.44-25.51,42.44-25.51,68.7,0,26.26,9.62,50.26,25.51,68.7,7.26,8.43,7.26,20.94,0,29.37-15.89,18.44-25.51,42.44-25.51,68.7,0,26.26,9.62,50.26,25.51,68.7,7.26,8.43,7.26,20.94,0,29.37-15.89,18.44-25.51,42.44-25.51,68.7,0,26.26,9.62,50.26,25.51,68.7,7.25,8.42,7.28,20.93.02,29.34-16.89,19.59-26.7,45.46-25.42,73.64,2.46,53.97,46.16,97.76,100.12,100.31,60.51,2.86,110.46-45.35,110.46-105.23,0-26.26-9.62-50.26-25.51-68.7-7.26-8.43-7.26-20.94,0-29.37,15.89-18.44,25.51-42.44,25.51-68.7,0-26.26-9.62-50.26-25.51-68.7-7.26-8.43-7.26-20.94,0-29.37,15.89-18.44,25.51-42.44,25.51-68.7,0-26.26-9.62-50.26-25.51-68.7-7.26-8.43-7.26-20.94,0-29.37,15.89-18.44,25.51-42.44,25.51-68.7Z"/>
  <path class="cls-1" d="M6292.16,4716.75c0-26.26-9.62-50.26-25.51-68.7-7.25-8.42-7.28-20.93-.02-29.34,16.89-19.59,26.7-45.46,25.42-73.64-2.46-53.97-46.15-97.76-100.12-100.31-60.51-2.86-110.47,45.35-110.47,105.23,0,26.26,9.62,50.26,25.51,68.7,7.26,8.43,7.26,20.94,0,29.37-15.89,18.44-25.51,42.44-25.51,68.7,0,26.26,9.62,50.26,25.51,68.7,7.26,8.43,7.26,20.94,0,29.37-15.89,18.44-25.51,42.44-25.51,68.7,0,26.26,9.62,50.26,25.51,68.7,7.26,8.43,7.26,20.94,0,29.37-15.89,18.44-25.51,42.44-25.51,68.7s9.62,50.26,25.51,68.7c7.25,8.42,7.28,20.93.02,29.34-16.89,19.59-26.7,45.46-25.42,73.64,2.46,53.97,46.16,97.76,100.12,100.31,60.51,2.86,110.46-45.35,110.46-105.23,0-26.26-9.62-50.26-25.51-68.7-7.26-8.43-7.26-20.94,0-29.37,15.89-18.44,25.51-42.44,25.51-68.7,0-26.26-9.62-50.26-25.51-68.7-7.26-8.43-7.26-20.94,0-29.37,15.89-18.44,25.51-42.44,25.51-68.7,0-26.26-9.62-50.26-25.51-68.7-7.26-8.43-7.26-20.94,0-29.37,15.89-18.44,25.51-42.44,25.51-68.7Z"/>
  <path class="cls-1" d="M704.33,6316.64c.09-25.33-8.78-48.58-23.61-66.78-5.94-7.3-5.9-17.8.04-25.1,14.73-18.11,23.57-41.21,23.57-66.37,0-25.16-8.83-48.26-23.57-66.37-5.94-7.3-5.99-17.8-.04-25.1,14.83-18.2,23.69-41.45,23.61-66.78-.19-57.14-46.63-104.1-103.76-104.9s-106.76,46.62-106.76,105.25c0,25.17,8.83,48.26,23.57,66.37,5.96,7.32,5.96,17.83,0,25.15-14.73,18.11-23.57,41.21-23.57,66.37,0,25.16,8.83,48.26,23.57,66.37,5.96,7.32,5.96,17.83,0,25.15-14.73,18.11-23.57,41.21-23.57,66.37,0,58.63,47.94,106.07,106.76,105.25,57.13-.79,103.58-47.75,103.77-104.89Z"/>
  <path class="cls-1" d="M538.74,6008.53c.09-25.33-8.78-48.58-23.61-66.78-5.94-7.3-5.9-17.8.04-25.1,14.73-18.11,23.57-41.21,23.57-66.37,0-25.16-8.83-48.26-23.57-66.37-5.94-7.3-5.99-17.8-.04-25.1,14.83-18.2,23.69-41.45,23.61-66.78-.19-57.14-46.63-104.1-103.76-104.9-58.82-.82-106.76,46.62-106.76,105.25,0,25.17,8.83,48.26,23.57,66.37,5.96,7.32,5.96,17.83,0,25.15-14.73,18.11-23.57,41.21-23.57,66.37,0,25.16,8.83,48.26,23.57,66.37,5.96,7.32,5.96,17.83,0,25.15-14.73,18.11-23.57,41.21-23.57,66.37,0,58.63,47.94,106.07,106.76,105.25,57.13-.79,103.58-47.75,103.77-104.89Z"/>
  <circle class="cls-1" cx="264.21" cy="5786.45" r="106.38"/>
  <g>
    <path class="cls-1" d="M3061.97,5984.36c-25.33.09-48.58-8.78-66.78-23.61-7.3-5.94-17.8-5.9-25.1.04-18.11,14.73-41.21,23.57-66.37,23.57-25.16,0-48.26-8.83-66.37-23.57-7.3-5.94-17.8-5.99-25.1-.04-18.2,14.83-41.45,23.69-66.78,23.61-57.14-.19-104.1-46.63-104.9-103.76-.82-58.82,46.62-106.76,105.25-106.76,25.17,0,48.26,8.83,66.37,23.57,7.32,5.96,17.83,5.96,25.15,0,18.11-14.73,41.21-23.57,66.37-23.57,25.16,0,48.26,8.83,66.37,23.57,7.32,5.96,17.83,5.96,25.15,0,18.11-14.73,41.21-23.57,66.37-23.57,58.63,0,106.07,47.94,105.25,106.76-.79,57.13-47.75,103.58-104.89,103.77Z"/>
    <g>
      <circle class="cls-1" cx="2275.32" cy="6158.65" r="105"/>
      <circle class="cls-1" cx="2749.32" cy="6158.65" r="105"/>
      <circle class="cls-1" cx="2591.32" cy="6158.65" r="105"/>
      <circle class="cls-1" cx="2433.32" cy="6158.65" r="105"/>
    </g>
  </g>
  <g>
    <path class="cls-1" d="M1175.22,5984.36c25.33.09,48.58-8.78,66.78-23.61,7.3-5.94,17.8-5.9,25.1.04,18.11,14.73,41.21,23.57,66.37,23.57,25.16,0,48.26-8.83,66.37-23.57,7.3-5.94,17.8-5.99,25.1-.04,18.2,14.83,41.45,23.69,66.78,23.61,57.14-.19,104.1-46.63,104.9-103.76.82-58.82-46.62-106.76-105.25-106.76-25.17,0-48.26,8.83-66.37,23.57-7.32,5.96-17.83,5.96-25.15,0-18.11-14.73-41.21-23.57-66.37-23.57-25.16,0-48.26,8.83-66.37,23.57-7.32,5.96-17.83,5.96-25.15,0-18.11-14.73-41.21-23.57-66.37-23.57-58.63,0-106.07,47.94-105.25,106.76.79,57.13,47.75,103.58,104.89,103.77Z"/>
    <g>
      <circle class="cls-1" cx="1961.87" cy="6158.65" r="105"/>
      <circle class="cls-1" cx="1487.87" cy="6158.65" r="105"/>
      <circle class="cls-1" cx="1645.87" cy="6158.65" r="105"/>
      <circle class="cls-1" cx="1803.87" cy="6158.65" r="105"/>
    </g>
  </g>
  <path class="cls-1" d="M3906.3,5565.59c-22.25,0-42.63,19.06-58.44,50.72-4.16,8.32-15.92,8.32-20.08,0-15.81-31.65-36.19-50.72-58.44-50.72-22.25,0-42.63,19.06-58.44,50.72-4.16,8.32-15.92,8.32-20.08,0-15.81-31.65-36.19-50.72-58.44-50.72-50.26,0-91,97.25-91,217.22,0,119.97,40.74,217.22,91,217.22,22.25,0,42.63-19.06,58.44-50.72,4.16-8.32,15.92-8.32,20.08,0,15.81,31.65,36.19,50.72,58.44,50.72,22.25,0,42.63-19.06,58.44-50.72,4.16-8.32,15.92-8.32,20.08,0,15.81,31.65,36.19,50.72,58.44,50.72,50.26,0,91-97.25,91-217.22s-40.74-217.22-91-217.22Z"/>
  <path class="cls-1" d="M3904.7,6038.08c-22.25,0-42.63,19.06-58.44,50.72-4.16,8.32-15.92,8.32-20.08,0-15.81-31.65-36.19-50.72-58.44-50.72-22.25,0-42.63,19.06-58.44,50.72-4.16,8.32-15.92,8.32-20.08,0-15.81-31.65-36.19-50.72-58.44-50.72-50.26,0-91,97.25-91,217.22s40.74,217.22,91,217.22c22.25,0,42.63-19.06,58.44-50.72,4.16-8.32,15.92-8.32,20.08,0,15.81,31.65,36.19,50.72,58.44,50.72,22.25,0,42.63-19.06,58.44-50.72,4.16-8.32,15.92-8.32,20.08,0,15.81,31.65,36.19,50.72,58.44,50.72,50.26,0,91-97.25,91-217.22,0-119.97-40.74-217.22-91-217.22Z"/>
  <ellipse class="cls-2" cx="5685.23" cy="6019.1" rx="50.42" ry="125.87"/>
  <circle class="cls-1" cx="157.66" cy="7113.79" r="105.26"/>
  <rect class="cls-1" x="1222.08" y="6966.63" width="139.04" height="306.98" rx="64.68" ry="64.68" transform="translate(8411.73 5828.51) rotate(90)"/>
  <path class="cls-1" d="M2511.96,7050.3c.11,11.11-10.97,21.31-29.51,29.29-7.43,3.2-7.37,7.81.05,11.01,18.42,7.94,29.46,18.07,29.46,29.11,0,11.04-11.04,21.17-29.46,29.11-7.42,3.2-7.48,7.81-.05,11.01,18.53,7.98,29.61,18.18,29.51,29.29-.24,25.06-58.29,45.66-129.71,46.01-73.53.36-133.45-20.45-133.45-46.17,0-11.04,11.04-21.17,29.46-29.11,7.44-3.21,7.44-7.82,0-11.03-18.42-7.94-29.46-18.07-29.46-29.11s11.04-21.17,29.46-29.11c7.44-3.21,7.44-7.82,0-11.03-18.42-7.94-29.46-18.07-29.46-29.11,0-25.72,59.92-46.52,133.45-46.17,71.42.35,129.47,20.95,129.71,46.01Z"/>
  <g>
    <circle class="cls-1" cx="4578.64" cy="5876.99" r="52.63"/>
    <circle class="cls-1" cx="4486.64" cy="5928.63" r="52.63"/>
    <circle class="cls-1" cx="4578.64" cy="5982.25" r="52.63"/>
    <circle class="cls-1" cx="4578.64" cy="6087.52" r="52.63"/>
    <circle class="cls-1" cx="4578.64" cy="6192.78" r="52.63"/>
    <circle class="cls-1" cx="4665.25" cy="5931.7" r="52.63"/>
  </g>
</svg>