<?xml version="1.0" encoding="UTF-8"?>
<svg id="A" xmlns="http://www.w3.org/2000/svg" viewBox="0 0 1080 1080">
  <path d="M740.64,485.65c-15.38-7.26-31.71-10.42-47.73-9.93,8.43-32.23,1.42-67.92-21.94-95.1-20.3-23.61-48.81-35.98-77.67-36.53,1.78-7.75,2.65-15.58,2.66-23.35.1-24.37-8.24-48.89-25.38-68.83-7.41-8.62-15.91-15.73-25.12-21.32,47.77-32.54,60.28-97.61,27.89-145.55-32.46-48.05-97.73-60.69-145.79-28.22-48.05,32.46-60.69,97.73-28.22,145.79,8.73,12.93,19.84,23.28,32.35,30.9-14.7,9.9-27.09,23.6-35.43,40.52-11.2,22.72-13.45,47.5-8.12,70.37,2.14,9.17-2.52,18.58-11.06,22.53-21.19,9.8-39.27,26.67-50.32,49.28-11.05,22.61-13.26,47.24-7.97,69.98,2.13,9.17-2.44,18.62-10.98,22.57-21.31,9.84-39.49,26.84-50.53,49.63-1.93,3.99-3.59,8.04-4.97,12.14h-71.12c-35.72,0-64.68,28.96-64.68,64.68v9.69c0,35.72,28.96,64.68,64.68,64.68h177.62c8.54,0,16.69-1.67,24.16-4.68,26.83-8.26,50.31-27.17,63.61-54.38,11.05-22.61,13.26-47.24,7.97-69.98-2.14-9.19,2.48-18.63,11.04-22.6,18.47-8.55,34.58-22.47,45.73-40.88.13.16.26.32.4.47,21.37,24.86,51.85,37.26,82.26,36.52-4.47,16.89-4.57,34.27-.75,50.65,2.14,9.17-2.52,18.58-11.06,22.53-21.19,9.8-39.27,26.67-50.32,49.28-11.05,22.61-13.26,47.24-7.97,69.98,2.13,9.17-2.44,18.62-10.98,22.57-21.31,9.84-39.49,26.84-50.53,49.63-1.93,3.99-3.59,8.04-4.97,12.14h-64.96c-35.72,0-64.68,28.96-64.68,64.68v9.69c0,35.72,28.96,64.68,64.68,64.68h177.62c16.01,0,30.66-5.83,41.95-15.47,16.55-10.1,30.52-24.88,39.66-43.59,11.05-22.61,13.26-47.24,7.97-69.98-2.14-9.19,2.48-18.63,11.04-22.6,21.19-9.8,39.27-26.67,50.32-49.28,11.05-22.61,13.26-47.24,7.97-69.98-2.14-9.19,2.48-18.63,11.04-22.6,21.19-9.8,39.27-26.67,50.32-49.28,25.75-52.68,3.51-116.35-49.7-141.44Z"/>
</svg>