<?xml version="1.0" encoding="UTF-8"?>
<svg id="A" xmlns="http://www.w3.org/2000/svg" viewBox="0 0 1080 1080">
  <path d="M808.01,885.4h-94.55c-.82-2.53-1.74-5.06-2.77-7.56-9.53-23.29-26.46-41.32-46.95-52.5-8.28-4.52-12.26-14.25-9.53-23.28,6.78-22.34,6.2-47.06-3.33-70.35-9.53-23.29-26.46-41.32-46.95-52.5-8.28-4.52-12.26-14.25-9.53-23.28,4.5-14.83,5.73-30.71,3.28-46.52,36.52-7.32,68.02-33.83,79.9-71.9,8.79-28.18,5.13-57.26-7.86-81.33,37.15-6.89,69.33-33.6,81.37-72.18,17.31-55.5-13.64-114.52-69.14-131.83-34.41-10.73-70.17-2.91-96.51,17.81-12.9-18.77-31.95-33.51-55.38-40.82-27.25-8.5-55.35-5.36-78.95,6.61-14.66-17.49-34.37-29.35-55.78-34.53,10.54-27.24,9.72-58.7-4.88-86.61-26.89-51.38-90.34-71.22-141.72-44.33-51.38,26.89-71.22,90.34-44.33,141.72,14.61,27.91,40,46.51,68.39,53.37-10.54,27.24-9.72,58.7,4.88,86.61,26.63,50.88,89.11,70.83,140.21,45.1,12.53,15.04,29.4,26.77,49.48,33.04,10.71,3.34,21.55,4.88,32.2,4.79-10.2,11.09-18.18,24.55-22.97,39.89-4.95,15.86-5.95,32.01-3.56,47.39-6.95,1.39-13.86,3.52-20.65,6.4-52.58,22.38-77.77,83.43-56.3,136.38,9.52,23.47,26.53,41.63,47.14,52.86,8.27,4.5,12.2,14.24,9.47,23.25-6.78,22.34-6.2,47.06,3.33,70.35,9.53,23.29,26.46,41.32,46.95,52.5,8.26,4.51,12.28,14.21,9.55,23.21-6.83,22.46-6.22,47.34,3.45,70.75,17.06,41.28,57.92,66.1,100.35,64.98,4.53,1,9.22,1.55,14.05,1.55h177.62c35.72,0,64.68-28.96,64.68-64.68v-9.69c0-35.72-28.96-64.68-64.68-64.68Z"/>
</svg>