<?xml version="1.0" encoding="UTF-8"?>
<svg id="A" xmlns="http://www.w3.org/2000/svg" viewBox="0 0 1080 1080">
  <path d="M893.57,141.07c-38.4-13.98-80.48-3.92-108.7,22.94-1.35,1.04-2.69,2.12-4,3.23-24,20.4-36.55,49.27-36.99,78.47-28.89-4.28-59.4,3.45-83.41,23.84-24,20.4-36.55,49.27-36.99,78.47-28.89-4.28-59.4,3.45-83.41,23.84-24,20.4-36.55,49.27-36.99,78.47-1.02-.15-2.05-.29-3.08-.41-4.35-22.24-15.87-43.25-34.32-59.25-19.01-16.49-42.25-24.95-65.58-25.69-9.43-.3-17.37-7.18-19-16.48-4.03-23-15.69-44.8-34.7-61.29-19.01-16.49-42.25-24.95-65.58-25.69-9.43-.3-17.37-7.18-19-16.48-4.03-23-15.69-44.8-34.7-61.29-44.29-38.42-111.54-33.29-149.46,11.68-36.84,43.68-31.8,109.53,11.24,147.12,19.08,16.66,42.45,25.2,65.92,25.93,9.41.29,17.31,7.21,18.93,16.48,4.03,22.99,15.69,44.8,34.7,61.29,19.01,16.49,42.25,24.95,65.58,25.69,9.41.3,17.37,7.14,18.99,16.42,4.03,23.13,15.79,45.06,34.98,61.59,16.53,14.24,36.35,22.41,56.66,24.7,3.36,17,10.97,33.4,22.99,47.54,37.55,44.19,103.81,49.57,148.01,12.02,24-20.4,36.55-49.27,36.99-78.47,10.31,1.53,20.83,1.52,31.19-.04.64,8.41,2.3,16.68,4.89,24.64,3.45,10.58-1.38,22.12-11.34,27.09-21.78,10.88-39.92,29.3-50.06,53.52-10.14,24.22-10.53,50.07-2.99,73.22,3.45,10.58-1.39,22.12-11.34,27.09-21.78,10.87-39.92,29.3-50.06,53.52-23.12,55.23,4.35,118.99,61.27,139.72,50.76,18.48,107.98-5.04,131.08-53.87,12.06-25.5,13.01-53.15,4.98-77.75-3.45-10.56,1.41-22.09,11.35-27.06,21.78-10.87,39.92-29.3,50.06-53.52,10.14-24.22,10.53-50.07,2.99-73.22-3.45-10.58,1.39-22.12,11.34-27.09,21.78-10.87,39.92-29.3,50.06-53.52,10.14-24.22,10.53-50.07,2.99-73.22-3.45-10.58,1.39-22.12,11.34-27.09,21.78-10.87,39.92-29.3,50.06-53.52,10.14-24.22,10.53-50.07,2.99-73.22-2.39-7.35-.78-15.16,3.76-20.91,6.89-3.58,13.48-7.98,19.65-13.22.03-.03.07-.06.1-.09,16.31-11.08,29.71-26.84,37.89-46.39,23.12-55.24-4.35-119-61.27-139.72Z"/>
  <circle cx="503.42" cy="209.35" r="105.24" transform="translate(166.78 638.23) rotate(-74.45)"/>
</svg>