<?xml version="1.0" encoding="UTF-8"?>
<svg id="A" xmlns="http://www.w3.org/2000/svg" viewBox="0 0 1080 1080">
  <path d="M403.85,520.97c22.25,0,42.63-19.06,58.44-50.72,4.16-8.32,15.92-8.32,20.08,0,15.81,31.65,36.19,50.72,58.44,50.72s42.63-19.06,58.44-50.72c4.16-8.32,15.92-8.32,20.08,0,15.81,31.65,36.19,50.72,58.44,50.72,50.26,0,91-97.25,91-217.22s-40.74-217.22-91-217.22c-22.25,0-42.63,19.06-58.44,50.72-4.16,8.32-15.92,8.32-20.08,0-15.81-31.65-36.19-50.72-58.44-50.72s-42.63,19.06-58.44,50.72c-4.16,8.32-15.92,8.32-20.08,0-15.81-31.65-36.19-50.72-58.44-50.72-50.26,0-91,97.25-91,217.22s40.74,217.22,91,217.22Z"/>
  <path d="M676.15,559.03c-22.25,0-42.63,19.06-58.44,50.72-4.16,8.32-15.92,8.32-20.08,0-15.81-31.65-36.19-50.72-58.44-50.72s-42.63,19.06-58.44,50.72c-4.16,8.32-15.92,8.32-20.08,0-15.81-31.65-36.19-50.72-58.44-50.72-50.26,0-91,97.25-91,217.22s40.74,217.22,91,217.22c22.25,0,42.63-19.06,58.44-50.72,4.16-8.32,15.92-8.32,20.08,0,15.81,31.65,36.19,50.72,58.44,50.72s42.63-19.06,58.44-50.72c4.16-8.32,15.92-8.32,20.08,0,15.81,31.65,36.19,50.72,58.44,50.72,50.26,0,91-97.25,91-217.22s-40.74-217.22-91-217.22Z"/>
</svg>