<?xml version="1.0" encoding="UTF-8"?>
<svg id="A" xmlns="http://www.w3.org/2000/svg" viewBox="0 0 1080 1080">
  <path d="M751.76,746.01c14.73-18.11,23.57-41.21,23.57-66.37s-8.83-48.26-23.57-66.37c-5.94-7.3-5.99-17.8-.04-25.1,14.83-18.2,23.69-41.45,23.61-66.78-.19-57.14-46.63-104.1-103.76-104.9-35.91-.5-67.77,16.99-87.14,44.03-4.15-7.06-3.55-16.11,1.74-22.63,14.73-18.11,23.57-41.21,23.57-66.37s-8.83-48.26-23.57-66.37c-5.94-7.3-5.99-17.8-.04-25.1,14.83-18.2,23.69-41.45,23.61-66.78-.19-57.14-46.63-104.1-103.76-104.9-58.82-.82-106.76,46.62-106.76,105.25,0,3.17.14,6.31.42,9.41-17.86-13.61-40.14-21.7-64.32-21.72-58.75-.05-106.42,47.54-106.47,106.29s47.54,106.42,106.29,106.47c24.9.02,47.82-8.52,65.96-22.84,3.31,17.46,10.92,33.39,21.7,46.65,5.96,7.32,5.96,17.83,0,25.15-14.73,18.11-23.57,41.21-23.57,66.37,0,58.63,47.94,106.07,106.76,105.25,34.56-.48,65.2-17.85,84.07-44.15,4.21,7.09,3.67,16.19-1.66,22.74-14.73,18.11-23.57,41.21-23.57,66.37s8.83,48.26,23.57,66.37c5.96,7.32,5.96,17.83,0,25.15-14.73,18.11-23.57,41.21-23.57,66.37,0,58.63,47.94,106.07,106.76,105.25,57.13-.79,103.58-47.75,103.77-104.89.09-25.33-8.78-48.58-23.61-66.78-5.94-7.3-5.9-17.8.04-25.1Z"/>
</svg>