<?xml version="1.0" encoding="UTF-8"?>
<svg id="A" xmlns="http://www.w3.org/2000/svg" viewBox="0 0 1080 1080">
  <path d="M800.63,540.53c21.78-19.46,35.38-47.85,35.07-79.34s-14.45-59.62-36.6-78.65c21.78-19.46,35.38-47.85,35.07-79.34-.3-30.7-13.74-58.18-34.93-77.18,35.43-31.34,46.28-83.91,23.22-127.61-9.39-17.8-23.18-31.78-39.32-41.33-16.38-10.22-35.78-16.05-56.52-15.85-49.42.48-90.52,35.02-101.25,81.11-26.78-9.62-57.36-8.38-84.52,5.95-27.86,14.7-46.37,40.16-53.14,68.57-27.27-10.45-58.74-9.53-86.6,5.17-27.86,14.7-46.37,40.16-53.14,68.57-27.27-10.45-58.74-9.53-86.6,5.17-51.29,27.06-70.92,90.58-43.86,141.87,27.06,51.29,90.58,70.92,141.87,43.86,27.86-14.7,46.37-40.16,53.14-68.57,27.27,10.45,58.74,9.53,86.6-5.17,27.86-14.7,46.37-40.16,53.14-68.57,22.94,8.79,48.85,9.53,73.09.79,3.83,25.47,16.79,47.9,35.42,63.91-21.78,19.46-35.38,47.85-35.07,79.34.31,31.5,14.45,59.62,36.6,78.65-19.16,17.12-31.98,41.14-34.58,68.12-7-1.47-14.25-2.24-21.68-2.24-58.12,0-105.24,47.12-105.24,105.24,0,28.63,11.44,54.59,29.99,73.56-41.91,7.72-70.68,23.14-70.85,40.77-.11,11.11,10.97,21.31,29.51,29.29,7.43,3.2,7.37,7.81-.05,11.01-18.42,7.94-29.46,18.07-29.46,29.11s11.04,21.17,29.46,29.11c7.42,3.2,7.48,7.81.05,11.01-18.53,7.98-29.61,18.18-29.51,29.29.24,25.06,58.29,45.66,129.71,46.01,73.53.36,133.45-20.45,133.45-46.17,0-11.04-11.04-21.17-29.46-29.11-7.44-3.21-7.44-7.82,0-11.03,18.42-7.94,29.46-18.07,29.46-29.11,0-11.04-11.04-21.17-29.46-29.11-7.44-3.21-7.44-7.82,0-11.03,18.42-7.94,29.46-18.07,29.46-29.11,0-14.28-18.48-27.05-47.51-35.51,19.53-17.21,32.62-41.56,35.21-68.96,7.24,1.5,14.75,2.26,22.44,2.19,57.99-.56,104.54-48.03,103.98-106.01-.31-31.5-14.45-59.62-36.6-78.65Z"/>
</svg>