<?xml version="1.0" encoding="UTF-8"?>
<svg id="A" xmlns="http://www.w3.org/2000/svg" viewBox="0 0 1080 1080">
  <path d="M811.01,182.3c-26.1-9.28-100.61,132.4-170.48,321.89,16.43-200.02,8.69-358.52-18.77-361.13-26.32-2.49-61.76,139.14-83.53,326.66-29.13-186.73-70.15-327.09-96.38-323.56-26.02,3.5-28.63,147.45-7.88,333.11-70.02-172.85-140.67-297.9-165.19-288.61-27.36,10.37,13.09,184.13,90.36,388.1,76.97,203.17,161.42,359.68,189.13,350.67,3.03-.15,6.17-2.15,9.39-5.86,34.57-23.66,106.1-169.1,170.93-351.42,73.08-205.52,109.97-380.07,82.4-389.87Z"/>
</svg>