<?xml version="1.0" encoding="UTF-8"?>
<svg id="A" xmlns="http://www.w3.org/2000/svg" viewBox="0 0 1080 1080">
  <path d="M910.08,942.86c-7.43-3.2-7.37-7.81.05-11.01,18.42-7.94,29.46-18.07,29.46-29.11s-11.04-21.17-29.46-29.11c-7.42-3.2-7.48-7.81-.05-11.01,18.53-7.98,29.61-18.18,29.51-29.29-.15-15.95-23.71-30.08-59.22-38.35,20.16-19.15,32.81-46.14,32.91-75.9.09-25.33-8.78-48.58-23.61-66.78-5.94-7.3-5.9-17.8.04-25.1,14.73-18.11,23.57-41.21,23.57-66.37s-8.83-48.26-23.57-66.37c-5.94-7.3-5.99-17.8-.04-25.1,14.83-18.2,23.69-41.45,23.61-66.78-.19-57.14-46.63-104.1-103.76-104.9-5.24-.07-10.4.24-15.44.91,4.64-11.75,7.24-24.54,7.34-37.93.42-58.13-46.37-105.6-104.5-106.02-9.36-.07-18.44,1.1-27.1,3.33-1.19-57.1-47.85-103.03-105.23-103.03-56.59,0-102.74,44.65-105.16,100.64-8.44-2.18-17.3-3.35-26.42-3.35-58.14,0-105.26,47.13-105.26,105.26,0,13.66,2.6,26.72,7.34,38.7-5.02-.82-10.16-1.28-15.39-1.35-58.82-.82-106.76,46.62-106.76,105.25,0,25.17,8.83,48.26,23.57,66.37,5.96,7.32,5.96,17.83,0,25.15-14.73,18.11-23.57,41.21-23.57,66.37s8.83,48.26,23.57,66.37c5.96,7.32,5.96,17.83,0,25.15-14.73,18.11-23.57,41.21-23.57,66.37,0,31.21,13.58,59.24,35.16,78.52-36.93,8.18-61.47,22.62-61.47,39.08,0,11.04,11.04,21.17,29.46,29.11,7.44,3.21,7.44,7.82,0,11.03-18.42,7.94-29.46,18.07-29.46,29.11s11.04,21.17,29.46,29.11c7.44,3.21,7.44,7.82,0,11.03-18.42,7.94-29.46,18.07-29.46,29.11,0,25.72,59.92,46.53,133.45,46.17,71.42-.35,129.47-20.95,129.71-46.01.11-11.11-10.97-21.31-29.51-29.29-7.43-3.2-7.37-7.81.05-11.01,18.42-7.94,29.46-18.07,29.46-29.11s-11.04-21.17-29.46-29.11c-7.42-3.2-7.48-7.81-.05-11.01,18.53-7.98,29.61-18.18,29.51-29.29-.16-16.31-24.81-30.73-61.69-38.91,21.59-19.26,35.27-47.22,35.38-78.17.09-25.33-8.78-48.58-23.61-66.78-5.94-7.3-5.9-17.8.04-25.1,14.73-18.11,23.57-41.21,23.57-66.37s-8.83-48.26-23.57-66.37c-5.94-7.3-5.99-17.8-.04-25.1,14.83-18.2,23.69-41.45,23.61-66.78-.04-13.51-2.68-26.45-7.42-38.35,5.52.9,11.19,1.37,16.97,1.37,56.59,0,102.74-44.65,105.16-100.64,8.44,2.18,17.3,3.35,26.42,3.35s17.92-1.15,26.34-3.32c1.18,56.76,47.35,102.61,104.48,103.02,4.98.04,9.89-.28,14.69-.92-4.73,11.98-7.34,25.02-7.34,38.68,0,25.17,8.83,48.26,23.57,66.37,5.96,7.32,5.96,17.83,0,25.15-14.73,18.11-23.57,41.21-23.57,66.37s8.83,48.26,23.57,66.37c5.96,7.32,5.96,17.83,0,25.15-14.73,18.11-23.57,41.21-23.57,66.37,0,30,12.56,57.07,32.7,76.24-35.56,8.27-59.01,22.43-59.01,38.52,0,11.04,11.04,21.17,29.46,29.11,7.44,3.21,7.44,7.82,0,11.03-18.42,7.94-29.46,18.07-29.46,29.11s11.04,21.17,29.46,29.11c7.44,3.21,7.44,7.82,0,11.03-18.42,7.94-29.46,18.07-29.46,29.11,0,25.72,59.92,46.53,133.45,46.17,71.42-.35,129.47-20.95,129.71-46.01.11-11.11-10.97-21.31-29.51-29.29Z"/>
</svg>