<?xml version="1.0" encoding="UTF-8"?>
<svg id="A" xmlns="http://www.w3.org/2000/svg" viewBox="0 0 1080 1080">
  <path d="M894.74,137.61c-41.86-41.33-109.29-40.33-149.91,1.96-17.43,18.15-27.06,40.93-28.98,64.19-.78,9.4-8.06,16.98-17.42,18.14-23.17,2.86-45.54,13.4-62.97,31.55-17.43,18.15-27.06,40.93-28.98,64.19-.63,7.6-5.51,14.01-12.31,16.8-7.37.83-14.51,2.41-21.35,4.67-17.23,4.95-33.43,14.36-46.74,28.22-33.27,34.64-38.13,86.14-15.17,125.71,6.62,13.07,15.88,24.54,27.06,33.73-21.35,19.93-34.33,48.6-33.34,80.09s15.74,59.29,38.3,77.84c-3.62,3.37-6.99,7-10.1,10.85-5.1-1.44-10.3-2.51-15.54-3.16-11.04-1.38-19.43-10.66-19.7-21.78-.58-24.34-9.55-48.59-27.17-68.06-17.61-19.47-40.85-30.82-65-33.84-11.04-1.38-19.43-10.66-19.7-21.78-.58-24.34-9.55-48.59-27.17-68.06-17.61-19.47-40.85-30.82-65-33.84-11.03-1.38-19.44-10.64-19.7-21.75-.02-1.05-.07-2.1-.13-3.15,3.17-4.31,8.03-7.31,13.63-8.01,23.17-2.86,45.54-13.4,62.97-31.55,17.43-18.15,27.06-40.93,28.98-64.19.77-9.38,8.01-16.99,17.36-18.13,23.3-2.86,45.8-13.49,63.28-31.81,39.44-41.34,38.48-107.38-2.18-147.53-41.86-41.33-109.29-40.33-149.91,1.96-17.43,18.15-27.06,40.93-28.98,64.19-.78,9.4-8.06,16.98-17.42,18.14-23.17,2.86-45.54,13.4-62.97,31.55-17.43,18.15-27.06,40.93-28.98,64.19-.78,9.4-8.06,16.98-17.42,18.14-23.17,2.86-45.54,13.4-62.97,31.55-37.59,39.14-38.91,99.82-4.81,140.47,1.91,2.54,3.94,5.02,6.12,7.42,17.61,19.47,40.85,30.82,65,33.84,11.04,1.38,19.43,10.66,19.7,21.78.58,24.34,9.55,48.59,27.17,68.06,17.61,19.47,40.85,30.82,65,33.84,11.04,1.38,19.43,10.66,19.7,21.78.58,24.34,9.55,48.59,27.17,68.06,17.61,19.47,40.85,30.82,65,33.84,11.04,1.38,19.43,10.66,19.7,21.78.58,24.34,9.55,48.59,27.17,68.06,17.61,19.47,40.85,30.82,65,33.84,11.03,1.38,19.44,10.64,19.7,21.75.61,25.86,10.69,51.63,30.55,71.67,31.34,31.63,78.82,39.31,117.91,21.83,39.43-16.11,66.65-55.44,65.24-100.52-.99-31.48-15.74-59.29-38.3-77.84,21.35-19.93,34.33-48.6,33.34-80.09s-15.74-59.29-38.3-77.84c21.35-19.93,34.33-48.6,33.34-80.09-.99-31.48-15.74-59.29-38.3-77.84,8.25-7.7,15.25-16.7,20.67-26.67,9.93-16.16,15.66-35.17,15.68-55.52,0-1.2-.02-2.39-.06-3.57,3.08-3.14,7.19-5.27,11.81-5.84,23.17-2.86,45.54-13.4,62.97-31.55,17.43-18.15,27.06-40.93,28.98-64.19.77-9.38,8.01-16.99,17.36-18.13,23.3-2.86,45.8-13.49,63.28-31.81,39.44-41.34,38.48-107.38-2.18-147.53Z"/>
</svg>