<?xml version="1.0" encoding="UTF-8"?>
<svg id="A" xmlns="http://www.w3.org/2000/svg" viewBox="0 0 1080 1080">
  <path d="M816.36,70.3c-51.38-26.89-114.83-7.05-141.72,44.33-14.61,27.91-15.42,59.37-4.88,86.61-21.41,5.18-41.12,17.04-55.78,34.53-23.6-11.97-51.69-15.11-78.95-6.61-23.43,7.31-42.48,22.05-55.38,40.82-26.34-20.72-62.1-28.55-96.51-17.81-55.5,17.31-86.45,76.34-69.14,131.83,12.03,38.57,44.22,65.28,81.37,72.18-12.99,24.07-16.65,53.15-7.86,81.33,11.87,38.07,43.37,64.58,79.9,71.9-2.45,15.81-1.21,31.69,3.28,46.52,2.74,9.03-1.24,18.76-9.53,23.28-20.49,11.18-37.42,29.21-46.95,52.5-9.53,23.29-10.11,48.01-3.33,70.35,2.74,9.03-1.24,18.76-9.53,23.28-20.49,11.18-37.42,29.21-46.95,52.5-1.03,2.51-1.95,5.03-2.77,7.56h-94.55c-35.72,0-64.68,28.96-64.68,64.68v9.69c0,35.72,28.96,64.68,64.68,64.68h177.62c4.83,0,9.53-.55,14.05-1.55,42.43,1.12,83.29-23.7,100.35-64.98,9.67-23.41,10.28-48.29,3.45-70.75-2.74-9.01,1.28-18.71,9.55-23.21,20.49-11.18,37.42-29.21,46.95-52.5,9.53-23.29,10.11-48.01,3.33-70.35-2.73-9.01,1.2-18.74,9.47-23.25,20.62-11.23,37.63-29.39,47.14-52.86,21.47-52.95-3.72-114.01-56.3-136.38-6.79-2.89-13.7-5.01-20.65-6.4,2.38-15.38,1.38-31.53-3.56-47.39-4.79-15.34-12.76-28.8-22.96-39.89,10.65.08,21.49-1.45,32.2-4.79,20.08-6.26,36.95-17.99,49.48-33.04,51.1,25.73,113.58,5.78,140.21-45.1,14.61-27.91,15.42-59.37,4.88-86.61,28.39-6.86,53.78-25.46,68.39-53.37,26.89-51.38,7.05-114.83-44.33-141.72Z"/>
</svg>