<?xml version="1.0" encoding="UTF-8"?>
<svg id="A" xmlns="http://www.w3.org/2000/svg" viewBox="0 0 1080 1080">
  <path d="M917.86,395.23c-5.94-7.3-5.9-17.8.04-25.1,14.73-18.11,23.57-41.21,23.57-66.37s-8.83-48.26-23.57-66.37c-5.94-7.3-5.99-17.8-.04-25.1,14.83-18.2,23.69-41.45,23.61-66.78-.07-20.7-6.21-40.06-16.73-56.38-.3-.46-.6-.92-.9-1.38-.08-.12-.16-.25-.24-.37-16.24-24.33-42.36-41.49-72.63-45.75-.06,0-.12-.02-.19-.03-.74-.1-1.48-.2-2.22-.28-.2-.02-.41-.05-.61-.07-.62-.07-1.24-.13-1.86-.19-.32-.03-.63-.06-.95-.08-.53-.04-1.05-.08-1.58-.12-.4-.03-.8-.05-1.2-.08-.46-.03-.93-.05-1.4-.07-.45-.02-.89-.04-1.34-.05-.44-.01-.88-.03-1.32-.03-.21,0-.41-.01-.62-.02-.25,0-.5,0-.75,0-.25,0-.5,0-.75,0-.21,0-.42,0-.63,0-.45,0-.9,0-1.35.02-.45,0-.91.02-1.36.03-.46.01-.92.03-1.37.05-.44.02-.87.04-1.31.07-.47.03-.95.06-1.42.09-.41.03-.82.06-1.23.09-.5.04-.99.08-1.49.13-.38.04-.75.07-1.13.11-.53.06-1.06.12-1.59.18-.33.04-.66.08-1,.13-.57.07-1.14.15-1.71.24-.28.04-.56.08-.84.13-.62.1-1.24.2-1.85.31-.22.04-.44.08-.65.12-.68.12-1.35.25-2.03.39-.15.03-.3.06-.45.09-.74.15-1.48.31-2.21.48-.07.02-.15.03-.22.05-21.77,5.04-40.96,16.83-55.23,33.05-19.24-21.92-47.47-35.77-78.94-35.77s-59.75,13.87-79,35.84c-19.25-21.97-47.5-35.84-79-35.84s-59.75,13.87-79,35.84c-19.25-21.97-47.5-35.84-79-35.84-57.99,0-105,47.01-105,105s47.01,105,105,105c31.5,0,59.75-13.87,79-35.84,19.25,21.97,47.5,35.84,79,35.84s59.75-13.87,79-35.84c19.25,21.97,47.5,35.84,79,35.84s59.18-13.6,78.41-35.18c3.72,6.97,3.03,15.65-2.11,21.96-14.73,18.11-23.57,41.21-23.57,66.37s8.83,48.26,23.57,66.37c5.96,7.32,5.96,17.83,0,25.15-14.73,18.11-23.57,41.21-23.57,66.37,0,19.13,5.11,37.07,14.03,52.53-8.05,9.08-14.45,19.36-19.02,30.37-4.36,10.53-15.83,16.35-26.91,13.64-24.24-5.92-50.68-3.53-74.73,8.67-24.06,12.2-41.6,32.12-51.15,55.17-4.36,10.53-15.83,16.35-26.91,13.64-24.24-5.92-50.68-3.53-74.73,8.67-24.06,12.2-41.6,32.12-51.15,55.17-4.36,10.53-15.83,16.35-26.91,13.65-24.24-5.92-50.68-3.53-74.73,8.67-24.06,12.2-41.6,32.12-51.15,55.17-4.36,10.52-15.81,16.36-26.87,13.65-25.76-6.29-53.99-3.21-79.22,11.05-48.31,27.31-68.24,87.49-45.64,137.85,25.34,56.47,92.6,79.6,147.46,51.77,24.06-12.2,41.6-32.12,51.15-55.17,4.36-10.53,15.83-16.35,26.91-13.65,24.24,5.92,50.68,3.53,74.74-8.67,24.06-12.2,41.6-32.12,51.15-55.17,4.36-10.53,15.83-16.35,26.91-13.64,24.24,5.92,50.68,3.53,74.73-8.67,24.06-12.2,41.6-32.12,51.15-55.17,4.36-10.53,15.83-16.35,26.91-13.64,24.24,5.92,50.68,3.53,74.74-8.67,24.06-12.2,41.6-32.12,51.15-55.17,4.36-10.52,15.81-16.36,26.87-13.65,25.76,6.29,53.99,3.21,79.22-11.05,48.31-27.32,68.23-87.49,45.63-137.85-2.05-4.56-4.37-8.9-6.93-13.01,14.81-18.09,23.75-41.14,23.83-66.13.09-25.33-8.78-48.58-23.61-66.78Z"/>
  <circle cx="546.57" cy="408.75" r="105.24"/>
</svg>