<?xml version="1.0" encoding="UTF-8"?>
<svg id="A" xmlns="http://www.w3.org/2000/svg" viewBox="0 0 1080 1080">
  <path d="M897.9,469.08c1.87-10.95,11.49-18.94,22.6-18.71,25.86.54,52.05-8.37,72.96-27.32,40.04-36.27,45.95-97.85,13.55-141.08-36.34-48.47-105.32-56.26-151.48-18.12-20.24,16.73-32.62,39.43-36.71,63.43-1.87,10.97-11.51,18.94-22.64,18.71-24.34-.5-48.97,7.37-69.21,24.1-20.24,16.73-32.62,39.43-36.71,63.43-1.87,10.97-11.51,18.94-22.64,18.71-24.34-.5-48.97,7.37-69.21,24.1-20.24,16.73-32.62,39.43-36.71,63.43-1.87,10.97-11.51,18.94-22.64,18.71-24.34-.5-48.97,7.37-69.21,24.1-20.24,16.73-32.62,39.43-36.71,63.43-1.87,10.95-11.49,18.94-22.6,18.71-14.19-.3-28.48,2.26-41.94,7.75-5.86-18.47-16.7-34.72-30.93-47.19,21.97-19.25,35.84-47.5,35.84-79s-13.87-59.75-35.84-79c14.54-12.74,25.53-29.43,31.3-48.39,4.5-5.51,11.74-8.34,19.03-7,22.96,4.23,47.46.89,69.54-11.19,22.08-12.08,38.1-30.92,46.91-52.53,3.56-8.74,12.78-13.78,22.06-12.07,22.96,4.23,47.46.89,69.54-11.19,51.44-28.15,70.04-92.97,41.09-144.18-28.12-49.74-91.61-67.94-141.83-40.68-22.26,12.08-38.4,31.02-47.26,52.77-3.55,8.72-12.78,13.72-22.04,12.01-22.96-4.23-47.46-.89-69.54,11.19-22.08,12.08-38.1,30.92-46.91,52.53-3.55,8.72-12.74,13.8-22,12.09-23.09-4.27-47.74-.88-69.92,11.35-36.95,20.38-56.92,60.23-54.07,100.01,1.04,30,14.67,56.8,35.77,75.28-21.97,19.25-35.84,47.5-35.84,79s13.87,59.75,35.84,79c-21.97,19.25-35.84,47.5-35.84,79s13.87,59.75,35.84,79c-21.97,19.25-35.84,47.5-35.84,79,0,57.99,47.01,105,105,105s101.12-43.24,104.76-97.93c33.72,11.89,72.67,6.32,102.24-18.12,20.24-16.73,32.62-39.43,36.71-63.43,1.87-10.97,11.51-18.94,22.64-18.71,24.34.5,48.97-7.37,69.21-24.1,20.24-16.73,32.62-39.43,36.71-63.43,1.87-10.97,11.51-18.94,22.64-18.71,24.34.5,48.97-7.37,69.21-24.1,20.24-16.73,32.62-39.43,36.71-63.43,1.87-10.97,11.51-18.94,22.64-18.71,24.34.5,48.97-7.37,69.21-24.1,20.24-16.73,32.62-39.43,36.71-63.43Z"/>
  <circle cx="932.27" cy="663.22" r="105.24" transform="translate(-195.91 853.47) rotate(-45)"/>
</svg>