<?xml version="1.0" encoding="UTF-8"?>
<svg id="A" xmlns="http://www.w3.org/2000/svg" viewBox="0 0 1080 1080">
  <path d="M777.32,415.91c-31.5,0-59.75,13.87-79,35.84-19.25-21.97-47.5-35.84-79-35.84-31.5,0-59.75,13.87-79,35.84-19.25-21.97-47.5-35.84-79-35.84s-59.75,13.87-79,35.84c-19.25-21.97-47.5-35.84-79-35.84-57.99,0-105,47.01-105,105s47.01,105,105,105c31.5,0,59.75-13.87,79-35.84,19.25,21.97,47.5,35.84,79,35.84s59.75-13.87,79-35.84c19.25,21.97,47.5,35.84,79,35.84,31.5,0,59.75-13.87,79-35.84,19.25,21.97,47.5,35.84,79,35.84,57.99,0,105-47.01,105-105s-47.01-105-105-105Z"/>
</svg>