<?xml version="1.0" encoding="UTF-8"?>
<svg id="A" xmlns="http://www.w3.org/2000/svg" viewBox="0 0 1080 1080">
  <path d="M476.55,614.13c24.04,3.84,49.52-.58,71.86-14.37,22.34-13.79,37.72-34.58,45.06-57.79,3.36-10.61,14-17.18,24.99-15.42,24.04,3.84,49.52-.58,71.86-14.37,22.34-13.79,37.72-34.58,45.06-57.79,3.36-10.61,14-17.18,24.99-15.42,24.04,3.84,49.52-.58,71.86-14.37,22.34-13.79,37.72-34.58,45.06-57.79,3.35-10.59,13.98-17.18,24.96-15.43,6.29,1.01,12.69,1.45,19.1,1.3,6.32.14,12.75-.27,19.23-1.3,53.35-8.5,91.96-56.84,88.43-110.75-3.74-57.27-51.97-99.97-107.63-98.59-19.74-.5-39.84,4.53-57.9,15.67-10.81,6.67-19.97,14.99-27.39,24.41-6.18,1.69-13.01.74-18.62-3.09-20.11-13.72-45.04-20.58-71.13-17.63-26.09,2.95-48.86,15.2-65.4,33.06-7.56,8.16-19.99,9.57-29.18,3.3-20.11-13.72-45.04-20.58-71.13-17.63-26.09,2.95-48.86,15.2-65.4,33.06-7.56,8.16-19.99,9.57-29.18,3.3-20.11-13.72-45.04-20.58-71.13-17.63-26.09,2.95-48.86,15.2-65.4,33.06-7.55,8.15-19.98,9.58-29.15,3.32-21.36-14.59-48.17-21.43-76.03-16.99-51.15,8.15-88.74,52.92-88.65,104.11h0c-58.14,0-105.26,47.13-105.26,105.26s47.13,105.26,105.26,105.26,105.26-47.13,105.26-105.26h0c3.94,0,7.92-.22,11.92-.68,26.09-2.95,48.86-15.2,65.4-33.06,7.56-8.16,19.99-9.57,29.18-3.3,20.11,13.72,45.04,20.58,71.13,17.63,26.09-2.95,48.86-15.2,65.4-33.06,7.56-8.16,19.99-9.57,29.18-3.3,2.33,1.59,4.73,3.08,7.18,4.49-2.26,4.65-4.19,9.44-5.75,14.34-3.36,10.61-14,17.18-24.99,15.42-24.04-3.84-49.52.58-71.86,14.37-22.34,13.79-37.72,34.58-45.06,57.79-3.35,10.59-13.98,17.18-24.96,15.43-25.54-4.09-52.71,1.15-76.02,17.05-25.55,17.42-41.16,44.6-44.93,73.52-3.95-1.19-8.01-2.17-12.18-2.9-53.19-9.44-105.5,23.6-119.82,75.69-16.06,58.41,20.02,117.72,78.44,130.85,25.62,5.76,51.14,1.64,72.62-9.83,9.81-5.24,22.02-2.49,28.65,6.44,14.51,19.55,35.82,34.2,61.43,39.95,25.62,5.76,51.14,1.64,72.62-9.83,9.81-5.24,22.02-2.49,28.65,6.44,14.51,19.55,35.82,34.2,61.43,39.95,25.62,5.76,51.14,1.64,72.62-9.83,9.81-5.24,22.02-2.49,28.65,6.44,14.51,19.55,35.82,34.2,61.44,39.95,25.62,5.76,51.14,1.64,72.62-9.83,9.8-5.23,22.01-2.51,28.63,6.41,15.41,20.78,38.5,36.02,66.28,40.95,53.19,9.44,105.5-23.6,119.82-75.69,16.06-58.41-20.02-117.72-78.45-130.85-25.62-5.76-51.14-1.64-72.62,9.83-9.81,5.24-22.02,2.49-28.65-6.44-14.51-19.55-35.82-34.2-61.43-39.95-25.62-5.76-51.14-1.64-72.62,9.83-9.81,5.24-22.02,2.49-28.65-6.44-14.51-19.55-35.82-34.2-61.43-39.95-25.62-5.76-51.14-1.64-72.62,9.83-9.81,5.24-22.02,2.49-28.65-6.44-4.79-6.45-10.32-12.35-16.5-17.59,1.73-3.81,3.24-7.71,4.5-11.69,3.36-10.61,14-17.18,24.99-15.42Z"/>
</svg>