<?xml version="1.0" encoding="UTF-8"?>
<svg id="A" xmlns="http://www.w3.org/2000/svg" viewBox="0 0 1080 1080">
  <path d="M538.4,407.54c4.47-10.46,15.96-16.08,26.97-13.2,24.08,6.31,50.44,4.35,74.55-7.45,24.11-11.8,41.83-31.42,51.62-54.3,4.47-10.46,15.96-16.08,26.97-13.2,24.08,6.31,50.44,4.35,74.55-7.45,24.11-11.8,41.83-31.42,51.62-54.3,4.47-10.44,15.95-16.09,26.93-13.21,25.58,6.71,53.74,4.09,79.05-9.75,48.46-26.51,69.03-86.32,47.12-137.02-24.56-56.85-91.29-81.06-146.28-54.15-24.11,11.8-41.83,31.42-51.62,54.3-4.47,10.46-15.96,16.08-26.97,13.2-24.08-6.31-50.44-4.35-74.55,7.45s-41.83,31.42-51.62,54.3c-4.47,10.46-15.96,16.08-26.97,13.2-24.08-6.31-50.44-4.35-74.55,7.45-24.11,11.8-41.83,31.42-51.62,54.3-4.47,10.46-15.96,16.08-26.97,13.2-24.08-6.31-50.44-4.35-74.55,7.45-24.11,11.8-41.83,31.42-51.62,54.3-4.47,10.44-15.95,16.09-26.93,13.21-25.58-6.71-53.75-4.09-79.05,9.75-48.45,26.51-69.03,86.32-47.12,137.02,4.25,9.84,9.77,18.7,16.27,26.49,7.13,9.99,16.09,18.92,26.81,26.26,22.15,15.17,47.95,20.92,72.69,18.17,11.3-1.26,21.86,5.97,24.77,16.97,6.37,24.06,21.06,46.04,43.21,61.21,22.15,15.17,47.95,20.92,72.69,18.17,11.3-1.26,21.86,5.97,24.77,16.97,6.37,24.06,21.06,46.04,43.21,61.21,22.15,15.17,47.95,20.92,72.69,18.17,11.3-1.26,21.86,5.97,24.77,16.97,1.34,5.08,3.08,10.05,5.16,14.89-4.01,3.46-7.77,7.19-11.22,11.19-7.43,8.61-20.08,10.49-29.7,4.42-21.04-13.3-46.76-19.41-73.31-15.47-26.55,3.95-49.38,17.28-65.64,36.13-7.43,8.61-20.08,10.49-29.7,4.42-21.04-13.3-46.76-19.41-73.31-15.47-26.55,3.95-49.38,17.28-65.64,36.13-7.42,8.6-20.07,10.51-29.67,4.43-22.35-14.14-49.98-20.17-78.29-14.63-54.21,10.6-91.92,61.38-86.38,116.33,6.2,61.62,62.47,104.89,123.02,95.88,26.55-3.95,49.38-17.28,65.64-36.13,7.43-8.61,20.08-10.49,29.7-4.42,21.04,13.3,46.76,19.41,73.31,15.47,26.55-3.95,49.38-17.28,65.64-36.13,7.43-8.61,20.08-10.49,29.7-4.42,21.04,13.3,46.76,19.41,73.31,15.47,26.55-3.95,49.38-17.28,65.64-36.13,7.43-8.61,20.08-10.49,29.7-4.42,21.04,13.3,46.76,19.41,73.31,15.47,26.55-3.95,49.38-17.28,65.64-36.13,7.42-8.6,20.07-10.51,29.67-4.43,22.35,14.14,49.99,20.17,78.29,14.63,41.71-8.16,73.65-40.11,83.64-79.45,12.05-43.18-3.86-91.07-42.9-117.81-22.15-15.17-47.95-20.92-72.69-18.17-11.3,1.26-21.86-5.97-24.77-16.97-6.37-24.06-21.06-46.04-43.21-61.21-22.15-15.17-47.95-20.92-72.69-18.17-11.3,1.26-21.86-5.97-24.77-16.97-6.37-24.06-21.06-46.04-43.21-61.21-22.15-15.17-47.95-20.92-72.69-18.17-11.3,1.26-21.86-5.97-24.77-16.97-6.03-22.77-19.51-43.66-39.71-58.69,19.26-11.96,33.62-29.26,42.07-49Z"/>
  <ellipse cx="569.73" cy="97.85" rx="125.87" ry="50.42" transform="translate(27.37 297.89) rotate(-29.99)"/>
  <ellipse cx="912.89" cy="339.61" rx="125.87" ry="50.42" transform="translate(-52.3 470.39) rotate(-28.12)"/>
</svg>