<?xml version="1.0" encoding="UTF-8"?>
<svg id="A" xmlns="http://www.w3.org/2000/svg" viewBox="0 0 1080 1080">
  <path d="M750.13,157.92c-5.22-27.96-87.8-50.17-188.9-50.17-89.83,0-165.04,17.54-184.36,41.06-27.57,13.88-49.36,184.98-49.36,394.03s23.72,394.95,52.98,394.95,52.98-176.82,52.98-394.95c0-153.93-11.81-287.29-29.05-352.46,34,14.08,91.54,23.34,156.8,23.34,54.26,0,103.18-6.4,137.67-16.65-10.89,34.65-17.74,85.08-17.74,141.25,0,104.48,23.72,189.17,52.98,189.17,29.26,0,52.98-84.69,52.98-189.17,0-84.57-15.55-156.18-36.99-180.39Z"/>
</svg>