<?xml version="1.0" encoding="UTF-8"?>
<svg id="A" xmlns="http://www.w3.org/2000/svg" viewBox="0 0 1080 1080">
  <path d="M921.21,333.68c-1.28-3.44-3.18-6.04-5.77-7.7-4.18-2.68-9.84-2.75-16.69-.51-40.03-4.08-186.98,67.47-351.62,173.01-120.73,77.39-220.89,153.77-270.86,204.03,4.57-43.94,1.31-108.72-10.62-179.82-21.21-126.45-61.79-225.03-90.65-220.19-28.86,4.84-35.06,111.27-13.86,237.72,21.02,125.32,61.07,223.25,89.88,220.28,37.45,6.36,186.28-65.73,353.3-172.79.25-.16.49-.32.74-.47-25.63,39.24-34.97,67.93-21.57,75.69,13.74,7.96,48.53-7.8,92.21-39.08-19.59,48.5-24.93,83.98-11.11,92.85,13.48,8.65,42.38-9.79,77.15-45.95-9.64,49.95-9.39,85.89,3.03,94.84,23.3,16.79,80.56-67.69,127.9-188.69,43.31-110.71,63.3-213.62,48.55-243.19Z"/>
</svg>