<?xml version="1.0" encoding="UTF-8"?>
<svg id="A" xmlns="http://www.w3.org/2000/svg" viewBox="0 0 1080 1080">
  <path d="M927.2,272.99c-19.51-15.9-42.99-23.65-66.34-23.67-9.44,0-17.58-6.65-19.49-15.89-4.73-22.86-17.05-44.3-36.56-60.2-19.51-15.9-42.99-23.65-66.34-23.67-6.98,0-13.24-3.64-16.81-9.27-4.27-30.44-21.75-58.86-50.57-76.02-20.62-12.27-44.04-16.63-66.49-13.87-27.03,2.92-52.95,16.24-71.23,39.31-19.68,24.84-26.27,56.1-20.7,85.2-1.47,8.3-7.55,15.35-16.02,17.74-23.43,6.62-44.69,21.34-59.16,43.24-14.48,21.9-19.69,47.23-16.6,71.38,1.41,11.03-5.49,21.47-16.19,24.5-23.43,6.62-44.69,21.34-59.17,43.24-14.48,21.9-19.69,47.23-16.6,71.38,1.41,11.03-5.49,21.47-16.19,24.5-23.43,6.62-44.69,21.34-59.17,43.24-14.48,21.9-19.69,47.23-16.6,71.38,1.41,11.03-5.49,21.47-16.19,24.5-23.43,6.62-44.69,21.34-59.17,43.24-29.47,44.58-20.62,103.34,18.62,137.48-39.03,8.01-65.26,22.87-65.26,39.88,0,11.04,11.04,21.17,29.46,29.11,7.44,3.21,7.44,7.82,0,11.03-18.42,7.94-29.46,18.07-29.46,29.11s11.04,21.17,29.46,29.11c7.44,3.21,7.44,7.82,0,11.03-18.42,7.94-29.46,18.07-29.46,29.11,0,25.72,59.92,46.53,133.45,46.17,71.42-.35,129.47-20.95,129.71-46.01.11-11.11-10.97-21.31-29.51-29.29-7.43-3.2-7.37-7.81.05-11.01,18.42-7.94,29.46-18.07,29.46-29.11s-11.04-21.17-29.46-29.11c-7.42-3.2-7.48-7.81-.05-11.01,18.53-7.98,29.61-18.18,29.51-29.29-.15-16.15-24.33-30.45-60.62-38.67,6.29-5.3,12.03-11.42,17.06-18.31,16.61-22.8,22.69-49.79,19.4-75.45-1.41-11.02,5.5-21.44,16.2-24.46,23.43-6.62,44.69-21.34,59.16-43.24,14.48-21.9,19.69-47.23,16.6-71.38-1.41-11.03,5.49-21.47,16.19-24.5,23.43-6.62,44.69-21.34,59.17-43.24,14.48-21.9,19.69-47.23,16.6-71.38-1.41-11.03,5.49-21.47,16.19-24.5,23.43-6.62,44.69-21.34,59.17-43.24,14.48-21.9,19.69-47.23,16.6-71.38-.55-4.32.18-8.55,1.91-12.28,1.66,2.26,2.86,4.89,3.46,7.78,4.73,22.86,17.05,44.3,36.56,60.2s42.99,23.65,66.33,23.67c9.41,0,17.58,6.61,19.48,15.83,4.74,22.99,17.16,44.56,36.85,60.49,44.41,35.95,110.15,29.63,146.87-14.16,37.8-45.08,31.32-112.2-14.13-149.25Z"/>
</svg>