<?xml version="1.0" encoding="UTF-8"?>
<svg id="A" xmlns="http://www.w3.org/2000/svg" viewBox="0 0 1080 1080">
  <path d="M883.74,933.52c-3.08,1.44-5.83,1.77-8.22.94-.48-.16-.94-.38-1.39-.65-.14-.07-.28-.16-.43-.25,1.32.5,2.65.81,3.99.89.35.04.7.05,1.05.05,1.68,0,3.35-.34,5-.98Z"/>
  <path d="M619.88,562.88c67.14,201.41,98.81,365.99,71.01,375.67-21.87,7.62-74.4-82.68-131.11-218.65-45.77,109.19-88.66,188.18-114.63,209.35-2.26,1.85-4.38,3.25-6.37,4.19-.06.04-.12.05-.17.08-1.65.64-3.32.97-5,.98-.35,0-.7,0-1.05-.05-1.34-.08-2.67-.39-3.99-.89.15.09.29.18.43.25-30.37-9.45-72.13-119.77-94.77-252.26-23.41-137.09-17.57-246.21,13.01-243.79,13.76,1.1,30.21,24.62,46.28,62.66,9.82-39.22,22.92-63.09,37.43-63.17,25.09-.13,46.76,71.06,54.79,169.88,4.54-14.47,9.3-29.2,14.26-44.13v-.02c-.26-.75-.54-1.51-.8-2.27-76.25-218.99-114.08-404.88-84.48-415.19,23.67-8.23,83.22,98.13,145.1,252.93,62.48-157.01,122.85-265.31,146.72-257,29.62,10.31-8.21,196.18-84.47,415.17-.72,2.09-1.46,4.17-2.19,6.26Z"/>
  <path d="M877.69,934.45c-.15,0-.29,0-.43-.01-1.03-.08-2.07-.28-3.13-.63-.14-.07-.28-.16-.43-.25,1.32.5,2.65.81,3.99.89Z"/>
  <path d="M890.28,929.25c-2.08,1.92-4.2,3.33-6.37,4.19,1.99-.94,4.11-2.34,6.37-4.19Z"/>
</svg>