<?xml version="1.0" encoding="UTF-8"?>
<svg id="A" xmlns="http://www.w3.org/2000/svg" viewBox="0 0 1080 1080">
  <path d="M931.3,147.2c-21.91-52.77-82.74-78.5-135.88-57.5-23.56,9.31-41.87,26.16-53.28,46.68-4.57,8.23-14.34,12.08-23.33,9.27-22.28-6.97-47.01-6.61-70.38,2.72-23.37,9.33-41.55,26.09-52.91,46.49-3.78,6.79-11.09,10.65-18.58,10.2-10.95-3.91-22.73-6.05-35.02-6.08-16.93-.04-32.93,3.93-47.11,11.01-48.52,23.57-71.88,81.22-52.32,132.3,6.33,16.53,16.36,30.52,28.77,41.42-21.42,19.17-34.93,46.99-35.01,78-.08,31.5,13.72,59.79,35.64,79.09-22.01,19.19-35.96,47.41-36.04,78.91-.08,29.98,12.42,57.05,32.52,76.23-8.97,7.95-16.42,17.31-22.14,27.59-4.57,8.23-14.34,12.08-23.33,9.27-22.28-6.97-47.01-6.61-70.38,2.72-23.37,9.33-41.55,26.09-52.91,46.49-4.58,8.22-14.32,12.16-23.3,9.34-22.4-7.02-47.28-6.64-70.77,2.83-53,21.36-79.4,81.9-58.96,135.25,21.04,54.93,82.87,81.88,137.33,60.14,23.37-9.33,41.55-26.09,52.91-46.49,4.59-8.24,14.35-12.14,23.36-9.32,22.28,6.97,47.01,6.61,70.38-2.72,23.37-9.33,41.55-26.09,52.91-46.49,3.25-5.84,9.1-9.48,15.44-10.12,12.66,5.46,26.61,8.51,41.28,8.54,57.99.15,105.12-46.74,105.27-104.73.05-20.88-5.99-40.35-16.46-56.72-5.08-8.66-11.3-16.4-18.38-23.08,21.55-19.17,35.16-47.08,35.23-78.2.08-31.5-13.72-59.79-35.64-79.09,22.01-19.19,35.96-47.41,36.04-78.91.08-31.41-13.64-59.63-35.45-78.93,4.91-4.37,9.34-9.17,13.29-14.3,3.72-4.71,7.05-9.76,9.93-15.07,4.97-6.85,13.83-9.9,22.06-7.33,22.28,6.97,47.01,6.61,70.38-2.72,23.37-9.33,41.55-26.09,52.91-46.49,4.59-8.24,14.35-12.14,23.36-9.32,22.28,6.97,47.01,6.61,70.38-2.72,54.46-21.73,80.74-83.84,58.18-138.17Z"/>
</svg>