<?xml version="1.0" encoding="UTF-8"?>
<svg id="A" xmlns="http://www.w3.org/2000/svg" viewBox="0 0 1080 1080">
  <path d="M959.43,360.71c-.23-.31-.5-.6-.78-.88-8.03-28.19-182.6-45.83-396.09-39.57-213.58,6.26-386.87,34.1-393.1,62.73-13.12,27.43,20.96,119.89,82.33,219.13,57.94,93.69,121.35,162.92,153.85,170.8,19.8,21.21,156.71-51.49,308.16-163.91,153.09-113.63,263.06-224.8,245.62-248.29ZM650.65,523.91c-104.59,77.63-189.03,154.1-226.5,202.26-9.06-42.8-38.81-109.6-82.23-179.8-34.48-55.75-70.9-102.84-101.58-133.5,71.69,11.7,190.78,17.25,325.33,13.3,102.29-3,195.34-10.94,265.22-21.56-51.81,29.39-114.66,70.61-180.24,119.29Z"/>
</svg>