<?xml version="1.0" encoding="UTF-8"?>
<svg id="A" xmlns="http://www.w3.org/2000/svg" viewBox="0 0 1080 1080">
  <path d="M956.77,493.54c-27.86-14.7-59.32-15.62-86.6-5.17-6.77-28.41-25.28-53.87-53.14-68.57-27.86-14.7-59.32-15.62-86.6-5.17-4.41-18.52-13.82-35.79-27.56-49.64,12.98-13.6,21.9-30.32,26.16-48.2,27.27,10.45,58.74,9.53,86.6-5.17,27.86-14.7,46.37-40.16,53.14-68.57,27.27,10.45,58.74,9.53,86.6-5.17,51.29-27.06,70.92-90.58,43.86-141.87-27.06-51.29-90.58-70.92-141.87-43.86-27.86,14.7-46.37,40.16-53.14,68.57-27.27-10.45-58.74-9.53-86.6,5.17-27.86,14.7-46.37,40.16-53.14,68.57-27.27-10.45-58.74-9.53-86.6,5.17-27.39,14.45-45.74,39.3-52.79,67.13-34.24-12.76-71.97-6.47-100.03,14.78-41.37,30.24-55.41,87.03-30.78,133.69,25.35,48.03,82.66,68.3,131.97,48.45,6.86,28.23,25.32,53.49,53.03,68.12,27.86,14.7,59.32,15.62,86.6,5.17,6.77,28.41,25.28,53.87,53.14,68.57,27.86,14.7,59.32,15.62,86.6,5.17,6.77,28.41,25.28,53.87,53.14,68.57,51.29,27.06,114.8,7.43,141.87-43.86,27.06-51.29,7.43-114.8-43.86-141.87Z"/>
  <path d="M669.46,610.69c-28.05-21.25-65.78-27.54-100.02-14.78-7.05-27.83-25.4-52.67-52.79-67.13-27.86-14.7-59.32-15.62-86.6-5.17-6.77-28.41-25.28-53.87-53.14-68.57-27.86-14.7-59.32-15.62-86.6-5.17-6.77-28.41-25.28-53.87-53.14-68.57-51.29-27.06-114.8-7.43-141.87,43.86s-7.43,114.8,43.86,141.87c27.86,14.7,59.32,15.62,86.6,5.17,6.77,28.41,25.28,53.87,53.14,68.57,27.86,14.7,59.32,15.62,86.6,5.17,4.26,17.89,13.18,34.61,26.16,48.2-13.74,13.85-23.15,31.12-27.56,49.64-27.27-10.45-58.74-9.53-86.6,5.17-27.86,14.7-46.37,40.16-53.14,68.57-27.27-10.45-58.74-9.53-86.6,5.17-51.29,27.06-70.92,90.58-43.86,141.87,27.06,51.29,90.58,70.92,141.87,43.86,27.86-14.7,46.37-40.16,53.14-68.57,27.27,10.45,58.74,9.53,86.6-5.17,27.86-14.7,46.37-40.16,53.14-68.57,27.27,10.45,58.74,9.53,86.6-5.17,27.71-14.62,46.18-39.89,53.03-68.12,49.3,19.85,106.62-.42,131.97-48.45,24.62-46.67,10.58-103.45-30.78-133.7Z"/>
</svg>