<?xml version="1.0" encoding="UTF-8"?>
<svg id="A" xmlns="http://www.w3.org/2000/svg" viewBox="0 0 1080 1080">
  <path d="M898.46,842.25c-11.5-23.6-30.66-40.97-53.03-50.58-10.22-4.39-15.7-15.64-12.86-26.4,6.21-23.54,4.34-49.33-7.16-72.93-11.5-23.6-30.66-40.97-53.03-50.58-10.22-4.39-15.7-15.64-12.86-26.4,6.21-23.54,4.34-49.33-7.16-72.93-11.5-23.6-30.66-40.97-53.03-50.58-10.22-4.39-15.7-15.64-12.86-26.4,6.21-23.54,4.34-49.33-7.16-72.93-11.5-23.6-30.66-40.97-53.03-50.58-10.21-4.39-15.71-15.62-12.87-26.37,6.61-25.01,4.09-52.56-9.41-77.33-12.15-22.3-31.5-38.58-53.76-47.36,16.31-53.86-12.87-111.38-66.55-129.72-33.42-11.42-68.62-5.03-95.28,14.12-12.19-16.07-29.13-28.8-49.65-35.82-54.87-18.75-114.56,10.53-133.31,65.4-18.75,54.87,10.53,114.56,65.4,133.31,33.42,11.42,68.62,5.03,95.28-14.12,11.19,14.75,26.37,26.69,44.66,33.97-7.5,24.58-6.09,51.95,6.06,76.87,11.5,23.6,30.66,40.97,53.03,50.58,10.22,4.39,15.7,15.64,12.86,26.4-6.21,23.54-4.34,49.33,7.16,72.93,9.86,20.23,25.35,35.86,43.67,45.98-9.22,7-17.44,15.65-24.18,25.86-13.86,21-19.22,45.15-16.9,68.38.94,9.39-4.85,18.16-13.86,20.99-22.27,7-42.37,21.41-56.23,42.41-13.86,21-19.22,45.15-16.9,68.38.94,9.39-4.85,18.16-13.86,20.99-22.27,7-42.37,21.41-56.23,42.41-5.44,8.25-9.57,16.98-12.44,25.95h-63.78c-35.72,0-64.68,28.96-64.68,64.68v9.69c0,35.72,28.96,64.68,64.68,64.68h177.62c19.47,0,36.91-8.61,48.77-22.22,9.7-7.09,18.33-15.96,25.33-26.49,14.02-21.09,19.44-45.38,17.09-68.74-.94-9.37,4.88-18.1,13.86-20.92,22.27-7,42.37-21.41,56.23-42.41,13.86-21,19.22-45.14,16.9-68.37-.91-9.07,4.47-17.58,12.96-20.67-5.1,22.54-2.87,46.89,8.04,69.28,11.5,23.6,30.66,40.97,53.02,50.58,10.21,4.39,15.71,15.62,12.87,26.37-6.61,25.01-4.09,52.56,9.41,77.34,25.85,47.44,84.31,67.66,133.94,46.32,55.65-23.93,79.44-89.15,53.21-142.98Z"/>
</svg>