<?xml version="1.0" encoding="UTF-8"?>
<svg id="A" xmlns="http://www.w3.org/2000/svg" viewBox="0 0 1080 1080">
  <circle cx="592.22" cy="593.62" r="105.26" transform="translate(-246.3 592.63) rotate(-45)"/>
  <path d="M993.79,424.14c-21.94-22.61-51.57-33.22-80.74-31.74,2.36-29.11-7.36-59.05-29.3-81.65-21.94-22.61-51.57-33.22-80.74-31.74,2.36-29.11-7.36-59.05-29.3-81.65-21.94-22.61-51.57-33.22-80.74-31.74,2.36-29.11-7.36-59.05-29.3-81.65-40.38-41.62-106.86-42.61-148.48-2.23-16.18,15.7-26.21,35.34-30.07,55.93-23.6,2.48-46.5,12.93-64.33,31.29-21.94,22.61-31.66,52.54-29.3,81.65-29.17-1.49-58.8,9.13-80.74,31.74-21.94,22.61-31.66,52.54-29.3,81.65-29.17-1.49-58.8,9.13-80.74,31.74-21.94,22.61-31.66,52.54-29.3,81.65-29.17-1.49-58.8,9.13-80.74,31.74-.09.09-.18.19-.27.28-.68.67-1.35,1.35-2.01,2.04-40.08,41.91-38.59,108.38,3.32,148.46,22.77,21.77,52.77,31.27,81.87,28.7-1.27,29.18,9.56,58.73,32.33,80.5s52.77,31.27,81.87,28.7c-1.27,29.18,9.56,58.73,32.33,80.5s52.77,31.27,81.87,28.7c-1.27,29.18,9.56,58.73,32.33,80.5,41.91,40.08,108.38,38.59,148.46-3.32,40.08-41.91,38.59-108.38-3.32-148.46-22.77-21.77-52.77-31.27-81.87-28.7,1.27-29.18-9.56-58.73-32.33-80.5s-52.77-31.27-81.87-28.7c1.27-29.18-9.56-58.73-32.33-80.5-22.33-21.36-51.63-30.91-80.2-28.83.29-4.93.24-9.87-.16-14.78,29.17,1.49,58.8-9.13,80.74-31.74,21.94-22.61,31.66-52.54,29.3-81.65,29.17,1.49,58.8-9.13,80.74-31.74s31.66-52.54,29.3-81.65c29.17,1.49,58.8-9.13,80.74-31.74,9.96-10.27,17.4-22.05,22.34-34.57,2.21,22.88,11.9,45.2,29.15,62.97,21.94,22.61,51.57,33.22,80.74,31.74-2.36,29.11,7.36,59.05,29.3,81.65,21.94,22.61,51.57,33.22,80.74,31.74-2.36,29.11,7.36,59.05,29.3,81.65,40.38,41.62,106.86,42.61,148.48,2.23,41.62-40.38,42.61-106.86,2.23-148.48Z"/>
</svg>