<?xml version="1.0" encoding="UTF-8"?>
<svg id="A" xmlns="http://www.w3.org/2000/svg" viewBox="0 0 1080 1080">
  <path d="M835.91,189.16c19.93-54.46-8.06-114.76-62.52-134.69-54.46-19.93-114.76,8.06-134.69,62.52-10.82,29.58-7.51,60.88,6.51,86.51-27.24,10.52-49.98,32.29-60.81,61.87-10.82,29.58-7.51,60.88,6.51,86.51-27.24,10.52-49.98,32.29-60.81,61.87-10.63,29.06-7.62,59.78,5.78,85.15-2.7,1.05-5.38,2.22-8.03,3.52-36.7,17.93-58.39,54.87-58.94,93.39-4.37-.55-8.83-.84-13.35-.84-43.88,0-81.48,26.85-97.28,65.02-8.11-2-16.58-3.07-25.3-3.07-58.12,0-105.24,47.12-105.24,105.24,0,45.53,28.91,84.3,69.38,98.97-5.18,12.45-8.05,26.1-8.05,40.42,0,58.12,47.12,105.24,105.24,105.24s105.24-47.12,105.24-105.24c0-45.53-28.91-84.3-69.38-98.97.03-.07.05-.13.08-.2,8.11,2,16.58,3.07,25.3,3.07,34.01,0,64.25-16.14,83.49-41.18,1.66,6.9,4.02,13.74,7.17,20.42,10.73,22.76,28.57,39.89,49.62,49.98,8.49,4.07,13.01,13.55,10.74,22.69-5.65,22.79-3.75,47.6,7.13,70.47,24.54,51.6,86.57,74.27,138.59,50.62,53.55-24.35,76.68-87.7,51.68-140.73-10.73-22.76-28.57-39.89-49.62-49.98-8.51-4.08-12.99-13.59-10.73-22.75,5.6-22.66,3.74-47.32-6.99-70.08-10.73-22.76-28.57-39.89-49.62-49.98-7.42-3.56-11.78-11.25-11.27-19.24,3.03-11.12,4.14-22.38,3.51-33.4-.6-13.53-3.82-27.17-9.96-40.19-.72-1.53-1.48-3.03-2.26-4.51,27-10.6,49.52-32.28,60.27-61.66,10.82-29.58,7.51-60.88-6.51-86.51,27.24-10.52,49.98-32.29,60.81-61.87,10.82-29.58,7.51-60.88-6.51-86.51,27.24-10.52,49.98-32.29,60.81-61.87Z"/>
</svg>