<?xml version="1.0" encoding="UTF-8"?>
<svg id="A" xmlns="http://www.w3.org/2000/svg" viewBox="0 0 1080 1080">
  <circle cx="451.64" cy="449.88" r="52.63" transform="translate(-137.78 207.08) rotate(-22.5)"/>
  <circle cx="543.64" cy="608.77" r="52.63"/>
  <circle cx="543.64" cy="714.03" r="52.63"/>
  <path d="M630.25,400.32c-14.35,0-27.35,5.75-36.85,15.06,1.85-5.37,2.87-11.14,2.87-17.14,0-29.07-23.56-52.63-52.63-52.63s-52.63,23.56-52.63,52.63,23.56,52.63,52.63,52.63c14.35,0,27.35-5.75,36.85-15.06-1.85,5.37-2.87,11.14-2.87,17.14,0,3.94.45,7.78,1.27,11.47-9.33-8.42-21.69-13.55-35.25-13.55-29.07,0-52.63,23.56-52.63,52.63s23.56,52.63,52.63,52.63,52.63-23.56,52.63-52.63c0-3.94-.45-7.78-1.27-11.47,9.33,8.42,21.69,13.55,35.25,13.55,29.07,0,52.63-23.56,52.63-52.63s-23.56-52.63-52.63-52.63Z"/>
</svg>