<?xml version="1.0" encoding="UTF-8"?>
<svg id="A" xmlns="http://www.w3.org/2000/svg" viewBox="0 0 1080 1080">
  <path d="M891.42,187.04c-26.14-13.14-126.76,134.18-224.74,329.06-2.29,4.56-4.57,9.11-6.82,13.65,3.55-61.15-3.86-100.99-21.89-100.16-15.86.73-36.62,32.79-56.48,82.7-9.72-51.39-24.4-84.13-40.82-84.13s-30.37,31.14-40.09,80.35c-18.87-47.24-38.5-77.35-53.79-78.17-18.83-1.01-26.39,42.61-22.13,108.75-3.72-7.55-7.5-15.15-11.34-22.8-97.97-194.88-198.59-342.21-224.74-329.06-26.14,13.14,32.08,181.78,130.06,376.66,96.7,192.34,195.96,338.35,223.67,329.49,32.9-5.89,127.13-146.86,219.05-329.69,97.97-194.88,156.2-363.52,130.06-376.66Z"/>
</svg>