<?xml version="1.0" encoding="UTF-8"?>
<svg id="A" xmlns="http://www.w3.org/2000/svg" viewBox="0 0 1080 1080">
  <path d="M645.35,408.46c0-26.26-9.62-50.26-25.51-68.7-7.25-8.42-7.28-20.93-.02-29.34,16.89-19.59,26.7-45.46,25.42-73.64-2.46-53.97-46.15-97.76-100.12-100.31-60.51-2.86-110.47,45.35-110.47,105.23,0,26.26,9.62,50.26,25.51,68.7,7.26,8.43,7.26,20.94,0,29.37-15.89,18.44-25.51,42.44-25.51,68.7s9.62,50.26,25.51,68.7c7.26,8.43,7.26,20.94,0,29.37-15.89,18.44-25.51,42.44-25.51,68.7s9.62,50.26,25.51,68.7c7.26,8.43,7.26,20.94,0,29.37-15.89,18.44-25.51,42.44-25.51,68.7s9.62,50.26,25.51,68.7c7.25,8.42,7.28,20.93.02,29.34-16.89,19.59-26.7,45.46-25.42,73.64,2.46,53.97,46.16,97.76,100.12,100.31,60.51,2.86,110.46-45.35,110.46-105.23,0-26.26-9.62-50.26-25.51-68.7-7.26-8.43-7.26-20.94,0-29.37,15.89-18.44,25.51-42.44,25.51-68.7s-9.62-50.26-25.51-68.7c-7.26-8.43-7.26-20.94,0-29.37,15.89-18.44,25.51-42.44,25.51-68.7s-9.62-50.26-25.51-68.7c-7.26-8.43-7.26-20.94,0-29.37,15.89-18.44,25.51-42.44,25.51-68.7Z"/>
  <path d="M427.54,338.01c0-26.26-9.62-50.26-25.51-68.7-7.25-8.42-7.28-20.93-.02-29.34,16.89-19.59,26.7-45.46,25.42-73.64-2.46-53.97-46.15-97.76-100.12-100.31-60.51-2.86-110.47,45.35-110.47,105.23,0,26.26,9.62,50.26,25.51,68.7,7.26,8.43,7.26,20.94,0,29.37-15.89,18.44-25.51,42.44-25.51,68.7s9.62,50.26,25.51,68.7c7.26,8.43,7.26,20.94,0,29.37-15.89,18.44-25.51,42.44-25.51,68.7s9.62,50.26,25.51,68.7c7.26,8.43,7.26,20.94,0,29.37-15.89,18.44-25.51,42.44-25.51,68.7s9.62,50.26,25.51,68.7c7.25,8.42,7.28,20.93.02,29.34-16.89,19.59-26.7,45.46-25.42,73.64,2.46,53.97,46.16,97.76,100.12,100.31,60.51,2.86,110.46-45.35,110.46-105.23,0-26.26-9.62-50.26-25.51-68.7-7.26-8.43-7.26-20.94,0-29.37,15.89-18.44,25.51-42.44,25.51-68.7s-9.62-50.26-25.51-68.7c-7.26-8.43-7.26-20.94,0-29.37,15.89-18.44,25.51-42.44,25.51-68.7,0-26.26-9.62-50.26-25.51-68.7-7.26-8.43-7.26-20.94,0-29.37,15.89-18.44,25.51-42.44,25.51-68.7Z"/>
  <path d="M863.16,504.77c0-26.26-9.62-50.26-25.51-68.7-7.26-8.43-7.26-20.94,0-29.37,15.89-18.44,25.51-42.44,25.51-68.7s-9.62-50.26-25.51-68.7c-7.25-8.42-7.28-20.93-.02-29.34,16.89-19.59,26.7-45.46,25.42-73.64-2.46-53.97-46.15-97.76-100.12-100.31-60.51-2.86-110.47,45.35-110.47,105.23,0,26.26,9.62,50.26,25.51,68.7,7.26,8.43,7.26,20.94,0,29.37-15.89,18.44-25.51,42.44-25.51,68.7s9.62,50.26,25.51,68.7c7.26,8.43,7.26,20.94,0,29.37-15.89,18.44-25.51,42.44-25.51,68.7s9.62,50.26,25.51,68.7c7.26,8.43,7.26,20.94,0,29.37-15.89,18.44-25.51,42.44-25.51,68.7,0,26.26,9.62,50.26,25.51,68.7,7.25,8.42,7.28,20.93.02,29.34-16.89,19.59-26.7,45.46-25.42,73.64,2.46,53.97,46.16,97.76,100.12,100.31,60.51,2.86,110.46-45.35,110.46-105.23,0-26.26-9.62-50.26-25.51-68.7-7.26-8.43-7.26-20.94,0-29.37,15.89-18.44,25.51-42.44,25.51-68.7s-9.62-50.26-25.51-68.7c-7.26-8.43-7.26-20.94,0-29.37,15.89-18.44,25.51-42.44,25.51-68.7Z"/>
</svg>