<?xml version="1.0" encoding="UTF-8"?>
<svg id="A" xmlns="http://www.w3.org/2000/svg" viewBox="0 0 1080 1080">
  <path d="M891.42,222.93c-23.43-11.78-106.65,105.29-194.18,269.96,39.86-182.52,52.17-325.96,26.65-332.14-25.96-6.29-82.11,131.73-130.74,317.1-3.6-192.04-25.72-339.84-52.47-339.84s-49.26,150.38-52.56,344.85c-48.92-187.79-105.82-328.26-132-321.92-25.51,6.18-13.21,149.62,26.65,332.14-87.53-164.67-170.75-281.73-194.18-269.96-26.14,13.14,32.08,181.78,130.06,376.66,96.7,192.34,195.96,338.35,223.67,329.49,32.9-5.89,127.13-146.86,219.05-329.69,97.97-194.88,156.2-363.52,130.06-376.66Z"/>
</svg>