<?xml version="1.0" encoding="UTF-8"?>
<svg id="A" xmlns="http://www.w3.org/2000/svg" viewBox="0 0 1080 1080">
  <path d="M881.94,300.44c-30.19-28.81-73.08-36.07-109.67-22.24-6.94-27.07-24.61-51.32-51.01-65.87-27.58-15.21-59.03-16.7-86.49-6.76-6.25-28.53-24.29-54.32-51.87-69.53-27.58-15.21-59.03-16.7-86.49-6.76-6.25-28.53-24.29-54.32-51.87-69.53-48.06-26.5-107.82-11.38-137.83,33.36-4.25,6-7.92,12.53-10.9,19.55-9.9,23.31-10.74,48.19-4.13,70.71,2.65,9.03-1.46,18.69-9.77,23.12-20.6,10.98-37.7,28.85-47.45,52.04-9.76,23.2-10.57,47.91-4.01,70.32,2.64,9.03-1.38,18.73-9.69,23.15-20.72,11.03-37.91,29.03-47.65,52.41-21.98,52.74,2.62,114.04,54.98,136.92,53.9,23.56,116.49-1.58,139.22-55.63,9.76-23.2,10.57-47.91,4.01-70.32-2.65-9.06,1.42-18.74,9.75-23.18,20.6-10.98,37.7-28.85,47.46-52.04,9.76-23.2,10.57-47.91,4.01-70.32-.97-3.3-1.03-6.68-.33-9.87,7.88,24.66,24.84,46.48,49.31,59.97,27.58,15.21,59.03,16.7,86.49,6.76,6.25,28.53,24.29,54.32,51.87,69.53,6.56,3.62,13.33,6.45,20.22,8.55-5.55,3.9-10.8,8.4-15.66,13.49-21.74,22.79-31.21,52.81-28.6,81.9-29.18-1.24-58.72,9.63-80.46,32.42-21.74,22.79-31.21,52.81-28.6,81.9-29.18-1.24-58.72,9.63-80.46,32.42-40.03,41.96-38.46,108.42,3.5,148.45,16.52,15.76,36.85,25.07,57.86,28.01,4.43,29.03,20.91,55.71,46.59,72.4h-53.72c-35.72,0-64.68,28.96-64.68,64.68v9.69c0,35.72,28.96,64.68,64.68,64.68h177.62c4.15,0,8.19-.41,12.12-1.15,40.31.36,78.99-22.58,96.78-61.64,24.1-52.9.75-115.33-52.15-139.43-6.39-2.91-12.91-5.12-19.5-6.68,8.2-46.17-15.4-93.79-60.04-114.13-2.45-1.12-4.93-2.13-7.41-3.05,21.89-3.49,42.86-13.92,59.35-31.2,21.74-22.79,31.21-52.81,28.6-81.9,29.18,1.24,58.72-9.63,80.46-32.42,20.7-21.69,30.27-49.94,28.89-77.69,38.26,1.3,75.85-18.44,95.6-54.26,7-12.7,11.1-26.21,12.51-39.78,4.68-32.48-5.89-66.67-31.44-91.05Z"/>
</svg>