<?xml version="1.0" encoding="UTF-8"?>
<svg id="A" xmlns="http://www.w3.org/2000/svg" viewBox="0 0 1080 1080">
  <path d="M835.15,404.32c17.2-26.39,21-57.64,13.11-85.75,28.91-4.13,55.96-20.23,73.16-46.62,31.66-48.58,17.94-113.64-30.64-145.3-48.58-31.66-113.64-17.94-145.3,30.64-17.2,26.39-21,57.64-13.11,85.75-28.91,4.13-55.96,20.23-73.16,46.62-17.2,26.39-21,57.64-13.11,85.75-28.4,4.06-55,19.67-72.23,45.23-17.23-25.62-43.86-41.26-72.29-45.33,7.9-28.12,4.09-59.36-13.11-85.75-17.2-26.39-44.25-42.49-73.16-46.62,7.9-28.12,4.09-59.36-13.11-85.75-15.78-24.21-39.86-39.77-66.05-45.36-57.91-13.3-115.07,23.74-126.87,81.62-5.24,25.73-.61,51.17,11.28,72.41,5.43,9.71,2.94,21.97-5.86,28.77-19.26,14.9-33.47,36.49-38.71,62.22-5.24,25.73-.61,51.17,11.28,72.41,5.43,9.71,2.94,21.97-5.86,28.77-19.26,14.9-33.47,36.49-38.71,62.22-5.24,25.73-.61,51.17,11.28,72.41,5.43,9.71,2.94,21.97-5.86,28.77-19.26,14.9-33.47,36.49-38.71,62.22-5.24,25.73-.61,51.17,11.28,72.41,5.43,9.7,2.95,21.96-5.84,28.75-20.47,15.82-35.24,39.21-39.61,67.08-8.37,53.37,25.71,105,78.08,118.28,58.72,14.89,117.29-22.38,129.25-81.05,5.24-25.73.61-51.17-11.28-72.41-5.43-9.71-2.94-21.97,5.86-28.77,19.26-14.9,33.47-36.49,38.71-62.22,5.24-25.73.61-51.17-11.28-72.41-5.43-9.71-2.94-21.97,5.86-28.77,19.26-14.9,33.47-36.49,38.71-62.22,5.24-25.73.61-51.17-11.28-72.41-5.43-9.71-2.94-21.97,5.86-28.77,6.39-4.94,12.2-10.63,17.33-16.95,7.92,3.2,16.19,5.43,24.63,6.63-7.9,28.12-4.09,59.36,13.11,85.75,17.2,26.39,44.25,42.49,73.16,46.62-7.9,28.12-4.09,59.36,13.11,85.75,18.91,29.02,49.73,45.59,81.84,47.49,36.89,2.69,74.09-14.22,95.71-47.4,17.2-26.39,21-57.64,13.11-85.75,28.91-4.13,55.96-20.23,73.16-46.62,17.2-26.39,21-57.64,13.11-85.75,28.91-4.13,55.96-20.23,73.16-46.62Z"/>
  <circle cx="907.89" cy="505.86" r="105.24"/>
</svg>