<?xml version="1.0" encoding="UTF-8"?>
<svg id="A" xmlns="http://www.w3.org/2000/svg" viewBox="0 0 1080 1080">
  <path d="M885.09,394.71c-11.53-22.55-30.06-39.16-51.58-48.55-8.63-3.76-13.4-13.12-11.46-22.33,4.8-22.85,2.07-47.42-9.46-69.79-11.53-22.37-29.96-38.86-51.35-48.2-8.62-3.77-13.48-13.08-11.54-22.29,4.84-22.97,2.07-47.7-9.61-70.18-26.34-50.71-89.14-71.18-140.29-45.71-.83.41-1.66.84-2.48,1.27-36.79,18.41-60.87,57.6-57.94,101.22.86,12.87,4.01,25.05,9.02,36.16-26.61,9.05-49.55,28.7-61.98,56.36-12.91,28.73-11.84,60.19.3,86.75-27.93,8.55-52.16,28.63-65.08,57.36-12.99,28.91-11.83,60.59.53,87.25-31.84,9.25-58.83,33.37-70.34,67.14-8.12,23.82-7.22,48.53.88,70.43,3.27,8.85-.12,18.8-8.12,23.8-19.79,12.38-35.6,31.4-43.73,55.21-8.12,23.82-7.22,48.53.88,70.43,3.27,8.85-.12,18.8-8.12,23.8-19.78,12.38-35.59,31.38-43.71,55.17-37.25,1.3-67.06,31.89-67.06,69.46h0c0,38.4,31.13,69.52,69.52,69.52h89.46c4.99.36,9.95.35,14.87,0h63.6c38.4,0,69.52-31.13,69.52-69.52h0c0-27.25-15.69-50.83-38.52-62.23-.87-3.29-1.88-6.55-3.06-9.73-3.27-8.83.16-18.75,8.14-23.74,19.79-12.38,35.6-31.4,43.73-55.21,8.12-23.82,7.22-48.53-.88-70.43-3.27-8.83.08-18.78,8.06-23.77,19.91-12.44,35.8-31.59,43.9-55.59,8.96-26.56,6.59-54.39-4.5-78.13,28.52-8.3,53.35-28.57,66.48-57.78,12.91-28.73,11.84-60.19-.3-86.75,14.54-4.45,28.08-12.03,39.55-22.34,7.46,6.08,15.66,11.08,24.36,14.89,8.65,3.78,13.46,13.12,11.52,22.36-4.8,22.85-2.07,47.43,9.46,69.79,26.86,52.12,91.2,72.33,143.11,44.66,50.42-26.88,70.2-89.89,44.19-140.77Z"/>
</svg>