<?xml version="1.0" encoding="UTF-8"?>
<svg id="A" xmlns="http://www.w3.org/2000/svg" viewBox="0 0 1080 1080">
  <path d="M475.21,763.85c0-35.72-28.96-64.68-64.68-64.68h-96.42c-.35-1.06-.71-2.11-1.09-3.15-3.27-8.83.16-18.75,8.14-23.74,12.98-8.12,24.23-19.11,32.74-32.42,17.56,34.74,53.8,58.43,95.52,57.84,57.13-.81,103.56-47.78,103.74-104.92.08-25.33-8.79-48.58-23.63-66.78-5.95-7.3-5.9-17.8.03-25.1,14.73-18.11,23.55-41.21,23.55-66.38,0-25.16-8.85-48.26-23.58-66.37-5.94-7.3-5.99-17.8-.05-25.1,14.82-18.21,23.68-41.46,23.59-66.79-.09-25.15-9.14-48.32-24.12-66.45,5.4-6.76,10.05-14.3,13.76-22.56,23.77-52.89.17-115.04-52.73-138.82-52.89-23.77-115.04-.17-138.82,52.73-12.91,28.73-11.84,60.19.3,86.75-27.93,8.55-52.16,28.63-65.08,57.36-12.99,28.91-11.83,60.59.53,87.25-31.84,9.25-58.82,33.37-70.34,67.14-8.12,23.82-7.22,48.53.88,70.43,3.27,8.85-.12,18.8-8.12,23.8-19.79,12.38-35.6,31.4-43.73,55.21-8.12,23.82-7.22,48.53.88,70.43,3.27,8.85-.12,18.8-8.12,23.8-19.79,12.38-35.61,31.4-43.73,55.21-18.92,55.49,11.14,115.86,67.07,134.08,13.6,4.43,27.49,5.9,40.98,4.78,3.32.53,6.72.81,10.19.81h177.62c35.72,0,64.68-28.96,64.68-64.68v-9.69Z"/>
  <path d="M670.93,843.28c12.98-8.12,24.23-19.11,32.74-32.42,17.56,34.74,53.8,58.43,95.52,57.84,57.13-.81,103.56-47.78,103.74-104.92.08-25.33-8.79-48.58-23.62-66.78-5.95-7.3-5.9-17.8.03-25.1,14.73-18.11,23.55-41.21,23.55-66.38,0-25.16-8.85-48.26-23.58-66.37-5.94-7.3-5.99-17.8-.05-25.1,14.82-18.21,23.68-41.46,23.59-66.79-.09-25.15-9.14-48.32-24.12-66.45,5.4-6.76,10.05-14.3,13.76-22.56,23.77-52.89.17-115.04-52.73-138.82-52.89-23.77-115.04-.17-138.82,52.73-12.91,28.73-11.84,60.19.3,86.75-27.93,8.55-52.16,28.63-65.08,57.36-12.99,28.91-11.83,60.59.53,87.25-31.84,9.25-58.82,33.37-70.34,67.14-8.12,23.82-7.22,48.53.88,70.43,3.27,8.85-.12,18.8-8.12,23.8-19.79,12.38-35.6,31.4-43.73,55.21-8.12,23.82-7.22,48.53.88,70.43,3.27,8.85-.12,18.8-8.12,23.8-19.79,12.38-35.61,31.4-43.73,55.21-18.92,55.49,11.14,115.86,67.07,134.08,13.6,4.43,27.49,5.9,40.98,4.78,3.32.53,6.72.81,10.19.81h177.62c35.72,0,64.68-28.96,64.68-64.68v-9.69c0-35.72-28.96-64.68-64.68-64.68h-96.42c-.35-1.06-.71-2.11-1.09-3.15-3.27-8.83.16-18.75,8.14-23.74Z"/>
</svg>