<?xml version="1.0" encoding="UTF-8"?>
<svg id="A" xmlns="http://www.w3.org/2000/svg" viewBox="0 0 1080 1080">
  <path d="M1018.28,406.63c.28-58.42-46.98-105.86-105.34-105.86-7.66,0-15.11.84-22.3,2.39-16.77,3.19-33.04,10.39-47.33,21.78-2.23,1.77-4.35,3.63-6.4,5.54-7.38,2.55-15.82,1.16-22.04-4.2-18.44-15.89-42.44-25.51-68.7-25.51s-50.26,9.62-68.7,25.51c-8.43,7.26-20.94,7.26-29.36,0-18.44-15.89-42.44-25.51-68.7-25.51s-50.26,9.62-68.7,25.51c-8.43,7.26-20.94,7.26-29.36,0-18.44-15.89-42.44-25.51-68.7-25.51-26.26,0-50.26,9.62-68.7,25.51-8.42,7.25-20.93,7.28-29.34.02-19.59-16.89-45.46-26.7-73.64-25.42-53.97,2.46-97.76,46.16-100.31,100.12-2.86,60.51,45.35,110.46,105.23,110.46,26.26,0,50.26-9.62,68.7-25.51,8.43-7.26,20.94-7.26,29.36,0,18.44,15.89,42.44,25.51,68.7,25.51,26.26,0,50.26-9.62,68.7-25.51,8.43-7.26,20.94-7.26,29.36,0,18.44,15.89,42.44,25.51,68.7,25.51,26.26,0,50.26-9.62,68.7-25.51,7.22-6.23,17.44-7.1,25.52-2.65-1.35,4.19-2.45,8.45-3.27,12.76-2.15,11.2-12.2,19.21-23.59,18.8-24.94-.9-50.34,6.78-71.44,23.59-21.1,16.81-34.26,39.86-38.96,64.37-2.15,11.2-12.2,19.21-23.59,18.8-24.94-.9-50.34,6.78-71.44,23.59-21.1,16.81-34.26,39.86-38.96,64.37-2.14,11.19-12.18,19.21-23.56,18.8-26.5-.96-53.53,7.76-75.35,26.83-41.8,36.51-49.16,99.47-16.85,144.22,36.23,50.19,106.77,59.25,154.88,20.92,21.1-16.81,34.26-39.86,38.96-64.37,2.15-11.2,12.2-19.21,23.59-18.8,24.94.9,50.35-6.78,71.44-23.59,21.1-16.81,34.26-39.86,38.96-64.37,2.15-11.2,12.2-19.21,23.59-18.8,24.94.9,50.34-6.78,71.44-23.59,21.1-16.81,34.26-39.86,38.96-64.37,2.15-11.2,12.2-19.21,23.59-18.8,24.94.9,50.35-6.78,71.44-23.59,21.1-16.81,34.26-39.86,38.96-64.37,2.14-11.19,12.18-19.21,23.56-18.8,26.5.96,53.53-7.76,75.36-26.83,24.76-21.63,37.43-52.54,36.94-83.45Z"/>
  <ellipse cx="210.99" cy="215.41" rx="125.87" ry="50.42"/>
</svg>