<?xml version="1.0" encoding="UTF-8"?>
<svg id="A" xmlns="http://www.w3.org/2000/svg" viewBox="0 0 1080 1080">
  <path d="M683.96,489.55c.11,11.11-10.97,21.31-29.51,29.29-7.43,3.2-7.37,7.81.05,11.01,18.42,7.94,29.46,18.07,29.46,29.11,0,11.04-11.04,21.17-29.46,29.11-7.42,3.2-7.48,7.81-.05,11.01,18.53,7.98,29.61,18.18,29.51,29.29-.24,25.06-58.29,45.66-129.71,46.01-73.53.36-133.45-20.45-133.45-46.17,0-11.04,11.04-21.17,29.46-29.11,7.44-3.21,7.44-7.82,0-11.03-18.42-7.94-29.46-18.07-29.46-29.11s11.04-21.17,29.46-29.11c7.44-3.21,7.44-7.82,0-11.03-18.42-7.94-29.46-18.07-29.46-29.11,0-25.72,59.92-46.52,133.45-46.17,71.42.35,129.47,20.95,129.71,46.01Z"/>
</svg>