<?xml version="1.0" encoding="UTF-8"?>
<svg id="A" xmlns="http://www.w3.org/2000/svg" viewBox="0 0 1080 1080">
  <circle cx="553.2" cy="427.99" r="105.24"/>
  <path d="M586.78,862.97c-21.25-13.26-45.4-17.97-68.45-15.07-9.32,1.17-18.19-4.37-21.23-13.25-7.53-21.98-22.38-41.61-43.62-54.86-21.25-13.26-45.4-17.97-68.45-15.07-9.32,1.17-18.19-4.36-21.23-13.25-7.53-21.98-22.38-41.61-43.62-54.86-49.5-30.89-114.81-15.41-145.11,34.69-29.43,48.66-14.25,112.61,33.89,142.87,21.34,13.42,45.64,18.18,68.82,15.25,9.29-1.17,18.13,4.4,21.17,13.26,7.53,21.98,22.38,41.61,43.62,54.86,21.25,13.26,45.4,17.97,68.45,15.07,9.29-1.17,18.18,4.32,21.21,13.19,7.56,22.11,22.52,41.84,43.95,55.11,48.34,29.94,112.46,15.47,143.23-32.35,31.68-49.23,16.88-114.7-32.62-145.59Z"/>
  <path d="M975.26,291.31c-21.25-13.26-45.4-17.97-68.45-15.07-9.32,1.17-18.19-4.37-21.23-13.25-7.53-21.98-22.38-41.61-43.62-54.86-21.25-13.26-45.4-17.97-68.45-15.07-9.32,1.17-18.19-4.37-21.23-13.25-7.53-21.98-22.38-41.61-43.62-54.86-21.39-13.35-45.74-18.03-68.94-15.01-9.13-48.82-51.97-85.78-103.44-85.78-.22,0-.44,0-.66,0-22.3-.11-44.82,6.86-63.93,21.42-19.92,15.18-32.88,36.1-38.33,58.68-2.2,9.13-10.52,15.47-19.91,15.17-23.22-.74-46.83,6.19-66.76,21.37-19.92,15.17-32.88,36.1-38.33,58.68-2.2,9.13-10.52,15.47-19.91,15.17-23.22-.74-46.83,6.19-66.76,21.37-29.7,22.63-43.94,58.03-40.87,92.66-6.82-1.39-13.88-2.12-21.11-2.12-58.12,0-105.24,47.12-105.24,105.24s47.12,105.24,105.24,105.24c4.82,0,9.56-.33,14.21-.96,5.34,27.52,21.56,52.85,46.95,68.82,21.34,13.42,45.64,18.18,68.82,15.25,9.29-1.17,18.13,4.4,21.17,13.26,7.53,21.98,22.38,41.61,43.62,54.86,21.25,13.26,45.4,17.97,68.45,15.07,9.29-1.17,18.18,4.32,21.21,13.19,7.56,22.11,22.52,41.84,43.95,55.11,48.34,29.94,112.46,15.47,143.23-32.35,31.68-49.23,16.88-114.7-32.62-145.59-21.25-13.26-45.4-17.97-68.45-15.07-9.32,1.17-18.19-4.36-21.23-13.25-7.53-21.98-22.38-41.61-43.62-54.86-21.25-13.26-45.4-17.97-68.45-15.07-9.32,1.17-18.19-4.36-21.23-13.25-7.53-21.98-22.38-41.61-43.62-54.86-5.07-3.17-10.32-5.84-15.67-8.04,11.25-3.48,22.07-8.93,31.95-16.4,20.1-15.21,33.17-36.25,38.64-58.96,2.19-9.11,10.53-15.4,19.9-15.1,23.22.74,46.83-6.19,66.75-21.37,19.92-15.18,32.88-36.1,38.33-58.68,1.77-7.32,7.48-12.87,14.52-14.6,3.22.3,6.49.46,9.79.46,4.82,0,9.56-.33,14.21-.96,5.34,27.52,21.56,52.85,46.95,68.82,21.34,13.42,45.64,18.18,68.82,15.25,9.29-1.17,18.13,4.4,21.17,13.26,7.53,21.98,22.38,41.61,43.62,54.86,21.25,13.26,45.4,17.97,68.45,15.07,9.29-1.17,18.18,4.32,21.21,13.19,7.56,22.11,22.52,41.84,43.95,55.11,48.34,29.94,112.46,15.47,143.23-32.35,31.68-49.23,16.88-114.7-32.62-145.59Z"/>
</svg>