<?xml version="1.0" encoding="UTF-8"?>
<svg id="A" xmlns="http://www.w3.org/2000/svg" viewBox="0 0 1080 1080">
  <path d="M1017.22,845.84c-11.79-25.63-32.37-44.12-56.37-53.77-10.31-4.15-16.03-15.27-13.44-26.08,5.66-23.68,3.2-49.42-8.85-72.75-12.04-23.33-31.6-40.25-54.18-49.34-10.32-4.16-16.06-15.27-13.47-26.09,5.66-23.68,3.2-49.42-8.85-72.75-12.04-23.33-31.6-40.25-54.18-49.34-10.32-4.16-16.06-15.27-13.47-26.09,5.66-23.68,3.2-49.42-8.85-72.75-12.04-23.33-31.6-40.25-54.18-49.34-10.32-4.16-16.06-15.27-13.47-26.09,5.66-23.68,3.2-49.42-8.85-72.75-14.22-27.55-38.91-46.17-66.69-53.52,1.4-6.98,2.12-14.21,2.07-21.61-.42-58.13-47.88-104.92-106.02-104.5-58.13.42-104.92,47.88-104.5,106.02.05,7.08.81,14,2.19,20.68-27.16,7.62-51.21,26.06-65.17,53.1-12.04,23.33-14.51,49.07-8.85,72.75,2.59,10.82-3.15,21.94-13.47,26.09-22.58,9.1-42.14,26.01-54.18,49.34-12.04,23.33-14.51,49.07-8.85,72.75,2.59,10.82-3.15,21.94-13.47,26.09-22.58,9.1-42.14,26.01-54.18,49.34-12.04,23.33-14.51,49.07-8.85,72.75,2.59,10.82-3.15,21.94-13.47,26.09-22.58,9.1-42.14,26.01-54.18,49.34-12.04,23.33-14.51,49.07-8.85,72.75,2.58,10.81-3.13,21.93-13.44,26.08-24,9.66-44.58,28.14-56.37,53.77-22.57,49.08-3.83,108.04,42.95,135.06,52.45,30.3,118.96,10.38,146.43-42.83,12.04-23.33,14.51-49.07,8.85-72.75-2.59-10.82,3.15-21.94,13.47-26.09,22.58-9.1,42.14-26.01,54.18-49.34s14.51-49.07,8.85-72.75c-2.59-10.82,3.15-21.94,13.47-26.09,22.58-9.1,42.14-26.01,54.18-49.34,12.04-23.33,14.51-49.07,8.85-72.75-2.59-10.82,3.15-21.94,13.47-26.09,1.36-.55,2.71-1.13,4.05-1.73,1.96,56.77,48.8,101.99,105.95,101.58,57.79-.42,104.35-47.32,104.5-104.98,3.43,1.85,6.95,3.52,10.56,4.97,10.32,4.16,16.06,15.27,13.47,26.09-5.66,23.68-3.2,49.42,8.85,72.75,12.04,23.33,31.6,40.25,54.18,49.34,10.32,4.16,16.06,15.27,13.47,26.09-5.66,23.68-3.2,49.42,8.85,72.75,12.04,23.33,31.6,40.25,54.18,49.34,10.32,4.16,16.06,15.27,13.47,26.09-5.66,23.68-3.2,49.42,8.85,72.75,27.47,53.21,93.97,73.13,146.43,42.83,46.78-27.02,65.52-85.98,42.95-135.06ZM535.96,432.35c-15.21.11-29.64,3.44-42.65,9.34-.25-7.02-1.19-13.97-2.81-20.75-2.58-10.81,3.13-21.93,13.44-26.08,13.43-5.41,25.79-13.58,36.14-24.23,10.32,10.56,22.61,18.68,35.98,24.06,10.31,4.15,16.03,15.27,13.44,26.08-1.88,7.87-2.85,15.97-2.88,24.14-15.07-8.13-32.33-12.69-50.66-12.56Z"/>
</svg>