<?xml version="1.0" encoding="UTF-8"?>
<svg id="A" xmlns="http://www.w3.org/2000/svg" viewBox="0 0 1080 1080">
  <path d="M1017.2,821.77c-11.79-25.63-32.37-44.12-56.37-53.77-10.31-4.15-16.03-15.27-13.44-26.08,5.66-23.68,3.2-49.42-8.85-72.75-12.04-23.33-31.6-40.25-54.18-49.34-10.32-4.16-16.06-15.27-13.47-26.09,5.66-23.68,3.2-49.42-8.85-72.75s-31.6-40.25-54.18-49.34c-10.32-4.16-16.06-15.27-13.47-26.09,5.66-23.68,3.2-49.42-8.85-72.75-12.04-23.33-31.6-40.25-54.18-49.34-10.32-4.16-16.06-15.27-13.47-26.09,5.66-23.68,3.2-49.42-8.85-72.75-14.22-27.55-38.91-46.17-66.69-53.52,1.4-6.98,2.12-14.21,2.07-21.61-.42-58.13-47.88-104.92-106.02-104.5-58.13.42-104.92,47.88-104.5,106.02.05,7.08.81,14,2.19,20.68-27.16,7.62-51.21,26.06-65.17,53.1-12.04,23.33-14.51,49.07-8.85,72.75,2.59,10.82-3.15,21.94-13.47,26.09-22.58,9.1-42.14,26.01-54.18,49.34-12.04,23.33-14.51,49.07-8.85,72.75,2.59,10.82-3.15,21.94-13.47,26.09-22.58,9.1-42.14,26.01-54.18,49.34-12.04,23.33-14.51,49.07-8.85,72.75,2.59,10.82-3.15,21.94-13.47,26.09-22.58,9.1-42.14,26.01-54.18,49.34-12.04,23.33-14.51,49.07-8.85,72.75,2.58,10.81-3.13,21.93-13.44,26.08-24,9.66-44.58,28.14-56.37,53.77-22.57,49.08-3.83,108.04,42.95,135.06,52.45,30.3,118.96,10.38,146.43-42.83,12.04-23.33,14.51-49.07,8.85-72.75-2.59-10.82,3.15-21.94,13.47-26.09,22.58-9.1,42.14-26.01,54.18-49.34,5.88-11.38,9.46-23.34,10.94-35.35,16.23,10.23,35.44,16.15,56.04,16.15,12.65,0,24.77-2.23,36-6.32,0,.26,0,.52,0,.77,0,58.14,47.13,105.26,105.26,105.26s105.26-47.13,105.26-105.26c0-.65-.01-1.29-.02-1.94,10.43,3.37,21.58,5.16,33.14,5.08,24.35-.18,46.7-8.61,64.43-22.61.59,14.91,4.35,29.92,11.64,44.06,12.04,23.33,31.6,40.25,54.18,49.34,10.32,4.16,16.06,15.27,13.47,26.09-5.66,23.68-3.2,49.42,8.85,72.75,27.47,53.21,93.97,73.13,146.43,42.83,46.78-27.02,65.52-85.98,42.95-135.06ZM665.9,534.2c-9.53.77-18.7,2.81-27.34,5.95,2.19-8.42,3.37-17.24,3.39-26.33,3.43,1.84,6.95,3.52,10.56,4.97,6.86,2.76,11.68,8.62,13.39,15.41ZM493.29,417.63c-.25-7.02-1.19-13.97-2.81-20.75-2.58-10.81,3.13-21.93,13.44-26.08,13.43-5.41,25.79-13.58,36.14-24.23,10.32,10.56,22.61,18.68,35.98,24.06,10.31,4.15,16.03,15.27,13.44,26.08-1.88,7.87-2.85,15.97-2.88,24.14-15.07-8.13-32.33-12.69-50.66-12.56-15.21.11-29.64,3.44-42.65,9.34ZM427.45,518.96c1.36-.55,2.71-1.13,4.05-1.73.32,9.39,1.88,18.46,4.5,27.06-7.15-2.97-14.69-5.18-22.53-6.52.76-8.2,5.98-15.59,13.97-18.81ZM536.87,635.97c-12.65,0-24.77,2.23-36,6.32,0-.26,0-.52,0-.77,0-10.7-1.6-21.02-4.57-30.74,12.66,5.27,26.57,8.13,41.14,8.02,12.35-.09,24.19-2.31,35.17-6.3-2.28,8.74-3.46,17.91-3.4,27.36,0,.4.02.79.02,1.19-10.2-3.3-21.09-5.08-32.39-5.08Z"/>
</svg>