<?xml version="1.0" encoding="UTF-8"?>
<svg id="A" xmlns="http://www.w3.org/2000/svg" viewBox="0 0 1080 1080">
  <path d="M932.61,295.09c-25.16,0-48.26,8.83-66.37,23.57-7.32,5.96-17.83,5.96-25.15,0-18.11-14.73-41.21-23.57-66.37-23.57s-48.26,8.83-66.37,23.57c-7.32,5.96-17.83,5.96-25.15,0-18.11-14.73-41.21-23.57-66.37-23.57-58.63,0-106.07,47.94-105.25,106.76.79,57.13,47.76,103.57,104.9,103.76,25.33.08,48.58-8.78,66.78-23.61,7.3-5.94,17.8-5.9,25.1.04,18.11,14.73,41.21,23.57,66.37,23.57s48.26-8.83,66.37-23.57c7.3-5.94,17.8-5.99,25.1-.04,18.2,14.83,41.46,23.69,66.78,23.61,57.14-.19,104.1-46.63,104.89-103.77.82-58.82-46.62-106.76-105.25-106.76Z"/>
  <path d="M620.32,574.91c-31.5,0-59.75,13.87-79,35.84-19.25-21.97-47.5-35.84-79-35.84-31.5,0-59.75,13.87-79,35.84-19.25-21.97-47.5-35.84-79-35.84s-59.75,13.87-79,35.84c-19.25-21.97-47.5-35.84-79-35.84-57.99,0-105,47.01-105,105s47.01,105,105,105c31.5,0,59.75-13.87,79-35.84,19.25,21.97,47.5,35.84,79,35.84s59.75-13.87,79-35.84c19.25,21.97,47.5,35.84,79,35.84,31.5,0,59.75-13.87,79-35.84,19.25,21.97,47.5,35.84,79,35.84,57.99,0,105-47.01,105-105s-47.01-105-105-105Z"/>
</svg>