<?xml version="1.0" encoding="UTF-8"?>
<svg id="A" xmlns="http://www.w3.org/2000/svg" viewBox="0 0 1080 1080">
  <path d="M971.75,941.55c18.42-7.94,29.46-18.07,29.46-29.11s-11.04-21.17-29.46-29.11c-7.44-3.21-7.44-7.82,0-11.03,18.42-7.94,29.46-18.07,29.46-29.11,0-17.01-26.23-31.87-65.26-39.88,39.24-34.15,48.09-92.91,18.62-137.48-14.48-21.9-35.74-36.62-59.17-43.24-10.71-3.02-17.6-13.46-16.19-24.5,3.09-24.15-2.12-49.47-16.6-71.38-14.48-21.9-35.74-36.62-59.17-43.24-10.71-3.02-17.6-13.46-16.19-24.5,3.09-24.15-2.12-49.47-16.6-71.38-14.48-21.9-35.74-36.62-59.17-43.24-10.71-3.02-17.6-13.46-16.19-24.5,3.09-24.15-2.12-49.47-16.6-71.38-14.48-21.9-35.74-36.62-59.16-43.24-8.47-2.39-14.56-9.44-16.02-17.74,5.56-29.1-1.02-60.36-20.7-85.2-18.28-23.07-44.2-36.4-71.23-39.31-22.45-2.76-45.86,1.6-66.48,13.87-28.82,17.15-46.3,45.58-50.57,76.01-3.57,5.63-9.83,9.26-16.81,9.27-23.34.02-46.83,7.77-66.34,23.67-19.51,15.9-31.83,37.34-36.56,60.2-1.91,9.24-10.06,15.88-19.49,15.89-23.34.02-46.83,7.77-66.34,23.67-45.45,37.05-51.93,104.17-14.13,149.25,36.71,43.78,102.46,50.11,146.87,14.16,19.69-15.94,32.11-37.5,36.85-60.49,1.9-9.22,10.07-15.82,19.48-15.83,23.34-.02,46.83-7.77,66.33-23.67,19.51-15.9,31.83-37.34,36.56-60.2.6-2.88,1.8-5.52,3.46-7.78,1.73,3.73,2.46,7.95,1.91,12.28-3.09,24.15,2.12,49.47,16.6,71.38,14.48,21.9,35.74,36.62,59.17,43.24,10.71,3.02,17.6,13.46,16.19,24.5-3.09,24.15,2.12,49.47,16.6,71.38,14.48,21.9,35.74,36.62,59.17,43.24,10.71,3.02,17.6,13.46,16.19,24.5-3.09,24.15,2.12,49.47,16.6,71.38,14.48,21.9,35.74,36.62,59.16,43.24,10.69,3.02,17.61,13.44,16.2,24.46-3.29,25.66,2.79,52.65,19.4,75.45,5.02,6.9,10.77,13.01,17.06,18.31-36.29,8.22-60.46,22.51-60.62,38.67-.11,11.11,10.97,21.31,29.51,29.29,7.43,3.2,7.37,7.81-.05,11.01-18.42,7.94-29.46,18.07-29.46,29.11s11.04,21.17,29.46,29.11c7.42,3.2,7.48,7.81.05,11.01-18.53,7.98-29.61,18.18-29.51,29.29.24,25.06,58.29,45.66,129.71,46.01,73.53.36,133.45-20.45,133.45-46.17,0-11.04-11.04-21.17-29.46-29.11-7.44-3.21-7.44-7.82,0-11.03Z"/>
</svg>