<?xml version="1.0" encoding="UTF-8"?>
<svg id="A" xmlns="http://www.w3.org/2000/svg" viewBox="0 0 1080 1080">
  <path d="M1011.53,518.75c-1.53-9.39-4.35-18.69-8.57-27.65-21.76-46.23-72.12-68.81-119.1-57.92-9.07-.4-17.25-6.29-20.29-15.18-7.87-23.04-23.71-43.47-46.36-56.75-22.65-13.28-48.22-17.13-72.17-12.74-10.94,2-21.74-4.33-25.33-14.85-7.87-23.04-23.71-43.47-46.36-56.76-22.65-13.28-48.22-17.13-72.17-12.74-10.94,2-21.74-4.33-25.33-14.85-7.87-23.04-23.71-43.47-46.36-56.76-22.65-13.28-48.22-17.13-72.17-12.74-10.94,2-21.74-4.33-25.33-14.85-3.33-9.76-8.11-19.05-14.22-27.53-15.91-34.63-50.12-59.37-90.1-61.49-60.49-3.21-110.72,44.72-111.06,104.6-.13,23.28,7.32,44.82,20.01,62.32,2.81,6.18,6.22,12.11,10.2,17.68.98,6.36-.77,13.06-5.26,18.21-16,18.35-25.75,42.3-25.9,68.55-.15,26.26,9.33,50.31,25.12,68.84,7.21,8.47,7.14,20.98-.17,29.36-16,18.35-25.75,42.3-25.9,68.55-.15,26.26,9.33,50.31,25.12,68.84,7.21,8.47,7.14,20.98-.17,29.36-16,18.35-25.75,42.3-25.9,68.55-.15,26.26,9.33,50.31,25.12,68.84,7.11,8.35,7.15,20.64.12,29.01-1.58,1.81-3.09,3.67-4.54,5.57-.2.27-.41.54-.61.8-.11.15-.22.3-.34.46-13.79,18.57-21.61,41.83-20.61,67,.16,3.94.54,7.83,1.13,11.66.03.19.05.38.08.57.06.35.12.7.18,1.04.09.53.18,1.06.28,1.59,0,.04.02.08.02.12,1.6,8.63,4.3,17.18,8.18,25.43,12.23,25.97,33.48,44.48,58.1,53.78.27.1.55.21.83.31.39.14.77.29,1.16.42,8.66,3.1,17.84,5.1,27.37,5.8.56.04,1.12.08,1.68.11.18.01.37.03.55.04.03,0,.05,0,.08,0,7.25.39,14.57.04,21.86-1.09.42-.07.84-.14,1.26-.21.4-.07.81-.13,1.21-.21.81-.14,1.61-.3,2.41-.46.01,0,.02,0,.04,0,16.43-3.35,31.48-10.53,44.17-20.57.11-.09.22-.18.33-.26,1.09-.87,2.16-1.75,3.21-2.66.23-.2.45-.4.68-.6.97-.85,1.92-1.71,2.86-2.59.24-.23.47-.46.71-.69.79-.76,1.57-1.53,2.33-2.32.23-.24.47-.48.71-.72.87-.91,1.72-1.83,2.55-2.77.2-.22.39-.44.59-.66.9-1.03,1.78-2.08,2.64-3.14.08-.11.17-.21.25-.32,6.87-8.55,12.44-18.2,16.39-28.65,4.38-9.66,15.01-15.03,25.46-12.65,23.74,5.41,49.45,2.67,72.65-9.62,23.2-12.29,39.91-32.03,48.76-54.71,4.05-10.36,15.1-16.22,25.95-13.75,23.74,5.41,49.45,2.67,72.65-9.62,23.2-12.29,39.91-32.03,48.76-54.71,4.05-10.36,15.1-16.22,25.95-13.75,23.74,5.41,49.45,2.67,72.65-9.62,23.2-12.29,39.91-32.03,48.76-54.71,3.47-8.88,12.09-14.45,21.31-14.3,46.48,12.92,97.78-7.47,121.52-52.73,11.04-21.06,14.19-44.44,10.39-66.53ZM662.14,575.54c-4.05,10.36-15.1,16.22-25.95,13.75-23.74-5.41-49.45-2.67-72.65,9.62-23.2,12.29-39.91,32.03-48.76,54.71-4.05,10.36-15.1,16.22-25.95,13.75-21.06-4.8-43.67-3.17-64.71,5.84-1.76-22.82-10.78-43.61-24.79-60.05-7.21-8.47-7.14-20.98.17-29.36,16-18.35,25.75-42.3,25.9-68.55.15-26.26-9.33-50.31-25.12-68.84-7.21-8.47-7.14-20.98.17-29.36,10.56-12.11,18.37-26.67,22.52-42.71,22.64,13.25,48.18,17.09,72.11,12.71,10.94-2,21.74,4.33,25.33,14.85,7.87,23.04,23.71,43.47,46.36,56.76,22.65,13.28,48.22,17.13,72.17,12.74,10.94-2,21.74,4.33,25.33,14.85,5.86,17.15,16.14,32.85,30.35,45.24-14.84,11.79-25.86,27.1-32.49,44.07Z"/>
</svg>