<?xml version="1.0" encoding="UTF-8"?>
<svg id="Layer_2" data-name="Layer 2" xmlns="http://www.w3.org/2000/svg" viewBox="0 0 177.81 223.88">
  <defs>
    <style>
      .cls-1 {
        fill: none;
        stroke: #000;
        stroke-miterlimit: 10;
        stroke-width: 9.5px;
      }
    </style>
  </defs>
  <g id="Layer_2-2" data-name="Layer 2">
    <g id="A">
      <path class="cls-1" d="M116.97,5.41l.14.13c.38,0,.88-.04,1.21,0l2.07.29c1.6.22,3.16.35,4.71.71l1.52.36,2.16.54,5.19,1.32c1.69.43,4.33,1.29,5.76,2.19l1.67,1.05,1,.63,2.13,1.26,1.13.63,1.07.57c.41.21.81.44,1.19.69l.9.59c.51.34.99.7,1.48,1.08l1.14.9c.29.23.59.48.88.74l1.13,1.03.84.8c.34.32.66.68.99,1.03l1.87,1.92.95,1.08.88,1.02.62.74,1.5,1.88,1.05,1.38.87,1.17c.23.3.47.63.68.94l2.33,3.49c.23.34.45.74.65,1.1l.71,1.34c.21.39.42.86.59,1.29l.71,1.73.68,1.76,1.36,4.06c.84,2.53,1.33,5.09,1.75,7.72l.42,2.64c.04.26.03.74.04,1.03l.12.04v8.13l-.12.14c0,.27,0,.68-.04.91l-.39,2.26-.28,1.6c-.15.82-.31,1.63-.54,2.43l-.82,2.84-.59,1.7c-.26.74-.53,1.44-.84,2.14l-.5,1.13-.29.66-1.41,2.77-1.19,2.07-.62,1-1.58,2.35-2.15,2.86c-.22.3-.49.6-.74.88l-.82.95-.95,1.08-1.65,1.74c-.36.38-.69.71-1.07,1.07l-1.74,1.65-.94.82-.66.58-.72.62-2.11,1.69c-.82.66-1.62,1.26-2.49,1.83l-2.77,1.83c-.5.33-1,.61-1.52.9l-1.05.59c-.41.23-.81.46-1.22.66l-1.48.69c-.47.22-.97.38-1.48.51-1.66.44-.67.51-2.16.81,0,0,.02.12.03.19.55.09,1.09.13,1.57.26,1.48.41,4.72,2.23,6.07,3.09l1.23.8,1.86,1.26,1.25.91,2.67,2.07c.27.21.54.46.81.68l1.02.9c.3.26.67.52.95.81l4.18,4.19.96,1.08.93,1.09,1.99,2.49c.18.22.38.47.53.69l2.16,3.24,1.99,3.42c.23.39.45.83.63,1.25l.63,1.41.5,1.13c1.53,3.47,2.97,8.58,3.36,12.31l.13,1.22.08.91.1,1.36.09,1.54c.06,1.14.07,2.3,0,3.44l-.09,1.4-.07.85c-.18,2.26-.51,4.45-1.07,6.65l-.84,3.36-.41,1.36-.91,2.74c-.51,1.54-1.97,5.04-2.74,6.46-.22.4-.45.82-.69,1.2l-1.22,1.9-.59.89-1.19,1.67-2.25,3.01-.85,1.05-.98,1.18-.82.95-.88,1.02-1.05,1.12c-.33.35-.62.73-.96,1.06l-1.24,1.21-.51.41-1.26,1.2-.88.76c-.41.35-.84.69-1.28,1.01l-1.42,1.04c-.38.28-.81.55-1.22.79l-1.81,1.04-.18.1-.18.1-5.3,2.95s-.12.06-.19.09l-.18.09-.18.09-.19.09-.19.09-.18.09-.19.09-.19.09c-.06.03-.14.07-.2.09l-6.61,2.3-.2.07-.2.08-.2.07-.2.07-.2.07-.2.07-.2.07-.2.07-.2.07-.2.06-.2.06-.2.07-.2.07-.2.07-.2.07-.2.07-.2.07-.2.07-.2.07-.2.07-.2.07-.2.07-.2.07-.2.07-.19.06-.21.06-.21.06-.21.06-.2.06-.2.06-.2.06-.2.06-.21.06-.21.06-.21.06-.2.06-.21.06c-.05.02-.14.04-.2.04l-.23.04-.22.04-.22.04-.23.04-.23.04-.23.04-.22.04-.22.05-.22.05c-.06.02-.15.04-.21.04l-.24.04-.23.04-.23.04-.24.04-.24.04-.25.04c-.05,0-.15.03-.23.04l-1.26.27h-.88l-.1.13h-10.71l-.14-.12c-.33,0-.77,0-1.05-.04l-1.36-.21-1.21-.17-3.35-.43-1.62-.27-2.32-.41-3.71-.74-1.53-.35-1.21-.29-4.11-1.03c-.42-.11-.85-.24-1.26-.36l-1.66-.51-2.94-.98-2.29-.83-3.32-1.29-4.05-1.61-3.29-1.33c-1.16-.47-3.4-1.52-4.5-2.13l-1.41-.76-1.04-.59-3.63-2.19-3.98-2.65-1.75-1.24-3.4-2.55-1.14-.89-1.14-.9-1.52-1.19-1.05-.84-1.64-1.35-.73-.62-1.02-.88-.92-.82-1-.9-3.52-3.52c-.31-.31-.6-.67-.89-1.01l-.8-.96-.73-.9-.9-1.13-1.29-1.69-1.29-1.7-1.01-1.29-1.09-1.36-1.03-1.28-1.32-1.66c-.35-.44-.7-.94-1-1.42l-1.08-1.76-.64-1.13-.59-1.04-.67-1.22-.81-1.52-.49-.86-.91-1.67-.81-1.49-.95-1.76-.95-1.76c-.37-.68-.73-1.35-1.04-2.07l-.61-1.42c-.91-2.12-2.09-5.5-2.68-7.72l-.51-1.93-.57-2.41-.8-3.94-.47-2.78-.39-2.72-.18-1.42-.14-1.22-.13-1.21-.13-1.36-.14-1.47-.12-1.29-.17-1.41-.06-.6c-.05-.46-.05-.95-.05-1.43v-.68l-.13-.12v-9.89c.27-.59.05-.89.24-2.18l.23-1.62.16-1.5c.43-4.02,1.05-7.94,1.87-11.9.26-1.24.34-.66.73-2.83.5-2.74,1-5.41,1.78-8.08l.95-3.26.37-1.11.57-1.61,1.24-3.08.46-1.03c.21-.46.45-.88.68-1.34l.95-1.91.71-1.31.77-1.4.82-1.49.72-1.31.77-1.4.72-1.3.67-1.22,1.13-1.99c.81-1.41,1.89-2.83,2.93-4.09l.56-.67.98-1.2,1.79-2.27.71-.91.89-1.14,2.34-3.08c.39-.51.79-1.01,1.21-1.49l.97-1.08c1.07-1.2,2.18-2.3,3.38-3.38l1.29-1.16,1.15-1.02.88-.74.74-.61,1.35-1.1,1.87-1.5,1.68-1.3,1.07-.83,2.16-1.62,1.49-1.09,1.19-.84,1.68-1.17,1.95-1.29,2-1.25,2.37-1.42,1.13-.63.98-.52,1.06-.56c.79-.42,1.55-.8,2.36-1.15l1.5-.66,3.08-1.26,5.02-2.01,1.67-.65,1.37-.51,1.39-.51,2.54-.85,1.56-.47,1.5-.41,2.83-.69,4.95-1.01,1.84-.32,1.52-.24,3.8-.52,1.93-.22,1.33-.14,1.49-.16,1.32-.13c.97-.1,1.91-.04,2.19-.23h8.7Z"/>
      <path class="cls-1" d="M109.21,176.61s-.05,0-.07,0c0,0-1.2-.17-1.32-.18l-2.65-.34-.68-.11-1.63-.29-2.6-.52-.64-.15-.84-.2-3.28-.82-.94-.29-1.97-.65-1.24-.45-2.73-1.07-3.82-1.52-2.89-1.17c-.19-.09-.47-.22-.66-.31l-1.1-.6-2.29-1.38-2.64-1.76-.77-.55-2.7-2.02-3.15-2.46-.66-.53-1.15-.95-1.02-.87-.68-.61-1.64-1.64-.86-1.08-2.26-2.99c-.17-.22-.34-.45-.51-.67,0,0-1.2-1.52-1.29-1.64l-2.21-2.75-.54-.95-.42-.77-.66-1.25c-.18-.33-.36-.66-.55-.99l-.34-.59-.71-1.3-2.47-4.57-.15-.34c-.18-.45-.53-1.44-.67-1.92l-.32-1.22-.29-1.25-.53-2.61-.27-1.58-.26-1.82-.11-.86-.19-1.73-.37-3.81c-.03-.3-.06-.6-.1-.89-.02-.84-.06-1.67-.12-2.5v-3.85c.02-.21.05-.62.05-.62.07-.49.13-.98.18-1.48l.16-1.5c.22-2.04.52-4.09.91-6.19.48-1.7.88-3.47,1.25-5.5.17-.94.54-2.98.75-3.7l.72-2.48.15-.43.42-1.04c.07-.13.88-1.78.88-1.78l4.49-8.18.17-.29,1.31-1.61c.14-.17.27-.34.41-.51,0,0,1.93-2.44,2-2.53,0,0,1.77-2.29,1.85-2.39l1.99-2.61.39-.44s1.31-1.18,1.31-1.18l.65-.58.28-.23,1.58-1.29,1.43-1.15,2.27-1.76,1.66-1.25,1.04-.76.76-.54,1.14-.79,1.07-.71,1.18-.74,1.42-.85.8-.43s.94-.49.97-.51l.69-.31,2.37-.97,4.67-1.87,1.19-.46.92-.34.72-.26,1.42-.48.38-.11.42-.11,1.49-.36,3.53-.72.88-.15.8-.13,2.93-.4,1.29-.15,2.94-.31c.46-.03.92-.06,1.38-.1h2.94c.37.03.73.05,1.1.07.54.07,1.03.13,1.52.19l1.89.47,2.54.65,1.98,1.17c.29.17.59.34.88.51,0,0,1.05.59,1.06.59l1.1,1.13.81.94.84,1.06.62.81.62.83.58.87.87,2.6c.04.21.12.63.23,1.36l.05.29v1.33l-.06.32-.16.55-.03.09-.11.25-.37.72-.21.37-.45.67-.73.98-.66.75-.82.87-.8.76-.94.82-1.32,1.06-1.02.68c-.63.23-1.24.48-1.85.73-8.6,3.27-15.98,9.28-20.93,17.19-5.35,8.56-7.46,18.7-6.04,28.59,0,.03,0,.05,0,.06,2.27,16.11,13.46,29.3,28.51,34.37l1.43,1.1s.66.58.7.61l2.05,2.06.11.13.85,1.06.55.82.5.86.32.73c.06.17.12.4.17.59l.03.34.05.73.03.47s-.04.55-.05.58l-.52,2.07-.53,1.6c-.02.06-.05.13-.08.2l-.51.71-1.44,1.92-.67.81-.97,1.12s-.64.68-.65.69c-.18.17-.36.33-.54.5l-2.97,1.66-3.97,1.38c-.32.11-.64.23-.96.35-.35.11-.71.23-1.06.35,0,0-1.39.49-1.46.51h-3.77Z"/>
    </g>
  </g>
</svg>