<?xml version="1.0" encoding="UTF-8"?>
<svg id="Layer_2" data-name="Layer 2" xmlns="http://www.w3.org/2000/svg" viewBox="0 0 992.5 808.59">
  <defs>
    <style>
      .cls-1 {
        fill: none;
        stroke: #000;
        stroke-miterlimit: 10;
        stroke-width: 9.5px;
      }
    </style>
  </defs>
  <g id="Layer_2-2" data-name="Layer 2">
    <g id="A">
      <path class="cls-1" d="M432.3,479.19c49.89,9,103.28-23.78,117.51-72.45,3.35-10.66,14.11-17.25,25.09-15.47,49.84,9.02,103.31-23.8,117.51-72.45,3.35-10.66,14.11-17.25,25.09-15.47,49.78,9.04,103.34-23.82,117.51-72.45,3.35-10.66,14.01-17.25,25.09-15.47,12.68,1.97,25.73,1.68,38.58,0,53.63-8.57,92.42-57.08,88.86-111.23-4.69-82.04-98.64-125.02-166.23-83.22-10.87,6.69-20.07,15.05-27.49,24.57-6.17,1.67-13.07.73-18.71-3.14-41.1-29.48-103.76-22.28-137.27,15.58-7.63,8.15-20.07,9.62-29.27,3.34-20.18-13.8-45.27-20.7-71.51-17.67-26.24,2.93-49.14,15.26-65.76,33.25-7.63,8.15-20.07,9.62-29.27,3.35-41.01-29.44-103.84-22.35-137.27,15.58-7.63,8.15-20.07,9.62-29.27,3.34-21.43-14.64-48.4-21.54-76.42-17.04-51.44,8.15-89.18,53.21-89.07,104.65-140.15,5.47-140.49,205.97,0,211.6,58.44,0,105.8-47.36,105.8-105.8,3.97,0,7.95-.21,12.02-.73,26.24-2.93,49.14-15.26,65.76-33.25,7.63-8.15,20.07-9.62,29.27-3.35,20.18,13.8,45.27,20.7,71.51,17.67,26.24-3.03,49.14-15.26,65.76-33.25,7.63-8.15,20.07-9.62,29.27-3.35,2.3,1.57,4.7,3.14,7.21,4.5-2.3,4.7-4.18,9.51-5.75,14.43-3.35,10.66-14.11,17.25-25.09,15.47-49.85-9.01-103.3,23.79-117.51,72.45-3.35,10.66-14.01,17.25-25.09,15.47-25.61-4.08-53,1.15-76.42,17.15-25.72,17.46-41.4,44.85-45.16,73.91-55.98-17.44-117.43,16.48-132.67,73.08-24.85,89.54,71.15,165.14,151.8,121.69,9.83-5.23,22.16-2.51,28.75,6.48,29.18,41.33,90.52,55.05,134.65,30.32,9.83-5.23,22.16-2.51,28.75,6.48,29.34,41.39,90.33,55.04,134.65,30.32,9.83-5.23,22.16-2.51,28.75,6.48,29.28,41.36,90.36,55.05,134.65,30.32,9.83-5.23,22.16-2.51,28.75,6.48,51.13,70.05,163.69,50.05,187.03-34.81,16.1-58.65-20.07-118.24-78.83-131.51-25.72-5.75-51.33-1.67-72.97,9.83-9.83,5.23-22.16,2.51-28.75-6.48-14.53-19.65-35.96-34.39-61.68-40.14-25.72-5.75-51.33-1.67-72.97,9.83-9.83,5.23-22.16,2.51-28.75-6.48-29.17-41.38-90.55-55.02-134.65-30.32-9.83,5.23-22.16,2.51-28.75-6.48-4.81-6.48-10.35-12.44-16.62-17.67,1.78-3.87,3.24-7.74,4.5-11.71,3.35-10.66,14.11-17.25,25.09-15.47v-.73h0Z"/>
      <path class="cls-1" d="M824.57,761.64c-19.84,0-39.04-9.67-50.7-25.52-18.25-25.58-55.38-33.99-82.94-18.79-13.37,7.12-28.99,9.23-43.73,5.87-14.72-3.29-27.76-11.77-36.73-23.87-18.25-25.58-55.39-34-82.95-18.8-9.15,4.86-19.42,7.43-29.7,7.43-19.73.08-39.09-9.48-50.76-25.45-18.25-25.58-55.38-33.99-82.94-18.79-13.36,7.12-28.99,9.22-43.73,5.87-14.72-3.29-27.76-11.77-36.73-23.88-12.17-16.54-31.74-26.42-52.37-26.42-10.63,0-21.2,2.64-30.57,7.62-9.15,4.86-19.42,7.43-29.7,7.43-41.35.41-72.6-40.37-61.13-80.33,8.26-30.91,40.36-51.24,71.98-45.4,2.18.39,4.63.96,7.87,1.91,3.88,1.12,7.86,1.68,11.82,1.68,20.77.36,39.85-16.35,42.17-37.06,2.34-18.08,12.14-34.19,26.88-44.19,13.35-9.22,29.9-12.91,45.86-10.33,3.37.54,6.85.82,10.29.82,28.57,0,53.5-18.31,62.05-45.55,7.56-25.64,33.49-44.32,60.22-43.99,6.84-.13,13.43,1.76,20.3,1.62,28.54,0,53.46-18.26,62.04-45.44,1-3.14,2.12-5.95,3.41-8.59,10.01-20.48,2.09-45.21-17.95-56.06-11.93-8.4-25.38-13.67-40.09-13.51-18.09,0-35.56,7.62-47.87,20.89-11.89,12.99-28.95,20.3-46.75,20.29-12.62,0-24.82-3.79-35.29-10.95-10.87-7.41-23.52-11.31-36.62-11.31-18.09,0-35.56,7.62-47.87,20.89-10.28,11.12-24.22,18.17-39.25,19.85-2.38.3-4.57.48-7.31.47-23.48,0-42.52,19.04-42.52,42.52-3.47,83.91-123.05,83.98-126.56,0,0-34.89,28.39-63.28,63.28-63.28,11.29,0,22.12-4.49,30.1-12.48,7.98-7.99,12.45-18.83,12.42-30.12-.08-50.42,57.36-81.11,98.99-52.41,25.66,18.12,63.2,13.76,84.3-9.4,20.36-22.83,57.18-27.25,82.22-9.53,10.87,7.41,23.52,11.31,36.62,11.31,18.09,0,35.56-7.62,47.87-20.89,11.94-13.01,29.14-20.35,46.74-20.29,12.62,0,24.82,3.79,35.29,10.95,10.87,7.41,23.52,11.31,36.63,11.31,18,0,35.38-7.54,47.69-20.7,10.38-11.32,24.09-18.27,39.59-20.06,14.96-1.76,30.15,1.95,42.62,10.53,15.48,10.72,35.65,14.09,53.84,9.08,8.88-2.41,16.74-7.63,22.39-14.88,11.53-14.93,30.64-24.14,49.34-24.03,80.57-3.16,94.87,109.19,15.57,125.72-3.69.52-7.39.78-11.01.78-4.68.02-9.62.16-14.16-.69-31.71-5.4-63.26,13.9-72.65,44.69-8.49,29.08-40.39,48.5-70.21,43.19-31.61-5.25-63.04,14.06-72.38,44.73-7.56,25.64-33.49,44.32-60.22,43.99-6.84.13-13.43-1.76-20.3-1.62-28.58,0-53.53,18.31-62.08,45.55-7.56,25.64-33.49,44.32-60.22,43.99-7.78.07-15.52-2.36-23.28-.82-27.32,1.22-50.84,19.19-59.09,45.49-.75,2.36-1.59,4.58-2.56,6.68-8.02,17.46-3.34,38.12,11.42,50.42,3.5,2.92,6.74,6.37,9.64,10.27,12.17,16.52,31.72,26.38,52.34,26.38,10.63,0,21.2-2.64,30.57-7.62,13.37-7.13,28.99-9.22,43.73-5.87,14.72,3.29,27.76,11.77,36.73,23.88,18.24,25.57,55.38,34,82.94,18.79,26.77-14.73,62.63-6.8,80.48,18.03,18.25,25.55,55.38,33.98,82.93,18.77,9.15-4.86,19.42-7.43,29.7-7.43,4.67,0,9.39.53,14.03,1.56,34.45,6.99,57.24,44.98,47.1,78.77-7.53,27.27-32.66,46.36-61.1,46.36h0Z"/>
    </g>
  </g>
</svg>