<?xml version="1.0" encoding="UTF-8"?>
<svg id="Layer_2" data-name="Layer 2" xmlns="http://www.w3.org/2000/svg" viewBox="0 0 874.36 945.03">
  <defs>
    <style>
      .cls-1 {
        fill: none;
        stroke: #000;
        stroke-miterlimit: 10;
        stroke-width: 9.5px;
      }
    </style>
  </defs>
  <g id="Layer_2-2" data-name="Layer 2">
    <g id="A-10">
      <path class="cls-1" d="M838.53,53.59c-41.76-41.22-109.03-40.26-149.61,1.94-17.44,18.08-27.02,40.9-28.95,64.04-.75,9.36-8.07,16.9-17.44,18.08-23.14,2.91-45.42,13.35-62.86,31.54-17.44,18.08-27.02,40.9-28.95,64.04-.65,7.53-5.49,13.99-12.27,16.79-7.32.86-14.53,2.37-21.31,4.63-17.22,4.95-33.37,14.32-46.61,28.2-33.15,34.55-38.1,86-15.18,125.5,6.57,13.02,15.82,24.54,27.02,33.69-21.31,19.91-34.23,48.54-33.26,79.97.97,31.43,15.71,59.2,38.21,77.71-3.66,3.34-7,7-10.12,10.87-5.06-1.4-10.33-2.48-15.5-3.12-10.98-1.4-19.37-10.66-19.7-21.74-.54-24.33-9.58-48.54-27.12-67.92-17.54-19.48-40.79-30.78-64.9-33.8-10.98-1.4-19.37-10.66-19.7-21.74-.54-24.33-9.58-48.54-27.12-67.92-17.54-19.48-40.79-30.78-64.9-33.8-10.98-1.4-19.37-10.66-19.7-21.74,0-1.08,0-2.05-.11-3.12,3.12-4.31,7.97-7.32,13.56-7.97,23.14-2.91,45.42-13.35,62.86-31.54,17.44-18.08,27.02-40.9,28.95-64.04.75-9.36,7.97-17.01,17.33-18.08,23.25-2.91,45.75-13.45,63.18-31.75,39.39-41.22,38.43-107.21-2.15-147.25-41.76-41.22-109.03-40.26-149.61,1.94-17.44,18.08-27.02,40.9-28.95,64.04-.75,9.36-8.07,16.9-17.44,18.08-23.14,2.91-45.42,13.35-62.86,31.54-17.44,18.08-27.02,40.9-28.95,64.04-.75,9.36-8.07,16.9-17.44,18.08-23.14,2.91-45.42,13.35-62.86,31.54-37.56,39.07-38.86,99.67-4.84,140.14,1.94,2.58,3.98,5.06,6.14,7.43,17.54,19.48,40.79,30.78,64.9,33.8,10.98,1.4,19.37,10.66,19.7,21.74.54,24.33,9.58,48.54,27.12,67.92,17.54,19.48,40.79,30.78,64.9,33.8,10.98,1.4,19.37,10.66,19.7,21.74.54,24.33,9.58,48.54,27.12,67.92,17.54,19.48,40.79,30.78,64.9,33.8,10.98,1.4,19.37,10.66,19.7,21.74.54,24.33,9.58,48.54,27.12,67.92,17.54,19.48,40.79,30.78,64.9,33.8,10.98,1.4,19.37,10.66,19.7,21.74.65,25.83,10.66,51.56,30.46,71.58,31.32,31.54,78.68,39.18,117.65,21.74,39.39-16.04,66.52-55.32,65.12-100.32-.97-31.43-15.71-59.2-38.21-77.71,21.31-19.91,34.23-48.54,33.26-79.97-.97-31.43-15.71-59.2-38.21-77.71,21.31-19.91,34.23-48.54,33.26-79.97-.97-31.43-15.71-59.2-38.21-77.71,8.18-7.64,15.18-16.68,20.67-26.59,9.9-16.15,15.61-35.09,15.61-55.43v-3.55c3.12-3.12,7.21-5.27,11.84-5.81,23.14-2.91,45.42-13.35,62.86-31.54,17.44-18.19,27.02-40.9,28.95-64.04.75-9.36,7.97-17.01,17.33-18.08,23.25-2.91,45.75-13.45,63.18-31.75,39.39-41.22,38.43-107.21-2.15-147.25h0v-.11Z"/>
      <path class="cls-1" d="M560.22,897.76c-16.93,0-32.72-6.51-44.46-18.33-11.26-11.39-17.72-26.56-18.12-42.68,0-.06,0-.12,0-.18-.45-15.48-6.43-30.33-16.85-41.82-10.42-11.5-24.62-18.91-39.98-20.86-.03,0-.07,0-.1-.01-14.91-1.86-28.61-8.99-38.58-20.06-.03-.03-.05-.06-.08-.09-10.07-11.12-15.8-25.44-16.13-40.32,0-.1,0-.2,0-.3-.45-15.48-6.43-30.33-16.85-41.82-10.42-11.5-24.62-18.91-39.98-20.86-.03,0-.07,0-.1-.01-14.91-1.86-28.61-8.99-38.58-20.06-.03-.03-.05-.06-.08-.09-10.07-11.12-15.8-25.44-16.13-40.32,0-.1,0-.2,0-.3-.45-15.48-6.43-30.33-16.85-41.82-10.42-11.5-24.62-18.91-39.97-20.86-.03,0-.07,0-.1-.01-14.91-1.86-28.61-8.99-38.58-20.06-.03-.03-.05-.06-.08-.09-10.07-11.12-15.8-25.44-16.13-40.32,0-.1,0-.2,0-.3-.45-15.48-6.43-30.33-16.85-41.82-10.42-11.5-24.62-18.91-39.97-20.86-.03,0-.07,0-.1-.01-14.91-1.86-28.61-8.99-38.58-20.06l-.14-.15c-1.25-1.37-2.45-2.83-3.58-4.33-.47-.63-.96-1.24-1.47-1.85-20.52-24.41-19.25-60.23,2.94-83.32,10.07-10.51,23.03-17,37.51-18.82,29.22-3.69,52.11-27.55,54.51-56.76v.03c1.19-14.3,7.3-27.82,17.19-38.08.03-.03.06-.06.09-.09,10.03-10.46,22.98-16.95,37.46-18.77,29.22-3.69,52.11-27.56,54.51-56.76v.03c1.19-14.3,7.3-27.82,17.19-38.08,11.96-12.43,27.98-19.25,45.17-19.25s32.16,6.42,43.96,18.06c24.13,23.81,24.7,63.11,1.28,87.61-12.67,13.3-27.4,17.63-37.59,18.92-29.27,3.5-52.19,27.38-54.57,56.88v-.14c-1.19,14.3-7.29,27.82-17.18,38.08-.03.03-.06.06-.09.09-10,10.44-22.92,16.92-37.36,18.76-17.08,2.06-32.66,11.24-42.79,25.21-5.88,8.11-8.7,18.02-7.99,27.98v.1c0,.41,0,.83.02,1.24.45,15.48,6.43,30.33,16.85,41.82,10.42,11.5,24.62,18.91,39.98,20.86.03,0,.07,0,.1.01,14.91,1.86,28.61,8.99,38.58,20.06.03.03.05.06.08.09,10.07,11.12,15.8,25.44,16.13,40.32,0,.1,0,.2,0,.3.45,15.48,6.43,30.33,16.85,41.82,10.42,11.5,24.62,18.91,39.98,20.86.03,0,.07,0,.1.01,14.91,1.86,28.61,8.99,38.58,20.06.03.03.05.06.08.09,10.07,11.12,15.8,25.44,16.13,40.32,0,.1,0,.2,0,.3.45,15.48,6.44,30.33,16.85,41.82,10.42,11.5,24.62,18.91,39.97,20.86.04,0,.07,0,.1.01,3.02.38,6.28,1.04,9.44,1.91,3.75,1.04,7.56,1.54,11.33,1.54,12.67,0,24.92-5.67,33.11-15.85,1.98-2.46,3.83-4.46,5.65-6.12,9.11-8.31,14.17-20.17,13.86-32.5-.31-12.33-5.96-23.92-15.49-31.75-13.89-11.43-22.18-28.27-22.73-46.19-.55-17.98,6.66-35.33,19.79-47.59,8.96-8.38,13.87-20.22,13.47-32.48-.41-12.26-6.09-23.75-15.59-31.51-6.59-5.38-12.1-12.27-15.96-19.91-.38-.75-.77-1.48-1.19-2.2-13.89-23.94-10.16-54.67,9.08-74.72.03-.03.06-.06.09-.1,7.62-8,16.9-13.61,27.58-16.68.57-.16,1.13-.34,1.7-.53,3.78-1.26,8.1-2.18,12.84-2.74,3.87-.46,7.65-1.44,11.25-2.92,21.69-8.95,36.41-29.05,38.41-52.46,1.2-14.38,7.31-27.91,17.2-38.16.03-.03.06-.06.09-.09,10.03-10.46,22.98-16.95,37.46-18.77,29.22-3.69,52.11-27.55,54.51-56.76v.03c1.19-14.3,7.3-27.82,17.19-38.08,11.96-12.43,27.98-19.25,45.17-19.25,15.9,0,30.94,5.92,42.56,16.72.46.5.93.98,1.41,1.46,24.12,23.8,24.69,63.1,1.28,87.6-12.68,13.31-27.43,17.63-37.61,18.92-29.22,3.51-52.12,27.33-54.53,56.77-1.22,14.42-7.19,27.61-17.27,38.13-10,10.44-22.92,16.92-37.35,18.76-13.77,1.67-26.8,8.03-36.72,17.95-7.97,7.97-12.45,18.79-12.45,30.07v3.55c0,11.77-3.23,23.25-9.33,33.2-.33.53-.64,1.07-.94,1.62-3.39,6.12-7.6,11.55-12.51,16.13-8.95,8.36-13.86,20.17-13.47,32.41.38,12.24,6.03,23.72,15.48,31.5,13.89,11.43,22.18,28.27,22.73,46.19.55,17.98-6.66,35.33-19.79,47.59-8.95,8.36-13.85,20.17-13.47,32.41.38,12.24,6.03,23.71,15.48,31.49,13.89,11.43,22.18,28.27,22.73,46.19.55,17.98-6.66,35.33-19.79,47.59-8.95,8.36-13.85,20.17-13.47,32.41.38,12.24,6.03,23.71,15.48,31.49,13.89,11.43,22.18,28.27,22.73,46.19.81,25.93-14.73,49.89-38.65,59.62-.45.18-.89.37-1.34.57-8.06,3.61-16.69,5.43-25.64,5.43h0Z"/>
    </g>
  </g>
</svg>