<?xml version="1.0" encoding="UTF-8"?>
<svg id="Layer_2" data-name="Layer 2" xmlns="http://www.w3.org/2000/svg" viewBox="0 0 858.97 973.18">
  <defs>
    <style>
      .cls-1 {
        fill: none;
        stroke: #000;
        stroke-miterlimit: 10;
        stroke-width: 9.5px;
      }
    </style>
  </defs>
  <g id="Layer_2-2" data-name="Layer 2">
    <g id="A-11">
      <path class="cls-1" d="M815.46,227.57c-19.48-15.82-42.95-23.57-66.2-23.57-9.47,0-17.54-6.67-19.48-15.82-4.74-22.82-17.01-44.24-36.49-60.06-19.48-15.82-42.95-23.57-66.2-23.57-7,0-13.24-3.66-16.79-9.26-4.31-30.35-21.74-58.77-50.48-75.88-20.56-12.27-43.92-16.58-66.3-13.89-27.02,2.91-52.85,16.25-71.04,39.18-19.59,24.76-26.26,55.97-20.67,85.03-1.51,8.29-7.53,15.28-16.04,17.65-23.36,6.57-44.56,21.31-59.09,43.16-14.42,21.85-19.7,47.14-16.58,71.25,1.4,10.98-5.49,21.42-16.15,24.43-23.36,6.57-44.56,21.31-59.09,43.16-14.53,21.85-19.7,47.14-16.58,71.25,1.4,10.98-5.49,21.42-16.15,24.43-23.36,6.57-44.56,21.31-59.09,43.16-14.53,21.85-19.7,47.14-16.58,71.25,1.4,10.98-5.49,21.42-16.15,24.43-23.36,6.57-44.56,21.31-59.09,43.16-29.38,44.45-20.56,103.11,18.62,137.24-38.96,7.97-65.12,22.82-65.12,39.83,0,10.98,10.98,21.1,29.38,29.06,7.43,3.23,7.43,7.86,0,10.98-18.41,7.97-29.38,18.08-29.38,29.06s10.98,21.1,29.38,29.06c7.43,3.23,7.43,7.86,0,10.98-18.41,7.97-29.38,18.08-29.38,29.06,0,25.62,59.85,46.39,133.15,46.07,71.25-.32,129.16-20.88,129.49-45.96.11-11.09-10.98-21.31-29.49-29.28-7.43-3.23-7.32-7.75,0-10.98,18.41-7.97,29.38-18.08,29.38-29.06s-10.98-21.1-29.38-29.06c-7.43-3.23-7.43-7.75,0-10.98,18.51-7.97,29.6-18.19,29.49-29.28-.11-16.15-24.33-30.35-60.49-38.64,6.24-5.27,12.06-11.41,17.01-18.3,16.58-22.71,22.6-49.73,19.37-75.34-1.4-10.98,5.49-21.42,16.15-24.43,23.36-6.57,44.56-21.31,59.09-43.16,14.42-21.85,19.7-47.14,16.58-71.25-1.4-10.98,5.49-21.42,16.15-24.43,23.36-6.57,44.56-21.31,59.09-43.16,14.53-21.85,19.7-47.14,16.58-71.25-1.4-10.98,5.49-21.42,16.15-24.43,23.36-6.57,44.56-21.31,59.09-43.16,14.42-21.85,19.7-47.14,16.58-71.25-.54-4.31.22-8.5,1.94-12.27,1.61,2.26,2.91,4.84,3.44,7.75,4.74,22.82,17.01,44.24,36.49,60.06,19.48,15.82,42.95,23.57,66.2,23.57,9.36,0,17.54,6.57,19.48,15.82,4.74,22.93,17.11,44.45,36.81,60.38,44.35,35.84,109.9,29.6,146.6-14.1,37.67-44.99,31.21-111.94-14.1-148.97h0l-.11.32Z"/>
      <path class="cls-1" d="M136.21,925.91c-23.74,0-46.26-2.45-65.15-7.09-.24-.06-.49-.12-.73-.18,8.43-9.54,11.83-20.94,11.89-30.52.07-11.01-4.25-24.47-15.57-34.84,11.13-10.17,15.5-23.39,15.57-34.26.06-9.76-3.32-21.44-11.98-31.2,2.52-.63,5.24-1.25,8.14-1.84,15.85-3.24,28.48-15.19,32.6-30.83s-1-32.27-13.19-42.89c-23.54-20.5-28.31-55.61-11.1-81.68,8.38-12.57,20.86-21.7,35.16-25.72,15.02-4.25,27.98-13.73,36.57-26.73,8.57-12.98,12.21-28.61,10.25-44.01-1.93-14.92,1.55-29.93,9.8-42.33,8.38-12.6,20.88-21.75,35.19-25.77,15.02-4.25,27.98-13.73,36.57-26.73,8.57-12.98,12.21-28.61,10.25-44.01-1.93-14.92,1.55-29.93,9.8-42.33,8.38-12.6,20.88-21.75,35.19-25.77,15.02-4.25,27.98-13.73,36.57-26.73,8.57-12.98,12.21-28.61,10.25-44.01-1.92-14.83,1.58-29.86,9.86-42.42,8.38-12.55,20.85-21.68,35.14-25.69,23.75-6.66,41.94-26.66,46.37-50.98.94-5.18.91-10.48-.08-15.65-3.46-17.95,1.01-36.39,12.26-50.61,10.47-13.2,25.49-21.49,42.24-23.29.18-.02.35-.04.53-.06,2.57-.31,5.18-.47,7.75-.47,11.25,0,22.21,2.99,31.68,8.65,16.49,9.82,27.48,26.34,30.17,45.34.85,5.98,2.96,11.71,6.2,16.81,11.52,18.15,31.22,28.99,52.69,28.99,14.44,0,28.07,4.86,39.39,14.06,11.21,9.11,18.71,21.45,21.66,35.7l.04.17c6.08,28.7,31.77,49.53,61.08,49.53,14.44,0,28.07,4.86,39.39,14.06,1.01.82,2.04,1.58,3.11,2.3,11.26,10.47,18.19,24.5,19.65,39.94,1.59,16.79-3.51,33.16-14.35,46.1-11.8,14.05-29.32,22.14-48,22.14-14.51,0-28.09-4.78-39.27-13.81-11.37-9.19-18.94-21.62-21.9-35.92,0-.04-.02-.07-.02-.11-6.02-28.76-31.72-49.63-61.1-49.63-14.44,0-28.07-4.86-39.39-14.06-11.15-9.05-18.61-21.3-21.61-35.43-1.68-8.55-5.22-16.66-10.54-24.09-8.03-11.23-20.95-17.8-34.59-17.8-1.35,0-2.71.06-4.07.2-15.11,1.45-28.29,10.84-34.6,24.65-5.07,11.08-6.95,23.26-5.46,35.22,0,.06.02.12.02.19,1.91,14.74-1.59,29.76-9.85,42.31-8.38,12.56-20.86,21.69-35.15,25.71-15.02,4.25-27.98,13.73-36.57,26.73-8.57,12.98-12.21,28.61-10.25,44.01,1.93,14.92-1.55,29.93-9.8,42.33-8.38,12.6-20.88,21.75-35.19,25.77-15.02,4.25-27.98,13.73-36.57,26.73-8.57,12.98-12.21,28.61-10.25,44.01,1.92,14.82-1.58,29.84-9.84,42.39-8.38,12.57-20.86,21.7-35.16,25.72-15.02,4.25-27.98,13.73-36.57,26.73-8.57,12.98-12.21,28.61-10.25,44.01,2.01,15.98-2.08,31.94-11.54,44.9-.06.08-.12.17-.18.25-2.74,3.81-6.07,7.38-9.92,10.63-12.31,10.4-17.68,26.85-13.88,42.51s16.12,27.82,31.82,31.42c1.5.34,2.94.69,4.32,1.04-7.66,8.51-11.91,19.21-11.91,30.92,0,13.45,5.61,25.58,15.56,34.57-9.96,9.04-15.56,21.2-15.52,34.67.03,11.65,4.27,22.31,11.89,30.78-.04,0-.07.02-.11.03-18.52,4.64-40.63,7.15-63.92,7.26h-1.49Z"/>
    </g>
  </g>
</svg>