<?xml version="1.0" encoding="UTF-8"?>
<svg id="Layer_2" data-name="Layer 2" xmlns="http://www.w3.org/2000/svg" viewBox="0 0 803.74 1056.24">
  <defs>
    <style>
      .cls-1 {
        fill: none;
        stroke: #000;
        stroke-miterlimit: 10;
        stroke-width: 9.5px;
      }
    </style>
  </defs>
  <g id="Layer_2-2" data-name="Layer 2">
    <g id="A-12">
      <path class="cls-1" d="M764.36,273.52c-31.98-30.48-77.47-38.22-116.15-23.55-7.39-28.63-26.09-54.38-54.04-69.74-29.21-16.16-62.58-17.67-91.68-7.16-6.58-30.25-25.75-57.5-54.96-73.66-29.21-16.16-62.58-17.67-91.68-7.16-6.58-30.25-25.75-57.5-54.96-73.66-50.92-28.06-114.19-12.01-146.06,35.33-4.5,6.35-8.43,13.28-11.55,20.67-10.51,24.71-11.43,51.03-4.39,74.93,2.77,9.58-1.5,19.86-10.39,24.48-21.82,11.66-39.95,30.6-50.23,55.19-10.39,24.59-11.2,50.8-4.27,74.47,2.77,9.58-1.5,19.86-10.28,24.48-21.94,11.66-40.18,30.71-50.46,55.54-23.32,55.88,2.77,120.77,58.31,145.02,57.15,24.94,123.43-1.62,147.56-58.89,10.39-24.59,11.2-50.8,4.27-74.47-2.77-9.58,1.5-19.86,10.28-24.59,21.82-11.66,39.95-30.6,50.34-55.19,10.39-24.59,11.2-50.8,4.27-74.47-1.04-3.46-1.04-7.04-.35-10.51,8.31,26.09,26.33,49.3,52.19,63.5,29.21,16.16,62.58,17.67,91.68,7.16,6.58,30.25,25.75,57.5,54.96,73.66,6.93,3.81,14.09,6.81,21.48,9.01-5.89,4.16-11.43,8.89-16.63,14.32-22.98,24.13-33.02,56-30.25,86.83-30.94-1.27-62.23,10.16-85.21,34.29-22.98,24.13-33.02,56-30.25,86.83-30.94-1.27-62.23,10.16-85.21,34.29-42.37,44.45-40.76,114.88,3.69,157.26,17.55,16.74,39.03,26.56,61.31,29.67,4.73,30.71,22.17,59,49.42,76.67h-56.92c-37.87,0-68.58,30.71-68.58,68.58v10.28c0,37.87,30.71,68.58,68.58,68.58h188.2c4.39,0,8.66-.46,12.82-1.27,42.72.35,83.71-23.9,102.53-65.35,25.52-56,.81-122.16-55.31-147.67-6.81-3.12-13.62-5.43-20.67-7.04,8.66-48.96-16.28-99.41-63.62-120.89-2.54-1.15-5.2-2.31-7.85-3.23,23.21-3.69,45.38-14.78,62.93-33.02,22.98-24.13,33.02-56,30.25-86.83,30.94,1.27,62.23-10.16,85.21-34.29,21.94-22.98,32.1-52.88,30.6-82.32,40.53,1.39,80.36-19.51,101.26-57.5,7.39-13.51,11.78-27.83,13.28-42.14,4.96-34.41-6.23-70.66-33.37-96.53h0l-.11.11Z"/>
      <path class="cls-1" d="M318.22,1008.98c-14.37,0-26.06-11.69-26.06-26.06v-10.28c0-14.37,11.69-26.06,26.06-26.06h56.92c18.84,0,35.43-12.39,40.77-30.46s-1.84-37.49-17.64-47.74c-16.39-10.62-27.51-27.93-30.52-47.47-2.86-18.55-17.54-33.03-36.13-35.63-14.29-2-27.38-8.34-37.85-18.33-13.28-12.66-20.82-29.73-21.25-48.08-.43-18.36,6.31-35.79,18.98-49.08,13.03-13.68,30.7-21.21,49.79-21.21.96,0,1.94.02,2.9.06.58.02,1.17.04,1.75.04,11.61,0,22.74-4.75,30.79-13.19,8.44-8.87,12.66-20.94,11.56-33.13-1.78-19.78,5.04-39.35,18.7-53.7,13.01-13.66,30.69-21.19,49.77-21.19.96,0,1.94.02,2.9.06.58.02,1.17.04,1.75.04,11.61,0,22.74-4.75,30.79-13.19,8.44-8.87,12.66-20.94,11.56-33.13-1.78-19.76,5.02-39.31,18.65-53.65,3.21-3.35,6.61-6.28,10.4-8.95,13.31-9.39,20.08-25.56,17.44-41.64s-14.24-29.22-29.86-33.86c-4.42-1.31-8.81-3.15-13.03-5.47-17.39-9.64-29.77-26.21-33.96-45.48-2.61-11.97-10.25-22.24-20.98-28.17-6.37-3.52-13.45-5.31-20.57-5.31-4.87,0-9.76.84-14.44,2.53-7.64,2.76-15.61,4.16-23.68,4.16-11.64,0-22.74-2.87-32.96-8.53-.04-.02-.08-.04-.12-.07-15.38-8.44-26.79-22.34-32.14-39.14-5.64-17.71-22.09-29.61-40.5-29.61-.79,0-1.58.02-2.38.07-19.36,1.08-35.53,15.11-39.33,34.12-2.11,10.56-1.69,20.95,1.26,30.88,4.47,15.33,3.55,31.2-2.66,45.89-6.27,14.84-17.06,26.68-31.21,34.24l-.15.08c-26.21,14.14-39.22,45.18-30.94,73.82.01.04.03.09.04.14,4.5,15.36,3.59,31.26-2.63,45.98-10.83,25.71-35.82,42.29-63.69,42.29-9.52,0-18.84-1.96-27.7-5.83-34.28-14.97-50.46-55.19-36.07-89.67.02-.04.03-.08.05-.11,6.14-14.82,16.87-26.65,31.05-34.21,26.45-13.97,39.59-45.02,31.24-73.88-.01-.04-.03-.09-.04-.13-4.5-15.36-3.59-31.26,2.63-45.98.02-.05.04-.1.07-.16,6.14-14.69,16.82-26.45,30.89-34.01,26.52-13.96,39.7-44.96,31.34-73.86-.02-.07-.04-.14-.06-.21-4.54-15.4-3.59-31.4,2.73-46.28.02-.04.03-.08.05-.11,1.83-4.34,4.21-8.58,7.05-12.6.2-.28.39-.56.59-.85,12.81-19.03,34.2-30.39,57.21-30.39,11.64,0,22.76,2.88,33.05,8.55,17.35,9.6,29.74,26.18,33.93,45.46,2.61,11.98,10.25,22.24,20.98,28.17,6.37,3.52,13.46,5.31,20.57,5.31,4.87,0,9.76-.84,14.44-2.53,7.64-2.76,15.61-4.16,23.68-4.16,11.64,0,22.73,2.87,32.96,8.53,17.41,9.64,29.8,26.22,34,45.5,2.61,11.98,10.25,22.24,20.98,28.17,6.37,3.52,13.45,5.31,20.57,5.31,4.87,0,9.76-.84,14.44-2.53,7.64-2.76,15.61-4.16,23.68-4.16,11.64,0,22.73,2.87,32.96,8.53.04.02.07.04.11.06,16.7,9.18,28.54,24.48,33.34,43.1,3.02,11.7,10.88,21.57,21.61,27.13,6.11,3.17,12.82,4.76,19.56,4.76,5.1,0,10.2-.92,15.07-2.76,7.75-2.94,15.92-4.43,24.29-4.43,17.75,0,34.61,6.75,47.46,19,.71.68,1.44,1.32,2.18,1.94,14.68,15.24,21.59,36.55,18.55,57.62-.08.54-.15,1.09-.2,1.64-.95,9.02-3.72,17.8-8.26,26.11-12.06,21.91-35.13,35.51-60.2,35.51-.78,0-1.56-.01-2.34-.04-.48-.02-.97-.02-1.45-.02-11.38,0-22.31,4.56-30.32,12.71-8.35,8.49-12.75,20.09-12.15,31.98.97,18.99-5.74,37.03-18.89,50.8-13.05,13.71-30.73,21.23-49.81,21.23-.96,0-1.94-.02-2.9-.06-.58-.02-1.17-.04-1.75-.04-11.61,0-22.74,4.75-30.79,13.19-8.44,8.86-12.66,20.94-11.56,33.13,1.77,19.75-5.01,39.29-18.63,53.63-10.62,11-24.06,18.06-38.89,20.42-19.25,3.06-33.95,18.82-35.67,38.24-1.72,19.41,9.98,37.51,28.39,43.91,1.3.45,3.42,1.42,4.22,1.78,28.67,13.01,44.84,43.75,39.35,74.77-3.94,22.3,10.29,43.78,32.36,48.85,4.27.98,8.36,2.38,12.48,4.26.03.01.06.03.09.04,16.78,7.63,29.58,21.34,36.04,38.6,6.46,17.25,5.81,35.98-1.83,52.74-11.17,24.6-35.86,40.47-62.93,40.47,0,0-.79,0-.9,0-2.72,0-5.44.26-8.11.78-1.69.33-3.23.49-4.71.49h-188.2Z"/>
    </g>
  </g>
</svg>