<?xml version="1.0" encoding="UTF-8"?>
<svg id="Layer_2" data-name="Layer 2" xmlns="http://www.w3.org/2000/svg" viewBox="0 0 1031.07 1031.3">
  <defs>
    <style>
      .cls-1 {
        fill: none;
        stroke: #000;
        stroke-miterlimit: 10;
        stroke-width: 9.5px;
      }
    </style>
  </defs>
  <g id="Layer_2-2" data-name="Layer 2">
    <g id="A-13">
      <g>
        <circle class="cls-1" cx="569.38" cy="578.3" r="111.54"/>
        <path class="cls-1" d="M569.38,647.32c-38.06,0-69.02-30.96-69.02-69.02s30.96-69.02,69.02-69.02,69.02,30.96,69.02,69.02-30.96,69.02-69.02,69.02Z"/>
        <path class="cls-1" d="M994.86,398.76c-23.21-23.9-54.61-35.22-85.56-33.6,2.54-30.83-7.85-62.58-31.06-86.48-23.21-23.9-54.61-35.22-85.56-33.6,2.54-30.83-7.85-62.58-31.06-86.48-23.21-23.9-54.61-35.22-85.56-33.6,2.54-30.83-7.85-62.58-31.06-86.48-42.84-44.11-113.27-45.15-157.26-2.31-17.09,16.63-27.83,37.41-31.87,59.23-25.06,2.66-49.3,13.74-68.12,33.14-23.21,23.9-33.6,55.65-31.06,86.48-30.94-1.62-62.35,9.7-85.56,33.6-23.21,23.9-33.6,55.65-31.06,86.48-30.94-1.62-62.35,9.7-85.56,33.6-23.21,23.9-33.6,55.65-31.06,86.48-30.94-1.62-62.35,9.7-85.56,33.6,0,0-.23.23-.23.35-.69.69-1.39,1.39-2.08,2.19-42.49,44.45-40.87,114.88,3.46,157.26,24.13,23.09,55.88,33.14,86.71,30.37-1.39,30.94,10.16,62.23,34.29,85.33,24.13,23.09,55.88,33.14,86.71,30.37-1.39,30.94,10.16,62.23,34.29,85.33,24.13,23.09,55.88,33.14,86.71,30.37-1.39,30.94,10.16,62.23,34.29,85.33,44.45,42.49,114.88,40.87,157.26-3.46,42.49-44.45,40.87-114.88-3.46-157.26-24.13-23.09-55.88-33.14-86.71-30.37,1.39-30.94-10.16-62.23-34.29-85.33-24.13-23.09-55.88-33.14-86.71-30.37,1.39-30.94-10.16-62.23-34.29-85.33-23.67-22.63-54.73-32.79-84.98-30.6.35-5.2.23-10.51-.12-15.7,30.94,1.62,62.35-9.7,85.56-33.6,23.21-23.9,33.6-55.65,31.06-86.48,30.94,1.62,62.35-9.7,85.56-33.6,23.21-23.9,33.6-55.65,31.06-86.48,30.94,1.62,62.35-9.7,85.56-33.6,10.51-10.85,18.47-23.32,23.67-36.6,2.31,24.25,12.59,47.92,30.83,66.74,23.21,23.9,54.61,35.22,85.56,33.6-2.54,30.83,7.85,62.58,31.06,86.48,23.21,23.9,54.61,35.22,85.56,33.6-2.54,30.83,7.85,62.58,31.06,86.48,42.84,44.11,113.27,45.15,157.26,2.31,44.11-42.84,45.15-113.27,2.31-157.26h0v-.12Z"/>
        <path class="cls-1" d="M478.99,984.03c-17.78,0-34.66-6.77-47.53-19.07-14.35-13.73-22.08-32.94-21.19-52.69.55-12.26-4.23-24.16-13.09-32.63-7.95-7.6-18.48-11.79-29.38-11.79-1.27,0-2.54.06-3.81.17-2.05.18-4.14.28-6.2.28-17.69,0-34.49-6.75-47.3-19.02-14.37-13.75-22.1-32.96-21.21-52.7.55-12.26-4.22-24.16-13.09-32.64-7.95-7.6-18.49-11.79-29.38-11.79-1.27,0-2.54.06-3.81.17-2.05.18-4.14.28-6.2.28-17.69,0-34.49-6.75-47.3-19.02-14.37-13.75-22.1-32.96-21.21-52.7.55-12.26-4.22-24.16-13.09-32.64-7.95-7.6-18.49-11.79-29.38-11.79-1.27,0-2.54.06-3.81.17-2.05.19-4.14.28-6.2.28-17.69,0-34.49-6.75-47.31-19.02-13.25-12.67-20.77-29.74-21.18-48.08-.41-18.37,6.36-35.8,19.06-49.08.38-.4.76-.81,1.12-1.22l.29-.29c.65-.65,1.28-1.32,1.88-2.01,12.92-12.67,29.9-19.63,48.03-19.63,1.19,0,2.4.03,3.59.09.74.04,1.48.06,2.22.06,11.47,0,22.48-4.64,30.51-12.91,8.54-8.81,12.87-20.87,11.86-33.1-1.62-19.69,5.37-39.14,19.19-53.37,13.06-13.45,30.54-20.85,49.24-20.85,1.19,0,2.4.03,3.59.09.74.04,1.48.06,2.22.06,11.47,0,22.48-4.64,30.51-12.91,8.55-8.81,12.87-20.87,11.86-33.1-1.62-19.69,5.37-39.14,19.19-53.37,13.06-13.45,30.54-20.85,49.24-20.85,1.19,0,2.4.03,3.59.09.74.04,1.48.06,2.22.06,11.47,0,22.48-4.64,30.51-12.91,8.54-8.81,12.87-20.87,11.86-33.1-1.62-19.69,5.37-39.14,19.19-53.37,11.33-11.68,25.89-18.76,42.1-20.47,18.71-1.98,33.9-16.03,37.33-34.54,2.56-13.82,9.38-26.44,19.71-36.5,12.86-12.53,29.82-19.42,47.77-19.42s36.26,7.41,49.34,20.87c13.81,14.23,20.81,33.68,19.18,53.37-1.01,12.23,3.32,24.3,11.86,33.1,8.03,8.27,19.05,12.91,30.51,12.91.74,0,1.48-.02,2.22-.06,1.19-.06,2.4-.09,3.59-.09,18.7,0,36.18,7.41,49.24,20.85,13.82,14.23,20.81,33.68,19.19,53.37-1.01,12.23,3.32,24.3,11.86,33.1,8.03,8.27,19.05,12.91,30.51,12.91.74,0,1.48-.02,2.22-.06,1.19-.06,2.4-.09,3.59-.09,18.7,0,36.18,7.41,49.24,20.85,13.82,14.23,20.81,33.68,19.19,53.37-1.01,12.23,3.32,24.3,11.86,33.1,8.03,8.27,19.05,12.91,30.51,12.91.74,0,1.48-.02,2.22-.06,1.19-.06,2.4-.09,3.59-.09,18.03,0,34.93,6.88,47.82,19.43.47.54.96,1.07,1.46,1.58,12.76,13.11,19.65,30.41,19.4,48.72-.26,18.37-7.67,35.55-20.87,48.37-12.89,12.55-29.85,19.44-47.79,19.44h0c-18.75,0-36.27-7.41-49.34-20.87-13.81-14.23-20.81-33.68-19.19-53.36,1.01-12.23-3.32-24.3-11.86-33.1-8.03-8.27-19.05-12.91-30.51-12.91-.74,0-1.48.02-2.22.06-1.19.06-2.4.09-3.59.09-18.7,0-36.19-7.41-49.24-20.85-13.82-14.23-20.81-33.68-19.19-53.37,1.01-12.23-3.32-24.3-11.86-33.1-8.03-8.27-19.05-12.91-30.51-12.91-.74,0-1.48.02-2.22.06-1.19.06-2.4.09-3.59.09-18.7,0-36.19-7.41-49.24-20.85-10.94-11.28-17.52-25.52-19-41.15-1.87-19.6-16.94-35.35-36.43-38.08-1.98-.28-3.96-.41-5.92-.41-17.29,0-33.13,10.56-39.57,27.03-3.23,8.26-8.15,15.84-14.62,22.52-13.01,13.4-30.5,20.8-49.2,20.8-1.19,0-2.4-.03-3.59-.09-.74-.04-1.48-.06-2.22-.06-11.47,0-22.48,4.64-30.51,12.91-8.55,8.81-12.87,20.87-11.86,33.1,1.62,19.69-5.37,39.14-19.19,53.37-13.06,13.45-30.54,20.85-49.24,20.85-1.19,0-2.4-.03-3.59-.09-.74-.04-1.48-.06-2.22-.06-11.47,0-22.48,4.64-30.51,12.91-8.54,8.81-12.87,20.87-11.86,33.1,1.62,19.69-5.37,39.14-19.19,53.37-13.06,13.45-30.54,20.85-49.24,20.85-1.19,0-2.4-.03-3.59-.09-.74-.04-1.48-.06-2.22-.06-11.35,0-22.27,4.54-30.28,12.67-8.53,8.66-12.95,20.55-12.14,32.68.26,3.9.3,7.28.12,10.04-.82,12.28,3.72,24.31,12.45,32.98,7.99,7.95,18.79,12.37,29.98,12.37,1.02,0,2.05-.04,3.08-.11,1.65-.12,3.33-.18,4.99-.18,17.77,0,34.64,6.78,47.53,19.1,14.35,13.73,22.08,32.94,21.2,52.69-.55,12.26,4.22,24.16,13.09,32.64,7.95,7.6,18.49,11.79,29.38,11.79,1.27,0,2.54-.06,3.81-.17,2.05-.18,4.14-.28,6.2-.28,17.69,0,34.49,6.75,47.3,19.02,14.37,13.75,22.1,32.96,21.21,52.7-.55,12.26,4.22,24.16,13.09,32.64,7.95,7.6,18.49,11.79,29.38,11.79,1.27,0,2.54-.06,3.81-.17,2.05-.18,4.14-.28,6.2-.28,17.69,0,34.49,6.75,47.31,19.02,13.25,12.67,20.77,29.74,21.18,48.08.41,18.37-6.36,35.8-19.06,49.08-13.05,13.66-30.67,21.18-49.61,21.18Z"/>
      </g>
    </g>
  </g>
</svg>