<?xml version="1.0" encoding="UTF-8"?>
<svg id="Layer_2" data-name="Layer 2" xmlns="http://www.w3.org/2000/svg" viewBox="0 0 557.25 970.25">
  <defs>
    <style>
      .cls-1 {
        fill: none;
        stroke: #000;
        stroke-miterlimit: 10;
        stroke-width: 9.5px;
      }
    </style>
  </defs>
  <g id="Layer_2-2" data-name="Layer 2">
    <g id="A-14">
      <g>
        <path class="cls-1" d="M115.59,464.98c26.67,0,51.03-20.21,69.97-53.69,4.96-8.77,19.05-8.77,24.02,0,18.94,33.48,43.3,53.69,69.97,53.69s51.03-20.21,69.97-53.69c4.96-8.77,19.05-8.77,24.02,0,18.94,33.48,43.3,53.69,69.97,53.69,60.16,0,109-102.99,109-230.11S503.66,4.75,443.5,4.75c-26.67,0-51.03,20.21-69.97,53.69-4.96,8.77-19.05,8.77-24.02,0-18.94-33.48-43.3-53.69-69.97-53.69s-51.03,20.21-69.97,53.69c-4.96,8.77-19.05,8.77-24.02,0C166.63,24.96,142.26,4.75,115.59,4.75,55.44,4.75,6.6,107.74,6.6,234.86s48.84,230.11,109,230.11h0Z"/>
        <path class="cls-1" d="M443.5,422.46c-6.83,0-19.56-8.41-32.96-32.1-9.83-17.38-28.61-28.17-49.02-28.17s-39.19,10.79-49.02,28.16c-8.38,14.82-22.04,32.11-32.96,32.11-6.83,0-19.56-8.41-32.96-32.1-9.83-17.38-28.61-28.17-49.02-28.17s-39.19,10.79-49.01,28.16c-8.38,14.82-22.04,32.11-32.96,32.11-8.78,0-24.61-13.48-38.63-43.07-17.7-37.35-27.84-90.02-27.84-144.52s10.15-107.18,27.84-144.52c14.02-29.59,29.86-43.07,38.63-43.07,6.83,0,19.56,8.41,32.96,32.1,9.83,17.38,28.61,28.17,49.02,28.17s39.19-10.79,49.02-28.16c8.38-14.82,22.04-32.11,32.96-32.11,6.83,0,19.56,8.41,32.96,32.1,9.83,17.38,28.62,28.17,49.02,28.17s39.19-10.79,49.01-28.16c8.38-14.82,22.04-32.11,32.96-32.11,8.78,0,24.61,13.48,38.63,43.07,17.7,37.35,27.84,90.02,27.84,144.52s-10.15,107.18-27.84,144.52c-14.02,29.59-29.86,43.07-38.63,43.07Z"/>
        <path class="cls-1" d="M441.65,505.27c-26.67,0-51.03,20.21-69.97,53.69-4.96,8.78-19.05,8.78-24.02,0-18.94-33.48-43.3-53.69-69.97-53.69s-51.03,20.21-69.97,53.69c-4.96,8.78-19.05,8.78-24.02,0-18.94-33.48-43.3-53.69-69.97-53.69-60.16,0-109,102.99-109,230.11s48.84,230.11,109,230.11c26.67,0,51.03-20.21,69.97-53.69,4.96-8.78,19.05-8.78,24.02,0,18.94,33.48,43.3,53.69,69.97,53.69s51.03-20.21,69.97-53.69c4.96-8.78,19.05-8.78,24.02,0,18.94,33.48,43.3,53.69,69.97,53.69,60.16,0,109-102.99,109-230.11s-48.84-230.11-109-230.11h0Z"/>
        <path class="cls-1" d="M441.65,922.98c-6.83,0-19.56-8.41-32.96-32.1-9.83-17.38-28.62-28.17-49.02-28.17s-39.19,10.79-49.01,28.16c-8.38,14.82-22.03,32.11-32.96,32.11-6.83,0-19.56-8.41-32.96-32.1-9.83-17.38-28.61-28.17-49.02-28.17s-39.19,10.79-49.02,28.16c-8.38,14.81-22.03,32.11-32.96,32.11-8.78,0-24.61-13.48-38.63-43.07-17.7-37.35-27.84-90.02-27.84-144.52s10.15-107.18,27.84-144.52c14.02-29.59,29.85-43.07,38.63-43.07,6.83,0,19.56,8.41,32.96,32.1,9.83,17.38,28.61,28.17,49.02,28.17s39.19-10.79,49.02-28.16c8.38-14.81,22.03-32.11,32.96-32.11,6.83,0,19.56,8.41,32.96,32.1,9.83,17.38,28.61,28.17,49.02,28.17s39.19-10.79,49.02-28.16c8.38-14.81,22.03-32.11,32.96-32.11,8.78,0,24.61,13.48,38.63,43.07,17.7,37.35,27.84,90.02,27.84,144.52s-10.15,107.18-27.84,144.52c-14.02,29.59-29.85,43.07-38.63,43.07Z"/>
      </g>
    </g>
  </g>
</svg>