<?xml version="1.0" encoding="UTF-8"?>
<svg id="Layer_2" data-name="Layer 2" xmlns="http://www.w3.org/2000/svg" viewBox="0 0 935.9 899.37">
  <defs>
    <style>
      .cls-1 {
        fill: none;
        stroke: #000;
        stroke-miterlimit: 10;
        stroke-width: 9.5px;
      }
    </style>
  </defs>
  <g id="Layer_2-2" data-name="Layer 2">
    <g id="A-15">
      <g>
        <path class="cls-1" d="M783.24,366.85c1.96-11.55,12.12-20.09,23.9-19.86,27.36.58,55.19-8.89,77.36-28.98,42.37-38.45,48.72-103.68,14.32-149.52-38.45-51.38-111.54-59.58-160.49-19.17-21.48,17.78-34.52,41.8-38.91,67.2-1.96,11.66-12.24,20.09-24.02,19.86-25.75-.58-51.84,7.85-73.32,25.52-21.48,17.78-34.52,41.8-38.91,67.2-1.96,11.66-12.24,20.09-24.02,19.86-25.75-.58-51.84,7.85-73.32,25.52-21.48,17.67-34.52,41.8-38.91,67.2-1.96,11.66-12.24,20.09-24.02,19.86-25.75-.58-51.84,7.85-73.32,25.52-21.48,17.67-34.52,41.8-38.91,67.2-1.96,11.55-12.12,20.09-23.9,19.86-15.01-.35-30.14,2.42-44.45,8.2-6.23-19.51-17.67-36.83-32.79-49.99,23.32-20.44,37.99-50.34,37.99-83.71s-14.66-63.27-37.99-83.71c15.36-13.51,27.02-31.17,33.14-51.26,4.73-5.89,12.47-8.89,20.21-7.39,24.36,4.5,50.34.92,73.66-11.89,23.44-12.82,40.41-32.79,49.65-55.65,3.81-9.24,13.51-14.55,23.32-12.82,24.36,4.5,50.34.92,73.66-11.89,54.5-29.79,74.24-98.49,43.53-152.76-29.79-52.65-97.1-71.93-150.21-43.07-23.55,12.82-40.64,32.91-50.11,55.88-3.81,9.24-13.51,14.55-23.32,12.7-24.36-4.5-50.34-.92-73.66,11.89-23.44,12.82-40.41,32.79-49.65,55.65-3.81,9.24-13.51,14.66-23.32,12.82-24.48-4.5-50.57-.92-74.13,12.01C23.16,200.7,2.03,242.84,5.03,284.99c1.15,31.75,15.59,60.16,37.87,79.78-23.32,20.44-37.99,50.34-37.99,83.71s14.66,63.27,37.99,83.71c-23.32,20.44-37.99,50.34-37.99,83.71s14.66,63.27,37.99,83.71c-23.32,20.44-37.99,50.34-37.99,83.71,0,61.43,49.76,111.3,111.3,111.3s107.15-45.84,110.96-103.8c35.68,12.59,77.01,6.7,108.3-19.17,21.48-17.78,34.52-41.8,38.91-67.2,1.96-11.66,12.24-20.09,24.02-19.86,25.75.58,51.84-7.85,73.32-25.52,21.48-17.67,34.52-41.8,38.91-67.2,1.96-11.66,12.24-20.09,24.02-19.86,25.75.58,51.84-7.85,73.32-25.52,21.48-17.78,34.52-41.8,38.91-67.2,1.96-11.66,12.24-20.09,24.02-19.86,25.75.58,51.84-7.85,73.32-25.52,21.48-17.78,34.52-41.8,38.91-67.2h0l.12.12Z"/>
        <path class="cls-1" d="M116.22,852.1c-37.93,0-68.79-30.86-68.79-68.79,0-19.79,8.56-38.65,23.49-51.73,9.21-8.07,14.5-19.73,14.5-31.98s-5.28-23.91-14.5-31.98c-14.93-13.08-23.49-31.93-23.49-51.73s8.56-38.65,23.49-51.73c9.21-8.07,14.5-19.73,14.5-31.98s-5.28-23.91-14.5-31.98c-14.93-13.08-23.49-31.93-23.49-51.73s8.56-38.65,23.49-51.73c9.2-8.06,14.48-19.69,14.5-31.92.02-12.23-5.24-23.88-14.42-31.96-14.45-12.73-22.79-30.28-23.48-49.42-.02-.49-.04-.98-.08-1.48-1.92-26.95,11.97-52.71,35.39-65.63,10.34-5.68,21.56-8.57,33.28-8.57,4.19,0,8.42.39,12.56,1.14,3.81.71,7.71,1.07,11.58,1.07,25.82,0,48.89-15.5,58.79-39.48.04-.1.08-.19.12-.29,5.95-14.72,16.54-26.57,30.62-34.27,10.34-5.68,21.42-8.54,33.02-8.54,4.18,0,8.39.39,12.52,1.15,3.83.71,7.74,1.07,11.63,1.07,25.81,0,48.86-15.45,58.73-39.37,6.19-15.03,16.95-27.04,31.13-34.75,10.05-5.46,20.98-8.24,32.48-8.24,25.08,0,48.23,13.37,60.41,34.89,9.18,16.22,11.43,35.01,6.32,52.9-5.1,17.9-16.91,32.68-33.24,41.6-10.34,5.68-21.42,8.54-33.02,8.54-4.18,0-8.39-.39-12.52-1.15-.11-.02-.23-.04-.34-.06-3.66-.65-7.39-.97-11.1-.97-25.91,0-49.04,15.48-58.92,39.45-.04.09-.08.19-.12.28-5.95,14.72-16.54,26.57-30.62,34.27-10.33,5.68-21.42,8.54-33.02,8.54-4.15,0-8.32-.38-12.42-1.13-3.89-.74-7.85-1.11-11.8-1.11-19.29,0-37.28,8.62-49.37,23.65-3.4,4.23-5.96,9.06-7.54,14.25-3.72,12.2-10.82,23.17-20.55,31.73-9.19,8.08-14.45,19.73-14.44,31.97.01,12.24,5.29,23.87,14.5,31.94,14.93,13.08,23.49,31.94,23.49,51.73s-8.56,38.65-23.49,51.73c-9.23,8.09-14.52,19.78-14.5,32.05.02,12.28,5.35,23.94,14.61,32,9.37,8.15,16.36,18.83,20.2,30.86,3.6,11.26,11.72,20.52,22.43,25.54,5.72,2.69,11.89,4.03,18.08,4.03,5.39,0,10.79-1.03,15.9-3.09,8.46-3.41,17.22-5.14,26.04-5.14.51,0,1.02,0,1.53.02.05,0,.1,0,.15,0,.44,0,.87.01,1.3.01,32.42,0,59.91-23.24,65.35-55.26l-.02.11c2.83-16.41,11.37-31.19,24.02-41.6,12.44-10.23,28-15.86,43.83-15.86.51,0,1.02,0,1.52.02.04,0,.08,0,.12,0,.44,0,.87.01,1.31.01,32.49,0,59.98-23.19,65.44-55.17,2.84-16.4,11.37-31.17,24.02-41.58,12.44-10.23,28-15.86,43.83-15.86.51,0,1.02,0,1.52.02.04,0,.08,0,.12,0,.44,0,.87.01,1.31.01,32.49,0,59.98-23.19,65.44-55.16,2-11.54,7.79-28.11,24.05-41.61,12.43-10.21,27.98-15.84,43.8-15.84.51,0,1.02,0,1.52.02.04,0,.08,0,.12,0,.44,0,.87.01,1.31.01,32.5,0,60-23.21,65.45-55.2,2-11.55,7.82-28.14,24.12-41.63,12.53-10.34,27.77-15.83,44.01-15.83,21.97,0,42.14,10.1,55.32,27.72,21.18,28.22,17.28,68.85-8.85,92.56-12.78,11.59-29.28,17.98-46.43,17.98-.49,0-.97,0-1.46-.02-.5,0-.93-.01-1.36-.01-30.49,0-56.61,20.55-64.15,49.63-.55,1.76-.98,3.56-1.3,5.4-1.99,11.54-7.79,28.13-24.08,41.64-12.43,10.2-27.97,15.82-43.77,15.82-.51,0-1.02,0-1.52-.02-.04,0-.08,0-.12,0-.44,0-.87-.01-1.31-.01-32.5,0-60,23.21-65.45,55.2-2,11.54-7.8,28.09-24.06,41.58-12.43,10.21-27.98,15.83-43.79,15.83-.51,0-1.02,0-1.52-.02-.04,0-.08,0-.12,0-.44,0-.87-.01-1.31-.01-32.5,0-60,23.2-65.45,55.19-2.84,16.4-11.37,31.15-24.01,41.55-12.44,10.23-28,15.86-43.83,15.86-.51,0-1.02,0-1.52-.02-.04,0-.08,0-.12,0-.44,0-.87-.01-1.3-.01-32.5,0-60.01,23.21-65.46,55.21-2.01,11.55-7.82,28.13-24.12,41.62-12.47,10.31-27.66,15.77-43.9,15.77-7.93,0-15.71-1.33-23.14-3.95-4.6-1.62-9.38-2.42-14.14-2.42-8.22,0-16.38,2.38-23.41,7.02-11.11,7.33-18.15,19.43-19.02,32.71-1.17,17.77-8.55,34-20.78,45.69-12.58,12.03-29.09,18.38-47.75,18.38Z"/>
        <circle class="cls-1" cx="819.61" cy="572.6" r="111.54"/>
        <path class="cls-1" d="M819.61,641.62c-38.06,0-69.02-30.96-69.02-69.02s30.96-69.02,69.02-69.02,69.02,30.96,69.02,69.02-30.96,69.02-69.02,69.02Z"/>
      </g>
    </g>
  </g>
</svg>