<?xml version="1.0" encoding="UTF-8"?>
<svg id="Layer_2" data-name="Layer 2" xmlns="http://www.w3.org/2000/svg" viewBox="0 0 730.58 1033.55">
  <defs>
    <style>
      .cls-1 {
        fill: none;
        stroke: #000;
        stroke-miterlimit: 10;
        stroke-width: 9.5px;
      }
    </style>
  </defs>
  <g id="Layer_2-2" data-name="Layer 2">
    <g id="A-16">
      <path class="cls-1" d="M665.76,17.48c-54.38-28.52-121.7-7.5-150.1,46.99-15.47,29.56-16.28,62.93-5.2,91.79-22.63,5.54-43.53,18.01-59.12,36.6-25.06-12.7-54.73-16.05-83.59-7.04-24.82,7.74-45.03,23.32-58.65,43.3-27.94-21.94-65.81-30.25-102.3-18.82-58.77,18.36-91.56,80.94-73.2,139.71,12.7,40.87,46.88,69.16,86.25,76.44-13.74,25.52-17.67,56.35-8.31,86.13,12.59,40.3,45.95,68.47,84.63,76.2-2.54,16.74-1.27,33.6,3.46,49.3,2.89,9.58-1.27,19.86-10.05,24.71-21.71,11.89-39.6,30.94-49.76,55.65-10.05,24.71-10.74,50.92-3.58,74.59,2.89,9.58-1.27,19.86-10.05,24.71-21.71,11.89-39.6,30.94-49.76,55.65-1.04,2.66-2.08,5.31-2.89,7.97h-100.22c-37.87,0-68.58,30.71-68.58,68.58v10.28c0,37.87,30.71,68.58,68.58,68.58h188.2c5.08,0,10.05-.58,14.89-1.62,44.91,1.15,88.21-25.06,106.34-68.81,10.28-24.82,10.85-51.15,3.69-74.93-2.89-9.58,1.39-19.86,10.16-24.59,21.71-11.89,39.6-30.94,49.76-55.65,10.05-24.71,10.74-50.92,3.58-74.59-2.89-9.58,1.27-19.86,10.05-24.59,21.82-11.89,39.83-31.17,49.99-56,22.75-56.11-3.93-120.77-59.69-144.44-7.16-3.12-14.55-5.31-21.82-6.81,2.54-16.28,1.5-33.37-3.81-50.23-5.08-16.28-13.51-30.48-24.36-42.26,11.32,0,22.75-1.5,34.06-5.08,21.24-6.58,39.14-19.05,52.42-34.98,54.15,27.25,120.31,6.12,148.6-47.8,15.47-29.56,16.28-62.93,5.2-91.79,30.14-7.27,56.92-27.02,72.51-56.58,28.52-54.38,7.5-121.7-46.99-150.1h0l-.35-.46Z"/>
      <path class="cls-1" d="M73.33,986.28c-14.37,0-26.06-11.69-26.06-26.06v-10.28c0-14.37,11.69-26.06,26.06-26.06h100.22c18.71,0,35.22-12.23,40.68-30.13.31-1.01.98-2.74,1.66-4.48,6.14-14.74,16.76-26.58,30.75-34.24.05-.02.09-.05.14-.08,12.73-7.04,22.76-18.33,28.23-31.8,5.45-13.43,6.15-28.49,1.97-42.38-4.62-15.28-3.85-31.25,2.22-46.23,6.12-14.84,16.79-26.76,30.84-34.45.05-.02.09-.05.14-.08,12.73-7.04,22.76-18.33,28.23-31.8,5.45-13.43,6.15-28.49,1.96-42.39-2.96-9.8-3.69-20.4-2.14-30.66,3.41-22.45-11.43-43.62-33.7-48.07-24.77-4.95-44.84-23.03-52.39-47.19-5.6-17.83-3.76-36.73,5.16-53.3,6.44-11.96,6.78-26.29.9-38.54-5.88-12.25-17.25-20.96-30.62-23.43-25.32-4.68-45.77-22.78-53.37-47.24-5.51-17.64-3.82-36.32,4.74-52.66,8.56-16.33,22.96-28.36,40.54-33.85,6.76-2.12,13.7-3.19,20.64-3.19,15.34,0,30.51,5.28,42.72,14.87,7.54,5.92,16.8,9.08,26.26,9.08,2.16,0,4.33-.17,6.49-.5,11.63-1.8,22-8.34,28.63-18.06,8.72-12.78,21.23-22,36.18-26.66,6.71-2.09,13.61-3.15,20.5-3.15,10.71,0,21.5,2.6,31.22,7.53,6.12,3.1,12.69,4.6,19.21,4.6,12.27,0,24.3-5.31,32.6-15.2,9.42-11.23,22.09-19.06,36.65-22.62,11.86-2.9,21.9-10.77,27.56-21.59,5.66-10.82,6.4-23.55,2.02-34.95-7.15-18.61-5.99-39.32,3.17-56.83,11.88-22.8,35.21-36.92,60.92-36.92,10.03,0,19.7,2.15,28.8,6.4,1.1.71,2.24,1.37,3.4,1.98,16.24,8.46,28.2,22.76,33.69,40.26,5.49,17.53,3.82,36.13-4.7,52.38-9.27,17.57-25.62,30.35-44.83,34.99-11.9,2.87-21.98,10.73-27.67,21.56-5.69,10.83-6.44,23.59-2.05,35.01,7.15,18.61,5.99,39.32-3.17,56.83-11.93,22.74-35.32,36.89-61.02,36.89h0c-10.74,0-21.1-2.47-30.79-7.35-6.09-3.06-12.62-4.54-19.09-4.54-12.31,0-24.39,5.35-32.68,15.3-8.5,10.21-19.69,17.67-32.34,21.59-.08.03-.16.05-.24.08-6.6,2.09-13.54,3.1-21.24,3.1-16.88,0-32.17,9.99-38.94,25.45-6.78,15.46-3.77,33.47,7.68,45.88,6.92,7.5,11.98,16.29,15.04,26.11.01.04.02.07.04.11,3.18,10.1,3.98,20.5,2.35,30.89-3.5,22.41,11.21,43.61,33.42,48.2,4.92,1.02,9.44,2.41,13.44,4.15.12.05.24.11.37.16,34.37,14.59,50.92,54.61,36.93,89.25-6.16,15.01-16.85,27.01-30.93,34.69-26.31,14.27-39.11,45.45-30.45,74.21,4.62,15.28,3.85,31.25-2.23,46.24-6.11,14.81-16.74,26.7-30.75,34.4-26.34,14.31-39.18,45.48-30.53,74.19,4.67,15.5,3.88,31.55-2.27,46.41-10.72,25.87-35.92,42.59-64.2,42.59-.59,0-1.17,0-1.76-.02-.36,0-.73-.01-1.09-.01-3,0-5.98.32-8.91.94-2.11.45-4.07.67-5.98.67H73.33Z"/>
    </g>
  </g>
</svg>