<?xml version="1.0" encoding="UTF-8"?>
<svg id="Layer_2" data-name="Layer 2" xmlns="http://www.w3.org/2000/svg" viewBox="0 0 1057.47 1006.3">
  <defs>
    <style>
      .cls-1 {
        fill: none;
        stroke: #000;
        stroke-miterlimit: 10;
        stroke-width: 9.5px;
      }
    </style>
  </defs>
  <g id="Layer_2-2" data-name="Layer 2">
    <g id="A-17">
      <path class="cls-1" d="M1042.02,840.86c-12.66-27.65-34.95-47.6-60.81-57.92-11.14-4.54-17.06-16.37-14.31-28.07,6.05-25.45,3.44-53.24-9.49-78.28-12.93-25.18-33.98-43.34-58.33-53.11-11.28-4.54-17.33-16.37-14.45-28.07,6.05-25.45,3.44-53.24-9.49-78.28-12.93-25.04-33.98-43.34-58.33-53.11-11.28-4.54-17.33-16.37-14.45-28.07,6.05-25.45,3.44-53.24-9.49-78.28-12.93-25.18-33.98-43.34-58.33-53.11-11.28-4.54-17.33-16.37-14.45-28.07,6.05-25.45,3.44-53.24-9.49-78.28-15.27-29.72-41.82-49.67-71.82-57.65,2.75-13.9,3.03-28.62.28-43.75-9.08-49.25-51.32-87.23-101.12-91.63-67.55-5.92-123.96,47.47-123.55,113.64,0,7.57.83,15.13,2.34,22.29-29.17,8.25-55.17,28.07-70.17,57.1-12.93,25.18-15.68,52.83-9.49,78.28,2.75,11.69-3.3,23.53-14.45,28.07-24.35,9.77-45.4,27.93-58.33,53.11-12.93,25.18-15.68,52.83-9.49,78.28,2.75,11.69-3.3,23.53-14.45,28.07-24.35,9.77-45.4,27.93-58.33,53.11-12.93,25.18-15.68,52.83-9.49,78.28,2.75,11.69-3.3,23.53-14.45,28.07-24.35,9.77-45.4,27.93-58.33,53.11-12.93,25.18-15.68,52.83-9.49,78.28,2.75,11.69-3.16,23.53-14.31,28.07-29.03,11.69-53.52,35.36-65.08,68.51-16.65,47.88,1.65,102.22,43.75,130.56,57.37,38.52,133.59,17.75,164.41-41.82,12.93-25.18,15.68-52.83,9.49-78.28-2.75-11.69,3.3-23.53,14.45-28.07,24.35-9.77,45.4-27.93,58.33-53.11,6.33-12.24,10.18-25.18,11.83-38.11,17.47,11.01,38.11,17.34,60.26,17.34,13.62,0,26.69-2.34,38.8-6.74h0c-.41,64.39,52.83,116.53,117.77,114.05,42.24-1.65,79.11-29.58,95.34-68.65,13.62-32.74,13.48-39.07,13.48-46.64,11.28,3.58,23.25,5.5,35.63,5.5,26.28-.14,50.22-9.22,69.34-24.35.69,16.1,4.68,32.19,12.52,47.47,12.93,25.18,33.98,43.34,58.33,53.11,11.28,4.54,17.33,16.37,14.45,28.07-6.05,25.45-3.44,53.24,9.49,78.28,29.58,57.23,101.12,78.7,157.67,46.09,50.35-29.03,70.58-92.59,46.23-145.42h0l-.41.14ZM663.95,531.3c-10.32.83-20.09,3.03-29.44,6.47,2.34-9.08,3.58-18.57,3.71-28.34,3.71,1.93,7.43,3.85,11.42,5.37,7.43,3.03,12.52,9.22,14.45,16.65h0l-.14-.14ZM478.08,405.83c-.28-7.57-1.24-15.13-3.03-22.56-2.75-11.69,3.44-23.39,14.58-27.79,14.45-5.78,27.79-14.58,38.93-26.14,11.14,11.42,24.49,20.22,38.93,26,11.14,4.54,17.06,16.23,14.31,28.07-2.06,8.53-3.03,17.2-3.16,26-16.23-8.81-34.81-13.62-54.48-13.48-16.37,0-31.92,3.71-45.95,10.04l-.14-.14ZM407.22,514.79c1.51-.55,2.89-1.24,4.4-1.93.41,10.04,2.06,19.81,4.82,29.17-7.7-3.16-15.82-5.64-24.21-7.02.83-8.81,6.47-16.78,15-20.22h0ZM524.99,640.82c-13.62,0-26.69,2.34-38.8,6.74h0c0-11.83-1.65-23.25-4.95-33.98,13.62,5.64,28.62,8.81,44.3,8.67,13.35,0,26-2.48,37.83-6.74-2.48,9.36-3.71,19.26-3.71,29.44v1.24c-11.01-3.58-22.7-5.5-34.81-5.5h0l.14.14Z"/>
      <path class="cls-1" d="M118.16,959.03c-14.07,0-27.85-4.26-39.85-12.32-26.07-17.55-37.56-51.75-27.29-81.3,6.95-19.95,21.45-35.24,40.8-43.04.05-.02.1-.04.15-.06,30.57-12.45,47.25-44.91,39.65-77.18-.02-.1-.05-.21-.07-.31-3.95-16.25-1.82-33.58,6-48.8,9.89-19.25,25.22-28.61,36.34-33.07.07-.03.14-.06.22-.09,30.64-12.49,47.38-44.94,39.79-77.18-.02-.1-.05-.21-.07-.31-3.95-16.25-1.82-33.58,6-48.81,9.89-19.25,25.22-28.61,36.34-33.07.07-.03.14-.06.21-.09,30.64-12.48,47.38-44.94,39.79-77.18-.02-.1-.05-.21-.07-.31-3.95-16.25-1.82-33.58,6-48.8,9.89-19.25,25.22-28.61,36.34-33.07.07-.03.14-.06.21-.09,30.64-12.48,47.38-44.94,39.79-77.18-.02-.1-.05-.21-.07-.31-3.95-16.25-1.82-33.58,6-48.81,8.9-17.22,24.92-30.23,43.92-35.61,21.53-6.09,34.65-27.82,30.02-49.71-.93-4.39-1.42-9.05-1.42-13.49,0-.09,0-.18,0-.27-.12-19.02,7.2-36.92,20.61-50.42,13.39-13.47,31.21-20.89,50.19-20.89,2.15,0,4.34.1,6.51.29,30.88,2.73,57.38,26.65,63,56.88,1.7,9.38,1.65,18.76-.15,27.88-4.35,21.99,9.11,43.59,30.78,49.35,19.75,5.25,35.7,18.04,44.93,35.99,7.77,15.04,9.87,32.37,5.98,48.88-3.79,15.56-1.86,31.93,5.42,46.11,7.3,14.22,19.55,25.36,34.48,31.36,11.17,4.48,26.5,13.84,36.39,33.09,7.77,15.05,9.88,32.39,5.97,48.91-3.78,15.56-1.85,31.91,5.43,46.09,7.3,14.22,19.55,25.35,34.48,31.36,15.71,6.3,28.63,18.08,36.43,33.17,7.73,14.96,9.83,32.28,5.94,48.8-3.79,15.56-1.86,31.93,5.42,46.12,7.3,14.22,19.55,25.36,34.48,31.36,11.17,4.48,26.5,13.84,36.38,33.09,7.79,15.08,9.89,32.46,5.95,49.02,0,.03-.02.07-.02.1-7.59,32.27,9.08,64.73,39.66,77.18.1.04.19.08.29.12,16.86,6.72,30.32,19.55,37.9,36.12.69,1.51,1.46,2.96,2.3,4.35,12.15,31.94-.75,69.14-30.69,86.4-11.06,6.38-23.02,9.61-35.55,9.61-26.69,0-50.87-14.71-63.1-38.38-7.72-14.95-9.83-32.29-5.93-48.81,3.78-15.56,1.86-31.92-5.43-46.1-7.3-14.22-19.55-25.36-34.48-31.36-11.17-4.48-26.5-13.84-36.39-33.09-4.77-9.28-7.41-19.33-7.86-29.85-.68-15.96-10.25-30.2-24.78-36.85-5.66-2.59-11.69-3.86-17.69-3.86-9.41,0-18.74,3.12-26.39,9.18-12.41,9.82-27.3,15.07-43.07,15.17-7.72-.01-15.35-1.19-22.67-3.51-4.21-1.33-8.54-1.99-12.85-1.99-8.92,0-17.74,2.81-25.12,8.21-10.94,8.01-17.4,20.75-17.4,34.31v.23c0,.64,0,1.53-.02,1.78-.06.48-.96,6.07-10.21,28.29-10.33,24.85-32.99,41.53-57.75,42.5-.9.03-1.84.05-2.78.05-18.99,0-36.82-7.42-50.21-20.89-13.41-13.49-20.73-31.41-20.6-50.46.09-13.92-6.64-27-18.01-35.02-7.27-5.13-15.85-7.77-24.51-7.77-4.89,0-9.81.84-14.53,2.56-7.63,2.77-15.79,4.18-24.27,4.18-13.39,0-26.39-3.73-37.6-10.79-6.89-4.34-14.77-6.54-22.67-6.54-6.18,0-12.38,1.35-18.14,4.06-13.13,6.2-22.2,18.67-24.03,33.07-1.08,8.46-3.58,16.53-7.43,23.97-.02.03-.03.06-.05.09-9.89,19.25-25.22,28.61-36.34,33.07-.07.03-.14.06-.21.09-30.64,12.48-47.38,44.94-39.79,77.18.02.1.05.21.07.31,3.95,16.22,1.83,33.52-5.96,48.72-12.25,23.66-36.42,38.35-63.07,38.35ZM481.25,571.05c-10.4,0-20.65,3.81-28.62,11.07-12.18,11.09-16.87,28.21-12.02,43.95,2.04,6.63,3.07,13.85,3.07,21.48,0,13.87,6.77,26.87,18.13,34.83,7.25,5.08,15.78,7.69,24.4,7.69,4.89,0,9.81-.84,14.53-2.56,7.63-2.77,15.8-4.18,24.27-4.18.89,0,1.78-.03,2.66-.08,6.43.25,12.77,1.38,18.87,3.37,4.3,1.4,8.73,2.08,13.14,2.08,8.87,0,17.64-2.78,24.99-8.12,11.01-8,17.53-20.79,17.53-34.4v-1.24c0-6.55.77-12.8,2.3-18.56,4.05-15.28-.72-31.55-12.38-42.23-7.97-7.3-18.27-11.17-28.73-11.17-4.84,0-9.71.83-14.41,2.52-7.77,2.8-15.65,4.22-23.42,4.22-.12,0-.98,0-.98,0-9.24,0-18.34-1.83-27.05-5.44-5.25-2.18-10.78-3.24-16.26-3.24ZM391.32,475.36c-23.21,9.36-39.09,30.7-41.43,55.69-2.08,22.25,13.4,42.31,35.45,45.93,4.7.77,9.73,2.25,14.94,4.39,5.22,2.14,10.71,3.19,16.15,3.19,10.33,0,20.52-3.77,28.47-10.94,12.15-10.95,16.94-27.89,12.33-43.58-1.81-6.15-2.86-12.52-3.12-18.92-.58-14.14-8.16-27.06-20.21-34.47-6.8-4.18-14.52-6.3-22.28-6.3-5.99,0-11.99,1.26-17.6,3.82-.47.21-1.76.82-1.95.9-.25.09-.5.19-.75.29ZM638.22,466.91c-7.57,0-15.12,2.02-21.83,6.03-12.65,7.57-20.48,21.15-20.69,35.89-.09,6.4-.89,12.57-2.38,18.34-3.94,15.31.93,31.54,12.65,42.14,7.95,7.19,18.16,10.99,28.53,10.99,4.93,0,9.89-.86,14.67-2.61,5.07-1.86,10.14-3.09,15.43-3.72,7.05-.08,14.14-1.92,20.58-5.61,16.65-9.52,24.86-29.01,20.05-47.58-5.39-20.78-19.81-37.31-39.56-45.35-.32-.13-.64-.25-.96-.38-1.69-.64-4.23-1.96-6.92-3.36-6.15-3.19-12.87-4.78-19.58-4.78ZM524.98,438.44c11.95,0,23.19,2.81,33.39,8.34,6.33,3.43,13.3,5.14,20.27,5.14,7.42,0,14.84-1.94,21.46-5.81,12.84-7.5,20.82-21.17,21.05-36.04.1-6.11.74-11.56,1.98-16.67.03-.12.06-.24.09-.37,7.5-32.24-9.19-64.65-39.68-77.07-.08-.03-.17-.07-.25-.1-9.08-3.63-17.49-9.24-24.3-16.22-8-8.2-18.98-12.82-30.43-12.82h-.13c-11.5.03-22.5,4.73-30.48,13-6.79,7.04-14.89,12.48-24.07,16.16-14.8,5.88-27.01,16.83-34.39,30.86-7.44,14.15-9.52,30.54-5.84,46.17.02.07.03.14.05.21,1.06,4.41,1.69,9.17,1.87,14.15.39,10.68,4.78,20.82,12.31,28.4l.14.14c8.16,8.22,19.09,12.57,30.2,12.57,5.9,0,11.86-1.23,17.47-3.76,9.25-4.17,18.82-6.28,28.47-6.28.1,0,.82,0,.82,0Z"/>
    </g>
  </g>
</svg>