<?xml version="1.0" encoding="UTF-8"?>
<svg id="Layer_2" data-name="Layer 2" xmlns="http://www.w3.org/2000/svg" viewBox="0 0 705.51 928.6">
  <defs>
    <style>
      .cls-1 {
        fill: none;
        stroke: #000;
        stroke-miterlimit: 10;
        stroke-width: 9.5px;
      }
    </style>
  </defs>
  <g id="Layer_2-2" data-name="Layer 2">
    <g id="A-18">
      <path class="cls-1" d="M689.47,334.29c-11.23-21.95-29.34-38.18-50.35-47.33-8.43-3.64-13.11-12.8-11.13-21.74,4.68-22.26,1.98-46.29-9.26-68.03-11.23-21.85-29.23-37.87-50.04-47.02-8.43-3.64-13.11-12.8-11.23-21.74,4.68-22.37,1.98-46.5-9.36-68.45-25.7-49.41-86.97-69.39-136.8-44.52-.83.42-1.66.83-2.39,1.25-35.89,18-59.4,56.18-56.49,98.72.83,12.59,3.95,24.45,8.84,35.27-25.9,8.84-48.27,27.98-60.44,54.93-12.59,27.98-11.55,58.67.31,84.58-27.26,8.32-50.87,27.88-63.46,55.97-12.69,28.19-11.55,59.09.52,85.1-31,9.05-57.32,32.56-68.55,65.43-7.91,23.2-7.07,47.33.83,68.66,3.22,8.63-.1,18.31-7.91,23.2-19.35,12.07-34.75,30.58-42.65,53.89-7.91,23.2-7.07,47.33.83,68.66,3.22,8.63-.1,18.31-7.91,23.2-19.25,12.07-34.75,30.58-42.65,53.78-36.31,1.25-65.43,31.1-65.43,67.72h0c0,37.45,30.38,67.83,67.83,67.83h87.28c4.89.31,9.67.31,14.46,0h62c37.45,0,67.83-30.38,67.83-67.83h0c0-26.53-15.29-49.52-37.55-60.65-.83-3.22-1.87-6.35-3.02-9.47-3.22-8.63.1-18.31,7.91-23.2,19.35-12.07,34.75-30.58,42.65-53.89,7.91-23.2,7.07-47.33-.83-68.66-3.22-8.63,0-18.31,7.91-23.2,19.45-12.17,34.95-30.79,42.86-54.2,8.74-25.9,6.45-53.05-4.37-76.15,27.78-8.11,52.01-27.88,64.81-56.38,12.59-27.98,11.55-58.67-.31-84.58,14.15-4.37,27.36-11.76,38.59-21.74,7.28,5.93,15.29,10.82,23.72,14.56,8.43,3.64,13.11,12.8,11.23,21.85-4.68,22.26-1.98,46.29,9.26,68.03,26.22,50.87,88.94,70.53,139.5,43.59,49.21-26.22,68.45-87.7,43.07-137.32h0l-.1-.1Z"/>
      <path class="cls-1" d="M167.13,881.33c-1.49,0-3.03-.05-4.56-.15-.9-.06-1.8-.09-2.7-.09h-87.28c-13.96,0-25.31-11.35-25.31-25.31s10.93-24.77,24.38-25.23c17.65-.61,33.09-12.06,38.79-28.78,5.66-16.61,16.72-26.29,24.99-31.48,24.78-15.53,35.37-46.67,25.17-74.04-4.8-12.99-4.96-26.86-.44-40.12,4.51-13.29,13.12-24.17,24.91-31.53,24.86-15.58,35.45-46.7,25.27-74.07h0c-4.82-12.99-4.98-26.88-.45-40.15,6.32-18.48,21.36-32.83,40.22-38.33,11.89-3.47,21.68-11.96,26.8-23.24s5.07-24.23-.15-35.47c-7.33-15.79-7.44-33.92-.32-49.74,7.08-15.8,20.59-27.71,37.1-32.75,11.73-3.58,21.34-12.05,26.36-23.23,5.03-11.18,4.98-23.99-.12-35.14-7.19-15.71-7.26-33.72-.19-49.43,6.89-15.26,19.48-26.69,35.4-32.13,11.34-3.87,20.52-12.35,25.28-23.34s4.66-23.49-.27-34.41c-2.96-6.54-4.69-13.46-5.16-20.56,0-.03,0-.07,0-.1-1.66-24.2,11.35-46.89,33.13-57.81.57-.29,1.13-.59,1.69-.9.21-.11.42-.21.64-.32,8.26-4.12,17.15-6.22,26.39-6.22,22.72,0,43.26,12.35,53.64,32.24,6.48,12.56,8.39,26.46,5.51,40.2-5.98,28.58,9.06,57.73,35.78,69.39,8.95,3.95,21.27,11.92,29.3,27.52,6.34,12.26,8.27,26.33,5.49,39.71-6.19,28.69,8.8,57.9,35.73,69.6,12.87,5.61,23.07,15.2,29.48,27.72.23.46.47.91.72,1.35,13.9,28.81,2.5,64.07-25.83,79.17-8.83,4.71-18.31,7.09-28.18,7.09h0c-22.65,0-43.16-12.5-53.53-32.63-6.34-12.27-8.27-26.39-5.44-39.81,0-.05.02-.09.03-.14,5.91-28.58-9.1-57.7-35.72-69.37-5.04-2.25-9.75-5.15-14.02-8.63-7.83-6.38-17.35-9.55-26.84-9.55-10.12,0-20.21,3.59-28.25,10.74-6.57,5.84-14.49,10.3-22.89,12.89-11.69,3.61-21.26,12.08-26.26,23.25-5,11.17-4.95,23.95.15,35.08,7.19,15.71,7.26,33.72.2,49.43-7.2,16.05-21.03,28.07-37.96,33.01-11.92,3.48-21.72,12-26.83,23.31s-5.02,24.3.25,35.54c6.6,14.09,7.52,29.9,2.58,44.52-4.48,13.27-13.15,24.23-25.07,31.71-24.89,15.48-35.51,46.61-25.26,74.11,4.8,12.99,4.95,26.85.43,40.11-4.51,13.29-13.11,24.17-24.91,31.52-24.85,15.57-35.43,46.66-25.29,74.02.81,2.21,1.36,3.91,1.73,5.35,3.07,11.91,11.15,21.91,22.16,27.41,8.67,4.33,14.05,13,14.05,22.62,0,13.96-11.35,25.31-25.31,25.31h-62c-.92,0-1.84.03-2.76.09-1.47.1-2.96.14-4.43.14Z"/>
    </g>
  </g>
</svg>