<?xml version="1.0" encoding="UTF-8"?>
<svg id="Layer_2" data-name="Layer 2" xmlns="http://www.w3.org/2000/svg" viewBox="0 0 813.51 992.09">
  <defs>
    <style>
      .cls-1 {
        fill: none;
        stroke: #000;
        stroke-miterlimit: 10;
        stroke-width: 9.5px;
      }
    </style>
  </defs>
  <g id="Layer_2-2" data-name="Layer 2">
    <g id="A-19">
      <g>
        <path class="cls-1" d="M375.64,738.63c0-36.19-29.28-65.47-65.47-65.47h-97.67c-.32-1.08-.76-2.16-1.08-3.24-3.35-8.97.11-19.01,8.21-24.09,13.18-8.21,24.52-19.34,33.17-32.84,17.83,35.22,54.45,59.2,96.69,58.56,57.91-.86,104.9-48.4,105.01-106.31,0-25.6-8.86-49.16-23.98-67.63-6.05-7.35-5.94-18.04,0-25.39,14.91-18.37,23.88-41.7,23.88-67.2s-8.97-48.83-23.88-67.2c-6.05-7.35-6.05-18.04,0-25.39,15.02-18.47,23.98-42.03,23.88-67.63,0-25.5-9.29-48.94-24.42-67.31,5.51-6.81,10.16-14.48,13.94-22.8,24.09-53.59.22-116.46-53.37-140.56-53.59-24.09-116.46-.22-140.56,53.37-13.07,29.06-11.99,60.93.32,87.83-28.31,8.64-52.83,28.95-65.9,58.12-13.18,29.28-11.99,61.36.54,88.37-32.19,9.4-59.53,33.82-71.2,67.96-8.21,24.09-7.35,49.16.86,71.3,3.35,8.97-.11,19.01-8.21,24.09-20.09,12.53-36.08,31.76-44.3,55.96-8.21,24.09-7.35,49.16.86,71.3,3.35,8.97-.11,19.01-8.21,24.09-20.09,12.53-36.08,31.76-44.3,55.96-19.12,56.18,11.24,117.33,67.96,135.8,13.72,4.54,27.87,5.94,41.49,4.86,3.35.54,6.81.86,10.37.86h179.88c36.19,0,65.47-29.28,65.47-65.47v-9.83h0v-.11Z"/>
        <path class="cls-1" d="M130.29,771.52c-1.08,0-2.26-.11-3.6-.32-2.24-.36-4.5-.54-6.77-.54-1.12,0-2.24.04-3.36.13-1.78.14-3.57.21-5.34.21-6.76,0-13.3-1.03-19.43-3.06-.06-.02-.12-.04-.18-.06-16.46-5.36-29.79-16.82-37.52-32.27-7.74-15.47-8.93-33.02-3.35-49.4,4.8-14.15,13.97-25.75,26.54-33.59,25.16-15.77,35.88-47.27,25.57-74.97-5.13-13.85-5.29-28.65-.48-42.78,4.81-14.16,13.98-25.76,26.55-33.6,25.19-15.78,35.9-47.33,25.54-75.05l.04.1c-5.14-13.86-5.31-28.66-.49-42.81,6.73-19.7,22.76-34.99,42.87-40.85,11.89-3.47,21.68-11.96,26.8-23.24s5.07-24.23-.15-35.47c-7.81-16.83-7.93-36.16-.34-53.02,7.55-16.84,21.95-29.54,39.55-34.91,11.73-3.58,21.33-12.05,26.36-23.23,5.03-11.18,4.98-23.99-.12-35.14-7.66-16.74-7.74-35.95-.21-52.69,10.29-22.89,33.14-37.68,58.21-37.68,9.01,0,17.8,1.9,26.13,5.65,15.56,7,27.46,19.61,33.5,35.53,6.03,15.89,5.52,33.19-1.44,48.73-2.34,5.13-5.11,9.7-8.24,13.56-12.71,15.7-12.62,38.19.23,53.78,6.71,8.15,14.72,21.76,14.72,40.28v.18c.06,14.92-4.88,28.95-14.29,40.56-18.8,22.96-18.8,56.19-.01,79.16,9.36,11.56,14.31,25.51,14.31,40.32s-4.97,28.82-14.37,40.4c-18.67,23.09-18.6,56.32.12,79.13h-.01c9.4,11.47,14.37,25.54,14.37,40.68-.07,34.62-28.38,63.28-63.13,63.79-.36,0-.7,0-1.04,0-24.21,0-46.08-13.51-57.09-35.25-6.89-13.62-20.55-22.5-35.8-23.26-.72-.04-1.43-.05-2.15-.05-14.45,0-27.97,7.35-35.81,19.6-5.17,8.07-11.84,14.69-19.84,19.67-.03.02-.06.04-.1.06-24.71,15.48-35.47,46.28-25.94,73.67.28.86.53,1.59.72,2.12l.08.23c5.53,17.74,21.97,29.86,40.59,29.86h97.67c12.66,0,22.95,10.3,22.95,22.95v9.94c0,12.66-10.3,22.95-22.95,22.95h-179.88Z"/>
        <path class="cls-1" d="M573.88,819.12c13.18-8.21,24.52-19.34,33.17-32.84,17.83,35.22,54.45,59.2,96.69,58.56,57.91-.86,104.9-48.4,105.01-106.31,0-25.6-8.86-49.16-23.88-67.63-6.05-7.35-5.94-18.04,0-25.39,14.91-18.37,23.88-41.7,23.88-67.2s-8.97-48.83-23.88-67.2c-6.05-7.35-6.05-18.04,0-25.39,15.02-18.47,23.98-42.03,23.88-67.63,0-25.5-9.29-48.94-24.42-67.31,5.51-6.81,10.16-14.48,13.94-22.8,24.09-53.59.22-116.46-53.37-140.56-53.59-24.09-116.46-.22-140.56,53.37-13.07,29.06-11.99,60.93.32,87.83-28.31,8.64-52.83,28.95-65.9,58.12-13.18,29.28-11.99,61.36.54,88.37-32.2,9.4-59.53,33.82-71.2,67.96-8.21,24.09-7.35,49.16.86,71.3,3.35,8.97-.11,19.01-8.21,24.09-20.09,12.53-36.08,31.76-44.3,55.96-8.21,24.09-7.35,49.16.86,71.3,3.35,8.97-.11,19.01-8.21,24.09-20.09,12.53-36.08,31.76-44.3,55.96-19.12,56.18,11.24,117.33,67.96,135.8,13.72,4.54,27.87,5.94,41.49,4.86,3.35.54,6.81.86,10.37.86h179.88c36.19,0,65.47-29.28,65.47-65.47v-9.83c0-36.19-29.28-65.47-65.47-65.47h-97.67c-.32-1.08-.76-2.16-1.08-3.24-3.35-8.97.11-19.01,8.21-24.09h0l-.11-.11Z"/>
        <path class="cls-1" d="M484.64,944.82c-1.08,0-2.26-.11-3.6-.32-2.24-.36-4.5-.54-6.77-.54-1.12,0-2.24.04-3.36.13-1.78.14-3.58.21-5.34.21-6.76,0-13.3-1.03-19.43-3.06-.06-.02-.12-.04-.18-.06-16.46-5.36-29.79-16.82-37.52-32.27-7.74-15.47-8.93-33.02-3.36-49.4,4.8-14.15,13.97-25.75,26.54-33.59,25.17-15.77,35.88-47.27,25.57-74.98-5.13-13.85-5.29-28.65-.48-42.78,4.8-14.16,13.98-25.76,26.55-33.6,25.16-15.76,35.87-47.25,25.58-74.96-5.14-13.86-5.3-28.66-.48-42.8,6.73-19.7,22.76-34.99,42.87-40.86,11.89-3.47,21.68-11.96,26.8-23.24,5.12-11.28,5.07-24.23-.15-35.47-7.81-16.83-7.93-36.16-.34-53.02,7.55-16.84,21.95-29.54,39.55-34.91,11.73-3.58,21.33-12.05,26.36-23.23,5.03-11.18,4.98-23.99-.12-35.14-7.66-16.74-7.74-35.95-.21-52.69,10.29-22.89,33.14-37.68,58.21-37.68,9.01,0,17.8,1.9,26.13,5.65,15.56,7,27.46,19.61,33.5,35.53,6.04,15.9,5.52,33.21-1.45,48.75-2.34,5.12-5.11,9.68-8.23,13.54-12.71,15.7-12.62,38.19.22,53.78,6.71,8.15,14.72,21.76,14.72,40.28v.18c.06,14.92-4.88,28.94-14.29,40.56-18.8,22.96-18.81,56.19-.02,79.16,9.36,11.56,14.31,25.5,14.31,40.32s-4.97,28.82-14.37,40.4c-18.65,23.06-18.6,56.25.06,79.06,9.36,11.54,14.31,25.63,14.31,40.76-.07,34.62-28.38,63.27-63.13,63.79-.36,0-.7,0-1.04,0-24.21,0-46.08-13.51-57.08-35.25-6.89-13.62-20.55-22.5-35.8-23.26-.72-.04-1.43-.05-2.15-.05-14.45,0-27.97,7.35-35.81,19.6-5.17,8.07-11.84,14.69-19.84,19.67-1.85,1.15-3.59,2.43-5.22,3.83-20.95,16.34-29.54,44.63-20.71,70.01.28.86.53,1.59.72,2.12l.08.23c5.53,17.74,21.97,29.86,40.59,29.86h97.67c12.66,0,22.95,10.3,22.95,22.95v9.83c0,12.65-10.3,22.95-22.95,22.95h-179.88Z"/>
      </g>
    </g>
  </g>
</svg>