<?xml version="1.0" encoding="UTF-8"?>
<svg id="Layer_2" data-name="Layer 2" xmlns="http://www.w3.org/2000/svg" viewBox="0 0 848.63 975.89">
  <defs>
    <style>
      .cls-1 {
        fill: none;
        stroke: #000;
        stroke-miterlimit: 10;
        stroke-width: 9.5px;
      }
    </style>
  </defs>
  <g id="Layer_2-2" data-name="Layer 2">
    <g id="A-2">
      <g>
        <path class="cls-1" d="M820.3,361.12c-5.96-7.32-5.96-17.88,0-25.2,31.36-36.73,31.39-96.66,0-133.4-5.96-7.32-6.06-17.88,0-25.19,28.38-33.13,31.7-87.25,6.9-123.78-18.57-29.5-53.39-49.82-89.59-48.4-3.04.03-6.55-.13-9.62.1-1.31.02-2.43.27-3.76.42-1.69.15-3.36.39-5.02.73-23.58,4.02-45.1,16.71-60.43,34.19-40.42-47.63-118.25-47.69-158.7,0-40.35-47.61-118.28-47.7-158.7,0-63.12-72.34-184.62-28.09-184.83,69.52,0,97.37,121.93,141.93,184.83,69.52,40.24,47.66,118.51,47.59,158.7,0,40.28,47.48,117.69,47.66,158.17.63,3.76,7.01,3.03,15.68-2.09,22.06-31.39,36.75-31.37,96.65,0,133.4,5.96,7.32,5.96,17.88,0,25.3-14.85,18.19-23.73,41.4-23.73,66.7,0,19.24,5.12,37.22,14.11,52.79-8.05,9.1-14.53,19.45-19.13,30.53-4.39,10.56-15.89,16.41-27.08,13.7-50.29-13.42-107.52,15.71-126.5,64.09-4.39,10.56-15.89,16.41-27.08,13.69-24.36-5.96-50.91-3.55-75.06,8.68-24.15,12.23-41.82,32.3-51.44,55.41-4.39,10.56-15.89,16.41-27.08,13.7-50.17-13.45-107.59,15.75-126.5,64.09-4.39,10.56-15.89,16.41-26.97,13.69-85.98-21.79-162.36,67.56-125.45,149.6,38.9,86.95,164.07,83.36,199.57-3.35,4.39-10.56,15.89-16.41,27.08-13.69,50.2,13.41,107.61-15.75,126.5-64.09,4.39-10.56,15.89-16.41,27.08-13.69,50.39,13.34,107.44-15.62,126.5-64.09,4.39-10.56,15.89-16.41,27.08-13.69,50.33,13.36,107.47-15.64,126.5-64.09,4.39-10.56,15.89-16.41,26.97-13.69,25.93,6.27,54.26,3.24,79.56-11.08,48.51-27.5,68.58-87.92,45.89-138.52-2.09-4.6-4.39-8.99-7-13.07,31.74-37.16,31.42-96.8.31-133.5h0Z"/>
        <path class="cls-1" d="M113.16,929.03c-67.53-.75-90.58-88.65-32.08-122.85,14.8-8.46,32.18-10.79,48.63-6.78,31.01,7.76,64.25-9.01,76.25-38.69,9.84-24.36,35.13-41.29,61.37-41.01,5.3,0,10.6.64,15.76,1.9,31.08,7.82,64.44-8.94,76.44-38.67,9.84-24.35,35.13-41.28,61.37-41.01,5.3,0,10.6.64,15.76,1.9,5.16,1.25,10.39,1.88,15.62,1.88,26.7,0,50.58-15.92,60.82-40.55,9.84-24.35,35.13-41.28,61.37-41.01,5.3,0,10.6.64,15.76,1.9,31.05,7.84,64.46-8.96,76.44-38.67,2.83-6.81,6.76-13.08,11.71-18.67,12.12-13.69,14.13-33.6,4.99-49.44-5.59-9.68-8.42-20.29-8.42-31.54,0-14.81,4.98-28.69,14.37-40.08,18.4-22.92,18.32-56.04-.19-78.77-18.84-22.34-18.84-57.34-.03-79.67,26.42-29.93,14.6-91.07-30.86-91.46-12.02,0-23.58,5.1-31.7,14.19-12.19,13.64-28.92,21.15-47.12,21.15s-35.41-7.83-47.38-21.48c-8.07-9.21-19.72-14.49-31.97-14.49-12.25,0-23.9,5.28-31.97,14.49-24.13,28.45-70.63,28.42-94.76,0-8.07-9.21-19.72-14.49-31.97-14.49-12.25,0-23.9,5.28-31.97,14.49-37.9,43.46-110.41,16.23-110.34-41.49,0-34.72,28.25-62.96,62.96-62.96,18.14,0,35.41,7.83,47.38,21.47,8.07,9.21,19.72,14.49,31.97,14.49,12.25,0,23.9-5.28,31.97-14.49,11.97-13.65,29.23-21.48,47.38-21.48,18.14,0,35.41,7.83,47.38,21.48,16.3,19.21,47.66,19.16,63.94,0,11.97-13.65,29.23-21.47,47.38-21.47s35.41,7.83,47.38,21.48c16.27,19.2,47.64,19.16,63.92.02,9.82-11.13,23.34-18.72,37.91-20.68.86-.09,1.72-.17,2.58-.29,0,0,12.41,0,12.41,0,19.68,1.11,37.81,12.78,48.2,29.5,14.43,22.45,12.51,52.87-4.41,73.21-18.77,22.81-18.82,56-.09,79,9.29,11.38,14.18,25.15,14.18,39.85,0,14.7-4.89,28.47-14.15,39.81-18.68,22.86-18.55,56.16-.09,78.88,18.72,22.24,18.82,57.41-.23,79.82-11.62,14.25-12.78,34.35-2.85,49.83,26.88,42.8-5.9,100.86-56.74,100.3-5.32,0-10.67-.64-15.9-1.9-30.99-7.82-64.27,9.05-76.25,38.69-9.85,24.36-35.13,41.29-61.37,41.02-5.3,0-10.6-.64-15.76-1.9-5.16-1.25-10.39-1.88-15.62-1.88-26.7,0-50.58,15.92-60.82,40.55-6.09,14.63-17.24,26.64-31.39,33.8-9.45,4.78-19.53,7.21-29.98,7.21-5.3,0-10.6-.64-15.76-1.9-31.04-7.88-64.46,8.99-76.44,38.67-6.09,14.62-17.24,26.63-31.39,33.8-9.45,4.78-19.53,7.21-29.98,7.21-5.3,0-10.6-.64-15.76-1.9-31.03-7.89-64.47,8.99-76.44,38.67-9.85,24.37-35.18,41.3-61.43,41.03h0Z"/>
        <path class="cls-1" d="M447.29,269.02c58.37,0,105.69,47.32,105.69,105.69-5.57,140.2-205.84,140.16-211.39,0,0-58.37,47.32-105.69,105.69-105.69h0Z"/>
        <path class="cls-1" d="M447.29,437.88c-34.83,0-63.17-28.34-63.17-63.17,3.47-83.81,122.89-83.78,126.35,0,0,34.83-28.34,63.17-63.17,63.17h0Z"/>
      </g>
    </g>
  </g>
</svg>