<?xml version="1.0" encoding="UTF-8"?>
<svg id="Layer_2" data-name="Layer 2" xmlns="http://www.w3.org/2000/svg" viewBox="0 0 1026.02 976.84">
  <defs>
    <style>
      .cls-1 {
        fill: none;
        stroke: #000;
        stroke-miterlimit: 10;
        stroke-width: 9.5px;
      }
    </style>
  </defs>
  <g id="Layer_2-2" data-name="Layer 2">
    <g id="A-20">
      <path class="cls-1" d="M1011.11,816.14c-12.36-26.73-33.75-46.11-58.81-56.13-10.8-4.34-16.71-15.93-14.03-27.18,5.9-24.73,3.34-51.57-9.24-75.96-12.59-24.39-32.97-41.99-56.58-51.57-10.8-4.34-16.82-15.93-14.03-27.29,5.9-24.73,3.34-51.57-9.24-75.96-12.59-24.39-32.97-41.99-56.58-51.57-10.8-4.34-16.82-15.93-14.03-27.29,5.9-24.73,3.34-51.57-9.24-75.96-12.59-24.39-32.97-41.99-56.58-51.57-10.8-4.34-16.82-15.93-14.03-27.29,5.9-24.73,3.34-51.57-9.24-75.96-14.81-28.74-40.65-48.23-69.61-55.91,1.45-7.24,2.23-14.81,2.12-22.61-.45-60.7-50.01-109.6-110.71-109.15-60.7.45-109.6,50.01-109.15,110.71,0,7.35.89,14.59,2.34,21.61-28.4,7.91-53.46,27.18-68.05,55.47-12.59,24.39-15.15,51.23-9.24,75.96,2.67,11.25-3.34,22.94-14.03,27.29-23.61,9.47-43.99,27.18-56.58,51.57-12.59,24.39-15.15,51.23-9.24,75.96,2.67,11.25-3.34,22.94-14.03,27.29-23.61,9.47-43.99,27.18-56.58,51.57-12.59,24.39-15.15,51.23-9.24,75.96,2.67,11.25-3.34,22.94-14.03,27.29-23.61,9.47-43.99,27.18-56.58,51.57-12.59,24.39-15.15,51.23-9.24,75.96,2.67,11.25-3.23,22.94-14.03,27.18-25.06,10.14-46.56,29.4-58.81,56.13-23.61,51.23-4.01,112.83,44.89,141,54.8,31.63,124.19,10.8,152.92-44.66,12.59-24.39,15.15-51.23,9.24-75.96-2.67-11.25,3.34-22.94,14.03-27.29,23.61-9.47,43.99-27.18,56.58-51.57,12.59-24.39,15.15-51.23,9.24-75.96-2.67-11.25,3.34-22.94,14.03-27.29,23.61-9.47,43.99-27.18,56.58-51.57,12.59-24.39,15.15-51.23,9.24-75.96-2.67-11.25,3.34-22.94,14.03-27.29,1.45-.56,2.78-1.22,4.23-1.78,2,59.25,50.9,106.48,110.6,106.03,60.37-.45,108.93-49.45,109.15-109.6,3.56,1.89,7.24,3.68,11.03,5.23,10.8,4.34,16.82,15.93,14.03,27.29-5.9,24.73-3.34,51.57,9.24,75.96,12.59,24.39,32.97,41.99,56.58,51.57,10.8,4.34,16.82,15.93,14.03,27.29-5.9,24.73-3.34,51.57,9.24,75.96,12.59,24.39,32.97,41.99,56.58,51.57,10.8,4.34,16.82,15.93,14.03,27.29-5.9,24.73-3.34,51.57,9.24,75.96,28.62,55.58,98.12,76.4,152.92,44.66,48.89-28.18,68.39-89.77,44.89-141h-.22ZM508.69,384.44c-15.93.11-30.96,3.56-44.55,9.8-.22-7.35-1.22-14.59-2.9-21.72-2.67-11.25,3.23-22.94,14.03-27.18,14.03-5.68,26.95-14.14,37.76-25.28,10.8,11.03,23.61,19.49,37.53,25.17,10.8,4.34,16.71,15.93,14.03,27.18-2,8.24-3.01,16.71-3.01,25.17-15.7-8.46-33.75-13.25-52.9-13.14h0Z"/>
      <path class="cls-1" d="M114.67,929.57c-11.92,0-23.29-3.08-33.8-9.14-29.85-17.2-41.93-55.14-27.53-86.38,7.21-15.73,19.97-27.93,35.98-34.45,30.12-11.96,47.14-44.79,39.61-76.48-3.81-15.96-1.85-32.07,5.66-46.63,7.43-14.41,19.73-25.63,34.62-31.6.06-.02.12-.05.18-.07,14.59-5.93,26.61-16.94,33.84-31,7.22-14.04,9.2-30.21,5.56-45.51-3.81-15.96-1.85-32.07,5.66-46.63,7.43-14.41,19.73-25.63,34.62-31.6.06-.02.12-.05.18-.07,14.59-5.93,26.6-16.94,33.84-31,7.22-14.04,9.2-30.2,5.56-45.51-3.81-15.96-1.85-32.07,5.66-46.63,7.43-14.41,19.73-25.63,34.62-31.6.06-.02.12-.05.18-.07,14.59-5.93,26.6-16.94,33.84-31,7.22-14.04,9.2-30.21,5.56-45.51-3.81-15.96-1.85-32.07,5.66-46.63,8.7-16.87,23.5-28.94,41.67-34,21.54-6,34.75-27.65,30.24-49.55-.97-4.7-1.46-9.08-1.46-13.02,0-.1,0-.21,0-.31-.13-17.99,6.76-34.96,19.4-47.78,12.65-12.83,29.53-19.96,47.54-20.09h.51c36.88,0,67.1,30.03,67.37,66.94,0,.1,0,.2,0,.3.06,4.45-.37,9.04-1.29,13.66-4.41,22.02,9.08,43.68,30.79,49.44,18.44,4.89,34.01,17.39,42.72,34.3,7.51,14.56,9.48,30.66,5.69,46.56-3.72,15.4-1.78,31.61,5.48,45.68,7.24,14.03,19.28,25,33.93,30.93h0c10.64,4.31,25.31,13.31,34.78,31.66,7.5,14.54,9.47,30.63,5.69,46.53-3.72,15.4-1.78,31.62,5.48,45.7,7.24,14.04,19.31,25.03,33.98,30.95,10.63,4.33,25.26,13.32,34.71,31.64,7.51,14.55,9.47,30.65,5.68,46.56-3.72,15.39-1.77,31.6,5.48,45.67,7.24,14.03,19.28,25.01,33.93,30.93,15.25,6.19,27.27,17.14,34.77,31.66,7.51,14.56,9.47,30.67,5.67,46.59-3.65,15.36-1.69,31.5,5.51,45.5,7.24,14.08,19.33,25.09,34.02,31,15.93,6.37,28.72,18.63,36.08,34.53.44.96.92,1.89,1.43,2.81,12.34,30.72.12,66.88-28.73,83.51-10.6,6.14-21.98,9.23-33.92,9.23h0c-25.39,0-48.37-14-59.97-36.52-7.52-14.57-9.48-30.66-5.7-46.56,3.73-15.4,1.79-31.62-5.47-45.7-7.25-14.05-19.31-25.04-33.99-30.95-15.22-6.19-27.23-17.13-34.71-31.64-7.5-14.54-9.47-30.63-5.69-46.53,3.72-15.4,1.78-31.62-5.48-45.69-7.24-14.03-19.29-25.02-33.95-30.94h.03c-15.26-6.18-27.28-17.13-34.78-31.65-7.51-14.55-9.47-30.65-5.68-46.56,3.72-15.39,1.77-31.6-5.48-45.67-7.21-13.98-19.21-24.94-33.79-30.87-2.19-.91-4.55-2.03-7.18-3.43-6.25-3.32-13.11-4.97-19.95-4.97-7.57,0-15.12,2.02-21.84,6.04-12.78,7.65-20.63,21.43-20.68,36.33-.14,36.8-30.17,66.96-66.94,67.23h-.53c-17.56,0-34.19-6.72-46.81-18.94-12.6-12.19-19.87-28.54-20.46-46.01-.46-13.75-7.55-26.42-19.03-34.02-7.06-4.67-15.23-7.06-23.47-7.06-5.16,0-10.33.94-15.28,2.84-1.65.64-3.04,1.25-3.96,1.65l-.52.23c-.16.06-.32.13-.48.19-14.59,5.93-26.6,16.94-33.84,31-7.22,14.04-9.2,30.21-5.56,45.51,3.81,15.96,1.85,32.07-5.66,46.63-7.43,14.41-19.73,25.63-34.62,31.6-.06.02-.12.05-.18.07-14.59,5.93-26.61,16.94-33.84,31-7.22,14.04-9.2,30.21-5.56,45.51,3.81,15.96,1.85,32.08-5.66,46.63-7.43,14.41-19.73,25.63-34.62,31.6-.06.02-.12.05-.18.07-14.59,5.93-26.6,16.94-33.84,31-7.22,14.04-9.2,30.2-5.56,45.51,3.81,15.96,1.85,32.08-5.66,46.63-11.64,22.47-34.68,36.47-60.08,36.47ZM509.34,426.96c11.21,0,22.3,2.79,32.08,8.05,6.31,3.4,13.24,5.09,20.17,5.09,7.55,0,15.09-2.01,21.8-6.01,12.85-7.67,20.72-21.54,20.72-36.51,0-5.12.61-10.21,1.8-15.12.02-.07.04-.15.05-.22,3.64-15.32,1.68-31.46-5.52-45.46-7.22-14.05-19.26-25.04-33.91-30.95-8.79-3.6-16.57-8.82-23.14-15.52-8-8.16-18.95-12.76-30.37-12.76h-.11c-11.46.03-22.43,4.69-30.41,12.92-6.42,6.61-14.17,11.8-23.04,15.41-30.11,11.97-47.13,44.79-39.59,76.48l-.03-.13c1.06,4.52,1.66,9,1.79,13.3.43,14.25,7.98,27.33,20.09,34.85,6.83,4.24,14.61,6.38,22.41,6.38,6.03,0,12.08-1.28,17.73-3.88,8.42-3.87,17.54-5.86,27.11-5.93h.36Z"/>
    </g>
  </g>
</svg>