<?xml version="1.0" encoding="UTF-8"?>
<svg id="Layer_2" data-name="Layer 2" xmlns="http://www.w3.org/2000/svg" viewBox="0 0 714.96 1011.31">
  <defs>
    <style>
      .cls-1 {
        fill: none;
        stroke: #000;
        stroke-miterlimit: 10;
        stroke-width: 9.5px;
      }
    </style>
  </defs>
  <g id="Layer_2-2" data-name="Layer 2">
    <g id="A-21">
      <path class="cls-1" d="M642.95,862.42h-98.01c-.88-2.65-1.77-5.2-2.88-7.85-9.85-24.11-27.43-42.81-48.67-54.42-8.63-4.65-12.72-14.82-9.85-24.11,7.08-23.12,6.42-48.78-3.43-72.9-9.85-24.11-27.43-42.81-48.67-54.42-8.63-4.65-12.72-14.82-9.85-24.11,4.65-15.38,5.97-31.86,3.43-48.23,37.83-7.63,70.58-35.07,82.85-74.56,9.07-29.2,5.31-59.4-8.19-84.29,38.5-7.19,71.9-34.84,84.4-74.89,17.92-57.52-14.16-118.69-71.68-136.73-35.73-11.17-72.79-2.99-100.11,18.47-13.38-19.47-33.08-34.73-57.41-42.37-28.21-8.85-57.41-5.53-81.86,6.86-15.15-18.14-35.62-30.42-57.85-35.84,10.95-28.21,10.07-60.84-5.09-89.82C182.23,9.88,116.41-10.69,63.2,17.18,9.88,45.06-10.69,110.88,17.18,164.08c15.15,28.98,41.48,48.23,70.91,55.31-10.95,28.21-10.07,60.84,5.09,89.82,27.65,52.77,92.37,73.45,145.35,46.79,12.94,15.6,30.53,27.77,51.33,34.29,11.06,3.43,22.35,5.09,33.41,4.98-10.62,11.5-18.81,25.44-23.78,41.37-5.09,16.48-6.19,33.19-3.65,49.11-7.19,1.44-14.38,3.65-21.46,6.64-54.54,23.23-80.64,86.5-58.41,141.37,9.85,24.34,27.54,43.14,48.89,54.87,8.63,4.65,12.61,14.71,9.85,24.11-7.08,23.12-6.42,48.78,3.43,72.9,9.85,24.11,27.43,42.81,48.67,54.42,8.52,4.65,12.72,14.71,9.96,24.11-7.08,23.34-6.42,49.11,3.54,73.34,17.7,42.81,60.07,68.58,104.09,67.37,4.65,1,9.51,1.66,14.6,1.66h184.18c37.06,0,67.04-29.98,67.04-67.04v-10.07c0-37.06-29.98-67.04-67.04-67.04h-.22Z"/>
      <path class="cls-1" d="M458.99,964.04c-1.58,0-3.45-.23-5.7-.72-2.93-.63-5.91-.94-8.9-.94-.39,0-.78,0-1.17.02-.6.02-1.21.03-1.81.03-26.8,0-51.64-16.53-61.81-41.13-5.9-14.37-6.66-29.87-2.14-44.75.03-.12.07-.23.1-.35,8.35-28.4-4.43-59.28-30.39-73.44-13.57-7.42-23.84-18.9-29.67-33.17-5.79-14.2-6.55-29.96-2.14-44.38.05-.15.09-.3.14-.45,8.38-28.5-4.34-59.33-30.25-73.43-9.6-5.29-22.53-15.38-29.86-33.5-13.55-33.43,2.42-72.1,35.58-86.28,4.36-1.84,8.81-3.21,13.21-4.09,22.4-4.48,37.25-25.85,33.65-48.4-1.56-9.79-.8-19.81,2.26-29.79,3-9.58,7.85-18.04,14.42-25.16,11.51-12.47,14.5-30.58,7.62-46.09-6.82-15.38-22.07-25.27-38.86-25.27-.14,0-1.04,0-1.04,0-6.51,0-13.14-1.03-19.69-3.05-12.38-3.89-23.19-11.11-31.29-20.86-8.3-10-20.4-15.37-32.74-15.37-6.47,0-13.01,1.48-19.09,4.54-9.35,4.7-19.34,7.09-29.7,7.09-24.8,0-47.37-13.66-58.89-35.64-8.87-16.97-10.01-36.92-3.11-54.7,4.44-11.44,3.72-24.24-1.96-35.11-5.69-10.87-15.8-18.75-27.73-21.62-18.59-4.47-34.32-16.75-43.17-33.67-8.23-15.7-9.83-33.64-4.54-50.55,5.3-16.92,16.87-30.76,32.58-38.97,9.63-5.04,19.93-7.59,30.65-7.59,24.82,0,47.38,13.65,58.87,35.63,8.89,17.01,10.03,36.96,3.13,54.73-4.43,11.42-3.73,24.19,1.94,35.05s15.73,18.75,27.63,21.65c14.04,3.42,26.24,10.96,35.29,21.79,8.3,9.93,20.36,15.26,32.65,15.26,6.51,0,13.09-1.5,19.2-4.6,9.36-4.75,19.8-7.25,30.18-7.25,6.67,0,13.31,1.02,19.73,3.04,14.43,4.53,26.57,13.48,35.1,25.88,6.65,9.68,17.02,16.17,28.63,17.95,2.14.33,4.28.49,6.41.49,9.46,0,18.72-3.16,26.26-9.08,11.81-9.28,26.48-14.39,41.31-14.39,6.69,0,13.36,1.03,19.85,3.06,35.05,10.99,54.7,48.45,43.78,83.5-7.38,23.64-27.16,41.17-51.61,45.74-13.36,2.5-24.73,11.23-30.58,23.51-5.85,12.27-5.47,26.6,1.01,38.56,8.58,15.82,10.34,34.08,4.96,51.41-7.22,23.21-26.63,40.64-50.66,45.49-22.29,4.5-37.1,25.74-33.61,48.21,1.5,9.65.78,19.79-2.09,29.33-8.75,28.6,3.93,59.6,30.22,73.84,13.56,7.44,23.8,18.9,29.61,33.14,5.79,14.19,6.55,29.94,2.15,44.35-8.81,28.62,3.86,59.66,30.15,73.93,13.58,7.44,23.83,18.91,29.65,33.16.04.09.08.19.12.29.57,1.38,1.13,2.97,1.79,4.95,5.79,17.36,22.04,29.07,40.34,29.07,0,0,98.18,0,98.23,0,13.52,0,24.52,11,24.52,24.52v10.07c0,13.52-11,24.52-24.52,24.52h-184.18Z"/>
    </g>
  </g>
</svg>