<?xml version="1.0" encoding="UTF-8"?>
<svg id="Layer_2" data-name="Layer 2" xmlns="http://www.w3.org/2000/svg" viewBox="0 0 915.35 951.9">
  <defs>
    <style>
      .cls-1 {
        fill: none;
        stroke: #000;
        stroke-miterlimit: 10;
        stroke-width: 9.5px;
      }
    </style>
  </defs>
  <g id="Layer_2-2" data-name="Layer 2">
    <g id="A-22">
      <g>
        <path class="cls-1" d="M856.06,440.64c-27.14-14.1-57.71-15.03-84.26-5.01-6.61-27.27-24.55-51.75-51.69-65.85-27.14-14.1-57.71-15.03-84.26-5.01-4.25-17.83-13.45-34.38-26.79-47.67,12.63-13.05,21.36-29.14,25.49-46.27,26.55,10.02,57.12,9.21,84.26-5.01,27.14-14.22,45.08-38.58,51.69-65.85,26.55,10.02,57.12,9.21,84.26-5.01,49.92-25.99,69.03-87.06,42.72-136.36-26.32-49.3-88.15-68.18-138.07-42.19-27.14,14.1-45.08,38.58-51.69,65.85-26.55-10.02-57.12-9.21-84.26,5.01-27.14,14.22-45.08,38.58-51.69,65.85-26.55-10.02-57.12-9.21-84.26,5.01-26.67,13.87-44.49,37.76-51.33,64.45-33.28-12.24-69.98-6.18-97.36,14.22-40.24,29.02-53.93,83.56-29.97,128.43,24.66,46.15,80.36,65.61,128.39,46.5,6.73,27.15,24.66,51.4,51.57,65.5,27.14,14.1,57.71,15.03,84.26,5.01,6.61,27.27,24.55,51.75,51.69,65.85,27.14,14.1,57.71,15.03,84.26,5.01,6.61,27.27,24.55,51.75,51.69,65.85,49.92,25.99,111.63,7.11,138.07-42.19,26.32-49.3,7.2-110.25-42.72-136.36h0v.23Z"/>
        <path class="cls-1" d="M808.27,588.1c-9.78,0-19.18-2.31-27.92-6.86-15.1-7.85-26.02-21.75-30-38.15-2.87-11.84-10.69-21.89-21.46-27.58-6.19-3.27-13.02-4.92-19.86-4.92-5.07,0-10.16.91-15.01,2.74-6.92,2.61-14.18,3.94-21.56,3.94-9.82,0-19.26-2.32-28.07-6.9-15.07-7.83-25.99-21.73-29.97-38.13-2.87-11.85-10.68-21.89-21.46-27.58-6.19-3.27-13.02-4.92-19.86-4.92-5.07,0-10.16.91-15.01,2.74-6.92,2.61-14.18,3.94-21.56,3.94-9.79,0-19.21-2.31-28.01-6.87-15.24-8.01-25.88-21.51-29.97-38.03-2.95-11.92-10.92-21.98-21.84-27.6-6.08-3.12-12.75-4.7-19.43-4.7-5.33,0-10.66,1-15.72,3.01-7.14,2.84-14.65,4.28-22.32,4.28-22.28,0-42.53-12-52.85-31.32-6.61-12.38-8.47-26.68-5.23-40.25,3.23-13.53,11.25-25.49,22.57-33.65.18-.13.35-.26.53-.39,10.47-7.8,23.45-12.09,36.56-12.09,7.1,0,14.08,1.24,20.72,3.68,4.75,1.75,9.72,2.61,14.67,2.61,6.82,0,13.61-1.64,19.78-4.88,10.65-5.59,18.43-15.43,21.41-27.08,4.16-16.23,14.73-29.47,29.76-37.29.04-.02.08-.04.11-.06,8.71-4.56,18.07-6.87,27.82-6.87,7.4,0,14.7,1.34,21.69,3.98,4.85,1.83,9.94,2.74,15.01,2.74,6.85,0,13.67-1.65,19.86-4.92,10.78-5.69,18.59-15.74,21.46-27.58,4.01-16.57,14.7-30.13,30.09-38.2,8.7-4.56,18.06-6.87,27.82-6.87,7.4,0,14.7,1.34,21.69,3.98,4.85,1.83,9.94,2.74,15.01,2.74,6.85,0,13.67-1.65,19.86-4.92,10.78-5.69,18.59-15.74,21.46-27.58,3.97-16.4,14.9-30.3,29.97-38.13,8.78-4.57,18.18-6.88,27.98-6.88,22.35,0,42.65,12.02,52.98,31.36,7.28,13.64,8.78,29.27,4.22,44-4.64,14.98-14.96,27.27-29.06,34.62-.03.02-.06.03-.09.05-8.71,4.56-18.07,6.87-27.82,6.87-7.4,0-14.7-1.34-21.69-3.98-4.85-1.83-9.94-2.74-15.02-2.74-6.85,0-13.67,1.65-19.86,4.92-10.78,5.69-18.59,15.74-21.46,27.58-4.01,16.57-14.7,30.13-30.09,38.2-8.71,4.56-18.07,6.87-27.82,6.87-7.4,0-14.7-1.34-21.69-3.98-4.85-1.83-9.94-2.74-15.01-2.74-6.86,0-13.69,1.66-19.89,4.94-10.78,5.7-18.59,15.76-21.45,27.62-2.41,9.99-7.5,19.21-14.71,26.67-16.16,16.7-15.91,43.28.55,59.68,7.64,7.62,12.98,17.09,15.44,27.4,2.83,11.88,10.64,21.97,21.43,27.7,6.21,3.3,13.06,4.96,19.94,4.96,5.07,0,10.16-.91,15.02-2.74,6.92-2.61,14.18-3.94,21.56-3.94,9.82,0,19.26,2.32,28.08,6.9,15.07,7.83,25.99,21.73,29.97,38.13,2.87,11.84,10.69,21.89,21.46,27.58,6.19,3.27,13.02,4.92,19.86,4.92,5.08,0,10.16-.91,15.02-2.74,6.92-2.61,14.18-3.94,21.56-3.94,9.82,0,19.26,2.32,28.08,6.9.91.47,1.84.91,2.78,1.32,12.69,7.52,21.96,19.19,26.27,33.16,4.53,14.69,3.03,30.28-4.24,43.89-10.36,19.32-30.68,31.36-53,31.36Z"/>
        <path class="cls-1" d="M576.51,553.1c-27.26-20.4-63.96-26.46-97.36-14.22-6.84-26.69-24.66-50.58-51.33-64.45-27.14-14.1-57.71-15.03-84.26-5.01-6.61-27.27-24.55-51.75-51.69-65.85-27.14-14.1-57.71-15.03-84.26-5.01-6.61-27.27-24.55-51.75-51.69-65.85-49.92-25.99-111.63-7.11-138.07,42.19-26.32,49.3-7.2,110.25,42.72,136.36,27.14,14.1,57.71,15.03,84.26,5.01,6.61,27.27,24.55,51.75,51.69,65.85,27.14,14.1,57.71,15.03,84.26,5.01,4.13,17.13,12.86,33.22,25.49,46.27-13.33,13.29-22.54,29.95-26.79,47.67-26.55-10.02-57.12-9.21-84.26,5.01-27.14,14.22-45.08,38.58-51.69,65.85-26.55-10.02-57.12-9.21-84.26,5.01-49.92,25.99-69.03,87.06-42.72,136.36,26.32,49.3,88.15,68.18,138.07,42.19,27.14-14.1,45.08-38.58,51.69-65.85,26.55,10.02,57.12,9.21,84.26-5.01,27.14-14.1,45.08-38.58,51.69-65.85,26.55,10.02,57.12,9.21,84.26-5.01,26.91-14.1,44.96-38.34,51.57-65.5,47.91,19.11,103.73-.35,128.39-46.5,23.96-44.87,10.27-99.41-29.97-128.43h0v-.23Z"/>
        <path class="cls-1" d="M107.05,904.63c-22.35,0-42.65-12.02-52.98-31.36-7.28-13.64-8.78-29.27-4.22-44,4.64-14.98,14.96-27.27,29.06-34.62l.1-.05c8.71-4.56,18.07-6.87,27.82-6.87,7.4,0,14.7,1.34,21.69,3.98,4.85,1.83,9.94,2.74,15.01,2.74,6.85,0,13.67-1.65,19.86-4.92,10.78-5.69,18.59-15.74,21.46-27.58,4.01-16.57,14.7-30.13,30.09-38.2,8.71-4.56,18.07-6.87,27.82-6.87,7.4,0,14.7,1.34,21.69,3.98,4.85,1.83,9.94,2.74,15.01,2.74,6.87,0,13.71-1.66,19.91-4.95,10.78-5.71,18.59-15.79,21.44-27.66,2.49-10.37,7.83-19.87,15.45-27.46,16.46-16.4,16.71-42.98.55-59.68-7.22-7.46-12.31-16.68-14.71-26.67-2.86-11.86-10.67-21.92-21.45-27.62-6.19-3.28-13.03-4.94-19.89-4.94-5.08,0-10.16.91-15.02,2.74-6.92,2.61-14.18,3.94-21.56,3.94-9.82,0-19.26-2.32-28.08-6.9-15.07-7.83-25.99-21.73-29.97-38.13-2.87-11.84-10.69-21.89-21.46-27.58-6.19-3.27-13.02-4.92-19.86-4.92-5.07,0-10.16.91-15.02,2.74-6.92,2.61-14.18,3.94-21.56,3.94-9.79,0-19.22-2.31-28.02-6.87-14.15-7.41-24.48-19.75-29.11-34.74-4.53-14.69-3.03-30.28,4.24-43.89,10.36-19.32,30.68-31.36,53-31.36,9.78,0,19.18,2.31,27.92,6.86,15.1,7.85,26.02,21.74,30,38.15,2.87,11.84,10.69,21.89,21.46,27.58,6.19,3.27,13.02,4.92,19.86,4.92,5.08,0,10.16-.91,15.02-2.74,6.92-2.61,14.18-3.94,21.56-3.94,9.82,0,19.26,2.32,28.08,6.9,15.07,7.83,25.99,21.73,29.97,38.13,2.87,11.84,10.69,21.89,21.46,27.58,6.19,3.27,13.02,4.92,19.86,4.92,5.08,0,10.16-.91,15.02-2.74,6.92-2.61,14.18-3.94,21.56-3.94,9.82,0,19.26,2.32,28.08,6.9,15.02,7.81,25.59,21.05,29.75,37.28,2.99,11.64,10.76,21.47,21.39,27.07,6.17,3.25,12.97,4.89,19.8,4.89,4.94,0,9.89-.86,14.63-2.6,6.7-2.45,13.71-3.7,20.84-3.7,12.11,0,24.07,3.65,34,10.33.96.84,1.97,1.63,3.01,2.38,11.33,8.17,19.34,20.12,22.57,33.65,3.24,13.57,1.38,27.87-5.24,40.26-10.31,19.3-30.58,31.3-52.88,31.3h0c-7.66,0-15.14-1.44-22.24-4.27-5.07-2.02-10.42-3.03-15.75-3.03-6.71,0-13.4,1.59-19.49,4.73-10.95,5.65-18.91,15.76-21.82,27.73-3.93,16.15-14.86,29.96-29.99,37.89-8.7,4.56-18.06,6.87-27.82,6.87-7.4,0-14.7-1.34-21.69-3.98-4.85-1.83-9.94-2.74-15.02-2.74-6.85,0-13.67,1.65-19.86,4.92-10.78,5.69-18.59,15.74-21.46,27.58-3.97,16.4-14.9,30.3-29.97,38.13-.04.02-.09.04-.13.07-8.71,4.56-18.07,6.87-27.82,6.87-7.4,0-14.7-1.34-21.69-3.98-4.85-1.83-9.94-2.74-15.01-2.74-6.85,0-13.67,1.65-19.86,4.92-10.78,5.69-18.59,15.74-21.46,27.58-3.97,16.4-14.9,30.3-29.97,38.13-8.78,4.57-18.18,6.88-27.98,6.88Z"/>
      </g>
    </g>
  </g>
</svg>