<?xml version="1.0" encoding="UTF-8"?>
<svg id="Layer_2" data-name="Layer 2" xmlns="http://www.w3.org/2000/svg" viewBox="0 0 755.42 1010.95">
  <defs>
    <style>
      .cls-1 {
        fill: none;
        stroke: #000;
        stroke-miterlimit: 10;
        stroke-width: 9.5px;
      }
    </style>
  </defs>
  <g id="Layer_2-2" data-name="Layer 2">
    <g id="A-23">
      <path class="cls-1" d="M684.82,485.71c-16.76-7.81-34.58-11.19-52.04-10.72,9.2-34.73,1.53-73.07-23.96-102.33-22.07-25.41-53.22-38.69-84.61-39.28,1.89-8.39,2.83-16.78,2.95-25.17,0-26.22-8.97-52.56-27.61-74.12-8.02-9.32-17.35-16.9-27.38-22.96,52.04-34.96,65.73-105.01,30.45-156.64C467.22,2.76,396.18-10.76,343.78,24.08c-52.4,34.96-66.08,105.12-30.8,156.87,9.56,13.87,21.6,25.06,35.28,33.22-16.05,10.61-29.5,25.41-38.59,43.59-12.15,24.47-14.63,51.16-8.85,75.75,2.36,9.91-2.71,20.05-12.04,24.24-23.13,10.49-42.84,28.67-54.87,53.03-12.04,24.36-14.4,50.81-8.73,75.29,2.36,9.91-2.71,20.05-11.92,24.24-23.25,10.61-43.07,28.9-55.11,53.38-2.12,4.31-3.89,8.62-5.43,13.05h-77.53c-38.94,0-70.45,31.12-70.45,69.58v10.37c0,38.46,31.51,69.58,70.45,69.58h193.53c9.32,0,18.17-1.75,26.32-5.01,29.27-8.86,54.87-29.25,69.27-58.5,12.04-24.36,14.4-50.81,8.73-75.29-2.36-9.91,2.71-20.05,12.04-24.36,20.18-9.21,37.64-24.12,49.8-43.94.12.12.24.35.47.47,23.25,26.8,56.53,40.09,89.69,39.28-4.84,18.18-4.96,36.83-.83,54.54,2.36,9.91-2.71,20.05-12.04,24.24-23.13,10.49-42.84,28.67-54.87,53.03-12.04,24.36-14.4,50.81-8.73,75.29,2.36,9.91-2.71,20.05-11.92,24.24-23.25,10.61-43.07,28.9-55.11,53.38-2.12,4.31-3.89,8.62-5.43,13.05h-70.8c-38.94,0-70.45,31.12-70.45,69.58v10.37c0,38.46,31.51,69.58,70.45,69.58h193.53c17.47,0,33.4-6.29,45.67-16.67,18.06-10.84,33.28-26.8,43.19-46.85,12.04-24.36,14.4-50.81,8.73-75.29-2.36-9.91,2.71-20.05,12.04-24.36,23.13-10.49,42.84-28.67,54.87-53.03,12.04-24.36,14.4-50.81,8.73-75.29-2.36-9.91,2.71-20.05,12.04-24.36,23.13-10.49,42.84-28.67,54.87-53.03,28.09-56.64,3.78-125.17-54.17-152.21h0v.58Z"/>
      <path class="cls-1" d="M305.31,963.68c-15.4,0-27.93-12.14-27.93-27.06v-10.37c0-14.92,12.53-27.06,27.93-27.06h70.8c18.12,0,34.25-11.48,40.18-28.6,1.01-2.93,2.12-5.61,3.39-8.18,7.34-14.93,19.31-26.5,34.61-33.48,27.63-12.59,42.61-43.1,35.67-72.6-3.67-15.96-1.79-32.13,5.45-46.77,7.32-14.8,19.17-26.26,34.27-33.12,27.82-12.55,42.9-43.1,35.92-72.71-2.63-11.31-2.45-22.71.52-33.88,3.44-12.94.59-26.75-7.7-37.26-8.07-10.24-20.39-16.19-33.39-16.19-.35,0-.7,0-1.05.01-.61.01-1.22.02-1.83.02-21.17,0-41.1-8.98-54.69-24.65-.79-.91-1.62-1.79-2.48-2.62-.06-.06-.12-.12-.18-.18-8.01-7.94-18.79-12.33-29.94-12.33-1.69,0-3.38.1-5.08.3-12.9,1.55-24.37,8.91-31.17,19.98-7.38,12.04-18.18,21.54-31.21,27.49-.07.03-.13.06-.2.09-27.54,12.74-42.49,43.25-35.6,72.6,3.68,15.97,1.8,32.15-5.44,46.8-8.77,17.82-24.2,30.81-43.47,36.65-1.18.36-2.35.77-3.5,1.23-3.24,1.3-6.78,1.96-10.5,1.96H75.2c-15.4,0-27.93-12.14-27.93-27.06v-10.37c0-14.92,12.53-27.06,27.93-27.06h77.53c18.12,0,34.25-11.48,40.18-28.6,1.01-2.93,2.12-5.61,3.39-8.18,7.34-14.93,19.31-26.5,34.61-33.48,27.62-12.59,42.61-43.1,35.68-72.6-3.67-15.96-1.79-32.13,5.45-46.78,7.32-14.8,19.17-26.26,34.27-33.12,27.82-12.56,42.91-43.11,35.92-72.72-3.75-15.95-1.84-32.23,5.53-47.08,5.5-10.97,13.78-20.33,23.96-27.05,12.2-8.07,19.41-21.84,19.07-36.46-.34-14.62-8.17-28.05-20.74-35.54-8.63-5.15-16.03-12.12-21.98-20.74-10.54-15.52-14.39-34.12-10.84-52.4,3.59-18.46,14.3-34.47,30.17-45.06,11.96-7.96,25.93-12.18,40.34-12.18,24.06,0,46.42,11.68,59.8,31.24,10.54,15.43,14.42,34,10.91,52.26-3.55,18.46-14.19,34.46-29.98,45.07-12.06,8.1-19.14,21.79-18.8,36.32.35,14.52,8.09,27.86,20.52,35.37,6.67,4.03,12.44,8.85,17.14,14.3.02.03.04.05.07.08,14.14,16.36,17.21,33.99,17.25,46.01-.1,5.5-.74,10.93-1.91,16.14-2.8,12.47.15,25.53,8.04,35.59s19.88,16.02,32.66,16.26c20.6.38,40.03,9.36,53.3,24.64,15.28,17.54,20.86,41.28,14.96,63.55-3.43,12.95-.56,26.76,7.75,37.27,8.08,10.21,20.37,16.14,33.35,16.14.38,0,.76,0,1.14-.01.68-.02,1.35-.03,2.03-.03,10.85,0,21.26,2.28,30.92,6.79,1.6.75,3.23,1.38,4.89,1.92,15.27,8.55,26.7,22.05,32.46,38.51,6.23,17.79,5.05,36.88-3.32,53.76-7.35,14.87-19.22,26.33-34.34,33.19-.1.04-.19.09-.29.13-27.55,12.75-42.5,43.27-35.59,72.64,3.67,15.95,1.79,32.12-5.45,46.76-7.32,14.82-19.19,26.28-34.32,33.14-.1.04-.19.09-.29.13-27.54,12.74-42.49,43.25-35.6,72.6,3.68,15.96,1.8,32.15-5.44,46.8-6,12.14-15.33,22.25-26.96,29.23-1.96,1.18-3.82,2.51-5.56,3.98-3.57,3.02-9.64,6.62-18.22,6.62h-193.53Z"/>
    </g>
  </g>
</svg>