<?xml version="1.0" encoding="UTF-8"?>
<svg id="Layer_2" data-name="Layer 2" xmlns="http://www.w3.org/2000/svg" viewBox="0 0 698.12 1054.33">
  <defs>
    <style>
      .cls-1 {
        fill: none;
        stroke: #000;
        stroke-miterlimit: 10;
        stroke-width: 9.5px;
      }
    </style>
  </defs>
  <g id="Layer_2-2" data-name="Layer 2">
    <g id="A-24">
      <path class="cls-1" d="M653.6,542.14c23.72-20.98,38.59-51.51,38.23-85.43-.35-33.91-15.69-64.1-39.89-84.61,23.72-20.98,38.59-51.51,38.23-85.43-.35-32.98-14.99-62.58-38.12-83.1,38.59-33.68,50.39-90.32,25.25-137.29-10.27-19.11-25.25-34.15-42.84-44.52-17.82-10.96-38.94-17.25-61.6-17.02-53.81.47-98.65,37.64-110.34,87.29-29.15-10.37-62.54-8.97-92.05,6.41-30.33,15.85-50.51,43.24-57.94,73.77-29.74-11.19-63.96-10.26-94.41,5.59-30.45,15.85-50.51,43.24-57.94,73.77-29.74-11.19-63.96-10.26-94.41,5.59-55.94,29.14-77.29,97.43-47.79,152.67,29.5,55.24,98.65,76.34,154.59,47.2,30.33-15.85,50.51-43.24,57.94-73.77,29.74,11.19,63.96,10.26,94.41-5.59,30.45-15.85,50.51-43.24,57.94-73.77,25.02,9.44,53.22,10.26,79.65.82,4.13,27.39,18.29,51.51,38.59,68.76-23.72,20.98-38.59,51.51-38.23,85.43.35,33.91,15.69,64.1,39.89,84.61-20.89,18.41-34.81,44.29-37.64,73.31-7.67-1.63-15.58-2.45-23.6-2.45-63.37,0-114.7,50.7-114.7,113.28,0,30.77,12.51,58.74,32.69,79.13-45.67,8.27-77.06,24.94-77.18,43.82-.12,12,11.92,22.96,32.1,31.47,8.14,3.5,8.02,8.39,0,11.89-20.06,8.51-32.1,19.46-32.1,31.35s12.04,22.73,32.1,31.35c8.14,3.5,8.14,8.39,0,11.89-20.18,8.62-32.22,19.58-32.1,31.47.24,26.92,63.49,49.18,141.37,49.53,80.13.35,145.38-22.03,145.38-49.65,0-11.89-12.04-22.73-32.1-31.35-8.14-3.5-8.14-8.39,0-11.89,20.06-8.51,32.1-19.46,32.1-31.35s-12.04-22.73-32.1-31.35c-8.14-3.5-8.14-8.39,0-11.89,20.06-8.51,32.1-19.46,32.1-31.35,0-15.38-20.18-29.14-51.81-38.23,21.24-18.53,35.52-44.75,38.35-74.24,7.91,1.63,16.05,2.45,24.43,2.33,63.13-.58,113.88-51.63,113.29-114.1-.35-33.91-15.69-64.1-39.89-84.61h0l.12.23Z"/>
      <path class="cls-1" d="M423.9,1007.05c-33.49-.15-59.14-4.58-76.65-9.53,10.13-9.1,15.82-21.33,15.82-34.9,0-14.81-6.79-28.04-18.69-37.31,11.91-9.32,18.69-22.59,18.65-37.42-.04-13.51-5.71-25.68-15.76-34.74,5.64-1.59,12.22-3.13,19.83-4.51,15.53-2.81,28.22-13.99,32.97-29.04,4.75-15.05.78-31.49-10.32-42.7-13.15-13.29-20.39-30.78-20.39-49.23,0-39.02,32.38-70.76,72.18-70.76,5.06,0,10.02.51,14.76,1.52,2.93.62,5.89.93,8.84.93,8.96,0,17.77-2.83,25.12-8.21,9.77-7.15,16.02-18.13,17.2-30.18,1.71-17.55,10.04-33.72,23.44-45.54,9.26-8.17,14.52-19.96,14.4-32.31s-5.6-24.04-15.02-32.02c-15.82-13.41-24.65-32.1-24.87-52.62-.21-20.15,8.5-39.52,23.89-53.13,9.24-8.17,14.47-19.94,14.35-32.27-.12-12.33-5.59-24-14.98-31.98-13.05-11.09-21.6-26.25-24.08-42.7-1.89-12.57-9.31-23.63-20.22-30.15-6.67-3.99-14.23-6.03-21.83-6.03-4.82,0-9.66.82-14.3,2.48-7.82,2.79-16,4.21-24.31,4.21-8.9,0-17.66-1.6-26.03-4.76-4.85-1.83-9.94-2.74-15.01-2.74-6.84,0-13.66,1.65-19.85,4.92-10.77,5.68-18.59,15.71-21.47,27.55-4.9,20.11-17.78,36.49-36.26,46.12-10.55,5.5-21.89,8.28-33.69,8.28-8.92,0-17.7-1.6-26.11-4.77-4.84-1.82-9.91-2.72-14.97-2.72-6.85,0-13.67,1.65-19.86,4.92-10.76,5.69-18.57,15.71-21.45,27.54-4.82,19.78-18.06,36.6-36.32,46.15-10.51,5.47-21.85,8.26-33.66,8.26-26.86,0-51.28-14.49-63.73-37.81-8.81-16.51-10.64-35.39-5.14-53.18,5.59-18.06,18.04-32.88,35.07-41.75,10.54-5.49,21.88-8.28,33.68-8.28,8.92,0,17.71,1.6,26.11,4.77,4.84,1.82,9.91,2.72,14.97,2.72,6.85,0,13.67-1.65,19.86-4.92,10.76-5.69,18.57-15.71,21.45-27.54,4.9-20.11,17.78-36.49,36.26-46.12,10.55-5.49,21.89-8.28,33.69-8.28,8.92,0,17.7,1.6,26.11,4.77,4.84,1.82,9.91,2.72,14.97,2.72,6.85,0,13.67-1.65,19.86-4.92,10.76-5.69,18.57-15.71,21.45-27.54,4.82-19.78,18.06-36.6,36.32-46.15,10.49-5.47,21.81-8.25,33.63-8.25,8.37,0,16.6,1.42,24.46,4.22,4.63,1.65,9.45,2.46,14.25,2.46,7.03,0,14.04-1.74,20.34-5.18,10.62-5.79,18.27-15.82,21.04-27.6,7.49-31.81,35.99-54.22,69.32-54.51h.85c13.52,0,26.7,3.7,38.11,10.72.22.14.44.27.66.4,11.43,6.74,20.76,16.43,26.98,28.02,15.32,28.62,8.85,63.66-15.76,85.14-9.21,8.04-14.51,19.65-14.56,31.87s5.17,23.87,14.31,31.98c15.14,13.43,23.6,31.8,23.81,51.74.21,20.14-8.5,39.51-23.88,53.12-9.24,8.17-14.48,19.96-14.35,32.29.13,12.34,5.61,24.01,15.02,31.99,15.82,13.42,24.65,32.1,24.87,52.62.21,20.13-8.48,39.48-23.84,53.09-9.22,8.17-14.44,19.93-14.32,32.24.12,12.31,5.57,23.97,14.95,31.95,15.74,13.41,24.53,32.06,24.74,52.52.18,18.71-7.07,36.43-20.4,49.85-13.46,13.55-31.49,21.11-50.76,21.29-.07,0-.85,0-1.18,0-4.76,0-9.55-.49-14.26-1.46-2.85-.59-5.73-.88-8.59-.88-9.01,0-17.88,2.87-25.25,8.31-9.71,7.17-15.92,18.13-17.08,30.15-1.71,17.84-10.23,34.27-23.98,46.26-11.73,10.24-16.93,26.07-13.55,41.27,3.29,14.78,14.18,26.67,28.54,31.27-10.2,9.1-15.95,21.39-15.95,35.03,0,14.81,6.78,28.02,18.67,37.29-11.89,9.27-18.67,22.49-18.67,37.29,0,13.6,5.72,25.86,15.87,34.95-17.84,5-44.16,9.47-78.68,9.47h-1.67Z"/>
    </g>
  </g>
</svg>