<?xml version="1.0" encoding="UTF-8"?>
<svg id="Layer_2" data-name="Layer 2" xmlns="http://www.w3.org/2000/svg" viewBox="0 0 679.11 1041.19">
  <defs>
    <style>
      .cls-1 {
        fill: none;
        stroke: #000;
        stroke-miterlimit: 10;
        stroke-width: 9.5px;
      }
    </style>
  </defs>
  <g id="Layer_2-2" data-name="Layer 2">
    <g id="A-25">
      <path class="cls-1" d="M667.36,156.65c21.71-58.62-8.73-123.54-68.09-144.98-59.36-21.44-125.09,8.62-146.8,67.25-11.8,31.82-8.14,65.5,7.08,93.12-29.74,11.3-54.4,34.73-66.2,66.55-11.8,31.82-8.14,65.5,7.08,93.12-29.74,11.3-54.4,34.73-66.2,66.55-11.56,31.23-8.26,64.33,6.25,91.6-2.95,1.17-5.9,2.33-8.73,3.85-40,19.35-63.61,59.09-64.2,100.46-4.72-.58-9.68-.93-14.51-.93-47.79,0-88.74,28.9-105.97,69.93-8.85-2.1-18.06-3.26-27.61-3.26-63.37,0-114.7,50.7-114.7,113.28,0,48.95,31.51,90.67,75.64,106.52-5.66,13.4-8.73,28.09-8.73,43.47,0,62.58,51.33,113.28,114.7,113.28s114.7-50.7,114.7-113.28c0-48.95-31.51-90.67-75.64-106.52v-.23c8.85,2.1,18.06,3.26,27.61,3.26,37.05,0,69.98-17.36,90.98-44.29,1.77,7.46,4.37,14.8,7.79,22.03,11.68,24.47,31.15,42.89,54.05,53.73,9.2,4.43,14.16,14.57,11.68,24.36-6.14,24.47-4.13,51.16,7.79,75.87,26.79,55.48,94.29,79.95,151.05,54.43,58.3-26.22,83.55-94.4,56.29-151.39-11.68-24.47-31.15-42.89-54.05-53.73-9.32-4.43-14.16-14.57-11.68-24.47,6.14-24.36,4.13-50.93-7.67-75.4-11.68-24.47-31.15-42.89-54.05-53.73-8.14-3.85-12.86-12.12-12.27-20.74,3.3-12,4.48-24.12,3.78-35.9-.71-14.57-4.13-29.25-10.86-43.24-.83-1.63-1.65-3.26-2.48-4.9,29.38-11.42,53.93-34.73,65.61-66.31,11.8-31.82,8.14-65.5-7.08-93.12,29.74-11.3,54.4-34.73,66.2-66.55,11.8-31.82,8.14-65.5-7.08-93.12,29.74-11.3,54.4-34.73,66.2-66.55h.12Z"/>
      <path class="cls-1" d="M186.36,993.92c-39.8,0-72.18-31.74-72.18-70.76,0-9.42,1.81-18.47,5.38-26.92,4.55-10.76,4.47-22.92-.22-33.62-4.69-10.7-13.58-19-24.57-22.95-28.41-10.2-47.49-36.93-47.49-66.5,0-39.02,32.38-70.76,72.18-70.76,5.89,0,11.88.71,17.81,2.12,3.28.78,6.57,1.15,9.82,1.15,16.8,0,32.44-10,39.19-26.06,11.19-26.65,37.4-43.87,66.77-43.87,2.84,0,6.06.21,9.3.61,1.74.21,3.48.32,5.22.32,10.21,0,20.15-3.68,27.93-10.46,9.11-7.94,14.41-19.37,14.58-31.45.38-26.93,15.79-50.99,40.19-62.79.52-.25,1.03-.51,1.54-.79.68-.36,2.77-1.19,4.3-1.79,11.26-4.45,20.1-13.49,24.28-24.86,4.19-11.37,3.32-23.98-2.37-34.67-9.36-17.58-10.79-38.31-3.92-56.86,7.08-19.09,22.19-34.25,41.44-41.57,11.51-4.38,20.56-13.53,24.8-25.09s3.27-24.39-2.68-35.18c-9.84-17.85-11.46-38.92-4.45-57.81,7.09-19.11,22.19-34.27,41.45-41.59,11.51-4.38,20.56-13.53,24.8-25.09,4.25-11.56,3.27-24.39-2.68-35.18-9.84-17.85-11.46-38.92-4.45-57.81,10.29-27.78,37.45-46.43,67.58-46.43,8.47,0,16.84,1.48,24.91,4.39,18.13,6.55,32.52,19.65,40.53,36.9,7.51,16.18,8.53,34.22,2.93,51.06-.32.74-.62,1.49-.91,2.25-7.09,19.11-22.19,34.27-41.45,41.59-11.51,4.38-20.56,13.53-24.8,25.09-4.25,11.56-3.27,24.39,2.68,35.18,9.84,17.85,11.46,38.92,4.45,57.81-7.09,19.11-22.19,34.27-41.44,41.59-11.51,4.38-20.56,13.53-24.8,25.09s-3.27,24.39,2.68,35.18c9.84,17.85,11.46,38.92,4.45,57.81-7,18.92-21.99,34.02-41.15,41.47-11.18,4.35-20.01,13.21-24.3,24.42s-3.65,23.7,1.76,34.4l2.27,4.48c3.88,8.19,6.09,17.12,6.54,26.53,0,.16.02.33.03.49.45,7.41-.34,14.83-2.33,22.06-.75,2.74-1.23,5.55-1.43,8.38-1.8,26.39,12.54,50.76,36.54,62.09,15.03,7.12,26.74,18.74,33.83,33.6.02.05.05.1.07.15,7.08,14.67,8.71,30.77,4.74,46.55-7.37,29.44,7.22,60.23,34.67,73.27,15.12,7.16,26.83,18.78,33.92,33.64,8.14,17.01,9.04,36.11,2.56,53.81-6.62,18.09-20.09,32.47-37.92,40.49-9.4,4.23-19.39,6.37-29.68,6.37h0c-27.99,0-53.75-15.9-65.63-40.51-7.16-14.83-8.83-31.11-4.83-47.04,7.37-29.1-7.13-59.85-34.49-73.01-.08-.04-.16-.08-.24-.12-15.05-7.13-26.75-18.74-33.85-33.57-2.12-4.49-3.74-9.05-4.81-13.57-3.77-15.91-16.33-28.24-32.31-31.73-3.02-.66-6.06-.98-9.07-.98-12.93,0-25.36,5.91-33.52,16.37-13.84,17.75-34.79,27.92-57.46,27.92-5.89,0-11.88-.71-17.81-2.12-3.25-.77-6.54-1.15-9.81-1.15-9.48,0-18.79,3.17-26.37,9.17-10.2,8.06-16.15,20.35-16.15,33.35v.23c0,17.94,11.26,33.95,28.15,40.02,28.41,10.2,47.5,36.93,47.5,66.5,0,39.02-32.38,70.76-72.18,70.76Z"/>
    </g>
  </g>
</svg>