<?xml version="1.0" encoding="UTF-8"?>
<svg id="Layer_2" data-name="Layer 2" xmlns="http://www.w3.org/2000/svg" viewBox="0 0 1032.57 939.66">
  <defs>
    <style>
      .cls-1 {
        fill: none;
        stroke: #000;
        stroke-miterlimit: 10;
        stroke-width: 9.5px;
      }
    </style>
  </defs>
  <g id="Layer_2-2" data-name="Layer 2">
    <g id="A-26">
      <g>
        <path class="cls-1" d="M833.94,322.46c18.76-28.44,22.89-62,14.28-92.3,31.51-4.43,61.01-21.79,79.65-50.11,34.46-52.33,19.59-122.25-33.4-156.4-52.99-34.03-123.79-19.35-158.37,32.98-18.76,28.44-22.89,62-14.28,92.3-31.51,4.43-61.01,21.79-79.65,50.11-18.76,28.44-22.89,62-14.28,92.3-30.92,4.31-59.95,21.21-78.71,48.72-18.76-27.62-47.79-44.4-78.71-48.83,8.61-30.3,4.48-63.87-14.28-92.3-18.76-28.44-48.26-45.69-79.65-50.11,8.61-30.3,4.48-63.87-14.28-92.3-17.23-26.11-43.43-42.77-71.98-48.83-63.13-14.34-125.32,25.52-138.19,87.87-5.66,27.74-.71,55.01,12.27,77.97,5.9,10.49,3.19,23.66-6.37,31-21.01,16.08-36.46,39.28-42.13,66.9-5.66,27.62-.71,55.01,12.27,77.97,5.9,10.49,3.19,23.66-6.37,31-21.01,16.08-36.46,39.28-42.13,66.9-5.66,27.62-.71,55.01,12.27,77.97,5.9,10.49,3.19,23.66-6.37,31-21.01,16.08-36.46,39.28-42.13,66.9-5.66,27.74-.71,55.01,12.27,77.97,5.9,10.49,3.19,23.66-6.37,30.88-22.3,17.02-38.35,42.19-43.19,72.14-9.09,57.46,27.97,112.93,85.08,127.27,63.96,15.97,127.8-24.12,140.78-87.18,5.66-27.74.71-55.01-12.27-77.97-5.9-10.49-3.19-23.66,6.37-31,21.01-16.08,36.46-39.28,42.13-66.9,5.66-27.74.71-55.01-12.27-77.97-5.9-10.49-3.19-23.66,6.37-31,21.01-16.08,36.46-39.28,42.13-66.9,5.66-27.62.71-55.01-12.27-77.97-5.9-10.49-3.19-23.66,6.37-31,6.96-5.36,13.33-11.42,18.88-18.3,8.61,3.5,17.58,5.83,26.79,7.11-8.61,30.3-4.48,63.87,14.28,92.3,18.76,28.44,48.26,45.69,79.65,50.11-8.61,30.3-4.48,63.87,14.28,92.3,20.65,31.23,54.17,49.06,89.21,51.05,40.24,2.91,80.72-15.27,104.32-51.05,18.76-28.44,22.89-62,14.28-92.3,31.51-4.43,61.01-21.79,79.65-50.11,18.76-28.44,22.89-62,14.28-92.3,31.51-4.43,61.01-21.79,79.65-50.11h0l.12.23Z"/>
        <path class="cls-1" d="M119.61,892.39c-6.04,0-12.14-.76-18.11-2.25-35.52-8.91-58.98-43.75-53.39-79.3,2.92-17.98,12.49-33.96,26.94-45,26.31-19.96,33.92-56.73,17.7-85.58-8.47-14.99-11.11-31.77-7.67-48.61,4.32-21.07,16.7-34.28,26.32-41.64,12.77-9.81,21.56-23.83,24.78-39.51,3.23-15.72.68-32.09-7.2-46.09-8.37-14.8-11.08-32.02-7.68-48.58,4.33-21.1,16.7-34.31,26.32-41.68,12.77-9.81,21.56-23.83,24.78-39.51,3.23-15.72.68-32.09-7.2-46.1-8.36-14.79-11.07-32.02-7.68-48.58,4.33-21.1,16.7-34.31,26.33-41.68,12.77-9.81,21.56-23.83,24.78-39.51,3.23-15.72.68-32.09-7.2-46.09-8.47-14.99-11.11-31.77-7.67-48.61,6.78-32.87,36.48-56.78,70.6-56.78,5.5,0,11.05.63,16.51,1.87.2.04.39.09.59.13,18.81,3.99,34.91,14.88,45.32,30.66,11.33,17.17,14.48,37.51,8.87,57.26-3.36,11.82-1.44,24.52,5.26,34.82,6.7,10.3,17.53,17.2,29.7,18.91,20.58,2.9,38.84,14.36,50.1,31.43,11.33,17.18,14.48,37.51,8.87,57.26-3.36,11.8-1.45,24.48,5.23,34.78,6.68,10.29,17.49,17.2,29.64,18.94,20.25,2.9,38.31,14.07,49.57,30.63,7.91,11.64,21.06,18.61,35.13,18.63h.04c14.05,0,27.2-6.95,35.12-18.56,11.34-16.62,29.37-27.76,49.46-30.56,12.18-1.7,23.03-8.59,29.75-18.9,6.72-10.3,8.64-23.01,5.28-34.84-5.61-19.75-2.46-40.08,8.87-57.26,11.25-17.09,29.5-28.53,50.08-31.43,12.17-1.71,23.01-8.61,29.72-18.91,6.71-10.3,8.63-23,5.27-34.83-5.61-19.75-2.46-40.08,8.87-57.26,13.32-20.16,35.93-32.21,60.47-32.21,13.99,0,27.62,4.01,39.42,11.59,16.02,10.33,27.02,26.19,30.91,44.62,3.85,18.24.28,36.93-10.05,52.62-11.23,17.06-29.48,28.5-50.06,31.39-12.17,1.71-23.01,8.61-29.72,18.91s-8.63,23-5.27,34.83c5.29,18.6,2.8,37.71-6.97,54.22-.71.91-1.4,1.86-2.04,2.84-11.23,17.05-29.47,28.5-50.06,31.39-12.17,1.71-23.01,8.61-29.72,18.91-6.71,10.3-8.63,23-5.27,34.83,5.61,19.75,2.46,40.08-8.87,57.26-11.25,17.09-29.5,28.53-50.08,31.42-12.17,1.71-23.01,8.61-29.72,18.91s-8.63,23-5.27,34.83c5.61,19.75,2.46,40.08-8.87,57.26-13.32,20.19-35.92,32.25-60.45,32.25-1.77,0-3.55-.06-5.31-.19-.22-.02-.45-.03-.67-.04-23.08-1.3-43.54-12.98-56.15-32.05-11.31-17.14-14.46-37.48-8.85-57.22,3.36-11.82,1.44-24.52-5.26-34.82-6.7-10.3-17.53-17.2-29.7-18.91-20.58-2.9-38.84-14.36-50.1-31.43-11.33-17.18-14.48-37.51-8.87-57.26,3.36-11.83,1.44-24.54-5.28-34.85s-17.57-17.2-29.76-18.89c-5.89-.82-11.5-2.3-16.66-4.39-5.19-2.11-10.61-3.12-15.98-3.12-12.58,0-24.85,5.59-33.11,15.83-3.21,3.98-7.16,7.78-11.73,11.3-12.68,9.74-21.47,23.76-24.69,39.45-3.23,15.72-.68,32.09,7.2,46.09,8.36,14.79,11.07,32.02,7.68,48.58-4.33,21.1-16.7,34.31-26.33,41.68-12.77,9.81-21.56,23.83-24.78,39.51-3.23,15.72-.68,32.09,7.2,46.09,8.47,14.99,11.11,31.77,7.67,48.61-4.32,21.07-16.7,34.28-26.32,41.64-12.77,9.81-21.56,23.83-24.78,39.51-3.23,15.72-.68,32.09,7.2,46.09,8.47,14.99,11.11,31.77,7.67,48.61-6.76,32.81-36.5,56.68-70.71,56.68Z"/>
        <ellipse class="cls-1" cx="913.12" cy="431.66" rx="114.7" ry="113.28"/>
        <path class="cls-1" d="M913.12,502.42c-39.8,0-72.18-31.74-72.18-70.76s32.38-70.76,72.18-70.76,72.18,31.74,72.18,70.76-32.38,70.76-72.18,70.76Z"/>
      </g>
    </g>
  </g>
</svg>