<?xml version="1.0" encoding="UTF-8"?>
<svg id="Layer_2" data-name="Layer 2" xmlns="http://www.w3.org/2000/svg" viewBox="0 0 865.07 979.84">
  <defs>
    <style>
      .cls-1 {
        fill: none;
        stroke: #000;
        stroke-miterlimit: 10;
        stroke-width: 9.5px;
      }
    </style>
  </defs>
  <g id="Layer_2-2" data-name="Layer 2">
    <g id="A-3">
      <path class="cls-1" d="M830.74,888.49c39.27-16.61,39.33-41.85,0-58.54-7.53-3.24-7.53-7.84,0-11.08,18.5-7.95,29.59-18.19,29.59-29.27,0-17.04-26.34-31.99-65.55-40.04,39.41-34.29,48.3-93.36,18.71-138.1-14.53-21.95-35.86-36.8-59.49-43.49-10.77-3.03-17.67-13.49-16.31-24.57,3.14-24.25-2.09-49.66-16.73-71.72-14.53-21.95-35.86-36.8-59.49-43.49-10.77-3.03-17.67-13.49-16.31-24.57,7.63-49.93-27.23-102.53-76.21-115.21-10.77-3.03-17.67-13.49-16.31-24.57,7.65-49.88-27.24-102.56-76.21-115.21-8.47-2.41-14.64-9.51-16.1-17.77,12.37-59.28-31.98-119.66-92.42-125.14-56.23-8.08-111.01,35.02-117.61,90.22-3.56,5.64-9.83,9.3-16.94,9.3-48.18-1-94.85,36.66-103.39,84.26-1.88,9.3-10.14,15.99-19.55,15.99-88.32-.51-138.85,105.19-80.92,173.65,56.32,67.59,167.64,38.8,184.52-46.52,1.88-9.3,10.14-15.89,19.55-15.89,48.3,1.03,94.69-36.78,103.29-84.26.63-2.93,1.78-5.54,3.45-7.84,1.78,3.76,2.51,7.95,1.88,12.34-7.6,50.03,27.2,102.47,76.21,115.21,10.77,3.03,17.67,13.49,16.31,24.57-3.14,24.25,2.09,49.66,16.73,71.72,14.53,21.95,35.86,36.8,59.49,43.49,10.77,3.03,17.67,13.49,16.31,24.57-3.14,24.25,2.09,49.66,16.73,71.72,14.53,21.95,35.86,36.8,59.49,43.49,10.77,3.03,17.67,13.49,16.31,24.57-4.92,33.37,9.2,71.7,36.59,94.19-36.49,8.26-60.74,22.58-60.95,38.89-.1,11.19,10.98,21.43,29.69,29.38,7.42,3.24,7.42,7.84,0,11.08-39.29,16.52-39.27,41.93,0,58.54,7.42,3.24,7.53,7.84,0,11.08-79.74,37.44,15.42,76.99,100.68,75.58,73.91.31,134.13-20.59,134.13-46.42,0-11.08-11.08-21.22-29.59-29.27-7.53-3.24-7.53-7.84,0-11.08,0,0,.42.21.42.21h0Z"/>
      <path class="cls-1" d="M725.96,932.53c-23.67-.12-45.98-2.64-64.86-7.4,7.77-8.51,12.1-19.28,12.13-31.07.03-13.62-5.67-25.9-15.82-34.96,19.35-16.44,21.1-47.7,3.63-66.02,17.46-2.78,32.5-14.89,36.61-32.45,3.84-15.64-1.48-32.11-13.75-42.54-3.98-3.38-7.44-7.08-10.3-11.01-9.59-13.21-13.74-29.31-11.66-45.32,4.46-31.16-16.52-62.91-46.95-70.96-31.63-8.5-50.09-41.64-45.53-69.1,4.31-31.07-16.66-62.65-46.99-70.67-31.5-8.48-49.99-41.4-45.57-68.83,1.97-15.49-1.71-31.23-10.33-44.24-8.61-13-21.62-22.48-36.62-26.71-14.52-4.11-27.17-13.36-35.55-26.03-10.7-16.13-11.38-32.05-10.04-42.63,1.68-12.33-.24-24.81-5.58-36.11-13.42-28.94-54.12-32.94-72.84-6.85-5.26,7.22-8.87,15.43-10.72,24.33-2.93,14.34-10.5,26.81-21.88,36.07-11.25,9.14-25.38,14.19-39.75,14.19-29.62,0-55.37,21.02-61.23,49.98-10.55,51.42-76.61,67.65-110.26,27.63-34.36-40.93-5.14-103.68,48.34-103.81,29.61,0,55.36-21.06,61.23-50.09,2.91-14.22,10.45-26.68,21.8-35.93,11.38-9.18,25.55-14.24,39.92-14.24,26.88.1,54.48-18.51,59.04-45.91,8.14-55.76,78.68-73.67,113.8-30.2,11.3,14.29,15.81,33,12.35,51.3-.96,5.06-.99,10.26-.09,15.33,4.32,24.37,22.51,44.48,46.35,51.25,14.61,4.14,27.26,13.39,35.64,26.06,10.83,16.39,11.39,32.27,9.98,43.07-1.89,15.41,1.79,31.03,10.37,43.97,8.61,13,21.62,22.48,36.62,26.71,14.52,4.11,27.17,13.36,35.55,26.03,10.83,16.39,11.39,32.27,9.98,43.07-1.89,15.41,1.79,31.03,10.37,43.97,8.61,13,21.62,22.48,36.62,26.7,14.52,4.11,27.17,13.36,35.55,26.03,10.83,16.39,11.39,32.27,9.98,43.07-1.89,15.41,1.79,31.03,10.37,43.97,8.61,13,21.62,22.48,36.62,26.71,14.52,4.11,27.17,13.36,35.55,26.03,17.43,26.35,12.63,61.85-11.17,82.55-12.2,10.62-17.32,27.23-13.22,42.88,4.11,15.64,16.73,27.6,32.57,30.85,3.06.63,5.91,1.28,8.55,1.95-17.43,18.1-15.82,49.36,3.28,65.77-10.17,9.03-15.9,21.28-15.9,34.9,0,11.88,4.36,22.71,12.21,31.27-19.9,5.07-43.66,7.51-68.41,7.44h0Z"/>
    </g>
  </g>
</svg>