<?xml version="1.0" encoding="UTF-8"?>
<svg id="Layer_2" data-name="Layer 2" xmlns="http://www.w3.org/2000/svg" viewBox="0 0 984.09 1046.94">
  <defs>
    <style>
      .cls-1 {
        fill: none;
        stroke: #000;
        stroke-miterlimit: 10;
        stroke-width: 9.5px;
      }
    </style>
  </defs>
  <g id="Layer_2-2" data-name="Layer 2">
    <g id="A-4">
      <g>
        <path class="cls-1" d="M505.73,304.67c58.37,0,105.69,47.32,105.69,105.69-5.57,140.2-205.84,140.16-211.39,0,0-58.37,47.32-105.69,105.69-105.69h0Z"/>
        <path class="cls-1" d="M505.73,473.54c-34.83,0-63.17-28.34-63.17-63.17,3.47-83.81,122.89-83.78,126.35,0,0,34.83-28.34,63.17-63.17,63.17h0Z"/>
        <path class="cls-1" d="M539.5,847.35c-21.33-13.28-45.58-18.09-68.79-15.16-9.41,1.15-18.3-4.39-21.33-13.28-14.51-45.79-65.06-77.29-112.59-70.25-9.41,1.15-18.29-4.39-21.33-13.28-7.53-22.06-22.48-41.82-43.8-55.09-49.76-31.05-115.31-15.47-145.84,34.81-45.51,74.65,17.35,170.38,103.19,158.9,9.3-1.15,18.19,4.39,21.22,13.28,14.51,45.79,65.06,77.29,112.59,70.25,9.3-1.15,18.29,4.39,21.33,13.28,7.63,22.16,22.58,42.03,44.12,55.41,121.55,68.33,226.36-99.98,111.23-178.87h0Z"/>
        <path class="cls-1" d="M483.43,999.39c-28.23.47-52.2-20.27-59.06-42.36-9.31-27.75-37.79-45.47-66.87-41.68-28.51,4.04-58.12-14.35-67.03-41.8-8.61-25.25-32.33-42.21-59.02-42.21-5.21-.08-10.36,1.06-15.57.97-11.76,0-23.29-3.34-33.33-9.66-28.81-18.1-37.92-56.48-20.34-85.55,17.13-29.56,58.24-39.35,86.95-20.74,12.21,7.6,21.45,19.22,26.07,32.75,8.61,25.25,32.37,42.22,59.11,42.21,5.22.08,10.39-1.06,15.6-.98,26-.3,51.1,17.49,59.21,42.29,9.29,27.74,37.67,45.47,66.73,41.75,2.64-.34,5.32-.51,7.98-.51,11.6.05,23.25,3.22,33.11,9.62,53.02,33.98,29.88,115.39-33.53,115.88h0Z"/>
        <path class="cls-1" d="M929.76,273.1c-21.33-13.28-45.58-18.09-68.79-15.16-9.41,1.15-18.29-4.39-21.33-13.28-14.55-45.8-65.03-77.28-112.59-70.25-9.41,1.15-18.29-4.39-21.33-13.28-7.53-22.06-22.48-41.82-43.8-55.09-21.54-13.38-46-18.09-69.31-15.05-13.4-75.8-106.21-112.76-168.73-64.61-19.97,15.26-33.04,36.28-38.47,58.96-2.2,9.2-10.56,15.58-19.97,15.26-23.31-.73-47.04,6.17-67.12,21.43-19.97,15.26-33.04,36.28-38.47,58.96-2.2,9.2-10.56,15.58-19.97,15.26-62.11-3.04-114.67,53.46-108.2,114.58-64.45-13.73-127.75,37.52-126.92,103.6-.5,63.48,57.27,113.68,120.02,104.75,9.15,53.03,62.76,92.21,116.25,84.47,9.3-1.15,18.19,4.39,21.22,13.28,14.5,45.75,65.06,77.31,112.59,70.25,9.3-1.15,18.29,4.39,21.33,13.28,27.34,82.17,140.97,96.69,188.07,22.89,31.78-49.45,16.94-115.21-32.72-146.25-21.33-13.28-45.58-18.09-68.79-15.16-9.41,1.15-18.3-4.39-21.33-13.28-14.52-45.82-65.07-77.27-112.59-70.25-9.41,1.15-18.29-4.39-21.33-13.28-7.53-22.06-22.48-41.82-43.8-55.09-5.12-3.14-10.35-5.85-15.79-8.05,11.29-3.45,22.16-8.99,32.09-16.52,20.18-15.26,33.35-36.38,38.79-59.28,2.2-9.2,10.56-15.47,19.97-15.16,47.97,2.63,95.47-33.39,105.59-80.39,1.78-7.32,7.53-12.96,14.64-14.64,7.94.72,16.25.52,24.15-.52,9.12,53.05,62.81,92.2,116.25,84.47,9.3-1.15,18.19,4.39,21.22,13.28,14.47,45.77,65.1,77.3,112.59,70.25,9.3-1.15,18.29,4.39,21.33,13.28,27.26,82.2,141.07,96.65,188.07,22.89,32.02-49.77,16.55-115.13-32.83-146.57h0Z"/>
        <path class="cls-1" d="M495.45,729.04c-28.25.45-52.22-20.26-59.08-42.42-9.29-27.64-37.71-45.38-66.75-41.63-2.62.33-5.29.5-7.93.5-11.66,0-23.13-3.31-33.18-9.56-12.17-7.58-21.42-19.2-26.03-32.73-9.29-27.75-37.65-45.49-66.68-41.74-2.61.33-5.28.5-7.91.5-29.25.38-56.23-21.84-61.38-50.84-3.91-20.23-21.62-34.46-41.7-34.46-1.87,0-3.76.12-5.66.38-37.47,5.39-72.21-24.62-71.88-62.61,0-34.83,28.34-63.17,63.17-63.17,7.03-.3,14.15,2.07,21.22,2.09,10.39,0,20.53-3.81,28.41-10.88,9.94-8.93,15.11-22.01,13.95-35.33-3.89-37.79,28.76-71.14,66.51-68.36,28.98,0,53.92-19.71,60.66-47.92,6.41-28.91,35.33-49.96,64.9-47.73,28.98,0,53.92-19.71,60.66-47.93,6.14-27.36,32.59-48.31,60.81-47.85,30.77-.53,57.61,21.25,63.25,51.47,3.81,20.33,21.58,34.68,41.75,34.68,4.54,0,9.13-1.01,13.69-.89,11.7,0,23.19,3.3,33.23,9.53,12.14,7.56,21.39,19.18,26,32.71,8.61,25.25,32.37,42.22,59.11,42.22,5.22.08,10.39-1.06,15.6-.98,11.66,0,23.13,3.31,33.18,9.56,12.17,7.58,21.42,19.2,26.03,32.73,8.62,25.25,32.37,42.22,59.11,42.22,5.22.08,10.39-1.06,15.6-.98,10.63,0,21.1,2.75,30.48,7.97,15.42,9.24,26.88,23.59,30.69,41.36,12.05,54.07-46.99,95.95-94.26,67.06-15.65-9.73-22.95-23.36-26.3-33.09-8.64-25.2-32.38-42.12-59.09-42.12-5.21-.08-10.37,1.06-15.58.98-11.66,0-23.13-3.31-33.18-9.56-12.17-7.58-21.42-19.2-26.03-32.73-8.61-25.25-32.33-42.22-59.02-42.22-5.21-.08-10.36,1.06-15.57.97-11.76,0-23.29-3.34-33.33-9.66-14.55-9.12-24.75-24.12-28.05-41.18-3.91-20.23-21.62-34.46-41.7-34.46-4.8.01-9.49,1.07-14.37.95-4.01.03-6.28-.38-9.83-.42-3.27,0-6.54.38-9.74,1.13-22.93,5.4-40.64,23.02-46.22,45.99-3.36,14.16-11.28,26.33-22.89,35.15-12.07,9.26-26.89,13.53-42.06,12.75-28.99,0-53.93,19.66-60.65,47.82-3.37,14.19-11.35,26.36-23.08,35.24-5.88,4.45-12.21,7.73-18.87,9.76-38.05,11.73-40.5,65.02-3.5,80.09,16.26,6.49,29.7,20.78,35.27,37.45,9.28,27.74,37.67,45.46,66.73,41.75,2.64-.34,5.32-.51,7.98-.51,11.66,0,23.13,3.31,33.18,9.56,12.17,7.58,21.42,19.2,26.03,32.73,9.28,27.74,37.67,45.46,66.73,41.75,31.1-4.53,62.76,17.55,69.05,48.51,9.28,38.36-21.77,77.14-61.49,76.38h0Z"/>
      </g>
    </g>
  </g>
</svg>