<?xml version="1.0" encoding="UTF-8"?>
<svg id="Layer_2" data-name="Layer 2" xmlns="http://www.w3.org/2000/svg" viewBox="0 0 969.34 1035.48">
  <defs>
    <style>
      .cls-1 {
        stroke-miterlimit: 10;
      }

      .cls-1, .cls-2, .cls-3 {
        fill: none;
        stroke: #000;
        stroke-width: 9.5px;
      }

      .cls-2 {
        stroke-miterlimit: 10;
      }

      .cls-3 {
        stroke-miterlimit: 10;
      }
    </style>
  </defs>
  <g id="Layer_2-2" data-name="Layer 2">
    <g id="A-5">
      <path class="cls-1" d="M474.42,392.84c4.5-10.56,16-16.2,27.08-13.28,49.63,14.33,107.56-14.18,126.71-62.1,4.5-10.56,16-16.2,27.08-13.28,49.79,14.28,107.41-14.07,126.71-62.1,4.5-10.45,16-16.2,27.08-13.28,85.65,23.08,162.53-65,126.81-147.51C911.2,24.22,844.19-.13,788.88,26.94c-24.25,11.81-42.03,31.57-51.85,54.57-4.5,10.56-16,16.2-27.08,13.28-49.74-14.29-107.4,14.18-126.71,62.1-4.5,10.56-16,16.2-27.08,13.28-49.68-14.27-107.51,14.12-126.71,62.1-4.5,10.56-16,16.2-27.08,13.28-49.63-14.28-107.54,14.13-126.71,62.1-4.5,10.45-16,16.2-27.08,13.28-25.72-6.69-54.05-4.08-79.45,9.83-59.1,31.22-74.41,113.89-31.05,164.34,7.21,10.04,16.2,19.03,26.97,26.34,22.27,15.26,48.19,21.01,73.08,18.3,11.4-1.25,21.95,5.96,24.88,17.04,12.27,50.47,64.97,86.48,116.46,79.77,11.39-1.25,21.95,5.96,24.88,17.04,6.38,24.15,21.12,46.21,43.39,61.47,22.27,15.26,48.19,21.01,73.08,18.29,11.4-1.25,21.95,5.96,24.88,17.04,1.36,5.12,3.14,10.14,5.23,14.95-4.08,3.45-7.84,7.21-11.29,11.29-7.42,8.68-20.18,10.56-29.79,4.39-21.12-13.38-46.94-19.55-73.7-15.58-26.66,3.97-49.66,17.35-65.97,36.28-7.42,8.68-20.18,10.56-29.79,4.39-21.12-13.38-46.94-19.55-73.7-15.58-26.66,3.97-49.66,17.35-65.97,36.28-7.42,8.68-20.18,10.56-29.79,4.5-74.61-48.07-174.71,12.84-165.6,102.14,9.33,94.64,128.73,131.14,189.54,60.01,7.42-8.68,20.18-10.56,29.79-4.39,43.27,28.64,106.53,19.3,139.67-20.7,7.42-8.68,20.18-10.56,29.8-4.39,21.12,13.38,46.94,19.55,73.7,15.58,26.66-3.97,49.66-17.35,65.97-36.28,7.42-8.68,20.18-10.56,29.79-4.39,43.15,28.63,106.6,19.29,139.67-20.7,7.42-8.68,20.18-10.56,29.8-4.49,60.7,39.63,145.83,5.43,162.67-65.13,21.03-72.24-40.66-145.77-116.15-136.64-11.39,1.25-21.95-5.96-24.88-17.04-12.29-50.5-64.96-86.47-116.46-79.77-11.39,1.25-21.95-5.96-24.88-17.04-6.38-24.15-21.12-46.21-43.39-61.47-22.27-15.26-48.19-21.01-73.08-18.29-11.4,1.25-21.95-5.96-24.88-17.04-6.06-22.9-19.65-43.91-39.94-58.96,19.43-12.06,33.84-29.5,42.34-49.45h0Z"/>
      <path class="cls-1" d="M112.78,988.41c-79-2.11-89.67-112.56-12.32-130.12,16.39-3.26,33.54-.07,47.73,8.94,10.52,6.64,22.61,10.12,35,10.12,19.17,0,37.29-8.31,49.74-22.81,10.21-11.84,24.42-19.64,40.01-21.97,15.45-2.34,31.38.99,44.62,9.4,26.52,17.48,64.52,11.9,84.83-12.53,12.26-14.32,30.85-22.76,49.8-22.69,12.31,0,24.35,3.5,34.83,10.13,26.55,17.51,64.64,11.88,84.92-12.63,1.96-2.33,4.12-4.51,6.45-6.47,14.32-12.12,19.01-32.2,11.53-49.41-1.3-2.98-2.35-5.98-3.12-8.9-8.04-31.12-38.66-52.1-70.63-48.4-2.39.26-4.85.39-7.27.39-29.06.42-56.38-20.6-63.43-48.75-7.6-28.76-33.68-48.84-63.42-48.84-4.85-.06-9.63.86-14.49.79-13.31,0-26.14-3.98-37.11-11.5-12.97-8.89-22.32-22.12-26.31-37.26-7.6-28.76-33.68-48.85-63.42-48.85-4.85-.06-9.63.86-14.49.79-13.36,0-26.25-4.01-37.25-11.59-7.15-4.72-13-11.23-18.1-18.27-4.1-4.96-7.48-10.49-10.04-16.41-18.64-42.41,13.85-92.27,60.31-91.66,5.62,0,11.25.72,16.73,2.14,30.85,8.4,64.53-8.12,76.87-37.62,12.04-29.37,46.29-46.32,76.79-37.78,30.93,8.52,64.79-8.06,77.05-37.73,6.16-14.42,17.3-26.16,31.35-33,9.06-4.5,18.76-6.8,28.8-6.8,5.59,0,11.17.73,16.58,2.16,30.92,8.52,64.8-8.07,77.05-37.73,9.74-23.41,34.57-40.09,60.15-39.8,5.59,0,11.17.72,16.58,2.15,5.47,1.45,11.11,2.18,16.76,2.18,26.31,0,49.98-15.67,60.3-39.91,6.16-14.42,17.3-26.16,31.35-33,32.74-16.77,75.34-1.02,89.34,33.01,13.26,30.74.64,67.44-28.74,83.51-14.79,8.13-32.06,10.23-48.29,5.99-30.86-8.36-64.54,8.07-76.89,37.62-12.04,29.39-46.29,46.32-76.79,37.78-30.94-8.46-64.79,8.02-77.05,37.73-6.16,14.42-17.3,26.16-31.35,33-9.06,4.51-18.76,6.8-28.8,6.8-5.59,0-11.17-.73-16.58-2.15-30.48-8.35-63.93,7.58-76.54,36.55-5.29,12.92-14.27,23.81-26.18,31.17-25.29,15.28-26.85,52.95-2.89,70.25,11.99,8.9,20.35,21.24,24.18,35.71,7.59,28.73,33.67,48.82,63.42,48.82,4.85.06,9.63-.86,14.49-.79,29.06-.42,56.38,20.6,63.43,48.75,7.6,28.76,33.68,48.85,63.42,48.85,4.85.06,9.63-.86,14.49-.79,13.31,0,26.14,3.98,37.11,11.5,12.97,8.89,22.32,22.12,26.32,37.26,7.6,28.76,33.68,48.85,63.42,48.85,4.85.06,9.63-.86,14.49-.79,42.56-.73,75.44,42.49,63.27,83.32-6.82,29.49-34.02,51.16-64.04,50.83-12.32,0-24.41-3.52-34.95-10.19-10.52-6.63-22.61-10.12-35-10.12-19.17,0-37.29,8.31-49.74,22.8-12.26,14.34-30.85,22.76-49.8,22.7-12.32,0-24.37-3.51-34.85-10.14-10.52-6.7-22.67-10.25-35.15-10.25-19.13,0-37.22,8.3-49.66,22.78-10.21,11.84-24.42,19.65-40.02,21.97-15.45,2.33-31.4-.99-44.64-9.41-10.52-6.7-22.67-10.25-35.15-10.25-19.15,0-37.26,8.32-49.7,22.83-10.21,11.81-24.4,19.6-39.97,21.92-15.44,2.33-31.38-.99-44.61-9.4-26.52-17.54-64.6-11.87-84.88,12.57-12.28,14.33-30.88,22.71-49.83,22.66h0Z"/>
      <path class="cls-3" d="M480.56,37.83c60.51-34.92,120.91-43.57,134.91-19.31,29.31,60.42-181.56,182.05-219.12,126.46-14-24.25,23.71-72.22,84.22-107.14h0Z"/>
      <path class="cls-3" d="M451.16,113.37c22.09-24.33,70.6-54.1,109.49-63.26-22.09,24.33-70.6,54.1-109.49,63.26h0Z"/>
      <path class="cls-2" d="M826.73,279.85c61.62-32.93,122.27-39.6,135.46-14.9,27.32,61.35-187.4,176.03-223.13,119.24-13.2-24.7,26.05-71.41,87.67-104.34h0Z"/>
      <path class="cls-2" d="M794.96,354.32c22.36-23.94,78.12-53.95,111.34-59.5-22.36,23.94-78.13,53.95-111.34,59.5h0Z"/>
    </g>
  </g>
</svg>