<?xml version="1.0" encoding="UTF-8"?>
<svg id="Layer_2" data-name="Layer 2" xmlns="http://www.w3.org/2000/svg" viewBox="0 0 947.19 792.67">
  <defs>
    <style>
      .cls-1 {
        fill: none;
        stroke: #000;
        stroke-miterlimit: 10;
        stroke-width: 9.5px;
      }
    </style>
  </defs>
  <g id="Layer_2-2" data-name="Layer 2">
    <g id="A-6">
      <path class="cls-1" d="M942.4,247.6c1.17-66.77-63.31-118.74-128.17-103.92-19.39,3.6-38.88,13.27-54.05,27.39-7.42,2.61-15.89,1.15-22.16-4.18-37.52-33.86-100.49-33.88-138,0-8.47,7.32-21.01,7.32-29.48,0-37.47-33.85-100.52-33.88-138,0-8.47,7.32-21.01,7.32-29.48,0-37.42-33.84-100.55-33.89-138,0-8.47,7.32-21.01,7.32-29.48,0-65.21-57.12-170.83-12.73-174.8,75.06-4.55,93.01,105.71,145.48,174.69,85.41,8.47-7.32,21.01-7.32,29.48,0,18.5,16,42.65,25.61,69,25.61s50.49-9.62,69-25.61c8.47-7.32,21.01-7.32,29.48,0,18.5,16,42.65,25.61,69,25.61s50.49-9.62,69-25.61c7.21-6.27,17.56-7.11,25.61-2.61-1.36,4.18-2.51,8.47-3.24,12.86-2.2,11.29-12.23,19.34-23.73,18.92-51.74-3.13-102.41,37.34-110.92,88.44-2.2,11.29-12.23,19.34-23.73,18.92-51.89-3.03-102.28,37.19-110.92,88.44-2.2,11.29-12.23,19.34-23.63,18.92-88.7-3.84-145.32,98.95-92.62,171.87,36.38,50.39,107.26,59.48,155.56,21.01,21.22-16.94,34.4-40.04,39.1-64.71,2.2-11.29,12.23-19.34,23.73-18.92,25.09.94,50.6-6.8,71.82-23.73,21.22-16.94,34.4-40.04,39.1-64.71,2.2-11.29,12.23-19.34,23.73-18.92,51.73,3.11,102.41-37.32,110.92-88.44,2.2-11.29,12.23-19.34,23.73-18.92,51.87,3.02,102.28-37.17,110.92-88.44,2.2-11.29,12.23-19.34,23.63-18.92,61.17,3.11,114.62-49.71,112.91-110.82h0Z"/>
      <path class="cls-1" d="M294.96,745.4c-60.48.24-88.1-75.33-42.8-115.13,13.58-11.95,30.75-17.49,48.57-16.47,31.37,0,58.5-22.43,64.52-53.34,2.98-15.8,11.24-29.51,23.88-39.59,13.18-10.63,29.48-15.42,46.16-14.43,31.43,0,58.6-22.44,64.61-53.34,2.98-15.8,11.24-29.51,23.88-39.59,13.17-10.63,29.48-15.42,46.16-14.43,31.81.03,59.32-23.07,64.81-54.46.31-1.89.88-4.08,1.74-6.71,6.28-19.31-1.98-40.37-19.71-50.27-23.19-13.27-54.2-10.14-74.18,7.6-22.61,20.18-59.76,20.16-82.35-.03-23.49-20.97-61.59-20.98-85.09,0-22.6,20.22-59.79,20.21-82.39,0-11.82-10.22-26.93-15.84-42.55-15.84-15.62,0-30.73,5.62-42.54,15.84-24.33,21.77-64.84,19.87-86.93-4.32-37.36-38.59-11.1-104.55,42.79-107.01,16.11-.82,32.02,4.66,44.3,15.25,23.46,20.93,61.57,20.91,85.04-.04,22.62-20.2,59.77-20.22,82.39,0,11.82,10.22,26.93,15.84,42.55,15.84,15.62,0,30.72-5.62,42.54-15.84,11.39-9.84,26.02-15.26,41.2-15.26s29.81,5.42,41.19,15.26c11.82,10.22,26.93,15.84,42.55,15.84,15.62,0,30.72-5.62,42.54-15.84,11.39-9.84,26.02-15.26,41.2-15.26,15.3,0,30.04,5.51,41.46,15.49,11.81,10.04,26.83,15.57,42.29,15.57,7.36,0,14.61-1.24,21.54-3.68,5.29-1.86,10.15-4.75,14.32-8.5,1.55-1.4,3.11-2.73,4.64-3.97,12.14-9.66,27.84-14.71,43.34-14.91,33.19-.69,62.91,28.07,63.25,61.25.79,20.7-6.93,40.84-22.65,54.38-13.56,11.94-30.74,17.48-48.56,16.45-31.37,0-58.51,22.43-64.52,53.34-5.46,32.45-37.38,56.77-70.04,54.02-31.43,0-58.6,22.43-64.61,53.34-2.98,15.8-11.24,29.51-23.88,39.59-13.18,10.63-29.47,15.42-46.16,14.43-31.43,0-58.6,22.43-64.61,53.34-5.19,30.57-34.13,54.6-65.1,54.12-33.09-2.34-63.42,20.64-69.58,53.4-5.28,30.58-34.15,54.42-65.19,53.93h0Z"/>
      <path class="cls-1" d="M131.25,4.75c69.86,0,126.5,22.7,126.5,50.7-4.82,66.98-248.25,66.92-253,0,0-28,56.64-50.7,126.5-50.7h0Z"/>
      <path class="cls-1" d="M131.25,63.64c-27.28,0-48.41-3.8-63.13-8.18,14.72-4.39,35.84-8.18,63.13-8.18s48.41,3.8,63.12,8.18c-14.72,4.39-35.84,8.18-63.12,8.18,0,0,27.28,0,0,0Z"/>
    </g>
  </g>
</svg>