<?xml version="1.0" encoding="UTF-8"?>
<svg id="Layer_2" data-name="Layer 2" xmlns="http://www.w3.org/2000/svg" viewBox="0 0 917.37 864.36">
  <defs>
    <style>
      .cls-1 {
        fill: none;
        stroke: #000;
        stroke-miterlimit: 10;
        stroke-width: 9.5px;
      }
    </style>
  </defs>
  <g id="Layer_2-2" data-name="Layer 2">
    <g id="A-7">
      <g>
        <path class="cls-1" d="M843.64,41.67c-38.32-13.99-80.3-3.87-108.5,22.93-1.4,1.08-2.69,2.15-3.98,3.23-24,20.34-36.49,49.19-36.92,78.36-28.85-4.31-59.31,3.44-83.2,23.79-24,20.34-36.49,49.19-36.92,78.36-28.85-4.31-59.31,3.44-83.2,23.79-24,20.34-36.49,49.19-36.92,78.36-.97-.11-2.05-.32-3.12-.43-4.31-22.17-15.82-43.16-34.23-59.09-18.94-16.47-42.19-24.86-65.44-25.62-9.36-.32-17.33-7.21-18.94-16.47-3.98-22.93-15.61-44.67-34.66-61.14-18.94-16.47-42.19-24.86-65.44-25.62-9.36-.32-17.33-7.21-18.94-16.47-3.98-22.93-15.61-44.67-34.66-61.14-44.24-38.32-111.3-33.26-149.18,11.62C-7.44,139.73-2.38,205.49,40.57,242.95c19.05,16.58,42.41,25.19,65.77,25.83,9.36.32,17.22,7.21,18.94,16.47,3.98,22.93,15.61,44.67,34.66,61.14,18.94,16.47,42.19,24.86,65.44,25.62,9.36.32,17.33,7.1,18.94,16.36,3.98,23.03,15.71,44.99,34.87,61.46,16.47,14.21,36.27,22.39,56.51,24.65,3.34,17.01,10.98,33.37,22.93,47.47,37.46,44.13,103.65,49.51,147.68,11.95,24-20.34,36.49-49.19,36.92-78.36,10.33,1.51,20.77,1.51,31.11,0,.65,8.4,2.26,16.68,4.84,24.54,3.44,10.55-1.4,22.07-11.3,27.02-21.74,10.87-39.83,29.28-49.94,53.39-10.12,24.11-10.55,49.94-3.01,73.08,3.44,10.55-1.4,22.07-11.3,27.02-21.74,10.87-39.83,29.28-49.94,53.39-23.03,55.11,4.31,118.72,61.14,139.39,50.7,18.41,107.74-5.06,130.78-53.71,12.06-25.4,13.02-53.06,4.95-77.61-3.44-10.55,1.4-22.07,11.3-27.02,21.74-10.87,39.83-29.28,49.94-53.39,10.12-24.22,10.55-49.94,3.01-73.08-3.44-10.55,1.4-22.07,11.3-27.02,21.74-10.87,39.83-29.28,49.94-53.39,10.12-24.11,10.55-49.94,3.01-73.08-3.44-10.55,1.4-22.07,11.3-27.02,21.74-10.87,39.83-29.28,49.94-53.39,10.12-24.11,10.55-49.94,3.01-73.08-2.37-7.32-.75-15.18,3.77-20.88,6.89-3.55,13.45-7.97,19.59-13.24h0c16.25-11.09,29.6-26.8,37.78-46.28,23.03-55.11-4.31-118.72-61.14-139.39h0l.32-.11Z"/>
        <path class="cls-1" d="M550.36,817.09c-7.19,0-14.27-1.25-21.04-3.71-16.29-5.92-29.08-17.89-36-33.68-6.95-15.85-7.09-33.37-.42-49.34,5.78-13.76,16.34-25.06,29.73-31.75s24.85-18.67,30.86-33.01c6.02-14.38,6.68-30.44,1.85-45.24-4.62-14.2-3.99-29.64,1.8-43.43,5.8-13.82,16.37-25.12,29.75-31.81s24.85-18.67,30.86-33.01c6.02-14.38,6.68-30.44,1.85-45.24-1.52-4.63-2.48-9.51-2.87-14.6-.9-11.74-6.64-22.59-15.84-29.95-7.58-6.07-16.96-9.31-26.56-9.31-2.04,0-4.09.15-6.14.45-3.12.45-6.29.69-9.42.69s-6.3-.23-9.42-.69c-2.04-.3-4.1-.45-6.14-.45-10.04,0-19.83,3.56-27.57,10.15-9.32,7.94-14.76,19.5-14.94,31.74-.27,18.01-8.25,34.98-21.9,46.55-.04.03-.07.06-.11.09-11.21,9.56-25.48,14.83-40.2,14.83-18.32,0-35.62-8-47.46-21.95-6.89-8.13-11.6-17.87-13.62-28.14-3.57-18.22-18.55-32.01-37-34.07-12.43-1.39-24-6.43-33.45-14.59-10.96-9.42-18.3-22.37-20.75-36.51-5.05-28.92-30.01-50.6-59.38-51.61-10.24-.33-25.24-3.24-39.01-15.21-.03-.03-.06-.05-.09-.08-10.99-9.5-18.1-22.03-20.57-36.25-.03-.17-.06-.34-.09-.5-2.58-13.87-9.85-26.6-20.47-35.86-10.77-9.39-24.56-14.83-38.81-15.32-.1,0-.19,0-.29,0-14.2-.39-28.06-5.86-39.03-15.41-25.49-22.23-28.48-61.41-6.62-87.3,11.93-14.14,29.37-22.24,47.85-22.24,15.04,0,29.6,5.44,41,15.32,11.02,9.53,18.14,22.06,20.6,36.27,5.05,28.95,30.02,50.67,59.37,51.69,10.24.33,25.24,3.24,39.01,15.21.03.03.06.05.09.08,10.99,9.5,18.1,22.03,20.57,36.25,5.05,28.95,30.02,50.67,59.37,51.69,10.24.33,25.24,3.24,39.01,15.21,10.69,9.25,17.72,21.37,20.38,35.11,3.54,18.23,18.48,32.02,36.88,34.14l.12.02c.73.11,1.83.28,3.17.43,1.57.17,3.13.26,4.69.26,10.3,0,20.32-3.75,28.12-10.63,8.99-7.93,14.21-19.28,14.39-31.26.27-18.01,8.25-34.98,21.9-46.55,11.28-9.6,25.53-14.85,40.21-14.85,3.08,0,6.18.23,9.22.68,2.09.31,4.19.47,6.28.47,10.01,0,19.78-3.54,27.52-10.11,9.35-7.94,14.81-19.52,15-31.78.27-18.02,8.25-34.98,21.9-46.55,11.28-9.6,25.53-14.85,40.21-14.85,3.08,0,6.18.23,9.22.68,2.09.31,4.19.47,6.28.47,10.01,0,19.78-3.54,27.52-10.11,9.35-7.94,14.81-19.52,15-31.79.27-17.96,8.2-34.88,21.77-46.45.99-.83,1.84-1.53,2.54-2.07,1.17-.9,2.3-1.86,3.37-2.88,11.71-11.13,27.63-17.51,43.68-17.51,6.02,0,11.95.88,17.69,2.62.97.44,1.97.84,2.98,1.21,16.3,5.93,29.1,17.89,36.02,33.69,6.95,15.85,7.09,33.37.42,49.34-4.69,11.16-12.48,20.71-22.51,27.55-1.3.89-2.56,1.85-3.76,2.88-3.54,3.04-7.36,5.63-11.36,7.69-5.37,2.77-10.09,6.65-13.84,11.38-13.53,17.07-17.6,39.64-10.9,60.37,4.66,14.32,4.03,29.75-1.76,43.55-5.8,13.82-16.37,25.12-29.75,31.81-13.89,6.94-24.85,18.67-30.86,33.01-6.02,14.38-6.68,30.44-1.85,45.24,4.62,14.2,3.99,29.64-1.8,43.43-5.8,13.82-16.37,25.12-29.75,31.81-13.89,6.94-24.85,18.67-30.86,33.01-6.02,14.38-6.68,30.44-1.85,45.24,4.68,14.37,4.05,29.42-1.83,43.5-5.77,13.76-16.34,25.06-29.73,31.75s-24.85,18.67-30.86,33.01c-6.02,14.38-6.68,30.44-1.85,45.24,5.02,15.26,3.96,31.62-2.94,46.18-10.27,21.69-32.56,35.68-56.81,35.68h0Z"/>
        <circle class="cls-1" cx="454.21" cy="109.8" r="105.05"/>
        <path class="cls-1" d="M454.21,172.34c-34.48,0-62.53-28.05-62.53-62.53s28.05-62.53,62.53-62.53,62.53,28.05,62.53,62.53-28.05,62.53-62.53,62.53Z"/>
      </g>
    </g>
  </g>
</svg>