<?xml version="1.0" encoding="UTF-8"?>
<svg id="Layer_2" data-name="Layer 2" xmlns="http://www.w3.org/2000/svg" viewBox="0 0 722.73 967.61">
  <defs>
    <style>
      .cls-1 {
        fill: none;
        stroke: #000;
        stroke-miterlimit: 10;
        stroke-width: 9.5px;
      }
    </style>
  </defs>
  <g id="Layer_2-2" data-name="Layer 2">
    <g id="A-8">
      <path class="cls-1" d="M707.18,811.66c-11.52-23.57-30.57-40.9-52.96-50.48-10.23-4.41-15.71-15.61-12.81-26.37,6.24-23.46,4.31-49.19-7.1-72.76-11.41-23.57-30.57-40.9-52.96-50.48-10.23-4.41-15.71-15.61-12.81-26.37,6.24-23.46,4.31-49.19-7.1-72.76-11.52-23.57-30.57-40.9-52.96-50.48-10.23-4.41-15.71-15.61-12.81-26.37,6.24-23.46,4.31-49.19-7.1-72.76-11.52-23.57-30.57-40.9-52.96-50.48-10.23-4.41-15.71-15.61-12.81-26.37,6.57-24.97,4.09-52.42-9.36-77.17-12.16-22.28-31.43-38.53-53.6-47.25,16.25-53.71-12.81-111.19-66.41-129.49-33.37-11.41-68.46-5.06-95.04,14.1-12.16-16.04-29.06-28.74-49.51-35.74C94.09-8.31,34.56,20.86,15.84,75.65c-18.73,54.79,10.55,114.31,65.23,133.04,33.37,11.41,68.46,5.06,95.04-14.1,11.19,14.75,26.37,26.59,44.56,33.91-7.53,24.54-6.03,51.88,6.03,76.74,11.52,23.57,30.57,40.9,52.96,50.48,10.23,4.41,15.71,15.61,12.81,26.37-6.24,23.46-4.31,49.19,7.1,72.76,9.79,20.24,25.29,35.74,43.59,45.85-9.15,7-17.44,15.61-24.11,25.83-13.89,20.99-19.16,45.1-16.9,68.24.97,9.36-4.84,18.08-13.89,20.99-22.17,7-42.3,21.42-56.08,42.3-13.78,20.88-19.16,45.1-16.9,68.24.97,9.36-4.84,18.08-13.89,20.99-22.17,7-42.3,21.42-56.08,42.3-5.38,8.18-9.58,16.9-12.38,25.94h-63.61c-35.63,0-64.58,28.95-64.58,64.58v9.69c0,35.63,28.95,64.58,64.58,64.58h177.28c19.48,0,36.81-8.61,48.65-22.17,9.69-7.1,18.3-15.93,25.29-26.48,13.99-21.1,19.37-45.31,17.01-68.56-.97-9.36,4.84-18.08,13.89-20.88,22.17-7,42.3-21.42,56.08-42.3,13.89-20.99,19.16-45.1,16.9-68.24-.86-9.04,4.41-17.54,12.92-20.67-5.06,22.5-2.91,46.82,8.07,69.1,11.52,23.57,30.57,40.9,52.96,50.48,10.23,4.41,15.71,15.61,12.81,26.37-6.57,24.97-4.09,52.42,9.36,77.17,25.83,47.36,84.17,67.49,133.68,46.18,55.54-23.9,79.33-89.01,53.06-142.72h-.11Z"/>
      <path class="cls-1" d="M613.07,920.34c-23.12,0-44.27-12.45-55.2-32.5-7.65-14.08-9.65-30.39-5.6-45.9,4.02-15.07,2.48-31.07-4.35-45.1-6.8-13.97-18.42-25.06-32.71-31.22-.04-.02-.08-.04-.12-.05-13.89-5.94-24.78-16.34-31.48-30.06-.02-.04-.04-.08-.06-.13-7.91-16.06-6.94-31.15-4.73-40.98,3.42-15.19-1.74-31.03-13.44-41.29-7.88-6.92-17.89-10.56-28.05-10.56-4.92,0-9.88.85-14.65,2.6-26.59,9.76-43.28,36.33-40.59,64.61,0,.04,0,.07,0,.11.99,10.12.05,25.39-10.04,40.65-7.89,11.96-19.74,20.89-33.39,25.21-28.19,8.83-46.44,36.47-43.4,65.81,1.46,14.38-2.04,28.47-10.15,40.69-4.02,6.06-9.07,11.34-15.01,15.69-2.52,1.85-4.83,3.97-6.89,6.32-2.48,2.84-7.94,7.62-16.62,7.62H69.33c-12.17,0-22.06-9.9-22.06-22.06v-9.69c0-12.17,9.9-22.06,22.06-22.06h63.61c18.64,0,35.11-12.14,40.62-29.95,1.58-5.11,4.03-10.2,7.28-15.14,7.83-11.87,19.69-20.81,33.35-25.12.07-.02.15-.05.22-.07,27.97-8.99,46.11-36.59,43.18-65.67-1.38-14.26,2.2-28.69,10.08-40.63,7.86-11.92,19.72-20.86,33.38-25.17.07-.02.14-.05.21-.07,27.97-8.99,46.11-36.59,43.19-65.67-.98-10.12-.02-25.36,10.05-40.58.05-.07.1-.15.15-.22,3.75-5.74,8.57-10.89,14.33-15.3,11.4-8.72,17.63-22.6,16.57-36.91-1.06-14.31-9.27-27.13-21.83-34.07-11.38-6.3-20.34-15.69-25.9-27.17-6.57-13.56-8.09-28.91-4.31-43.23,4.06-15.1,2.52-31.14-4.32-45.2-6.8-13.97-18.42-25.06-32.71-31.22-.04-.02-.08-.03-.12-.05-13.87-5.94-24.75-16.31-31.46-30-6.95-14.38-8.23-30.59-3.61-45.65,6.48-21.12-4.28-43.68-24.78-51.93-10.6-4.27-19.79-11.24-26.57-20.17-8.35-11-21.04-16.81-33.9-16.81-8.62,0-17.31,2.61-24.83,8.03-10.51,7.58-23.39,11.75-36.25,11.75-6.82,0-13.61-1.14-20.18-3.39-32.46-11.12-49.85-46.58-38.75-79.05,8.62-25.2,32.27-42.13,58.85-42.13,6.83,0,13.62,1.14,20.2,3.39,11.76,4.02,21.92,11.35,29.39,21.2,8.35,11.01,21.05,16.83,33.91,16.83,8.62,0,17.31-2.61,24.83-8.03,10.51-7.58,23.39-11.75,36.25-11.75,6.82,0,13.61,1.14,20.18,3.39,15.38,5.25,27.9,16.1,35.29,30.57,7.38,14.44,8.86,30.91,4.18,46.37-6.42,21.2,4.52,43.78,25.14,51.89,13.57,5.34,24.88,15.3,31.84,28.06,7.64,14.06,9.64,30.38,5.59,45.9-4.02,15.06-2.48,31.07,4.35,45.09,6.8,13.97,18.42,25.06,32.71,31.22.04.02.08.04.12.05,13.86,5.93,24.73,16.29,31.44,29.97,6.54,13.55,8.06,28.88,4.28,43.17-4.06,15.1-2.52,31.14,4.32,45.2,6.8,13.97,18.42,25.06,32.71,31.22.04.02.08.04.12.05,13.87,5.94,24.74,16.31,31.45,29.99,6.54,13.55,8.05,28.88,4.26,43.18-4.05,15.09-2.51,31.12,4.33,45.17,6.8,13.97,18.42,25.06,32.71,31.22.04.02.08.04.12.05,13.77,5.89,24.93,16.52,31.41,29.91,6.58,13.59,8.1,28.97,4.29,43.3v-.04c-4.03,15.08-2.5,31.12,4.34,45.16,6.8,13.97,18.42,25.06,32.7,31.22l.12.05c13.89,5.94,24.78,16.34,31.48,30.05.33.68.68,1.35,1.05,2,6.71,15,7.26,31.66,1.51,47.17-6.01,16.23-18.13,28.95-34.12,35.83-7.74,3.33-15.93,5.02-24.35,5.02h0Z"/>
    </g>
  </g>
</svg>