<?xml version="1.0" encoding="UTF-8"?>
<svg id="Layer_2" data-name="Layer 2" xmlns="http://www.w3.org/2000/svg" viewBox="0 0 807.97 922.51">
  <defs>
    <style>
      .cls-1 {
        fill: none;
        stroke: #000;
        stroke-miterlimit: 10;
        stroke-width: 9.5px;
      }
    </style>
  </defs>
  <g id="Layer_2-2" data-name="Layer 2">
    <g id="A-9">
      <path class="cls-1" d="M794.88,69.43c-21.85-52.63-82.56-78.36-135.62-57.37-23.46,9.26-41.76,26.16-53.17,46.61-4.52,8.18-14.32,12.06-23.25,9.26-22.28-7-46.93-6.57-70.29,2.69-23.36,9.26-41.44,26.05-52.85,46.39-3.77,6.78-11.09,10.66-18.51,10.23-10.98-3.87-22.71-6.03-34.98-6.03-16.9,0-32.83,3.87-47.04,10.98-48.44,23.57-71.69,81.05-52.2,132.07,6.35,16.47,16.36,30.46,28.74,41.33-21.42,19.16-34.87,46.93-34.98,77.82,0,31.43,13.67,59.63,35.52,78.9-21.96,19.16-35.84,47.36-35.95,78.79,0,29.92,12.38,56.94,32.51,76.1-8.93,7.97-16.36,17.22-22.07,27.55-4.52,8.18-14.32,12.06-23.25,9.26-22.28-7-46.93-6.57-70.29,2.69-23.36,9.36-41.44,26.05-52.85,46.39-4.52,8.18-14.32,12.16-23.25,9.36-22.39-7-47.14-6.67-70.61,2.8-52.85,21.31-79.22,81.7-58.88,134.97,20.99,54.79,82.66,81.7,137.02,60.06,23.36-9.36,41.44-26.05,52.85-46.39,4.63-8.18,14.32-12.16,23.36-9.26,22.28,7,46.93,6.57,70.29-2.69,23.36-9.36,41.44-26.05,52.85-46.39,3.23-5.81,9.04-9.47,15.39-10.12,12.59,5.49,26.59,8.5,41.22,8.5,57.91.11,104.94-46.61,105.05-104.51,0-20.88-6.03-40.26-16.47-56.62-5.06-8.61-11.3-16.36-18.3-23.03,21.53-19.16,35.09-47.04,35.2-78.04,0-31.43-13.67-59.63-35.52-78.9,21.96-19.16,35.84-47.36,35.95-78.79,0-31.32-13.56-59.52-35.41-78.79,4.95-4.41,9.36-9.15,13.24-14.32,3.66-4.74,7-9.69,9.9-15.07,4.95-6.89,13.78-9.9,22.07-7.32,22.28,7,46.93,6.57,70.29-2.69,23.36-9.36,41.44-26.05,52.85-46.39,4.63-8.18,14.32-12.16,23.36-9.26,22.28,7,46.93,6.57,70.29-2.69,54.36-21.63,80.62-83.63,58.02-137.88h0l-.22-.22Z"/>
      <path class="cls-1" d="M109.8,875.24c-25.76,0-49.26-16.17-58.48-40.23-12.07-31.61,3.66-67.66,35.07-80.33,7.48-3.02,15.28-4.54,23.21-4.54,6.33,0,12.67.97,18.81,2.9,5.98,1.87,12.21,2.83,18.51,2.83,22.67,0,43.55-12.28,54.55-32.06,7.11-12.64,17.99-22.19,31.45-27.61,7.52-2.97,15.34-4.48,23.24-4.48,6.3,0,12.54.96,18.57,2.85,6.06,1.9,12.32,2.86,18.64,2.86,22.71,0,43.61-12.31,54.56-32.11,3.37-6.1,7.79-11.61,13.15-16.39,8.87-7.91,14.02-19.16,14.22-31.04.19-11.88-4.59-23.3-13.2-31.49-12.43-11.83-19.28-27.88-19.3-45.21.08-17.98,7.87-35.05,21.39-46.84,9.22-8.05,14.53-19.68,14.56-31.93.03-12.24-5.21-23.91-14.4-32-13.4-11.82-21.1-28.91-21.12-46.92.08-17.61,7.66-34.46,20.81-46.22,9.07-8.11,14.23-19.72,14.17-31.88-.06-12.17-5.32-23.73-14.46-31.75-7.62-6.69-13.37-14.98-17.1-24.63-11.42-30.03,2.24-64.54,31.12-78.59.14-.07.27-.13.41-.2,8.61-4.31,18.04-6.49,28.02-6.49,7.05,0,14.06,1.21,20.83,3.6,3.77,1.33,7.7,2.12,11.69,2.35,1.19.07,2.39.1,3.58.1,22.61,0,43.48-12.27,54.5-32.03,5.01-8.91,14.52-20.92,31.4-27.61,7.54-2.99,15.38-4.5,23.31-4.5,6.29,0,12.54.96,18.57,2.85,6.06,1.9,12.32,2.86,18.64,2.86,22.67,0,43.55-12.27,54.51-32.02,7.05-12.61,18.28-22.45,31.61-27.71,7.31-2.89,14.94-4.35,22.71-4.35,25.16,0,48.48,15.46,58.03,38.47.33.8.69,1.59,1.07,2.37,5.65,15.02,5.35,31.33-.9,46.17-6.54,15.53-18.77,27.52-34.42,33.75-7.49,2.97-15.33,4.48-23.25,4.48h0c-6.27,0-12.5-.95-18.51-2.83-6.1-1.94-12.43-2.92-18.82-2.92-22.43,0-43.26,12.18-54.35,31.79-.03.05-.05.09-.08.14-7.11,12.68-18,22.26-31.5,27.69-7.52,2.97-15.34,4.48-23.24,4.48-6.3,0-12.54-.96-18.57-2.85-6.13-1.91-12.41-2.87-18.73-2.87-20.01,0-38.93,9.7-50.6,25.94-1.06,1.47-2.02,3.01-2.89,4.61-1.61,2.98-3.62,6.02-6.13,9.27-.12.16-.25.32-.37.49-2.11,2.82-4.57,5.46-7.52,8.09-9.08,8.09-14.26,19.69-14.23,31.85.03,12.17,5.27,23.73,14.4,31.78,13.33,11.76,20.99,28.81,21.01,46.81-.08,17.98-7.87,35.05-21.39,46.84-9.22,8.05-14.53,19.68-14.56,31.93-.03,12.24,5.21,23.91,14.4,32,13.4,11.82,21.1,28.91,21.12,46.92-.08,17.69-7.71,34.58-20.95,46.36-8.88,7.9-14.04,19.15-14.25,31.03-.2,11.88,4.57,23.3,13.17,31.5,4.34,4.14,8.03,8.78,10.98,13.8.27.45.54.9.82,1.34,6.41,10.04,9.79,21.7,9.79,33.74-.06,34.15-28.03,61.99-62.33,61.99h-.12c-8.61,0-16.76-1.67-24.31-4.96-5.37-2.34-11.16-3.54-16.99-3.54-1.43,0-2.87.07-4.3.22-20.28,2.06-38.3,13.9-48.21,31.68-7.12,12.66-18,22.21-31.47,27.63-7.52,2.97-15.33,4.47-23.23,4.47-6.27,0-12.49-.95-18.5-2.83-6.1-1.94-12.44-2.92-18.83-2.92-22.43,0-43.26,12.18-54.35,31.79-.03.05-.05.09-.08.14-7.12,12.7-18.03,22.28-31.54,27.71-7.43,2.95-15.18,4.44-23.06,4.44Z"/>
    </g>
  </g>
</svg>