<?xml version="1.0" encoding="UTF-8"?>
<svg id="Layer_2" data-name="Layer 2" xmlns="http://www.w3.org/2000/svg" viewBox="0 0 405.12 805.22">
  <defs>
    <style>
      .cls-1 {
        fill: none;
        stroke: #000;
        stroke-miterlimit: 10;
        stroke-width: 9.5px;
      }
    </style>
  </defs>
  <g id="Layer_2-2" data-name="Layer 2">
    <g id="A">
      <path class="cls-1" d="M303.9,425.42c66.95,200.84,98.53,364.95,70.81,374.6-21.81,7.6-74.19-82.44-130.74-218.03-45.64,108.88-88.41,187.64-114.3,208.75-2.25,1.84-4.37,3.24-6.35,4.18-.06.04-.12.05-.17.08-1.65.64-3.31.97-4.99.98-.35,0-.7,0-1.05-.05-1.34-.08-2.66-.39-3.98-.89.15.09.29.18.43.25-30.28-9.42-71.92-119.43-94.5-251.54C-4.28,407.06,1.54,298.25,32.04,300.66c13.72,1.1,30.12,24.55,46.15,62.48,9.79-39.11,22.85-62.91,37.32-62.99,25.02-.13,46.63,70.86,54.63,169.4,4.53-14.43,9.27-29.12,14.22-44v-.02c-.26-.75-.54-1.51-.8-2.26C107.53,204.89,69.81,19.53,99.32,9.25c23.6-8.21,82.98,97.85,144.69,252.21C306.31,104.9,366.51-3.09,390.31,5.2c29.54,10.28-8.19,195.62-84.23,413.99-.72,2.08-1.46,4.16-2.18,6.24h0Z"/>
      <path class="cls-1" d="M119.19,737.31c-5.52-10.64-12.51-26.38-20.53-49.33-14.91-42.67-28.29-96.43-37.68-151.39-8.69-50.86-13.42-98.81-13.69-138.65-.01-1.92-.02-3.78,0-5.6,7.91,8.37,19.04,13.32,30.89,13.32,1.09,0,2.19-.04,3.29-.13,14.24-1.1,26.69-9.22,33.57-21.17,4.87,21.28,9.61,50.31,12.73,88.63,1.65,20.28,17.43,36.55,37.65,38.81,1.59.18,3.18.27,4.76.27,18.38,0,34.93-11.91,40.54-29.79,4.44-14.15,9.15-28.73,14-43.33,1.44-4.32,2.17-8.85,2.17-13.41s-.79-9.48-2.35-13.96c-.15-.44-.78-2.22-.81-2.3-31.42-90.23-57.73-179.48-74.09-251.29-.93-4.1-1.82-8.08-2.66-11.94,18.29,37.35,37.91,82.04,57.56,131.2,6.46,16.15,22.09,26.74,39.48,26.74h.03c17.4-.01,33.04-10.63,39.47-26.8,20.19-50.74,40.37-96.83,59.17-135.21-.84,3.86-1.73,7.84-2.67,11.95-16.36,71.8-42.67,161.04-74.09,251.27-.02.04-.03.09-.05.14-.42,1.22-.85,2.43-1.27,3.65l-.85,2.43c-3.1,8.88-3.17,18.54-.19,27.46,27.59,82.77,49.54,160.31,63.52,224.41-12.78-26.06-27.43-58.25-43.86-97.65-6.6-15.83-22.06-26.14-39.21-26.15h-.04c-17.13,0-32.59,10.28-39.21,26.08-38.62,92.13-67.76,145.17-85.57,171.75Z"/>
    </g>
  </g>
</svg>