<?xml version="1.0" encoding="UTF-8"?>
<svg id="Layer_2" data-name="Layer 2" xmlns="http://www.w3.org/2000/svg" viewBox="0 0 566.84 793">
  <defs>
    <style>
      .cls-1 {
        fill: none;
        stroke: #000;
        stroke-miterlimit: 10;
        stroke-width: 9.5px;
      }
    </style>
  </defs>
  <g id="Layer_2-2" data-name="Layer 2">
    <g>
      <path class="cls-1" d="M470.87,433.4c-66.33,186.47-141.62,330.92-172.98,351.64-1.34.89-4.21,3.23-5.9,3.21-29.14-.24-111.74-146-188.7-349.15C26.32,235.93-13.98,62.85,13.27,52.54c24.37-9.24,94.49,114.74,164.08,286.3.1.24.46.15.43-.11-20.51-184.3-17.88-327.01,7.98-330.49,25.98-3.5,66.56,134.87,95.55,319.46.03.17.27.17.29,0C303.29,142.14,338.38,2.31,364.49,4.78c27.29,2.58,35.04,159.92,18.79,358.68-.03.39.51.51.65.14,69.39-187.69,143.17-327.74,169.07-318.53,27.46,9.76-9.31,183.61-82.12,388.31Z"/>
      <path class="cls-1" d="M289.79,729.53c-10.43-14.46-25.88-38.76-46.88-78.8-32.46-61.91-67.92-142.42-99.85-226.71-29.54-77.97-54.96-155.3-72.23-219.58,21.82,43.79,44.92,95.57,67.72,151.87,6.62,16.36,22.43,26.57,39.4,26.57,3.46,0,6.97-.42,10.46-1.31,20.59-5.22,34.18-24.83,31.81-45.95-6.78-60.61-11.13-117.35-12.79-166.42,11.53,48.38,22.47,105.05,32.04,166.14,3.25,20.72,21.1,35.94,42,35.94.28,0,.56,0,.85,0,21.26-.42,38.94-16.47,41.4-37.59,7.16-61.42,15.85-118.46,25.47-167.24.33,57.24-2.56,124.34-8.48,195.96-1.75,21.19,12.42,40.42,33.19,45.02,3.08.68,6.17,1.01,9.21,1.01,17.47,0,33.61-10.82,39.87-27.81,25.04-67.89,50.93-130.38,75.57-182.46-15.95,64.61-39.78,142.44-67.73,220.99-29.46,82.82-63.21,163.82-95.02,228.07-20.72,41.85-35.86,67.24-46,82.31Z"/>
    </g>
  </g>
</svg>