<?xml version="1.0" encoding="UTF-8"?>
<svg id="Layer_2" data-name="Layer 2" xmlns="http://www.w3.org/2000/svg" viewBox="0 0 288.13 419.01">
  <defs>
    <style>
      .cls-1 {
        fill: none;
        stroke: #000;
        stroke-miterlimit: 10;
        stroke-width: 9.5px;
      }
    </style>
  </defs>
  <g id="Layer_2-2" data-name="Layer 2">
    <g>
      <path class="cls-1" d="M234.01,59.19c-15.21-.83-29.1,4.83-39.14,14.49-.1.09-.24,0-.2-.13,1.9-5.73,2.84-11.89,2.63-18.3-.94-27.99-24.31-50.53-52.32-50.51-28.86.02-52.24,23.42-52.24,52.3,0,6.2,1.08,12.15,3.06,17.68.21.57-.5,1.01-.92.57-9.52-9.97-22.95-16.18-37.83-16.18-29.58,0-53.42,24.56-52.25,54.41,1.06,26.97,22.98,48.97,49.94,50.13,15.51.66,29.58-5.41,39.57-15.55.08-.08.2,0,.17.1-1.14,4.28-1.75,8.79-1.75,13.44,0,23.36,15.32,43.13,36.45,49.85.08.03.08.14,0,.16-21.13,6.7-36.45,26.48-36.45,49.84s14.81,42.49,35.41,49.51c.69.24.69,1.21,0,1.45-21.19,7.23-36.25,27.67-35.37,51.5,1.01,27.13,23.11,49.25,50.24,50.27,29.81,1.12,54.31-22.72,54.31-52.26,0-22.87-14.69-42.32-35.15-49.42-.78-.27-.78-1.36,0-1.63,20.46-7.1,35.15-26.54,35.15-49.42s-15.27-43.08-36.37-49.81c-.11-.04-.11-.19,0-.22,21.1-6.74,36.37-26.49,36.37-49.82,0-3.79-.4-7.5-1.17-11.07-.02-.1.09-.17.17-.1,9.24,8.22,21.41,13.23,34.76,13.23,29.6,0,53.44-24.57,52.26-54.42-1.06-26.73-22.61-48.64-49.33-50.09ZM178.79,111.41c0,3.74,2.77,9.09,3.52,12.62.03.14-2.51-1.45-2.62-1.54-9.22-8.18-21.37-13.15-34.67-13.15-14.58,0-27.77,5.98-37.26,15.61-.08.08-.2,0-.17-.1,1.15-4.28,1.75-8.79,1.75-13.44,0-5.97-1-11.71-2.84-17.05-.24-.71.63-1.27,1.15-.74,9.49,9.7,22.72,15.86,37.36,15.71,13.74-.14,22.14-4.5,32.44-11.88.06-.04,4.09-2.87,4.07-2.8-1.78,5.25-2.74,10.89-2.74,16.75Z"/>
      <path class="cls-1" d="M145.02,371.74c-.14,0-.28,0-.42,0-4.88-.18-9.16-4.47-9.34-9.36-.19-5.07,3.18-8.51,6.61-9.68,1.08-.37,2.15-.78,3.19-1.23,1.05.46,2.12.88,3.21,1.25,3.24,1.12,6.54,4.43,6.54,9.24,0,5.39-4.39,9.78-9.78,9.78ZM145.05,271.99c-1.05-.45-2.12-.87-3.22-1.24-3.26-1.11-6.58-4.42-6.58-9.26s3.41-8.24,6.79-9.31c1.02-.32,2.01-.68,2.99-1.07.93.37,1.87.72,2.83,1.03.06.02.11.04.16.05,3.37,1.08,6.77,4.37,6.77,9.3s-3.3,8.12-6.57,9.25c-1.08.38-2.14.79-3.18,1.24ZM145.03,172.03c-.97-.39-1.97-.75-2.98-1.07-3.38-1.07-6.8-4.38-6.8-9.33,0-.86.11-1.71.33-2.53.01-.05.03-.1.04-.15.21-.79.39-1.58.55-2.37.67-.6,1.33-1.23,1.96-1.88,1.23-1.25,3.47-2.82,6.79-2.86.02,0,.09,0,.11,0,3.06,0,5.21,1.33,6.46,2.44.74.65,1.59,1.37,2.55,2.11.14,1.04.33,2.07.55,3.11.15.68.22,1.38.22,2.12,0,4.94-3.41,8.24-6.79,9.32l-.14.05c-.96.31-1.91.65-2.83,1.03ZM231.08,121.18c-3.07,0-5.23-1.34-6.49-2.47-.03-.03-.07-.06-.1-.09-.14-1.11-.33-2.21-.56-3.31,0-.04-.02-.08-.03-.12-.58-2.7-1.3-5.12-1.99-7.18.22-.67.43-1.35.61-2.03.64-.55,1.27-1.12,1.88-1.71,1.22-1.17,3.43-2.64,6.68-2.64.2,0,.41,0,.62.02,4.77.26,8.96,4.53,9.15,9.32.14,3.48-1.4,5.84-2.71,7.21-1.32,1.37-3.61,3.01-7.06,3.01ZM57.04,121.18c-.16,0-.32,0-.48,0-4.84-.21-9.09-4.47-9.28-9.32-.14-3.49,1.4-5.85,2.72-7.22,1.32-1.37,3.61-3,7.04-3s5.76,1.65,7.09,3.03c.5.52,1.01,1.03,1.54,1.53.2.68.41,1.35.64,2.03.34.99.52,2.07.52,3.2,0,.87-.1,1.69-.3,2.44-.23.86-.43,1.73-.61,2.61-.6.54-1.18,1.09-1.75,1.67-.04.04-.09.09-.13.13-1.32,1.33-3.6,2.93-6.99,2.93ZM144.49,66.82c-3.11,0-5.37-1.83-6.44-2.92-.51-.53-1.04-1.04-1.58-1.53-.21-.69-.44-1.37-.68-2.05-.36-1-.55-2.1-.55-3.26,0-5.39,4.38-9.78,9.76-9.78,5.05,0,9.62,4.4,9.78,9.41.04,1.22-.12,2.39-.48,3.48-.22.67-.43,1.35-.62,2.03-.34.25-.68.49-1.01.73-5.42,3.88-5.83,3.88-8.1,3.91-.01,0-.03,0-.04,0h-.04Z"/>
    </g>
  </g>
</svg>