<?xml version="1.0" encoding="UTF-8"?>
<svg id="Layer_2" data-name="Layer 2" xmlns="http://www.w3.org/2000/svg" viewBox="0 0 807.08 883.03">
  <defs>
    <style>
      .cls-1 {
        fill: none;
        stroke: #000;
        stroke-miterlimit: 10;
        stroke-width: 9.5px;
      }
    </style>
  </defs>
  <g id="Layer_2-2" data-name="Layer 2">
    <g>
      <path class="cls-1" d="M406.46,835.19c-26.7,11.28-126.38-134.9-223.43-327.95C85.45,313.14,27.46,145.17,53.49,132.08c23.16-11.64,104.98,103.13,191.46,265.21.34.64,1.3.28,1.15-.42-39.01-179.87-50.9-320.67-25.68-326.78,25.93-6.27,82.06,131.91,130.59,317.27.14.54.93.44.94-.11,3.49-192,25.56-339.98,52.28-339.98s48.26,144.46,52.15,333.1c.02.88,1.27,1.03,1.49.18,48.12-182,103.24-316.82,128.84-310.62,25.27,6.11,13.28,147.51-25.91,327.93-.1.45.52.68.74.27,86.69-162.68,168.83-278.02,192.04-266.34,26.04,13.09-31.96,181.05-129.54,375.16-91.01,181.03-184.31,320.86-217.58,328.24.14-.06.37-.04.41-.19"/>
      <path class="cls-1" d="M403.3,878.28c-9.03,0-19.97-2.32-32.06-9.6-8.69-5.23-17.81-12.85-27.89-23.29-16.22-16.79-35.52-41.56-57.36-73.61-43.16-63.34-93.22-150.5-140.95-245.45-48.01-95.5-88.26-188.08-113.33-260.68-12.7-36.78-21-67.06-24.67-90.01-2.31-14.43-2.87-26.37-1.7-36.5,3.23-28.11,19.58-40.29,29.05-45.05,4.93-2.48,12.8-5.35,22.78-5.35,7.86,0,17.04,1.78,27.13,6.94,8.39,4.29,17.02,10.72,26.38,19.66,14.23,13.59,31.12,33.97,50.2,60.59,2.37,3.3,4.76,6.69,7.19,10.18-.42-4.39-.81-8.69-1.15-12.89-2.68-32.7-3-59.22-.93-78.83,1.36-12.89,3.78-23.39,7.4-32.1,9.88-23.76,27.45-31.21,37.04-33.53,3.07-.74,7.09-1.39,11.78-1.39,10.21,0,23.57,3.06,37.2,14.87,7.25,6.28,14.28,14.78,21.48,25.98,11.07,17.22,23.23,41.98,36.15,73.59,2.41,5.91,4.85,12.05,7.3,18.39.91-6.96,1.86-13.7,2.84-20.2,5.11-33.85,11.11-60.84,17.83-80.23,4.37-12.61,9.2-22.54,14.77-30.36,15.28-21.47,34.42-24.67,44.47-24.67s29.03,3.17,44.29,24.42c5.57,7.75,10.4,17.59,14.76,30.07,6.68,19.13,12.66,45.75,17.77,79.14.95,6.18,1.86,12.58,2.74,19.18,2.34-6.01,4.66-11.83,6.96-17.44,12.8-31.16,24.85-55.57,35.83-72.54,7.17-11.08,14.17-19.49,21.4-25.7,13.55-11.64,26.82-14.67,36.96-14.67,4.69,0,8.72.65,11.79,1.39,9.57,2.31,27.14,9.75,37.02,33.5,3.62,8.7,6.04,19.19,7.4,32.07,2.07,19.58,1.76,46.07-.92,78.74-.34,4.17-.72,8.43-1.14,12.79,2.42-3.48,4.81-6.86,7.17-10.15,19.06-26.59,35.94-46.96,50.16-60.53,9.36-8.93,17.99-15.36,26.38-19.64,10.08-5.15,19.25-6.93,27.11-6.93,9.98,0,17.84,2.87,22.77,5.35,9.46,4.76,25.82,16.94,29.05,45.05,1.17,10.13.61,22.07-1.7,36.5-3.67,22.95-11.97,53.23-24.67,90.01-25.06,72.58-65.31,165.16-113.33,260.68-44.55,88.61-91.78,171.59-133.01,233.67-60.32,90.82-89.24,110.62-110.66,116.33-4.06,1.25-9.15,2.24-15.05,2.24ZM126.46,277.22c23.82,62.15,57.11,136.43,94.56,210.92,40.1,79.76,82.85,155.54,120.39,213.4,30.82,47.49,50.73,71.65,61.99,83.54,11.21-11.78,31.19-35.94,62.27-83.84,37.53-57.85,80.28-133.63,120.38-213.39,37.45-74.5,70.73-148.77,94.56-210.91-26.17,41.2-54.43,90.18-82.87,143.69-7.56,14.23-22.22,22.57-37.55,22.57-4.88,0-9.83-.84-14.64-2.61-19.94-7.32-31.42-28.23-26.89-48.98,12.97-59.43,23.14-115.28,29.85-163.8-17.13,48.79-34.52,106.42-50.88,168.8-4.95,18.87-22,31.73-41.09,31.73-1.68,0-3.37-.1-5.08-.3-21.08-2.52-37.07-20.2-37.47-41.42-1.21-64.8-4.55-125.21-9.75-176.9-5.33,53.03-8.7,115.14-9.83,181.75-.36,21.25-16.36,38.98-37.47,41.5-1.7.2-3.4.3-5.08.3-19.12,0-36.19-12.89-41.11-31.8-16.71-64.16-34.53-123.44-52.1-173.49,6.73,48.64,16.93,104.63,29.95,164.2,4.54,20.75-6.94,41.67-26.89,48.99-4.81,1.77-9.76,2.61-14.64,2.61-15.34,0-29.99-8.34-37.56-22.57-28.5-53.62-56.82-102.7-83.04-143.98Z"/>
    </g>
  </g>
</svg>