<?xml version="1.0" encoding="UTF-8"?>
<svg id="Layer_2" data-name="Layer 2" xmlns="http://www.w3.org/2000/svg" viewBox="0 0 729.14 930.06">
  <defs>
    <style>
      .cls-1 {
        fill: none;
        stroke: #000;
        stroke-miterlimit: 10;
        stroke-width: 9.5px;
      }
    </style>
  </defs>
  <g id="Layer_2-2" data-name="Layer 2">
    <g>
      <path class="cls-1" d="M696.18,853.34c17.71,7.62,28.3,17.37,28.21,27.99-.24,23.94-55.71,43.64-123.97,43.97-70.27.35-127.53-19.55-127.53-44.13,0-10.54,10.56-20.23,28.15-27.82,7.12-3.06,7.12-7.47,0-10.53-17.6-7.6-28.15-17.28-28.15-27.82s10.56-20.24,28.15-27.82c7.12-3.07,7.12-7.47,0-10.54-17.6-7.58-28.15-17.27-28.15-27.82,0-15.37,22.43-28.91,56.43-36.81-19.26-18.32-31.27-44.2-31.27-72.89,0-24.05,8.46-46.12,22.53-63.42,5.7-7,5.7-17.04,0-24.05-14.08-17.3-22.53-39.37-22.53-63.42s8.46-46.13,22.53-63.43c5.7-7,5.7-17.04,0-24.03-14.08-17.31-22.53-39.38-22.53-63.43,0-13.05,2.48-25.52,7.02-36.96-4.37.58-8.81.87-13.33.87-54.84,0-99.44-43.9-100.57-98.47-8.05,2.07-16.48,3.17-25.18,3.17s-17.19-1.11-25.25-3.2c-2.3,53.5-46.42,96.19-100.49,96.19-5.52,0-10.94-.44-16.22-1.3,4.55,11.37,7.05,23.74,7.1,36.65.08,24.21-8.39,46.43-22.56,63.82-5.69,6.98-5.63,17.02.03,23.99,14.09,17.31,22.53,39.39,22.53,63.43s-8.45,46.12-22.53,63.43c-5.67,6.97-5.71,17.01-.03,23.99,14.17,17.39,22.65,39.61,22.56,63.82h.01c-.1,29.58-13.17,56.31-33.82,74.71,35.26,7.81,58.82,21.6,58.97,37.19.1,10.61-10.49,20.36-28.21,27.99-7.1,3.05-7.04,7.46.06,10.52,17.6,7.58,28.15,17.27,28.15,27.82s-10.56,20.23-28.15,27.82c-7.1,3.05-7.15,7.46-.06,10.52,17.71,7.62,28.3,17.37,28.21,27.99-.23,23.94-55.71,43.64-123.96,43.97-70.28.35-127.55-19.55-127.55-44.13,0-10.54,10.55-20.23,28.16-27.82,7.11-3.06,7.11-7.47,0-10.53-17.61-7.6-28.16-17.28-28.16-27.82s10.55-20.24,28.16-27.82c7.11-3.07,7.11-7.47,0-10.54-17.61-7.58-28.16-17.27-28.16-27.82,0-15.74,23.47-29.53,58.78-37.35-20.63-18.42-33.63-45.22-33.63-75.05,0-24.05,8.45-46.12,22.53-63.43,5.69-7,5.69-17.04,0-24.04-14.09-17.31-22.53-39.39-22.53-63.43s8.45-46.12,22.53-63.43c5.69-7,5.69-17.04,0-24.04-14.09-17.3-22.53-39.37-22.53-63.43,0-56.03,45.81-101.37,102.04-100.59,4.99.07,9.9.51,14.69,1.29-4.53-11.45-7.02-23.92-7.02-36.98,0-55.56,45.04-100.61,100.61-100.61,8.72,0,17.19,1.11,25.25,3.2,2.3-53.5,46.43-96.18,100.49-96.18s99.44,43.89,100.59,98.45c8.04-2.07,16.47-3.17,25.17-3.17,55.56,0,100.6,45.04,100.6,100.61,0,13.05-2.48,25.52-7.01,36.96,4.82-.63,9.75-.93,14.76-.86,54.6.76,98.99,45.64,99.17,100.25.08,24.22-8.39,46.44-22.56,63.83-5.69,6.97-5.65,17.01.03,23.99,14.08,17.3,22.53,39.39,22.53,63.42s-8.45,46.13-22.53,63.43c-5.68,6.98-5.71,17.02-.03,23.99,14.17,17.39,22.64,39.61,22.56,63.83h.01c-.09,28.43-12.19,54.24-31.47,72.54,33.94,7.9,56.46,21.42,56.61,36.65.1,10.61-10.49,20.36-28.21,27.99-7.1,3.05-7.04,7.46.05,10.52,17.61,7.58,28.16,17.27,28.16,27.82s-10.56,20.23-28.16,27.82c-7.09,3.05-7.14,7.46-.05,10.52Z"/>
      <path class="cls-1" d="M598.58,882.79c-21.65,0-42.24-2.14-59.69-6.21,7.12-9.11,10-19.6,10-28.5,0-10.43-3.96-23.06-14.1-33.09,10.15-10.04,14.1-22.67,14.1-33.09,0-8.88-2.87-19.37-10-28.48.01,0,.03,0,.04,0,15.23-3.54,27.29-15.15,31.4-30.24,4.11-15.09-.39-31.21-11.72-41.99-11.64-11.07-18.05-26.02-18.05-42.08,0-13.49,4.49-26.14,13-36.59,18.33-22.48,18.33-55.18,0-77.72-8.5-10.44-12.99-23.09-12.99-36.58s4.49-26.15,13-36.6c18.34-22.49,18.34-55.2-.03-77.73-8.47-10.41-12.96-23.07-12.96-36.57,0-7.39,1.35-14.55,4.03-21.29,5.56-14.02,3.27-29.94-6.01-41.83-8.12-10.4-20.53-16.36-33.52-16.36-1.86,0-3.73.12-5.6.37-2.52.33-5.12.5-7.74.5-15.3,0-29.73-5.9-40.66-16.61-10.91-10.7-17.09-24.98-17.41-40.22-.27-12.99-6.46-25.14-16.82-32.99-7.47-5.67-16.51-8.64-25.7-8.64-3.54,0-7.11.44-10.61,1.35-4.71,1.21-9.62,1.83-14.57,1.83s-9.87-.62-14.59-1.84c-3.52-.91-7.09-1.36-10.65-1.36-9.02,0-17.9,2.87-25.3,8.35-10.31,7.64-16.63,19.52-17.18,32.35-1.34,31.12-26.82,55.5-58.01,55.5-3.17,0-6.33-.25-9.38-.75-2.28-.37-4.57-.55-6.85-.55-12.77,0-25.02,5.76-33.16,15.92-9.59,11.96-12,28.15-6.31,42.39,2.67,6.67,4.03,13.75,4.06,21.02.04,13.58-4.45,26.32-13,36.81-18.31,22.47-18.31,55.14,0,77.67,8.51,10.46,13,23.11,13,36.61s-4.49,26.15-12.99,36.6c-18.31,22.52-18.32,55.17-.03,77.65,8.58,10.53,13.08,23.26,13.03,36.83,0,.26,0,.51,0,.77-.27,16.09-7.38,31.49-19.58,42.36-11.92,10.62-16.88,27.02-12.86,42.47,4.03,15.45,16.36,27.34,31.95,30.79.71.16,1.41.32,2.09.48-7.08,9.09-9.94,19.54-9.95,28.4,0,10.44,3.95,23.08,14.1,33.13-10.13,10.02-14.1,22.65-14.1,33.08,0,8.87,2.85,19.33,9.94,28.44-14.85,3.44-34.6,6.16-58.08,6.27h-1.63c-21.65,0-42.25-2.14-59.7-6.2,7.13-9.12,10-19.61,10-28.5,0-10.43-3.96-23.06-14.11-33.09,10.15-10.04,14.11-22.67,14.11-33.08,0-8.88-2.87-19.36-10-28.48.64-.15,1.29-.3,1.95-.44,15.58-3.45,27.92-15.33,31.96-30.77s-.92-31.84-12.82-42.47c-12.34-11.02-19.43-26.82-19.43-43.34,0-13.49,4.49-26.15,12.99-36.6,18.31-22.51,18.31-55.19,0-77.7-8.5-10.44-12.99-23.09-12.99-36.6s4.49-26.15,12.99-36.6c18.31-22.51,18.31-55.19,0-77.7-8.5-10.44-12.99-23.09-12.99-36.6,0-32.02,26.06-58.08,58.08-58.08.28,0,.56,0,.84,0,2.82.04,5.66.29,8.44.74,2.29.37,4.58.56,6.85.56,12.75,0,24.97-5.74,33.12-15.86,9.6-11.92,12.04-28.09,6.41-42.32-2.67-6.75-4.03-13.93-4.03-21.33,0-32.03,26.06-58.09,58.09-58.09,4.96,0,9.87.62,14.6,1.84,3.51.91,7.09,1.36,10.65,1.36,9.02,0,17.91-2.87,25.3-8.35,10.32-7.64,16.63-19.52,17.18-32.35,1.34-31.11,26.82-55.48,58.01-55.48,15.3,0,29.74,5.9,40.66,16.61,10.91,10.69,17.09,24.98,17.41,40.22.27,12.99,6.47,25.14,16.83,32.99,7.47,5.66,16.51,8.63,25.69,8.63,3.55,0,7.12-.44,10.63-1.35,4.69-1.21,9.58-1.83,14.54-1.83,32.02,0,58.08,26.06,58.08,58.09,0,7.39-1.35,14.57-4.03,21.32-5.54,14.01-3.25,29.91,6.02,41.79,8.12,10.4,20.53,16.36,33.52,16.36,1.85,0,3.7-.12,5.56-.37,2.55-.34,5.17-.51,7.79-.51.28,0,.56,0,.84,0,31.45.44,57.12,26.4,57.23,57.87.04,13.6-4.45,26.33-13,36.83-18.32,22.45-18.33,55.13,0,77.68,8.51,10.45,13,23.1,13,36.59s-4.49,26.15-12.99,36.59c-18.33,22.54-18.34,55.21-.02,77.69,8.55,10.5,13.05,23.23,13.01,36.83,0,.24,0,.48,0,.72-.24,15.6-6.69,30.18-18.21,41.11-11.35,10.77-15.87,26.89-11.77,41.99s16.16,26.72,31.39,30.27l.18.04c-7.08,9.08-9.94,19.53-9.95,28.39,0,10.44,3.95,23.09,14.1,33.14-10.14,10.03-14.1,22.66-14.1,33.09,0,8.87,2.85,19.32,9.94,28.42-14.85,3.44-34.61,6.16-58.09,6.28h-1.63Z"/>
    </g>
  </g>
</svg>