<?xml version="1.0" encoding="UTF-8"?>
<svg id="Layer_2" data-name="Layer 2" xmlns="http://www.w3.org/2000/svg" viewBox="0 0 467.26 836.23">
  <defs>
    <style>
      .cls-1 {
        fill: none;
        stroke: #000;
        stroke-miterlimit: 10;
        stroke-width: 9.5px;
      }
    </style>
  </defs>
  <g id="Layer_2-2" data-name="Layer 2">
    <g>
      <path class="cls-1" d="M462.51,234.39c0,104.06-23.62,188.42-52.77,188.42s-52.77-84.36-52.77-188.42c0-55.93,6.83-106.17,17.66-140.67-34.36,10.21-83.09,16.58-137.12,16.58-65,0-122.31-9.22-156.18-23.24,17.17,64.9,28.94,197.73,28.94,351.05,0,217.26-23.62,393.38-52.77,393.38S4.75,655.36,4.75,438.1,26.44,59.53,53.89,45.65C73.1,22.22,148.02,4.75,237.52,4.75c100.73,0,182.98,22.14,188.16,49.98,21.36,24.13,36.83,95.44,36.83,179.66Z"/>
      <path class="cls-1" d="M57.52,668.99c-6.63-66.22-10.25-147.52-10.25-230.89s3.62-164.64,10.25-230.85c6.5,65.27,10.25,146.34,10.25,230.85s-3.62,164.67-10.25,230.89ZM409.75,341.52c-.22-1.01-.44-2.03-.66-3.08-6.27-29.93-9.59-65.91-9.59-104.04s3.66-77.37,10.24-107.17c.25,1.13.5,2.29.74,3.48,6.22,29.86,9.51,65.71,9.51,103.69s-3.31,74.12-9.58,104.04c-.22,1.05-.44,2.08-.66,3.08ZM237.52,67.78c-44.38,0-80.75-4.46-107.11-10.26,1-.22,2.03-.44,3.07-.66,29.93-6.27,65.9-9.58,104.04-9.58s74.11,3.32,104.04,9.59c1.06.22,2.1.45,3.11.67-29.85,6.57-67.76,10.25-107.16,10.25Z"/>
    </g>
  </g>
</svg>