<?xml version="1.0" encoding="UTF-8"?>
<svg id="Layer_2" data-name="Layer 2" xmlns="http://www.w3.org/2000/svg" viewBox="0 0 523.14 793.68">
  <defs>
    <style>
      .cls-1 {
        fill: none;
        stroke: #000;
        stroke-miterlimit: 10;
        stroke-width: 9.5px;
      }
    </style>
  </defs>
  <g id="Layer_2-2" data-name="Layer 2">
    <g>
      <path class="cls-1" d="M518.35,690.34c-.18,53.7-43.84,97.84-97.52,98.58-55.29.77-100.34-43.81-100.34-98.91,0-23.65,8.31-45.35,22.15-62.38,5.6-6.88,5.6-16.76,0-23.63-13.86-17.02-22.15-38.73-22.15-62.38s8.31-45.35,22.15-62.38c5.01-6.15,5.54-14.72,1.57-21.38-17.73,24.72-46.53,41.05-79.01,41.5-55.29.78-100.34-43.81-100.34-98.91,0-23.65,8.31-45.35,22.15-62.38,5.6-6.88,5.6-16.76,0-23.63-10.15-12.45-17.3-27.43-20.41-43.84-17.02,13.43-38.52,21.46-61.9,21.46-55.22,0-99.97-44.76-99.97-99.98s44.75-99.97,99.97-99.97c22.77,0,43.75,7.6,60.55,20.42-.26-2.92-.39-5.86-.39-8.85,0-55.11,45.05-99.69,100.34-98.92,53.69.76,97.33,44.88,97.51,98.59.08,23.8-8.25,45.65-22.19,62.76-5.59,6.87-5.54,16.73.03,23.59,13.86,17.02,22.15,38.73,22.15,62.38s-8.31,45.35-22.15,62.38c-5.06,6.22-5.56,14.94-1.44,21.62,18.5-25.61,48.77-42.2,81.71-41.74,53.68.76,97.33,44.88,97.51,98.59.08,23.8-8.25,45.65-22.19,62.76-5.6,6.87-5.54,16.73.03,23.59,13.86,17.02,22.15,38.73,22.15,62.38s-8.31,45.35-22.15,62.38c-5.57,6.86-5.62,16.72-.03,23.59,13.94,17.1,22.27,38.95,22.19,62.76h.01Z"/>
      <path class="cls-1" d="M419.43,746.41c-15.07,0-29.23-5.87-39.89-16.52s-16.52-24.82-16.52-39.88c0-13.11,4.36-25.4,12.62-35.55,18.22-22.39,18.22-54.9,0-77.3-8.25-10.14-12.61-22.43-12.61-35.54s4.36-25.4,12.62-35.55c16.15-19.85,18.21-47.97,5.12-69.96-7.34-12.33-20.39-20.12-34.72-20.73-.61-.03-1.21-.04-1.82-.04-13.66,0-26.54,6.58-34.55,17.74-10.5,14.63-27.33,23.52-45.04,23.76-.29,0-.57,0-.85,0-15.06,0-29.22-5.87-39.87-16.52s-16.52-24.82-16.52-39.88c0-13.11,4.36-25.4,12.62-35.55,18.22-22.39,18.22-54.9,0-77.3-5.89-7.23-9.9-15.84-11.62-24.92-2.77-14.61-12.96-26.71-26.89-31.91-4.83-1.81-9.88-2.69-14.88-2.69-9.42,0-18.73,3.13-26.34,9.14-10.21,8.06-22.51,12.32-35.56,12.32-31.68,0-57.45-25.78-57.45-57.46s25.77-57.45,57.45-57.45c12.7,0,24.72,4.05,34.75,11.71,7.57,5.78,16.66,8.72,25.8,8.72,7.03,0,14.08-1.74,20.5-5.27,14.75-8.12,23.32-24.18,21.85-40.96-.15-1.75-.23-3.43-.23-5.14,0-31.11,25.3-56.41,56.41-56.41.27,0,.54,0,.82,0,30.54.43,55.48,25.65,55.58,56.21.04,13.2-4.32,25.56-12.63,35.76-18.21,22.39-18.2,54.88,0,77.27,8.26,10.15,12.62,22.44,12.62,35.55s-4.36,25.4-12.62,35.55c-16.44,20.2-18.3,48.65-4.63,70.79,7.46,12.08,20.46,19.64,34.64,20.15.51.02,1.03.03,1.54.03,13.62,0,26.46-6.53,34.47-17.62,10.91-15.11,28.07-24.12,45.91-24.12.25,0,.49,0,.74,0,30.54.43,55.47,25.65,55.58,56.21.04,13.2-4.32,25.56-12.63,35.75-18.22,22.36-18.22,54.86,0,77.27,8.27,10.15,12.62,22.44,12.62,35.55s-4.36,25.4-12.62,35.55c-18.21,22.4-18.22,54.88-.04,77.25,8.34,10.23,12.71,22.59,12.66,35.77,0,.26,0,.51,0,.77-.51,30.23-25.28,55.02-55.57,55.44-.28,0-.56,0-.83,0Z"/>
    </g>
  </g>
</svg>