<?xml version="1.0" encoding="UTF-8"?>
<svg id="Layer_2" data-name="Layer 2" xmlns="http://www.w3.org/2000/svg" viewBox="0 0 946.05 469.82">
  <defs>
    <style>
      .cls-1 {
        fill: none;
        stroke: #000;
        stroke-miterlimit: 10;
        stroke-width: 9.5px;
      }
    </style>
  </defs>
  <g id="Layer_2-2" data-name="Layer 2">
    <g>
      <path class="cls-1" d="M103.33,202.6c23.81.08,45.66-8.25,62.76-22.19,6.86-5.58,16.73-5.54,23.59.04,17.02,13.84,38.73,22.15,62.37,22.15s45.35-8.3,62.37-22.15c6.86-5.58,16.73-5.63,23.59-.04,17.1,13.94,38.95,22.26,62.76,22.19,53.7-.18,97.83-43.82,98.58-97.51.77-55.28-43.81-100.33-98.91-100.33-23.65,0-45.35,8.3-62.37,22.15-6.88,5.6-16.76,5.6-23.64,0-17.02-13.84-38.73-22.15-62.37-22.15s-45.35,8.3-62.37,22.15c-6.88,5.6-16.76,5.6-23.64,0-17.02-13.84-38.73-22.15-62.37-22.15C48.57,4.75,3.99,49.8,4.76,105.08c.74,53.69,44.88,97.34,98.58,97.52h0Z"/>
      <path class="cls-1" d="M102.82,160.08c-30.27-.46-55.12-25.25-55.54-55.58-.21-15.24,5.55-29.59,16.23-40.42,10.69-10.84,24.95-16.8,40.16-16.8,13.1,0,25.4,4.36,35.55,12.62,10.87,8.85,24.6,13.73,38.65,13.73s27.78-4.88,38.67-13.75c10.13-8.24,22.42-12.6,35.53-12.6s25.4,4.36,35.54,12.62c10.87,8.85,24.6,13.73,38.65,13.73s27.78-4.88,38.67-13.75c10.13-8.24,22.42-12.6,35.53-12.6,15.21,0,29.48,5.97,40.16,16.8,10.68,10.83,16.45,25.18,16.23,40.42-.43,30.55-25.64,55.49-56.21,55.59h-.18c-13.14,0-25.44-4.37-35.58-12.63-10.86-8.85-24.57-13.73-38.6-13.73s-27.78,4.88-38.68,13.75c-10.14,8.25-22.43,12.61-35.54,12.61s-25.4-4.36-35.54-12.62c-10.89-8.86-24.62-13.74-38.67-13.74s-27.73,4.87-38.59,13.71c-10.16,8.28-22.45,12.65-35.56,12.65,0,0-.7,0-.87,0Z"/>
      <g>
        <path class="cls-1" d="M941.3,366.39c0,54.49-44.18,98.68-98.68,98.68-29.6,0-56.16-13.03-74.24-33.68-18.09,20.65-44.65,33.68-74.25,33.68s-56.17-13.04-74.25-33.69c-18.07,20.65-44.64,33.69-74.24,33.69s-56.16-13.03-74.24-33.68c-18.09,20.65-44.65,33.68-74.25,33.68-54.51,0-98.68-44.18-98.68-98.68s44.17-98.68,98.68-98.68c29.6,0,56.16,13.03,74.25,33.68,18.08-20.65,44.64-33.68,74.24-33.68s56.17,13.04,74.24,33.69c18.08-20.65,44.64-33.69,74.25-33.69s56.16,13.03,74.25,33.68c18.08-20.65,44.64-33.68,74.24-33.68,54.49,0,98.68,44.18,98.68,98.68Z"/>
        <path class="cls-1" d="M842.62,422.55c-16.18,0-31.58-6.99-42.25-19.17-8.07-9.22-19.73-14.5-31.98-14.51h0c-12.25,0-23.9,5.28-31.98,14.5-10.68,12.19-26.09,19.18-42.27,19.18s-31.58-6.99-42.26-19.19c-8.07-9.22-19.73-14.5-31.99-14.5h0c-12.26,0-23.92,5.29-31.99,14.51-10.67,12.19-26.06,19.18-42.24,19.18s-31.58-6.99-42.25-19.17c-8.07-9.22-19.73-14.5-31.98-14.51h0c-12.25,0-23.9,5.28-31.98,14.5-10.68,12.19-26.09,19.18-42.27,19.18-30.96,0-56.16-25.19-56.16-56.16s25.19-56.16,56.16-56.16c16.18,0,31.59,6.99,42.27,19.18,8.07,9.21,19.73,14.5,31.98,14.5h0c12.25,0,23.91-5.29,31.98-14.51,10.67-12.19,26.07-19.17,42.25-19.17s31.58,6.99,42.24,19.18c8.07,9.22,19.73,14.51,31.99,14.51h0c12.25,0,23.91-5.29,31.99-14.5,10.68-12.19,26.08-19.19,42.26-19.19s31.59,6.99,42.27,19.18c8.07,9.21,19.73,14.5,31.98,14.5h0c12.25,0,23.91-5.29,31.98-14.51,10.67-12.19,26.07-19.17,42.25-19.17,30.96,0,56.16,25.19,56.16,56.16s-25.19,56.16-56.16,56.16Z"/>
      </g>
    </g>
  </g>
</svg>