<?xml version="1.0" encoding="UTF-8"?>
<svg id="Layer_2" data-name="Layer 2" xmlns="http://www.w3.org/2000/svg" viewBox="0 0 247.54 218.31">
  <defs>
    <style>
      .cls-1 {
        fill: none;
        stroke: #000;
        stroke-miterlimit: 10;
        stroke-width: 9.5px;
      }
    </style>
  </defs>
  <g id="Layer_2-2" data-name="Layer 2">
    <g>
      <path class="cls-1" d="M242.78,46.37c.1,10.05-9.92,19.28-26.69,26.49-6.72,2.89-6.67,7.06.05,9.96,16.66,7.18,26.65,16.34,26.65,26.33s-9.99,19.15-26.65,26.33c-6.71,2.89-6.77,7.06-.05,9.96,16.76,7.22,26.78,16.44,26.69,26.49-.22,22.67-52.72,41.3-117.33,41.62-66.51.33-120.71-18.5-120.71-41.76,0-9.99,9.99-19.15,26.65-26.33,6.73-2.9,6.73-7.07,0-9.98-16.66-7.18-26.65-16.34-26.65-26.33s9.99-19.15,26.65-26.33c6.73-2.9,6.73-7.07,0-9.98-16.66-7.18-26.65-16.34-26.65-26.33C4.75,23.25,58.95,4.44,125.46,4.75c64.6.32,117.11,18.95,117.33,41.62Z"/>
      <path class="cls-1" d="M123.76,171.04c-21.53,0-39.22-2.19-52.68-5.04,5.59-8.36,7.89-17.59,7.89-25.53,0-9.83-3.52-21.63-12.45-31.32,8.93-9.69,12.45-21.49,12.45-31.32,0-7.94-2.3-17.16-7.89-25.52,13.48-2.85,31.18-5.04,52.73-5.04h1.45c20.83.11,38,2.27,51.16,5.08-5.56,8.34-7.85,17.54-7.85,25.47,0,9.84,3.52,21.64,12.46,31.34-8.94,9.7-12.46,21.5-12.46,31.34,0,7.92,2.29,17.12,7.85,25.47-13.16,2.8-30.33,4.97-51.16,5.07h-1.49Z"/>
    </g>
  </g>
</svg>