<?xml version="1.0" encoding="UTF-8"?>
<svg id="Layer_2" data-name="Layer 2" xmlns="http://www.w3.org/2000/svg" viewBox="0 0 391.85 776.45">
  <defs>
    <style>
      .cls-1 {
        fill: none;
        stroke: #000;
        stroke-miterlimit: 10;
        stroke-width: 9.5px;
      }
    </style>
  </defs>
  <g id="Layer_2-2" data-name="Layer 2">
    <g>
      <path class="cls-1" d="M335.68,400.05c-48.31,207.91-109.85,371.99-138.9,371.41-.06.01-.13.04-.19.05-28.39,6.6-91.26-159.6-140.42-371.21C6.99,188.67-9.84,11.78,18.54,5.18,46.93-1.42,109.8,164.79,158.96,376.4c15.79,67.96,28.25,132.36,36.93,188.66,8.7-56.37,21.17-120.84,36.98-188.9C282.04,164.54,344.91-1.66,373.3,4.94c28.39,6.59,11.54,183.49-37.62,395.1Z"/>
      <path class="cls-1" d="M195.86,704.76c-7.96-16.52-18.51-41.39-31.5-78.36-22.86-65.06-46.58-148.78-66.78-235.73-18.87-81.2-33.74-161.23-42.27-227.23,21.44,63,39.46,142.39,62.23,222.58,78.38,275.94,78.38,279.08,105.67,197.1,21.28-63.93,36.04-132.6,51.08-197.35,18.87-81.21,40.8-159.61,62.25-222.61-8.53,66-23.4,146.04-42.27,227.26-20.21,86.96-43.93,170.68-66.79,235.74-13.05,37.14-23.64,62.08-31.61,78.6Z"/>
    </g>
  </g>
</svg>