<?xml version="1.0" encoding="UTF-8"?>
<svg id="Layer_2" data-name="Layer 2" xmlns="http://www.w3.org/2000/svg" viewBox="0 0 391.91 796.53">
  <defs>
    <style>
      .cls-1 {
        fill: none;
        stroke: #000;
        stroke-miterlimit: 10;
        stroke-width: 9.5px;
      }
    </style>
  </defs>
  <g id="Layer_2-2" data-name="Layer 2">
    <g>
      <path class="cls-1" d="M335.75,420.61c-47.04,202.48-132.23,362.17-138.72,371.02-.16.21-.48.19-.61-.04-5.21-9.17-92.57-165.49-140.26-370.78C7,209.2-9.85,32.3,18.54,25.71c25.36-5.89,78.23,126.11,124.28,305.22.08.31.53.26.54-.06C147.64,145.65,169.29,4.75,195.36,4.75s48.19,143.97,52.14,332.15c0,.01.02.02.02,0C293.93,154.68,347.72,19.56,373.37,25.51c28.39,6.59,11.54,183.49-37.62,395.1Z"/>
      <path class="cls-1" d="M196.65,697.49c-29.81-64.49-71.27-166.61-99.07-286.3-18.87-81.21-33.74-161.23-42.27-227.23,15.77,46.29,31.74,100.65,46.82,159.46,4.87,18.98,21.97,31.96,41.15,31.96,1.62,0,3.24-.09,4.88-.28,21.11-2.42,37.19-20.05,37.66-41.29,1.37-60.98,4.63-117.81,9.54-166.67,5.02,49.98,8.32,108.22,9.63,170.73.45,21.26,16.54,38.93,37.67,41.35,1.64.19,3.27.28,4.88.28,19.21,0,36.33-13.02,41.17-32.03,15.38-60.41,31.73-116.25,47.89-163.69-8.53,65.99-23.4,146-42.27,227.21-27.33,117.64-68.3,221.32-97.68,286.5Z"/>
    </g>
  </g>
</svg>