<?xml version="1.0" encoding="UTF-8"?>
<svg id="Layer_2" data-name="Layer 2" xmlns="http://www.w3.org/2000/svg" viewBox="0 0 800.32 461.85">
  <defs>
    <style>
      .cls-1 {
        fill: none;
        stroke: #000;
        stroke-miterlimit: 10;
        stroke-width: 9.5px;
      }
    </style>
  </defs>
  <g id="Layer_2-2" data-name="Layer 2">
    <g>
      <path class="cls-1" d="M793.81,47.18c-1-29.11-177.7-47.54-394.81-41.18C188.4,12.19,17.12,39.43,7.71,67.64c-13.56,26.86,20.43,119.35,81.84,218.63,56.61,91.5,117.76,160.66,150.66,170.66.19.38.91,0,1.34,0,31.47-.25,155.06-49.36,307.55-162.53,152.34-113.06,261.82-223.66,244.71-247.21ZM486.21,209.65c-103.53,76.82-187.25,152.52-224.92,200.53-8.93-42.61-38.62-109.33-81.99-179.43-34.13-55.19-70.18-101.86-100.62-132.4,71.47,11.59,189.79,17.07,323.41,13.15,102.53-3.01,195.73-11.01,265.48-21.69-51.95,29.33-115.27,70.79-181.37,119.84Z"/>
      <path class="cls-1" d="M204.32,372.5c-25.41-29.01-52.59-66.57-78.6-108.6-25.39-41.04-47.2-83.22-61.42-118.78,25.38,28.54,53.32,66.72,78.85,108,29.34,47.44,49.52,88.67,62.05,120.39-.29-.33-.59-.67-.88-1ZM345.47,384.23c39.76-36.22,89.4-76.82,143.33-116.83,58.38-43.33,117.49-82.68,167.69-111.68-42.29,39.63-97.13,84.84-155.48,128.15-61.67,45.76-115.11,78.31-155.54,100.37ZM707.43,104.62c3.34-8.99,3.66-19.1.33-28.72-2.41-6.97-6.48-12.96-11.65-17.63,20.7,2.7,35.35,5.47,45.56,7.88-6.94,9-17.7,21.6-34.24,38.47ZM317.68,70.23c-54.31,0-104.62-1.62-148.05-4.7,66.02-8.57,147.24-14.58,230.62-17.03,28.05-.82,56.04-1.24,83.2-1.24,53.88,0,104.15,1.61,147.91,4.71-65.98,8.58-146.49,14.55-230.5,17.02-28.04.82-56.02,1.24-83.17,1.24Z"/>
    </g>
  </g>
</svg>