<?xml version="1.0" encoding="UTF-8"?>
<svg id="Layer_2" data-name="Layer 2" xmlns="http://www.w3.org/2000/svg" viewBox="0 0 807.06 799.34">
  <defs>
    <style>
      .cls-1 {
        fill: none;
        stroke: #000;
        stroke-miterlimit: 10;
        stroke-width: 9.5px;
      }
    </style>
  </defs>
  <g id="Layer_2-2" data-name="Layer 2">
    <g>
      <path class="cls-1" d="M406.44,751.49c-26.68,11.33-126.34-134.88-223.4-327.95C85.45,229.44,27.45,61.48,53.49,48.38c26.04-13.09,126.25,133.66,223.83,327.76,3.73,7.42,7.4,14.79,11,22.12.08.16.31.09.3-.09-4.14-65.52,3.4-108.69,22.09-107.69,15.23.82,34.8,30.8,53.58,77.86,9.68-49.02,23.97-80.03,39.92-80.03s30.98,32.6,40.64,83.79c19.79-49.73,40.47-81.66,56.26-82.38,17.64-.81,25.06,37.42,21.98,96.46-.04.73.95,1,1.28.34,1.77-3.55,3.55-7.11,5.35-10.69,97.58-194.11,197.79-340.85,223.83-327.76,26.04,13.08-31.96,181.05-129.54,375.16-91,181.01-188.36,318.43-218.36,328.52.14-.06,1.07-.4,1.2-.47"/>
      <path class="cls-1" d="M403.27,794.59c-9.03,0-19.95-2.32-32.03-9.59-8.69-5.23-17.81-12.85-27.9-23.29-16.21-16.79-35.51-41.56-57.35-73.61-43.15-63.33-93.21-150.5-140.95-245.46C97.03,347.13,56.78,254.55,31.72,181.96c-12.7-36.78-21-67.06-24.67-90.01-2.31-14.43-2.87-26.37-1.7-36.5C8.57,27.33,24.93,15.15,34.4,10.39c5.01-2.52,12.85-5.35,22.75-5.35,8.79,0,19.22,2.23,30.74,8.9,8.83,5.11,18.08,12.68,28.28,23.14,16.23,16.64,35.58,41.37,57.52,73.5,29.31,42.93,61.84,96.91,94.68,156.94.96-1.1,1.91-2.12,2.84-3.06,10.6-10.72,24.3-16.53,38.83-16.53.98,0,1.96.03,2.94.08,19.15,1.03,33.85,11.62,43.99,22.06,15.89-19.56,33.73-24.28,47.25-24.28s32.23,4.98,48.38,25.71c10.47-11.32,26.07-23.31,46.59-24.25.84-.04,1.69-.06,2.52-.06,14.54,0,28.26,5.81,38.85,16.53l.02.02c32.2-58.64,64.03-111.37,92.78-153.47,21.94-32.13,41.3-56.86,57.53-73.5,10.21-10.46,19.46-18.03,28.28-23.14,11.52-6.67,21.95-8.9,30.74-8.9,9.9,0,17.74,2.83,22.75,5.35,9.45,4.75,25.82,16.93,29.06,45.05,1.17,10.13.61,22.07-1.7,36.5-3.67,22.95-11.98,53.23-24.67,90.01-25.07,72.59-65.31,165.17-113.33,260.69-42.85,85.22-90.73,168.01-134.84,233.11-20.53,30.3-39.14,55.18-55.32,73.94-19.44,22.55-34.27,35.15-48.62,41.16l-.16.07c-1.06.45-2.25.91-3.55,1.34-.1.03-.2.07-.29.1-1.68.57-3.37,1.02-5.07,1.37-3.21.69-6.86,1.15-10.89,1.15ZM126.48,193.56c23.82,62.13,57.11,136.41,94.55,210.89,40.1,79.76,82.85,155.55,120.38,213.4,29.62,45.65,49.16,69.74,60.63,82.1,12.47-13.72,32.75-39.05,61.14-81.74,40.29-60.59,83.92-136.61,122.86-214.06,37.44-74.48,70.72-148.75,94.54-210.88-35.66,56.18-75.41,127.2-112.85,201.67-2.26,4.49-4.49,8.96-6.71,13.43-7.31,14.73-22.25,23.62-38.08,23.62-3.62,0-7.28-.46-10.91-1.43-16.94-4.49-29.1-18.78-31.27-35.65-7.74,12.19-21.26,19.72-35.87,19.72-1.36,0-2.73-.06-4.1-.2-17.56-1.69-32.11-14.01-36.84-30.74-5.74,14.85-19.46,25.48-35.73,26.99-1.32.12-2.64.18-3.95.18-13.08,0-25.29-6.03-33.26-16.05.03.47.06.94.09,1.42,1.3,20.24-11.87,38.58-31.46,43.82-3.65.97-7.34,1.44-10.97,1.44-15.88,0-30.85-8.94-38.14-23.75-3.9-7.93-7.56-15.29-11.19-22.5-37.45-74.49-77.21-145.51-112.86-201.69Z"/>
    </g>
  </g>
</svg>