<?xml version="1.0" encoding="UTF-8"?>
<svg id="Layer_2" data-name="Layer 2" xmlns="http://www.w3.org/2000/svg" viewBox="0 0 787.32 472.98">
  <defs>
    <style>
      .cls-1 {
        fill: none;
        stroke: #000;
        stroke-miterlimit: 10;
        stroke-width: 9.5px;
      }
    </style>
  </defs>
  <g id="Layer_2-2" data-name="Layer 2">
    <g>
      <path class="cls-1" d="M725.98,278.17c-47.16,120.52-104.19,204.67-127.39,187.93-12.44-8.97-12.63-45.12-2.86-95.3-34.7,36.17-63.58,54.63-77.02,46-13.68-8.78-8.52-43.73,10.69-91.57-43.33,30.97-77.8,46.54-91.45,38.64-13.32-7.72-4.09-36.2,21.35-75.19-.21.14-.44.28-.65.43-167.02,107.06-315.8,179.03-352.36,172.03-28.65,1.75-68.2-95.39-88.99-219.46C-3.83,115.74,2.35,9.74,31.09,4.92,59.83.1,100.25,98.28,121.38,224.22c11.89,70.88,15.12,135.44,10.55,179.2,49.78-50.05,149.53-126.1,269.77-203.18C563.24,96.7,707.69,26,750.09,27.79c-2.47.92-5.09,2.13-7.85,3.62,5.26-1.6,9.91-2.42,13.86-2.42.26,0,.52,0,.78.02-.14-.06-.27-.11-.43-.17,4.97-1.94,9.32-1.75,12.88.82,2.22,1.6,4.04,4.05,5.49,7.3h0c13.75,30.78-6.2,132.21-48.84,241.21Z"/>
      <path class="cls-1" d="M235.8,369.27c51.57-40.81,117.79-87.68,188.84-133.22,75.16-48.18,150.58-91.59,212.36-122.22,52.21-25.89,81.88-36.39,97.26-40.65.7.13,1.41.25,2.12.35-.61,11.16-2.57,27.7-7.55,51.36-8.61,40.9-23.69,89.83-42.45,137.79-15.23,38.93-31.8,74.68-48.3,104.3-1.28-14.18-9.66-27.12-22.77-33.92-6.2-3.22-12.91-4.78-19.56-4.78-9.04,0-17.98,2.88-25.4,8.41,4.6-16.4-1.05-34.18-14.68-44.89-7.69-6.05-16.98-9.09-26.28-9.09-8.65,0-17.31,2.63-24.72,7.93-1.03.74-2.05,1.46-3.05,2.17,1.2-12.39-3.06-25.08-12.39-34.33-8.2-8.13-19.03-12.32-29.95-12.32-8.11,0-16.26,2.31-23.42,7.04-.14.09-.26.17-.37.24-70.11,44.93-140.43,85.7-199.69,115.83ZM91.42,364.54c-12.77-36.13-24.2-82.26-32.19-129.9-7.98-47.6-12.23-94.9-11.95-133.19,12.76,36.11,24.18,82.2,32.16,129.8,8.16,48.68,12.29,95.33,11.97,133.29Z"/>
    </g>
  </g>
</svg>