<?xml version="1.0" encoding="UTF-8"?>
<svg id="Layer_2" data-name="Layer 2" xmlns="http://www.w3.org/2000/svg" viewBox="0 0 761.42 834.4">
  <defs>
    <style>
      .cls-1 {
        fill: none;
        stroke: #000;
        stroke-miterlimit: 10;
        stroke-width: 9.5px;
      }
    </style>
  </defs>
  <g id="Layer_2-2" data-name="Layer 2">
    <g>
      <path class="cls-1" d="M6.55,749.43c-.19-.97-.35-1.94-.51-2.92.16.98.32,1.95.51,2.92Z"/>
      <path class="cls-1" d="M6.55,749.43c-.19-.97-.35-1.94-.51-2.92.16.98.32,1.95.51,2.92Z"/>
      <path class="cls-1" d="M6.04,746.51c-.13-.83-.25-1.66-.37-2.49.11.83.23,1.66.37,2.49Z"/>
      <path class="cls-1" d="M6.04,746.51c-.13-.83-.25-1.66-.37-2.49.11.83.23,1.66.37,2.49Z"/>
      <path class="cls-1" d="M5.67,744.02c-.01-.07-.02-.15-.03-.22,0,.08.02.15.03.22Z"/>
      <path class="cls-1" d="M28.39,666.46c-.72.84-1.41,1.71-2.11,2.58.69-.87,1.39-1.73,2.11-2.58Z"/>
      <path class="cls-1" d="M28.39,666.46c-.72.84-1.41,1.71-2.11,2.58.69-.87,1.39-1.73,2.11-2.58Z"/>
      <path class="cls-1" d="M26.28,669.04c-16.59,20.98-24.15,48.1-20.64,74.75-.4-3-.69-6.04-.81-9.12-.99-24.87,7.2-47.77,21.45-65.63Z"/>
      <path class="cls-1" d="M26.28,669.04c-16.59,20.98-24.15,48.1-20.64,74.75-.4-3-.69-6.04-.81-9.12-.99-24.87,7.2-47.77,21.45-65.63Z"/>
      <path class="cls-1" d="M188.47,781.88c.7-1.16,1.37-2.32,2.02-3.5-.64,1.18-1.32,2.35-2.02,3.5Z"/>
      <path class="cls-1" d="M188.47,781.88c.7-1.16,1.37-2.32,2.02-3.5-.64,1.18-1.32,2.35-2.02,3.5Z"/>
      <path class="cls-1" d="M196.33,765.77c-1.65,4.36-3.6,8.57-5.84,12.61,2.07-3.78,3.89-7.68,5.45-11.67.12-.31.26-.62.39-.94Z"/>
      <path class="cls-1" d="M196.33,765.77c-1.65,4.36-3.6,8.57-5.84,12.61,2.07-3.78,3.89-7.68,5.45-11.67.12-.31.26-.62.39-.94Z"/>
      <path class="cls-1" d="M83.61,827.56c.84.17,1.67.34,2.52.5-.84-.15-1.68-.32-2.52-.5Z"/>
      <path class="cls-1" d="M83.61,827.56c.84.17,1.67.34,2.52.5-.84-.15-1.68-.32-2.52-.5Z"/>
      <path class="cls-1" d="M78.16,826.26c.49.13.98.26,1.47.38-.49-.12-.98-.25-1.47-.38Z"/>
      <path class="cls-1" d="M78.16,826.26c.49.13.98.26,1.47.38-.49-.12-.98-.25-1.47-.38Z"/>
      <path class="cls-1" d="M82.04,827.22c.52.12,1.05.23,1.57.34-.53-.11-1.05-.22-1.57-.34Z"/>
      <path class="cls-1" d="M82.04,827.22c.52.12,1.05.23,1.57.34-.53-.11-1.05-.22-1.57-.34Z"/>
      <path class="cls-1" d="M74.6,825.23c.32.1.64.2.96.3-.32-.1-.64-.2-.96-.3Z"/>
      <path class="cls-1" d="M74.6,825.23c.32.1.64.2.96.3-.32-.1-.64-.2-.96-.3Z"/>
      <path class="cls-1" d="M79.63,826.64c.8.2,1.61.39,2.41.58-.81-.18-1.61-.37-2.41-.58Z"/>
      <path class="cls-1" d="M79.63,826.64c.8.2,1.61.39,2.41.58-.81-.18-1.61-.37-2.41-.58Z"/>
      <path class="cls-1" d="M75.56,825.53c.86.26,1.73.5,2.6.73-.87-.23-1.74-.48-2.6-.73Z"/>
      <path class="cls-1" d="M75.56,825.53c.86.26,1.73.5,2.6.73-.87-.23-1.74-.48-2.6-.73Z"/>
      <path class="cls-1" d="M90.35,828.73c.14.02.29.03.43.05-.14-.02-.29-.03-.43-.05Z"/>
      <path class="cls-1" d="M90.35,828.73c.14.02.29.03.43.05-.14-.02-.29-.03-.43-.05Z"/>
      <path class="cls-1" d="M87.4,828.27c.98.16,1.96.32,2.95.46-.99-.14-1.97-.29-2.95-.46Z"/>
      <path class="cls-1" d="M87.4,828.27c.98.16,1.96.32,2.95.46-.99-.14-1.97-.29-2.95-.46Z"/>
      <path class="cls-1" d="M74.6,825.23c-25.6-7.89-48.02-26.08-60.47-52.54-2.31-4.89-4.17-9.9-5.6-14.96,9.17,32.05,34.24,57.64,66.07,67.5Z"/>
      <path class="cls-1" d="M74.6,825.23c-25.6-7.89-48.02-26.08-60.47-52.54-2.31-4.89-4.17-9.9-5.6-14.96,9.17,32.05,34.24,57.64,66.07,67.5Z"/>
      <path class="cls-1" d="M133.08,825.22c-13.94,4.34-28.37,5.42-42.3,3.56,2.51.33,5.05.57,7.61.71,12.12.65,23.81-.9,34.69-4.27Z"/>
      <path class="cls-1" d="M133.08,825.22c-13.94,4.34-28.37,5.42-42.3,3.56,2.51.33,5.05.57,7.61.71,12.12.65,23.81-.9,34.69-4.27Z"/>
      <path class="cls-1" d="M86.13,828.05c.42.08.85.14,1.27.22-.42-.07-.85-.14-1.27-.22Z"/>
      <path class="cls-1" d="M86.13,828.05c.42.08.85.14,1.27.22-.42-.07-.85-.14-1.27-.22Z"/>
      <path class="cls-1" d="M135.38,824.47c1.39-.47,2.78-.97,4.15-1.5-1.37.55-2.75,1.05-4.15,1.5Z"/>
      <path class="cls-1" d="M135.38,824.47c1.39-.47,2.78-.97,4.15-1.5-1.37.55-2.75,1.05-4.15,1.5Z"/>
      <path class="cls-1" d="M148.72,818.85c.67-.35,1.34-.69,2-1.05-.2.11-.4.21-.6.32-.46.25-.93.49-1.39.72Z"/>
      <path class="cls-1" d="M148.72,818.85c.67-.35,1.34-.69,2-1.05-.2.11-.4.21-.6.32-.46.25-.93.49-1.39.72Z"/>
      <path class="cls-1" d="M184.29,788.22c-7.57,10.64-17.36,19.9-29.13,27.04,11.44-6.97,21.35-16.18,29.13-27.04Z"/>
      <path class="cls-1" d="M184.29,788.22c-7.57,10.64-17.36,19.9-29.13,27.04,11.44-6.97,21.35-16.18,29.13-27.04Z"/>
      <path class="cls-1" d="M755.44,421.28c-4.49-26.49-19.62-51.03-43.54-66.56"/>
      <path class="cls-1" d="M635.3,340.65c44.18-10.29,91.57,10.93,112.04,54.41"/>
      <path class="cls-1" d="M635.3,340.65c-8.27,1.89-16.11-5.96-18.95-14.29-7.4-21.64-22.29-40.85-43.57-53.34-21.29-12.48-45.32-16.09-67.83-11.97-10.28,1.89-20.42-4.06-23.8-13.95-7.4-21.66-22.29-40.87-43.57-53.35-21.29-12.49-45.32-16.09-67.83-11.97-10.28,1.88-20.42-4.06-23.8-13.96-7.4-21.65-22.29-40.86-43.58-53.35-21.28-12.48-45.31-16.09-67.82-11.97-10.29,1.89-20.42-4.06-23.81-13.95-3.15-9.23-7.66-18.02-13.44-26.02C182.33,30.07,150.21,6.89,112.69,4.89,55.85,1.88,8.63,46.92,8.32,103.2c-.13,21.91,6.88,42.17,18.84,58.63,1.49,2.08,3.09,4.1,4.76,6.06,2.62,3.07,4.21,6.7,4.78,10.46.94,5.99-.71,12.3-4.94,17.14-15.04,17.25-24.2,39.76-24.34,64.43-.15,24.67,8.76,47.28,23.6,64.69,6.78,7.96,6.71,19.71-.16,27.59-15.04,17.24-24.2,39.74-24.34,64.42-.15,24.68,8.76,47.28,23.6,64.7,6.78,7.96,6.71,19.72-.16,27.59-15.04,17.25-24.2,39.76-24.34,64.43-.14,24.67,8.76,47.28,23.6,64.7,6.78,7.95,6.73,19.7-.13,27.57-.25.29-.49.57-.72.86-19.28,22.75-27.49,53.45-21.84,82.97.17.86.35,1.72.54,2.59,0,.02.01.06.02.1.14.64.29,1.28.46,1.93.09.4.19.81.3,1.22.04.22.11.46.18.68.15.57.3,1.14.47,1.72,0,.02,0,.06.02.08,11.36,39.7,47.1,69.49,89.86,71.75,12.12.65,23.81-.9,34.69-4.27,0,0,.01.01.02,0,.76-.25,1.52-.49,2.27-.75,1.39-.47,2.78-.97,4.15-1.5.72-.28,1.45-.57,2.17-.87.47-.19.95-.39,1.42-.6.47-.2.94-.41,1.4-.62,1.42-.64,2.82-1.32,4.2-2.02.67-.35,1.34-.69,2-1.05.06-.02.1-.06.14-.08.67-.36,1.33-.72,1.98-1.1.02-.01.04-.02.06-.03.59-.35,1.18-.69,1.77-1.04.16-.09.32-.19.48-.29,11.44-6.97,21.35-16.18,29.13-27.04.46-.65.91-1.29,1.36-1.95.45-.65.88-1.32,1.32-1.97.33-.51.66-1.03.98-1.55.18-.29.36-.58.52-.87.7-1.16,1.37-2.32,2.02-3.5,2.07-3.78,3.89-7.68,5.45-11.67.12-.31.26-.62.39-.94,4.09-9.14,14.14-14.23,23.99-11.98,22.32,5.08,46.48,2.51,68.28-9.04,21.8-11.55,37.5-30.1,45.82-51.42,3.8-9.73,14.19-15.24,24.39-12.92,22.31,5.08,46.47,2.51,68.27-9.04,21.8-11.55,37.5-30.1,45.82-51.42,3.81-9.73,14.19-15.24,24.39-12.92,22.31,5.08,46.47,2.51,68.27-9.04,21.81-11.55,37.5-30.1,45.82-51.42,3.26-8.33,11.33-13.58,19.98-13.45,1.45.01,2.92.18,4.38.51,23.7,5.42,49.5,2.17,72.34-11.29,35.62-21,53.59-61.74,47.35-100.96,0-.03-.01-.07-.01-.1M427.05,474.43c-3.81,9.74-14.19,15.25-24.39,12.92-22.31-5.08-46.47-2.51-68.27,9.04-21.81,11.55-37.52,30.1-45.83,51.42-3.8,9.74-14.18,15.25-24.38,12.92-19.79-4.51-41.05-2.99-60.82,5.47-1.64-21.44-10.15-40.98-23.31-56.42-6.77-7.96-6.7-19.72.17-27.59,15.04-17.25,24.19-39.76,24.34-64.43.14-24.68-8.76-47.28-23.6-64.7-6.78-7.96-6.71-19.71.16-27.59,9.92-11.38,17.29-25.06,21.19-40.13,21.26,12.45,45.26,16.05,67.75,11.93,10.28-1.88,20.42,4.07,23.8,13.96,7.39,21.65,22.29,40.87,43.57,53.35,21.28,12.48,45.32,16.09,67.83,11.97,10.28-1.88,20.42,4.06,23.8,13.96,5.51,16.12,15.16,30.88,28.52,42.52-13.95,11.07-24.29,25.46-30.51,41.41Z"/>
      <path class="cls-1" d="M103.78,787.11c-1.03,0-2.09-.03-3.13-.08-23.63-1.25-44.69-18.11-51.24-40.99,0-.01-.03-.11-.04-.15-.04-.14-.08-.28-.12-.43-.06-.22-.24-.91-.27-1.03-.08-.34-.16-.68-.25-1.02-.03-.14-.08-.36-.13-.58-.11-.49-.21-.97-.3-1.46-3.18-16.69,1.51-34.41,12.53-47.43.12-.14.51-.6.51-.6,9.91-11.47,15.41-26.12,15.48-41.3.07-15.24-5.33-30.01-15.21-41.6-8.74-10.26-13.52-23.35-13.44-36.86.07-13.52,5-26.56,13.87-36.73,10.01-11.48,15.58-26.21,15.67-41.47.09-15.25-5.31-30.04-15.19-41.64-8.76-10.28-13.53-23.37-13.46-36.88.07-13.53,4.99-26.56,13.86-36.71,10.03-11.51,15.59-26.23,15.68-41.48.09-15.25-5.31-30.03-15.18-41.63-8.76-10.28-13.54-23.37-13.46-36.88.07-13.53,5-26.56,13.87-36.73,12.36-14.15,17.8-32.95,14.92-51.55-1.79-11.68-6.79-22.61-14.48-31.6-.92-1.08-1.78-2.18-2.52-3.2-.06-.08-.12-.16-.18-.24-7.08-9.74-10.79-21.28-10.71-33.37.17-30.99,25.51-56.19,56.48-56.19,1.04,0,2.09.03,3.13.08,20.88,1.11,39.37,13.75,48.24,32.99,1.19,2.58,2.66,5.02,4.31,7.32,3.19,4.45,5.72,9.38,7.52,14.65,8.83,25.77,33.03,43.07,60.22,43.06,3.85,0,7.73-.35,11.52-1.05,3.32-.61,6.76-.92,10.17-.92,9.95,0,19.78,2.68,28.44,7.76,11.65,6.83,20.48,17.64,24.85,30.42,8.79,25.75,32.99,43.07,60.23,43.07,3.83,0,7.7-.35,11.47-1.04,3.36-.61,6.81-.93,10.22-.93,9.95,0,19.78,2.68,28.43,7.76,11.65,6.83,20.47,17.63,24.84,30.42,8.8,25.76,33,43.07,60.22,43.07,3.85,0,7.73-.36,11.53-1.05,3.31-.61,6.75-.92,10.17-.92,9.95,0,19.79,2.68,28.46,7.76,11.63,6.82,20.46,17.63,24.83,30.41,5.55,16.26,14.99,39.4,30.24,36.54,84.97-15.92,127.76,80.18,80.6,108.78-.15.09-.3.18-.45.27-8.88,5.24-18.53,7.89-28.66,7.89h0c-4.28,0-8.58-.49-12.78-1.46-4.39-1.02-8.88-1.5-13.38-1.54-.21,0-.42,0-.63,0-25.98,0-49.79,16.27-59.26,40.49-4.92,12.6-14.19,23-26.12,29.32-8.24,4.37-17.1,6.58-26.32,6.58-4.22,0-8.46-.48-12.6-1.42-4.65-1.06-9.4-1.59-14.13-1.59-26.39,0-49.67,15.88-59.3,40.46-4.92,12.62-14.2,23.03-26.14,29.36-8.24,4.36-17.09,6.58-26.32,6.58-4.22,0-8.46-.48-12.6-1.42-4.65-1.06-9.4-1.59-14.14-1.59-26.01,0-49.85,16.28-59.31,40.5-4.91,12.58-14.19,22.99-26.12,29.32-8.24,4.36-17.1,6.58-26.32,6.58-4.22,0-8.47-.48-12.61-1.42-4.64-1.05-9.38-1.59-14.12-1.59-25.07,0-47.88,14.78-58.12,37.66-.09.21-.19.43-.28.64-.31.72-.6,1.41-.87,2.09-.94,2.4-1.99,4.66-3.17,6.8-.37.67-.72,1.28-1.11,1.92-.1.17-.35.59-.35.59-.11.18-.23.38-.37.58l-.23.34c-.17.25-.33.5-.5.75-.07.09-.16.23-.22.33-.25.38-.52.74-.78,1.11-4.48,6.22-10.07,11.4-16.62,15.39-.02.01-1.61.94-1.63.96-.18.1-.35.2-.53.29h.03c-.08.03-.36.18-.43.22-.37.2-.74.39-1.12.59-.82.42-1.57.78-2.23,1.07-.05.02-.1.04-.15.07-.22.1-.45.2-.67.3-.17.07-.58.25-.58.25-.11.04-.22.09-.32.13-.39.16-.78.32-1.17.47-.05.02-.11.04-.17.07-.73.28-1.48.56-2.25.81-.39.13-.77.25-1.13.37-.06.02-.12.04-.17.05-5.39,1.67-11.02,2.51-16.74,2.51ZM202.29,242.82c-5.53,0-11.07,1.08-16.31,3.25-12.31,5.11-21.51,15.71-24.85,28.61-2.17,8.37-6.34,16.27-12.08,22.85-10.02,11.49-15.58,26.22-15.66,41.46-.09,15.25,5.31,30.03,15.19,41.63,8.76,10.28,13.54,23.37,13.46,36.88-.08,13.52-5,26.57-13.87,36.73-10.01,11.47-15.58,26.2-15.67,41.46-.09,15.24,5.29,30.02,15.15,41.62,7.81,9.16,12.4,20.25,13.31,32.12,1.05,13.68,8.62,26.01,20.35,33.12,6.74,4.09,14.38,6.16,22.05,6.16,5.68,0,11.37-1.13,16.73-3.43,7.02-3,14.44-4.53,22.04-4.53,4.22,0,8.45.48,12.58,1.42,4.64,1.06,9.41,1.6,14.17,1.6,26.01,0,49.83-16.29,59.29-40.52,4.9-12.57,14.18-22.97,26.12-29.3,8.25-4.37,17.1-6.58,26.32-6.58,4.22,0,8.46.48,12.6,1.42,4.62,1.06,9.39,1.59,14.15,1.59,26.39,0,49.67-15.89,59.29-40.48,3.64-9.32,9.63-17.47,17.35-23.59,9.89-7.85,15.78-19.7,16.07-32.33.29-12.63-5.05-24.73-14.57-33.03-7.4-6.45-13.01-14.82-16.22-24.21-8.79-25.76-33-43.08-60.23-43.08-3.83,0-7.7.35-11.47,1.04-3.35.61-6.8.93-10.21.93-9.95,0-19.79-2.68-28.45-7.76-11.65-6.83-20.47-17.63-24.83-30.4-8.8-25.77-33.01-43.09-60.24-43.09-3.83,0-7.69.35-11.47,1.04-3.38.62-6.83.93-10.24.93-9.92,0-19.72-2.67-28.35-7.73-6.61-3.87-14.04-5.83-21.49-5.83Z"/>
      <path class="cls-1" d="M31.92,167.9c2.62,3.07,4.21,6.7,4.78,10.46"/>
    </g>
  </g>
</svg>