<?xml version="1.0" encoding="UTF-8"?>
<svg id="Layer_2" data-name="Layer 2" xmlns="http://www.w3.org/2000/svg" viewBox="0 0 616.91 900.65">
  <defs>
    <style>
      .cls-1 {
        fill: none;
        stroke: #000;
        stroke-miterlimit: 10;
        stroke-width: 9.5px;
      }
    </style>
  </defs>
  <g id="Layer_2-2" data-name="Layer 2">
    <g>
      <path class="cls-1" d="M407.46,326.7c0-24.68-9.04-47.23-23.97-64.56-6.81-7.91-6.84-19.67-.02-27.57,15.87-18.41,25.09-42.72,23.89-69.21-2.31-50.72-43.37-91.87-94.09-94.27-56.87-2.69-103.82,42.62-103.82,98.89,0,24.68,9.04,47.23,23.97,64.56,6.82,7.92,6.82,19.68,0,27.6-14.93,17.33-23.97,39.88-23.97,64.56s9.04,47.23,23.97,64.56c6.82,7.92,6.82,19.68,0,27.6-14.93,17.33-23.97,39.88-23.97,64.56s9.04,47.23,23.97,64.56c6.82,7.92,6.82,19.68,0,27.6-14.93,17.33-23.97,39.88-23.97,64.56s9.04,47.23,23.97,64.56c6.81,7.91,6.84,19.67.02,27.57-15.87,18.41-25.09,42.72-23.89,69.21,2.31,50.72,43.38,91.87,94.09,94.27,56.87,2.69,103.81-42.62,103.81-98.89,0-24.68-9.04-47.23-23.97-64.56-6.82-7.92-6.82-19.68,0-27.6,14.93-17.33,23.97-39.88,23.97-64.56s-9.04-47.23-23.97-64.56c-6.82-7.92-6.82-19.68,0-27.6,14.93-17.33,23.97-39.88,23.97-64.56s-9.04-47.23-23.97-64.56c-6.82-7.92-6.82-19.68,0-27.6,14.93-17.33,23.97-39.88,23.97-64.56h0Z"/>
      <path class="cls-1" d="M308.45,853.38c-.93,0-1.87-.02-2.8-.07-28.76-1.36-52.31-24.96-53.62-53.73-.66-14.52,4.18-28.56,13.62-39.51,9.96-11.53,15.44-26.31,15.42-41.6-.02-15.22-5.5-29.96-15.42-41.48-8.82-10.24-13.68-23.31-13.68-36.82s4.85-26.58,13.67-36.81c9.95-11.56,15.43-26.31,15.43-41.56s-5.47-30-15.42-41.54c-8.82-10.24-13.68-23.31-13.68-36.82s4.85-26.58,13.67-36.81c9.95-11.56,15.43-26.31,15.43-41.56s-5.47-30-15.42-41.55c-8.82-10.24-13.68-23.31-13.68-36.82s4.85-26.58,13.67-36.81c9.95-11.56,15.43-26.31,15.43-41.56s-5.47-30-15.42-41.55c-8.82-10.24-13.68-23.31-13.68-36.82,0-31.15,25.34-56.49,56.5-56.49.93,0,1.87.02,2.8.07,28.76,1.36,52.31,24.96,53.62,53.74.66,14.52-4.18,28.55-13.62,39.5-9.96,11.53-15.44,26.31-15.42,41.6.02,15.22,5.5,29.96,15.42,41.48,8.67,10.06,13.51,22.86,13.67,36.13,0,.23,0,.46,0,.69,0,13.51-4.85,26.58-13.66,36.81-9.95,11.56-15.43,26.31-15.43,41.56s5.48,30,15.42,41.55c8.82,10.24,13.67,23.31,13.67,36.82s-4.85,26.58-13.66,36.81c-9.95,11.56-15.43,26.31-15.43,41.56s5.48,30,15.42,41.55c8.82,10.24,13.67,23.31,13.67,36.82s-4.85,26.58-13.66,36.81c-9.95,11.56-15.43,26.31-15.43,41.56s5.48,30,15.42,41.55c8.82,10.24,13.67,23.31,13.67,36.82,0,31.15-25.34,56.49-56.49,56.49Z"/>
      <path class="cls-1" d="M202.77,260.48c0-24.68-9.04-47.23-23.97-64.56-6.81-7.91-6.84-19.67-.02-27.57,15.87-18.41,25.09-42.72,23.89-69.21-2.31-50.72-43.37-91.87-94.09-94.27C51.7,2.18,4.75,47.48,4.75,103.76c0,24.68,9.04,47.23,23.97,64.56,6.82,7.92,6.82,19.68,0,27.6-14.93,17.33-23.97,39.88-23.97,64.56s9.04,47.23,23.97,64.56c6.82,7.92,6.82,19.68,0,27.6-14.93,17.33-23.97,39.88-23.97,64.56s9.04,47.23,23.97,64.56c6.82,7.92,6.82,19.68,0,27.6-14.93,17.33-23.97,39.88-23.97,64.56s9.04,47.23,23.97,64.56c6.81,7.91,6.84,19.67.02,27.57-15.87,18.41-25.09,42.72-23.89,69.21,2.31,50.72,43.38,91.87,94.09,94.27,56.87,2.69,103.81-42.62,103.81-98.89,0-24.68-9.04-47.23-23.97-64.56-6.82-7.92-6.82-19.68,0-27.6,14.93-17.33,23.97-39.88,23.97-64.56s-9.04-47.23-23.97-64.56c-6.82-7.92-6.82-19.68,0-27.6,14.93-17.33,23.97-39.88,23.97-64.56s-9.04-47.23-23.97-64.56c-6.82-7.92-6.82-19.68,0-27.6,14.93-17.33,23.97-39.88,23.97-64.56h0Z"/>
      <path class="cls-1" d="M103.75,787.16c-.93,0-1.87-.02-2.8-.07-28.76-1.36-52.31-24.96-53.62-53.73-.66-14.52,4.18-28.56,13.62-39.51,9.96-11.53,15.44-26.31,15.42-41.6-.02-15.22-5.5-29.96-15.42-41.49-8.82-10.24-13.68-23.31-13.68-36.82s4.85-26.58,13.67-36.81c9.95-11.55,15.43-26.31,15.43-41.56s-5.47-30-15.42-41.54c-8.82-10.24-13.68-23.31-13.68-36.82s4.85-26.58,13.67-36.81c9.95-11.56,15.43-26.31,15.43-41.56s-5.47-30-15.42-41.54c-8.82-10.24-13.68-23.31-13.68-36.82s4.85-26.58,13.67-36.81c9.95-11.56,15.43-26.31,15.43-41.56s-5.47-30-15.42-41.54c-8.82-10.24-13.68-23.31-13.68-36.82,0-31.15,25.34-56.49,56.5-56.49.93,0,1.87.02,2.8.07,28.76,1.36,52.31,24.96,53.62,53.73.66,14.52-4.17,28.56-13.62,39.51-9.96,11.53-15.44,26.31-15.42,41.6.02,15.22,5.5,29.95,15.42,41.48,8.67,10.06,13.51,22.86,13.67,36.13,0,.23,0,.46,0,.69,0,13.51-4.85,26.58-13.67,36.81-9.95,11.56-15.43,26.31-15.43,41.56s5.48,30,15.42,41.55c8.82,10.24,13.67,23.31,13.67,36.82s-4.85,26.58-13.67,36.81c-9.95,11.56-15.43,26.31-15.43,41.56s5.48,30,15.42,41.55c8.82,10.24,13.67,23.31,13.67,36.82s-4.85,26.58-13.66,36.81c-9.95,11.56-15.43,26.31-15.43,41.56s5.48,30,15.42,41.55c8.82,10.24,13.67,23.31,13.67,36.82,0,31.15-25.34,56.49-56.49,56.49Z"/>
      <path class="cls-1" d="M612.16,260.48c0-24.68-9.04-47.23-23.97-64.56-6.81-7.91-6.84-19.67-.02-27.57,15.87-18.41,25.09-42.72,23.89-69.21-2.31-50.72-43.37-91.87-94.09-94.27-56.87-2.69-103.82,42.62-103.82,98.89,0,24.68,9.04,47.23,23.97,64.56,6.82,7.92,6.82,19.68,0,27.6-14.93,17.33-23.97,39.88-23.97,64.56s9.04,47.23,23.97,64.56c6.82,7.92,6.82,19.68,0,27.6-14.93,17.33-23.97,39.88-23.97,64.56s9.04,47.23,23.97,64.56c6.82,7.92,6.82,19.68,0,27.6-14.93,17.33-23.97,39.88-23.97,64.56s9.04,47.23,23.97,64.56c6.81,7.91,6.84,19.67.02,27.57-15.87,18.41-25.09,42.72-23.89,69.21,2.31,50.72,43.38,91.87,94.09,94.27,56.87,2.69,103.81-42.62,103.81-98.89,0-24.68-9.04-47.23-23.97-64.56-6.82-7.92-6.82-19.68,0-27.6,14.93-17.33,23.97-39.88,23.97-64.56s-9.04-47.23-23.97-64.56c-6.82-7.92-6.82-19.68,0-27.6,14.93-17.33,23.97-39.88,23.97-64.56s-9.04-47.23-23.97-64.56c-6.82-7.92-6.82-19.68,0-27.6,14.93-17.33,23.97-39.88,23.97-64.56h0Z"/>
      <path class="cls-1" d="M513.15,787.16c-.93,0-1.87-.02-2.8-.07-28.76-1.36-52.31-24.96-53.62-53.74-.66-14.52,4.18-28.56,13.62-39.51,9.96-11.53,15.44-26.31,15.42-41.6-.02-15.22-5.5-29.96-15.42-41.48-8.82-10.24-13.68-23.31-13.68-36.82s4.85-26.58,13.67-36.81c9.95-11.55,15.43-26.31,15.43-41.56s-5.47-30-15.42-41.54c-8.82-10.24-13.67-23.31-13.67-36.82s4.85-26.58,13.67-36.81c9.95-11.56,15.43-26.31,15.43-41.56s-5.47-30-15.42-41.54c-8.82-10.24-13.67-23.31-13.67-36.82s4.85-26.58,13.66-36.81c9.95-11.56,15.43-26.31,15.43-41.56s-5.47-30-15.42-41.54c-8.82-10.24-13.67-23.31-13.67-36.82,0-31.15,25.34-56.49,56.49-56.49.93,0,1.87.02,2.8.07,28.76,1.36,52.31,24.96,53.62,53.73.66,14.52-4.18,28.56-13.62,39.51-9.96,11.53-15.44,26.31-15.42,41.6.02,15.22,5.5,29.95,15.42,41.48,8.68,10.07,13.52,22.89,13.67,36.16,0,.22,0,.44,0,.66,0,13.51-4.85,26.58-13.67,36.81-9.95,11.56-15.43,26.31-15.43,41.56s5.48,30,15.42,41.55c8.82,10.24,13.67,23.31,13.67,36.82s-4.85,26.58-13.67,36.81c-9.95,11.56-15.43,26.31-15.43,41.56s5.48,30,15.42,41.55c8.82,10.24,13.67,23.31,13.67,36.82s-4.85,26.58-13.67,36.81c-9.95,11.56-15.43,26.31-15.43,41.56s5.48,30,15.42,41.55c8.82,10.24,13.68,23.31,13.68,36.82,0,31.15-25.34,56.49-56.49,56.49Z"/>
    </g>
  </g>
</svg>