<?xml version="1.0" encoding="UTF-8"?>
<svg id="Layer_2" data-name="Layer 2" xmlns="http://www.w3.org/2000/svg" viewBox="0 0 729.13 930.06">
  <defs>
    <style>
      .cls-1 {
        fill: none;
        stroke: #000;
        stroke-miterlimit: 10;
        stroke-width: 9.5px;
      }
    </style>
  </defs>
  <g id="Layer_2-2" data-name="Layer 2">
    <g>
      <path class="cls-1" d="M696.23,842.81c17.61-7.58,28.15-17.27,28.15-27.82s-10.54-20.23-28.15-27.81c-7.1-3.06-7.15-7.47-.05-10.52,17.71-7.63,28.3-17.38,28.2-28-.15-15.24-22.65-28.74-56.58-36.64,19.27-18.3,31.36-44.1,31.45-72.55h-.01c.09-24.19-8.39-46.42-22.56-63.81-5.68-6.97-5.63-17.02.03-23.99,14.08-17.31,22.53-39.39,22.53-63.43s-8.43-46.12-22.53-63.43c-5.67-6.97-5.73-17.01-.03-23.99,14.17-17.39,22.64-39.61,22.56-63.82-.18-54.61-44.56-99.49-99.16-100.26-5.01-.07-9.94.23-14.76.86,4.77-12.09,7.28-25.32,6.98-39.18-1.16-54.16-45.77-98.05-99.94-98.39-8.92-.06-17.57,1.04-25.82,3.17-1.14-54.57-45.73-98.45-100.57-98.45s-98.19,42.69-100.49,96.19c-8.19-2.12-16.78-3.23-25.65-3.2-54.2.2-98.94,44.03-100.19,98.23-.32,13.92,2.19,27.22,7,39.36-4.8-.78-9.7-1.22-14.7-1.29-56.21-.78-102.03,44.56-102.03,100.59,0,24.06,8.43,46.12,22.52,63.43,5.7,7,5.7,17.04,0,24.04-14.07,17.31-22.52,39.39-22.52,63.43s8.43,46.12,22.52,63.43c5.7,7,5.7,17.04,0,24.04-14.07,17.3-22.52,39.39-22.52,63.43,0,29.83,12.98,56.62,33.6,75.04-35.3,7.81-58.76,21.61-58.76,37.35,0,10.56,10.54,20.23,28.15,27.82,7.11,3.06,7.11,7.47,0,10.54-17.61,7.58-28.15,17.27-28.15,27.81s10.54,20.24,28.15,27.82c7.11,3.07,7.11,7.48,0,10.54-17.61,7.58-28.15,17.27-28.15,27.82,0,24.58,57.27,44.47,127.53,44.13,68.26-.33,123.74-20.02,123.97-43.97.09-10.62-10.5-20.37-28.21-28-7.1-3.05-7.04-7.46.05-10.52,17.61-7.58,28.16-17.27,28.16-27.82s-10.56-20.23-28.16-27.81c-7.09-3.06-7.14-7.47-.05-10.52,17.72-7.63,28.31-17.38,28.21-28-.16-15.59-23.71-29.38-58.97-37.19,20.65-18.39,33.72-45.11,33.82-74.7h-.01c.08-24.21-8.39-46.43-22.56-63.82-5.68-6.97-5.65-17.01.03-23.99,11.13-13.67,18.74-30.32,21.44-48.58,0-.05.07-.06.09-.01,7.51,18.32,25.52,31.22,46.54,31.22,14.12,0,29.57-12.95,36.98-20.38.74-.74,1.98-.04,1.74.99-1.29,5.47-1.84,12.4-1.84,17.41,0,23.84,16.56,43.79,38.84,48.99.09.02.09.15,0,.17-22.26,5.18-38.84,25.14-38.84,48.97s16.33,43.51,38.34,48.87c.8.19.8,1.31,0,1.5-23.21,5.66-40.11,27.43-38.2,52.77,1.92,25.29,22.88,45.42,48.23,46.36,28.66,1.07,52.22-21.86,52.22-50.27,0-24.8-17.95-45.41-41.57-49.54-.09-.02-.09-.14,0-.15,23.62-4.13,41.57-24.74,41.57-49.55s-16.63-43.85-38.93-49c-.07-.02-.07-.11,0-.12,22.32-5.16,38.93-25.15,38.93-49.02,0-4.71-.65-9.27-1.86-13.59-.06-.22.2-.36.35-.19,1.13,1.25,2.32,2.45,3.57,3.59,8.91,8.04,20.74,12.92,33.68,12.92,19.7,0,36.77-11.33,45.01-27.84.73-1.43,2.63-4.54,3.21-6.05.56-1.45.54.82.77,2.62,2.41,19.05,10.17,36.43,21.71,50.6,5.69,7,5.69,17.04,0,24.04-14.08,17.31-22.53,39.39-22.53,63.43,0,28.67,12,54.54,31.26,72.88-34,7.89-56.43,21.43-56.43,36.81,0,10.56,10.56,20.23,28.16,27.82,7.11,3.06,7.11,7.47,0,10.54-17.61,7.58-28.16,17.27-28.16,27.81s10.56,20.24,28.16,27.82c7.11,3.07,7.11,7.48,0,10.54-17.61,7.58-28.16,17.27-28.16,27.82,0,24.58,57.28,44.47,127.55,44.13,68.25-.33,123.74-20.02,123.96-43.97.1-10.62-10.49-20.37-28.2-28-7.11-3.05-7.05-7.46.05-10.52ZM326.78,495.56c-.69.75-1.9.08-1.63-.91,1.17-4.26,1.8-8.74,1.8-13.36,0-7.1-1.32-13.73-3.97-19.86-.07-.15,17.28,16.41,29.19,19.24-9.92,2.35-18.7,7.63-25.38,14.89ZM401.96,469.8c-1.63,4.75-.18,23.25.33,26.88.02.17-.18.26-.29.13-6.73-7.51-15.67-12.98-25.8-15.37,10.89-2.59,20.4-8.71,27.26-17.1.13-.15.36-.02.3.16l-1.8,5.29ZM520.57,424.79c-8.83,10.86-15.44,23.58-19.15,37.5-.37,1.36-.7,2.74-1.01,4.13-.44,2.02-.57,6.29-1.19,4.58-6.75-19.77-27.29-39.27-49.36-39.27-13.71,0-26.12,5.48-35.19,14.35-.86.85-1.7,1.72-2.5,2.63-.36.41-1.01.03-.83-.49,2.37-6.81,3.32-14.28,2.47-22.07-2.59-23.93-22.27-42.87-46.29-44.58-29.45-2.11-54,21.16-54,50.16,0,5.09.76,10.01,2.17,14.64.8,2.65.02,3.11-1.84,1.07-9.21-10.11-22.47-16.45-37.21-16.45-22.05,0-40.79,14.2-47.59,33.94-.02.05-.08.04-.09,0-3.31-15.99-10.44-30.59-20.4-42.81-5.68-6.98-5.73-17.02-.03-23.99,14.17-17.39,22.64-39.61,22.56-63.83-.05-12.91-2.56-25.28-7.1-36.65,5.27.86,10.69,1.3,16.21,1.3,54.09,0,98.19-42.67,100.49-96.19,8.07,2.09,16.53,3.2,25.26,3.2s17.13-1.1,25.18-3.17c1.15,54.58,45.72,98.46,100.57,98.46,4.52,0,8.97-.29,13.33-.87-4.53,11.45-7.02,23.92-7.02,36.97,0,24.05,8.43,46.12,22.53,63.42,5.69,7,5.69,17.04,0,24.04Z"/>
      <path class="cls-1" d="M598.64,882.79c-21.67,0-42.29-2.15-59.76-6.21,7.12-9.1,9.99-19.58,10-28.45,0-10.44-3.95-23.08-14.1-33.13,10.16-10.05,14.11-22.69,14.1-33.12,0-8.87-2.88-19.34-9.99-28.44,0,0,.01,0,.02,0,15.23-3.53,27.29-15.14,31.41-30.23s-.38-31.21-11.71-41.99c-11.64-11.08-18.05-26.02-18.05-42.08,0-13.5,4.49-26.15,12.99-36.6,18.31-22.51,18.31-55.19,0-77.7-6.79-8.34-11.1-18.32-12.49-28.89v-.09c-.31-3.33-.9-6.45-1.75-9.38.97-2.53,1.73-5.19,2.26-7.96.31-1.62.49-3.02.62-4.1.08-.32.15-.6.21-.84.03-.11.06-.22.09-.33,2.11-7.92,5.83-15.2,11.05-21.62,18.31-22.5,18.31-55.18,0-77.69-8.51-10.44-12.99-23.09-12.99-36.59,0-7.39,1.36-14.56,4.03-21.31,5.55-14.02,3.26-29.93-6.01-41.82-8.12-10.4-20.53-16.36-33.51-16.36-1.85,0-3.72.12-5.59.37-2.53.33-5.13.5-7.75.5-15.3,0-29.74-5.9-40.66-16.6-10.91-10.7-17.09-24.98-17.41-40.23-.27-12.99-6.47-25.14-16.82-32.99-7.47-5.66-16.51-8.64-25.69-8.64-3.54,0-7.11.44-10.61,1.35-4.71,1.21-9.61,1.83-14.57,1.83s-9.88-.62-14.62-1.84c-3.51-.91-7.08-1.35-10.64-1.35-9.02,0-17.91,2.87-25.31,8.35-10.31,7.64-16.62,19.52-17.17,32.34-1.34,31.12-26.82,55.49-58.01,55.49-3.17,0-6.32-.25-9.36-.75-2.29-.37-4.58-.56-6.86-.56-12.76,0-25,5.75-33.15,15.89-9.6,11.95-12.02,28.14-6.34,42.38,2.68,6.71,4.05,13.8,4.07,21.06.04,13.59-4.45,26.32-13,36.82-18.32,22.45-18.33,55.13,0,77.68,5.84,7.17,9.9,15.68,11.75,24.62v-.02c.74,3.62,1.94,7.06,3.52,10.26-1.35,3.18-2.32,6.56-2.87,10.1-.01.09-.03.19-.04.28-1.51,10.22-5.78,19.89-12.35,27.96-18.33,22.54-18.34,55.21-.02,77.69,8.55,10.5,13.05,23.23,13.01,36.83,0,.25,0,.5,0,.74-.27,16.08-7.38,31.48-19.57,42.34-11.92,10.62-16.89,27.02-12.86,42.47,4.02,15.45,16.36,27.34,31.95,30.79.71.16,1.41.32,2.09.48-7.08,9.08-9.95,19.53-9.96,28.39-.01,10.44,3.95,23.1,14.11,33.15-10.17,10.06-14.12,22.71-14.11,33.14,0,8.85,2.87,19.28,9.94,28.36-14.85,3.44-34.61,6.16-58.1,6.28h-1.57c-21.67,0-42.29-2.14-59.76-6.21,7.12-9.1,9.99-19.58,10-28.45,0-10.43-3.95-23.08-14.1-33.13,10.16-10.05,14.11-22.69,14.1-33.12,0-8.87-2.88-19.34-9.99-28.44.63-.15,1.28-.29,1.94-.44,15.58-3.45,27.92-15.32,31.95-30.76,4.04-15.44-.91-31.83-12.81-42.46-12.34-11.02-19.41-26.82-19.41-43.33,0-13.5,4.49-26.16,12.98-36.61,18.34-22.49,18.34-55.2-.03-77.73-8.46-10.4-12.95-23.06-12.95-36.56s4.49-26.16,12.99-36.62c18.33-22.48,18.33-55.19-.04-77.72-8.46-10.4-12.95-23.06-12.95-36.56,0-32.02,26.05-58.08,58.07-58.08.28,0,.56,0,.84,0,2.83.04,5.67.29,8.45.74,2.29.37,4.58.56,6.85.56,12.75,0,24.97-5.74,33.12-15.86,9.6-11.92,12.05-28.08,6.41-42.31-2.85-7.2-4.2-14.85-4.02-22.74.72-31.13,26.66-56.56,57.84-56.68h.24c4.97,0,9.87.62,14.59,1.84,3.52.91,7.1,1.36,10.66,1.36,9.02,0,17.9-2.87,25.3-8.34,10.32-7.64,16.63-19.53,17.18-32.35,1.34-31.12,26.82-55.5,58.01-55.5,15.3,0,29.73,5.9,40.65,16.6,10.91,10.7,17.09,24.98,17.41,40.22.27,12.99,6.47,25.15,16.83,33,7.47,5.66,16.5,8.63,25.68,8.63,3.55,0,7.13-.45,10.64-1.35,4.68-1.21,9.56-1.82,14.52-1.82h.39c31.15.2,57.03,25.67,57.7,56.78.17,7.85-1.19,15.48-4.02,22.65-5.53,14.01-3.24,29.9,6.03,41.78,8.12,10.4,20.52,16.36,33.51,16.36,1.84,0,3.7-.12,5.55-.36,2.56-.34,5.19-.51,7.82-.51.28,0,.55,0,.83,0,31.43.44,57.1,26.41,57.21,57.88.04,13.59-4.45,26.32-13,36.82-18.32,22.47-18.32,55.14,0,77.67,8.51,10.46,13,23.11,13,36.61s-4.49,26.15-12.99,36.6c-18.32,22.54-18.32,55.2,0,77.68,8.56,10.5,13.05,23.23,13,36.8,0,.26,0,.52,0,.78-.25,15.6-6.7,30.16-18.2,41.08-11.34,10.77-15.86,26.89-11.76,41.99,4.1,15.09,16.16,26.71,31.39,30.26.05.01.11.03.16.04-7.08,9.08-9.94,19.53-9.95,28.39,0,10.44,3.95,23.1,14.11,33.15-10.16,10.05-14.12,22.71-14.11,33.15,0,8.85,2.87,19.29,9.94,28.36-14.85,3.44-34.61,6.16-58.09,6.28h-1.57ZM363.48,734.74c-3.74-.14-7.13-3.38-7.41-7.08-.33-4.4,2.7-7.48,5.86-8.25.54-.13,1.08-.28,1.62-.43.58.12,1.17.24,1.76.34,3.01.53,6.29,3.39,6.29,7.64s-3.49,7.79-7.78,7.79c-.11,0-.23,0-.34,0ZM363.55,635.72c-.54-.15-1.08-.29-1.62-.43-2.92-.71-5.89-3.54-5.89-7.56s3-6.87,5.95-7.56c.09-.02.17-.04.26-.06.52-.12,1.04-.26,1.56-.4.62.17,1.24.33,1.87.47,2.91.67,5.91,3.49,5.91,7.55s-3.27,7.11-6.35,7.66c-.57.1-1.14.21-1.7.33ZM363.82,537.64c-.6-.17-1.21-.32-1.82-.47h.04c-2.98-.69-5.99-3.52-5.99-7.58,0-1.05.05-2.2.14-3.32.65-.62,1.28-1.27,1.9-1.94.73-.8,2-1.85,3.86-2.29.31-.07.62-.15.92-.23,1.17.38,2.36.72,3.57,1.01,1.88.44,3.16,1.53,3.9,2.36.18.2.37.41.56.61.12.51.25,1.01.39,1.52.01.05.03.11.04.16.19.67.28,1.39.28,2.12,0,4.07-3.02,6.9-6,7.59h0c-.6.14-1.2.29-1.79.45ZM449.87,489.8c-2.45,0-4.14-1.04-5.15-1.93-.18-.17-.36-.35-.54-.55l-.08-.08c-.19-2.66-.34-5.85-.37-8.19l.29-.84c.22-.64.42-1.29.61-1.93,1-.91,2.58-1.9,4.81-2.02,2.35.75,6.65,4.58,8.77,8.66-.4.72-.82,1.49-1.23,2.31-.04.09-.09.18-.14.27-1.04,2.08-3.41,4.31-6.96,4.31ZM274.22,488.68c-2.46-.79-4.06-2.72-4.77-4.43-.38-.93-.8-1.85-1.24-2.75.38-.9.73-1.82,1.06-2.76.9-2.61,3.53-5.25,7.38-5.25,2.85,0,4.71,1.39,5.77,2.55.36.39.72.78,1.08,1.15.15.38.31.75.47,1.12.09.22.34.79.43,1.99-.29.28-.58.56-.87.85-3.49,3.5-7.02,6.14-9.3,7.52ZM365.49,440.3c-.38-.12-.76-.25-1.14-.36-1.32-.76-4.06-2.57-7.93-5.76-.02-.05-.03-.1-.05-.16-.22-.74-.33-1.5-.33-2.29,0-4.28,3.49-7.77,7.77-7.77.22,0,.44,0,.67.02,3.52.25,6.68,3.27,7.05,6.73.14,1.3.02,2.45-.36,3.55-.42,1.22-.79,2.45-1.1,3.69-1.01,1.04-2.32,1.79-3.72,2.13-.29.07-.58.14-.87.22Z"/>
    </g>
  </g>
</svg>